<?xml version="1.0" encoding="UTF-8"?>
<svg xmlns="http://www.w3.org/2000/svg" xmlns:xlink="http://www.w3.org/1999/xlink" width="25px" height="25px" viewBox="0 0 25 25" version="1.1">
<g id="surface1">
<path style=" stroke:none;fill-rule:nonzero;fill:rgb(14.901961%,40%,80.784314%);fill-opacity:1;" d="M 19.675781 8.210938 L 16.671875 12.648438 C 16.5 12.902344 16.535156 13.242188 16.757812 13.453125 L 19.996094 16.582031 C 19.996094 16.582031 16.441406 15.957031 14.101562 13.1875 C 11.761719 10.417969 19.675781 8.210938 19.675781 8.210938 Z M 19.675781 8.210938 "/>
<path style=" stroke:none;fill-rule:nonzero;fill:rgb(14.901961%,40%,80.784314%);fill-opacity:1;" d="M 8.0625 6.289062 C 8.0625 6.289062 5.75 6.644531 4.949219 6.289062 C 4.152344 5.9375 4.925781 7.625 5.6875 7.882812 Z M 8.0625 6.289062 "/>
<path style=" stroke:none;fill-rule:nonzero;fill:rgb(14.901961%,40%,80.784314%);fill-opacity:1;" d="M 7.523438 18.332031 C 7.523438 18.332031 5.925781 18.085938 5.375 18.332031 C 4.824219 18.574219 5.359375 17.40625 5.882812 17.230469 Z M 7.523438 18.332031 "/>
<path style=" stroke:none;fill-rule:nonzero;fill:rgb(26.27451%,51.764706%,92.54902%);fill-opacity:1;" d="M 14.65625 12.902344 C 15.433594 11.933594 17.808594 9.097656 19.675781 8.210938 C 19.902344 8.101562 19.960938 7.800781 19.796875 7.613281 C 18.28125 5.898438 16.015625 4.8125 13.484375 4.8125 C 9.511719 4.8125 4.46875 7.742188 3.242188 11.152344 C 2.933594 10.710938 2.398438 10.1875 1.542969 10.003906 C -0.046875 9.660156 1.972656 11.722656 1.542969 13.273438 C 1.113281 14.820312 0.425781 16.152344 1.5 15.851562 C 2.070312 15.691406 2.785156 15.046875 3.246094 14.230469 C 4.488281 17.632812 9.515625 20.554688 13.484375 20.554688 C 16.269531 20.554688 18.734375 19.234375 20.230469 17.214844 C 20.402344 16.984375 20.277344 16.652344 19.996094 16.582031 C 17.609375 16.007812 15.476562 14.222656 14.707031 13.519531 C 14.53125 13.359375 14.507812 13.085938 14.65625 12.902344 Z M 14.65625 12.902344 "/>
<path style=" stroke:none;fill-rule:nonzero;fill:rgb(14.901961%,40%,80.784314%);fill-opacity:1;" d="M 3.242188 11.152344 C 3.242188 11.152344 3.074219 11.898438 3.085938 12.683594 C 3.085938 12.683594 2.667969 10.800781 2.339844 10.3125 C 2.339844 10.3125 2.953125 10.644531 3.242188 11.152344 Z M 3.242188 11.152344 "/>
<path style=" stroke:none;fill-rule:nonzero;fill:rgb(100%,100%,100%);fill-opacity:1;" d="M 13.546875 8.953125 C 13.546875 9.246094 13.3125 9.480469 13.019531 9.480469 C 12.730469 9.480469 12.496094 9.246094 12.496094 8.953125 C 12.496094 8.664062 12.730469 8.429688 13.019531 8.429688 C 13.3125 8.429688 13.546875 8.664062 13.546875 8.953125 Z M 13.546875 8.953125 "/>
<path style=" stroke:none;fill-rule:nonzero;fill:rgb(99.607843%,80%,36.470588%);fill-opacity:1;" d="M 23.851562 12.933594 C 23.78125 12.796875 23.78125 12.636719 23.851562 12.5 L 24.078125 12.054688 C 24.128906 11.960938 24.03125 11.863281 23.9375 11.90625 C 23.710938 12.019531 23.433594 12.203125 23.203125 12.367188 C 22.875 11.902344 22.207031 11.363281 21.441406 11.363281 C 20.34375 11.363281 19.457031 12.417969 19.457031 12.871094 C 19.457031 13.324219 20.34375 14.378906 21.441406 14.378906 C 22.332031 14.378906 23.085938 13.652344 23.335938 13.160156 C 23.535156 13.296875 23.753906 13.433594 23.9375 13.527344 C 24.03125 13.570312 24.128906 13.472656 24.078125 13.378906 Z M 23.851562 12.933594 "/>
<path style=" stroke:none;fill-rule:nonzero;fill:rgb(100%,100%,100%);fill-opacity:1;" d="M 20.832031 12.476562 C 20.832031 12.558594 20.761719 12.625 20.679688 12.625 C 20.597656 12.625 20.53125 12.558594 20.53125 12.476562 C 20.53125 12.390625 20.597656 12.324219 20.679688 12.324219 C 20.761719 12.324219 20.832031 12.390625 20.832031 12.476562 Z M 20.832031 12.476562 "/>
<path style=" stroke:none;fill-rule:nonzero;fill:rgb(94.509804%,73.333333%,29.803922%);fill-opacity:1;" d="M 19.574219 13.234375 C 19.851562 13.730469 20.582031 14.378906 21.441406 14.378906 C 22.324219 14.378906 23.070312 13.667969 23.328125 13.175781 C 23.351562 12.90625 23.292969 12.757812 23.292969 12.757812 C 21.792969 15.121094 19.578125 13.234375 19.574219 13.234375 Z M 19.574219 13.234375 "/>
</g>
</svg>
