<?xml version="1.0" encoding="UTF-8"?>
<svg xmlns="http://www.w3.org/2000/svg" xmlns:xlink="http://www.w3.org/1999/xlink" width="25px" height="25px" viewBox="0 0 25 25" version="1.1">
<g id="surface1">
<path style=" stroke:none;fill-rule:nonzero;fill:rgb(0%,0%,0%);fill-opacity:1;" d="M 12.414062 8.242188 L 10.992188 8.304688 L 10.210938 10.15625 L 9.585938 11.71875 L 8.59375 11.71875 L 8.59375 13.28125 L 10.15625 13.28125 L 10.882812 12.789062 L 11.796875 10.445312 L 12.40625 11.71875 L 12.585938 11.367188 L 13.28125 10.9375 L 13.765625 10.9375 Z M 21.875 5.773438 C 20.988281 4.296875 19.46875 3.320312 17.757812 3.125 C 17.078125 3.078125 16.394531 3.152344 15.742188 3.34375 C 14.65625 3.6875 13.644531 4.230469 12.757812 4.945312 L 12.5 5.171875 L 12.40625 5.09375 C 11.949219 4.714844 11.457031 4.378906 10.9375 4.085938 C 9.832031 3.402344 8.542969 3.066406 7.242188 3.125 C 6.863281 3.152344 6.492188 3.226562 6.132812 3.34375 C 5.316406 3.628906 4.582031 4.109375 3.992188 4.742188 C 3.675781 5.0625 3.386719 5.40625 3.125 5.773438 C 0.132812 10.046875 6.171875 16.523438 9.742188 19.773438 C 10.179688 20.171875 10.578125 20.554688 10.921875 20.8125 C 11.429688 21.25 11.8125 21.554688 12 21.703125 L 12.96875 21.703125 C 14.304688 20.664062 25.78125 11.351562 21.875 5.773438 Z M 20.421875 10.9375 L 16.40625 10.9375 L 15.710938 11.367188 L 15.140625 12.5 L 14.84375 13.09375 L 13.765625 10.9375 L 12.414062 8.242188 L 10.992188 8.304688 L 10.210938 10.15625 L 9.585938 11.71875 L 8.59375 11.71875 L 8.59375 13.28125 L 10.15625 13.28125 L 10.882812 12.789062 L 11.796875 10.445312 L 12.40625 11.71875 L 13.28125 13.46875 L 14.148438 15.195312 L 15.539062 15.195312 L 16.890625 12.5 L 19.53125 12.5 C 17.550781 15.34375 15.183594 17.894531 12.5 20.085938 L 12.125 19.765625 C 11.757812 19.460938 11.34375 19.109375 10.9375 18.726562 C 9.101562 17.078125 7.441406 15.246094 5.976562 13.257812 C 5.796875 13.007812 5.625 12.765625 5.46875 12.515625 C 4.054688 10.320312 3.359375 8.164062 4.421875 6.648438 C 4.867188 5.964844 5.472656 5.402344 6.1875 5.007812 C 6.554688 4.824219 6.957031 4.714844 7.367188 4.6875 C 7.464844 4.679688 7.558594 4.679688 7.65625 4.6875 C 8.152344 4.691406 8.644531 4.785156 9.109375 4.960938 L 9.46875 5.09375 C 9.988281 5.324219 10.480469 5.605469 10.9375 5.9375 C 11.292969 6.1875 11.632812 6.464844 11.945312 6.765625 L 13.0625 6.765625 C 13.820312 6.03125 14.710938 5.441406 15.6875 5.03125 C 16.296875 4.769531 16.960938 4.652344 17.625 4.6875 C 17.707031 4.679688 17.792969 4.679688 17.875 4.6875 C 19.007812 4.929688 19.984375 5.632812 20.578125 6.625 C 21.382812 7.8125 21.179688 9.320312 20.421875 10.9375 Z M 12.414062 8.242188 L 10.992188 8.304688 L 10.210938 10.15625 L 9.585938 11.71875 L 8.59375 11.71875 L 8.59375 13.28125 L 10.15625 13.28125 L 10.882812 12.789062 L 11.796875 10.445312 L 12.40625 11.71875 L 12.585938 11.367188 L 13.28125 10.9375 L 13.765625 10.9375 Z M 12.414062 8.242188 "/>
<path style=" stroke:none;fill-rule:nonzero;fill:rgb(100%,0%,36.078431%);fill-opacity:1;" d="M 19.53125 12.5 C 17.550781 15.34375 15.183594 17.894531 12.5 20.085938 L 12.125 19.765625 C 14.527344 17.664062 16.601562 15.214844 18.273438 12.5 Z M 19.53125 12.5 "/>
<path style=" stroke:none;fill-rule:nonzero;fill:rgb(100%,0%,36.078431%);fill-opacity:1;" d="M 20.421875 10.9375 L 19.007812 10.9375 C 19.71875 9.101562 19.789062 7.296875 18.734375 5.773438 C 18.476562 5.40625 18.1875 5.058594 17.875 4.734375 C 19.007812 4.976562 19.984375 5.679688 20.578125 6.671875 C 21.382812 7.8125 21.179688 9.320312 20.421875 10.9375 Z M 20.421875 10.9375 "/>
</g>
</svg>
