<?xml version="1.0" encoding="UTF-8"?>
<svg xmlns="http://www.w3.org/2000/svg" xmlns:xlink="http://www.w3.org/1999/xlink" width="25px" height="25px" viewBox="0 0 25 25" version="1.1">
<g id="surface1">
<path style=" stroke:none;fill-rule:nonzero;fill:rgb(38.039216%,85.882353%,85.882353%);fill-opacity:1;" d="M 24.386719 5.328125 L 12.5 0.410156 L 0.613281 5.328125 L 12.5 10.246094 Z M 24.386719 5.328125 "/>
<path style=" stroke:none;fill-rule:nonzero;fill:rgb(91.764706%,49.411765%,45.098039%);fill-opacity:1;" d="M 0.613281 5.328125 L 0.613281 19.671875 L 12.5 24.589844 L 12.5 10.246094 Z M 0.613281 5.328125 "/>
<path style=" stroke:none;fill-rule:nonzero;fill:rgb(93.72549%,75.294118%,38.431373%);fill-opacity:1;" d="M 12.5 10.246094 L 12.5 24.589844 L 24.386719 19.671875 L 24.386719 5.328125 Z M 12.5 10.246094 "/>
<path style=" stroke:none;fill-rule:nonzero;fill:rgb(7.058824%,13.72549%,20%);fill-opacity:1;" d="M 24.777344 5.21875 C 24.773438 5.207031 24.769531 5.195312 24.765625 5.183594 C 24.757812 5.160156 24.746094 5.136719 24.734375 5.117188 C 24.726562 5.105469 24.71875 5.09375 24.710938 5.082031 C 24.695312 5.0625 24.679688 5.046875 24.664062 5.03125 C 24.652344 5.019531 24.640625 5.011719 24.628906 5.003906 C 24.625 5 24.617188 4.992188 24.613281 4.988281 C 24.597656 4.976562 24.582031 4.972656 24.5625 4.964844 C 24.554688 4.960938 24.550781 4.953125 24.542969 4.949219 L 12.65625 0.03125 C 12.554688 -0.0117188 12.441406 -0.0117188 12.34375 0.03125 L 0.457031 4.949219 C 0.449219 4.953125 0.441406 4.960938 0.433594 4.964844 C 0.417969 4.972656 0.402344 4.976562 0.386719 4.988281 C 0.378906 4.992188 0.375 4.996094 0.367188 5.003906 C 0.355469 5.011719 0.347656 5.019531 0.335938 5.03125 C 0.320312 5.046875 0.304688 5.0625 0.289062 5.082031 C 0.28125 5.09375 0.273438 5.105469 0.265625 5.117188 C 0.253906 5.136719 0.242188 5.160156 0.234375 5.183594 C 0.230469 5.195312 0.222656 5.203125 0.222656 5.214844 C 0.210938 5.253906 0.203125 5.289062 0.203125 5.328125 L 0.203125 19.671875 C 0.203125 19.839844 0.304688 19.988281 0.457031 20.050781 L 12.34375 24.96875 C 12.347656 24.972656 12.355469 24.96875 12.359375 24.972656 C 12.40625 24.988281 12.453125 25 12.5 25 C 12.546875 25 12.59375 24.988281 12.640625 24.972656 C 12.644531 24.96875 12.652344 24.972656 12.65625 24.96875 L 24.542969 20.050781 C 24.695312 19.988281 24.796875 19.839844 24.796875 19.671875 L 24.796875 5.328125 C 24.796875 5.289062 24.789062 5.253906 24.777344 5.21875 Z M 12.5 0.851562 L 23.3125 5.328125 L 12.5 9.800781 L 1.6875 5.328125 Z M 1.023438 5.941406 L 12.089844 10.519531 L 12.089844 23.976562 L 1.023438 19.398438 Z M 23.976562 19.398438 L 12.910156 23.976562 L 12.910156 10.519531 L 23.976562 5.941406 Z M 23.976562 19.398438 "/>
</g>
</svg>
