<?xml version="1.0" encoding="UTF-8"?>
<svg xmlns="http://www.w3.org/2000/svg" xmlns:xlink="http://www.w3.org/1999/xlink" width="25px" height="25px" viewBox="0 0 25 25" version="1.1">
<g id="surface1">
<path style=" stroke:none;fill-rule:nonzero;fill:rgb(100%,96.862745%,76.470588%);fill-opacity:1;" d="M 4.664062 15.09375 L 12.503906 21.171875 L 6.546875 21.171875 C 5.507812 21.171875 4.664062 20.328125 4.664062 19.289062 Z M 4.664062 15.09375 "/>
<path style=" stroke:none;fill-rule:nonzero;fill:rgb(100%,83.921569%,77.647059%);fill-opacity:1;" d="M 22.011719 8.257812 L 9.644531 17.703125 L 9.570312 17.757812 L 4.664062 13.960938 L 4.664062 9.917969 C 4.664062 8.875 5.507812 8.03125 6.546875 8.03125 L 21.113281 8.03125 C 21.441406 8.03125 21.75 8.117188 22.011719 8.257812 Z M 22.011719 8.257812 "/>
<path style=" stroke:none;fill-rule:nonzero;fill:rgb(92.156863%,94.901961%,100%);fill-opacity:1;" d="M 23.007812 9.917969 L 23.007812 19.28125 C 23.007812 20.320312 22.164062 21.167969 21.125 21.167969 L 13.96875 21.167969 L 10.304688 18.328125 L 22.6875 8.871094 C 22.890625 9.171875 23.007812 9.53125 23.007812 9.917969 Z M 23.007812 9.917969 "/>
<path style="fill:none;stroke-width:12;stroke-linecap:butt;stroke-linejoin:miter;stroke:rgb(0%,0%,0%);stroke-opacity:1;stroke-miterlimit:10;" d="M 418.8 436.8 L 110.8 436.8 C 89.6 436.8 72.48 419.6 72.48 398.48 L 72.48 214.24 C 72.48 184.96 96.24 161.28 125.44 161.28 L 404.24 161.28 C 433.44 161.28 457.12 184.96 457.12 214.24 L 457.12 398.48 C 457.2 419.68 440 436.8 418.8 436.8 Z M 418.8 436.8 " transform="matrix(0.0488281,0,0,0.0488281,0,0)"/>
<path style=" stroke:none;fill-rule:nonzero;fill:rgb(100%,100%,100%);fill-opacity:1;" d="M 6.691406 12.253906 L 10.988281 10.0625 L 12.003906 12.054688 L 7.707031 14.246094 Z M 6.691406 12.253906 "/>
<path style="fill:none;stroke-width:12;stroke-linecap:butt;stroke-linejoin:miter;stroke:rgb(0%,0%,0%);stroke-opacity:1;stroke-miterlimit:10;" d="M 120.994898 236.706681 L 219.774064 236.70149 L 219.769344 282.495469 L 120.990179 282.50066 Z M 120.994898 236.706681 " transform="matrix(0.043501,-0.0221826,0.0221826,0.043501,-4.850107,5.164355)"/>
<path style=" stroke:none;fill-rule:nonzero;fill:rgb(100%,100%,100%);fill-opacity:1;" d="M 17.777344 17.9375 C 17.777344 18.890625 17.007812 19.664062 16.054688 19.664062 C 15.101562 19.664062 14.332031 18.890625 14.332031 17.9375 C 14.332031 16.988281 15.101562 16.214844 16.054688 16.214844 C 17.007812 16.214844 17.777344 16.988281 17.777344 17.9375 Z M 17.777344 17.9375 "/>
<path style="fill:none;stroke-width:12;stroke-linecap:butt;stroke-linejoin:miter;stroke:rgb(0%,0%,0%);stroke-opacity:1;stroke-miterlimit:10;" d="M 341.12 368.8 C 341.12 388.32 325.28 404.08 305.76 404.08 C 286.32 404.08 270.48 388.32 270.48 368.8 C 270.48 349.28 286.32 333.52 305.76 333.52 C 325.28 333.52 341.12 349.28 341.12 368.8 Z M 341.12 368.8 " transform="matrix(0.0488281,0,0,0.0488281,0,0)"/>
<path style=" stroke:none;fill-rule:nonzero;fill:rgb(100%,100%,100%);fill-opacity:1;" d="M 16.722656 11.820312 L 19.085938 11.820312 L 19.085938 14.183594 L 16.722656 14.183594 Z M 16.722656 11.820312 "/>
<path style="fill:none;stroke-width:12;stroke-linecap:butt;stroke-linejoin:miter;stroke:rgb(0%,0%,0%);stroke-opacity:1;stroke-miterlimit:10;" d="M 328.8 242.08 L 377.2 242.08 L 377.2 290.48 L 328.8 290.48 Z M 328.8 242.08 " transform="matrix(0.0488281,0,0,0.0488281,0,0)"/>
<path style="fill:none;stroke-width:12;stroke-linecap:butt;stroke-linejoin:miter;stroke:rgb(0%,0%,0%);stroke-opacity:1;stroke-miterlimit:10;" d="M 216.4 161.2 L 216.4 138.32 C 216.4 123.28 228.48 111.2 243.52 111.2 L 289.12 111.2 C 304.08 111.2 316.24 123.28 316.24 138.32 L 316.24 161.2 " transform="matrix(0.0488281,0,0,0.0488281,0,0)"/>
<path style="fill:none;stroke-width:12;stroke-linecap:butt;stroke-linejoin:miter;stroke:rgb(0%,0%,0%);stroke-opacity:1;stroke-miterlimit:10;" d="M 39.28 436.8 L 27.84 436.8 " transform="matrix(0.0488281,0,0,0.0488281,0,0)"/>
<path style="fill:none;stroke-width:12;stroke-linecap:butt;stroke-linejoin:miter;stroke:rgb(0%,0%,0%);stroke-opacity:1;stroke-miterlimit:10;" d="M 125.44 436.8 L 58.4 436.8 " transform="matrix(0.0488281,0,0,0.0488281,0,0)"/>
</g>
</svg>
