<?xml version="1.0" encoding="UTF-8"?>
<svg xmlns="http://www.w3.org/2000/svg" xmlns:xlink="http://www.w3.org/1999/xlink" width="35px" height="35px" viewBox="0 0 35 35" version="1.1">
<g id="surface1">
<path style=" stroke:none;fill-rule:nonzero;fill:rgb(13.72549%,12.156863%,12.54902%);fill-opacity:1;" d="M 6.324219 28.535156 L 9.324219 28.535156 C 9.710938 28.535156 10.027344 28.222656 10.027344 27.835938 L 10.027344 22.714844 C 10.027344 22.328125 9.710938 22.015625 9.324219 22.015625 L 6.324219 22.015625 C 5.941406 22.015625 5.625 22.328125 5.625 22.714844 L 5.625 27.835938 C 5.625 28.21875 5.941406 28.535156 6.324219 28.535156 Z M 7.027344 23.414062 L 8.625 23.414062 L 8.625 27.132812 L 7.027344 27.132812 Z M 7.027344 23.414062 "/>
<path style=" stroke:none;fill-rule:nonzero;fill:rgb(13.72549%,12.156863%,12.54902%);fill-opacity:1;" d="M 15.324219 28.535156 C 15.710938 28.535156 16.027344 28.222656 16.027344 27.835938 L 16.027344 13.386719 C 16.027344 13 15.710938 12.6875 15.324219 12.6875 L 12.324219 12.6875 C 11.9375 12.6875 11.625 13 11.625 13.386719 L 11.625 27.835938 C 11.625 28.222656 11.9375 28.535156 12.324219 28.535156 Z M 13.027344 14.085938 L 14.625 14.085938 L 14.625 27.132812 L 13.027344 27.132812 Z M 13.027344 14.085938 "/>
<path style=" stroke:none;fill-rule:nonzero;fill:rgb(13.72549%,12.156863%,12.54902%);fill-opacity:1;" d="M 21.324219 28.535156 C 21.710938 28.535156 22.027344 28.222656 22.027344 27.835938 L 22.027344 18.171875 C 22.027344 17.785156 21.710938 17.472656 21.324219 17.472656 L 18.324219 17.472656 C 17.941406 17.472656 17.625 17.785156 17.625 18.171875 L 17.625 27.835938 C 17.625 28.222656 17.941406 28.535156 18.324219 28.535156 Z M 19.027344 18.871094 L 20.625 18.871094 L 20.625 27.132812 L 19.027344 27.132812 Z M 19.027344 18.871094 "/>
<path style=" stroke:none;fill-rule:nonzero;fill:rgb(13.72549%,12.156863%,12.54902%);fill-opacity:1;" d="M 23.625 6.835938 L 23.625 27.835938 C 23.625 28.222656 23.9375 28.535156 24.324219 28.535156 L 27.324219 28.535156 C 27.710938 28.535156 28.027344 28.222656 28.027344 27.835938 L 28.027344 6.835938 C 28.027344 6.445312 27.710938 6.132812 27.324219 6.132812 L 24.324219 6.132812 C 23.9375 6.132812 23.625 6.445312 23.625 6.835938 Z M 25.027344 7.535156 L 26.625 7.535156 L 26.625 27.132812 L 25.027344 27.132812 Z M 25.027344 7.535156 "/>
</g>
</svg>
