<?xml version="1.0" encoding="UTF-8"?>
<svg xmlns="http://www.w3.org/2000/svg" xmlns:xlink="http://www.w3.org/1999/xlink" width="25px" height="25px" viewBox="0 0 25 25" version="1.1">
<g id="surface1">
<path style=" stroke:none;fill-rule:nonzero;fill:rgb(12.941176%,45.882353%,66.666667%);fill-opacity:1;" d="M 14.453125 12.5 C 14.453125 13.578125 13.578125 14.453125 12.5 14.453125 C 11.421875 14.453125 10.546875 13.578125 10.546875 12.5 C 10.546875 11.421875 11.421875 10.546875 12.5 10.546875 C 13.578125 10.546875 14.453125 11.421875 14.453125 12.5 Z M 14.453125 12.5 "/>
<path style=" stroke:none;fill-rule:nonzero;fill:rgb(30.196078%,56.862745%,73.333333%);fill-opacity:1;" d="M 11.589844 13.316406 C 10.824219 12.695312 11.15625 11.363281 12.109375 11.167969 C 11.539062 11.726562 11.335938 12.558594 11.589844 13.316406 Z M 11.589844 13.316406 "/>
<path style=" stroke:none;fill-rule:nonzero;fill:rgb(30.196078%,56.862745%,73.333333%);fill-opacity:1;" d="M 10.65625 12.609375 C 10.65625 11.832031 11.117188 11.132812 11.824219 10.820312 C 12.535156 10.511719 13.363281 10.648438 13.929688 11.175781 C 13.453125 10.625 12.707031 10.390625 11.996094 10.5625 C 11.289062 10.734375 10.734375 11.289062 10.5625 11.996094 C 10.390625 12.707031 10.625 13.453125 11.175781 13.929688 C 10.839844 13.570312 10.65625 13.097656 10.65625 12.609375 Z M 10.65625 12.609375 "/>
<path style=" stroke:none;fill-rule:nonzero;fill:rgb(11.372549%,40%,58.039216%);fill-opacity:1;" d="M 13.765625 11.015625 C 14.410156 11.789062 14.359375 12.929688 13.644531 13.644531 C 12.933594 14.359375 11.789062 14.414062 11.015625 13.765625 C 11.488281 14.332031 12.242188 14.585938 12.960938 14.414062 C 13.683594 14.242188 14.242188 13.683594 14.414062 12.960938 C 14.582031 12.242188 14.332031 11.488281 13.765625 11.015625 Z M 13.765625 11.015625 "/>
<path style=" stroke:none;fill-rule:nonzero;fill:rgb(100%,76.078431%,9.803922%);fill-opacity:1;" d="M 12.5 22.265625 C 7.847656 22.265625 7.84375 2.734375 12.5 2.734375 C 12.714844 2.734375 12.890625 2.910156 12.890625 3.125 C 12.890625 3.339844 12.714844 3.515625 12.5 3.515625 C 11.207031 3.515625 9.765625 7.203125 9.765625 12.5 C 9.765625 17.796875 11.207031 21.484375 12.5 21.484375 C 12.714844 21.484375 12.890625 21.660156 12.890625 21.875 C 12.890625 22.089844 12.714844 22.265625 12.5 22.265625 Z M 12.5 22.265625 "/>
<path style=" stroke:none;fill-rule:nonzero;fill:rgb(100%,85.490196%,45.882353%);fill-opacity:1;" d="M 6.234375 18.3125 C 4.257812 18.3125 3.644531 17.164062 4.1875 16.847656 C 4.371094 16.738281 4.609375 16.804688 4.71875 16.992188 C 5.367188 18.109375 9.28125 17.515625 13.867188 14.867188 C 18.453125 12.21875 20.929688 9.125 20.28125 8.007812 C 20.183594 7.824219 20.25 7.59375 20.433594 7.488281 C 20.613281 7.382812 20.84375 7.441406 20.957031 7.617188 C 22.816406 10.835938 11.828125 18.3125 6.234375 18.3125 Z M 6.234375 18.3125 "/>
<path style=" stroke:none;fill-rule:nonzero;fill:rgb(100%,80.784314%,27.843137%);fill-opacity:1;" d="M 20.28125 16.992188 C 20.929688 15.875 18.453125 12.78125 13.867188 10.132812 C 9.28125 7.484375 5.367188 6.890625 4.71875 8.007812 C 4.605469 8.183594 4.375 8.242188 4.195312 8.136719 C 4.011719 8.03125 3.945312 7.800781 4.042969 7.617188 C 6.367188 3.585938 23.285156 13.351562 20.957031 17.382812 C 20.84375 17.558594 20.613281 17.617188 20.433594 17.511719 C 20.25 17.40625 20.183594 17.175781 20.28125 16.992188 Z M 20.28125 16.992188 "/>
<path style=" stroke:none;fill-rule:nonzero;fill:rgb(96.470588%,58.823529%,32.156863%);fill-opacity:1;" d="M 21.007812 15.757812 C 20.78125 15.164062 20.453125 14.609375 20.046875 14.117188 C 19.839844 14.304688 19.726562 14.566406 19.726562 14.84375 C 19.726562 14.910156 19.734375 14.976562 19.746094 15.039062 C 19.867188 15.21875 19.980469 15.402344 20.082031 15.59375 C 20.339844 15.808594 20.691406 15.871094 21.007812 15.757812 Z M 21.007812 15.757812 "/>
<path style=" stroke:none;fill-rule:nonzero;fill:rgb(100%,80.784314%,27.843137%);fill-opacity:1;" d="M 4.042969 7.617188 C 4.15625 7.441406 4.386719 7.382812 4.566406 7.488281 C 4.75 7.59375 4.816406 7.824219 4.71875 8.007812 C 4.070312 9.125 6.546875 12.21875 11.132812 14.867188 C 15.71875 17.511719 19.632812 18.109375 20.28125 16.992188 C 20.394531 16.816406 20.625 16.757812 20.804688 16.863281 C 20.988281 16.96875 21.054688 17.199219 20.957031 17.382812 C 18.648438 21.382812 1.707031 11.664062 4.042969 7.617188 Z M 4.042969 7.617188 "/>
<path style=" stroke:none;fill-rule:nonzero;fill:rgb(100%,76.078431%,9.803922%);fill-opacity:1;" d="M 12.5 22.265625 C 12.285156 22.265625 12.109375 22.089844 12.109375 21.875 C 12.109375 21.660156 12.285156 21.484375 12.5 21.484375 C 13.792969 21.484375 15.234375 17.796875 15.234375 12.5 C 15.234375 7.203125 13.792969 3.515625 12.5 3.515625 C 12.285156 3.515625 12.109375 3.339844 12.109375 3.125 C 12.109375 2.910156 12.285156 2.734375 12.5 2.734375 C 17.152344 2.734375 17.15625 22.265625 12.5 22.265625 Z M 12.5 22.265625 "/>
<path style=" stroke:none;fill-rule:nonzero;fill:rgb(95.686275%,48.627451%,15.294118%);fill-opacity:1;" d="M 14.0625 5.25 C 14.148438 5.445312 14.230469 5.667969 14.308594 5.898438 C 14.539062 6.164062 14.890625 6.285156 15.234375 6.210938 C 15.0625 5.59375 14.832031 4.996094 14.546875 4.421875 C 14.25 4.59375 14.066406 4.910156 14.0625 5.25 Z M 14.0625 5.25 "/>
<path style=" stroke:none;fill-rule:nonzero;fill:rgb(100%,85.490196%,45.882353%);fill-opacity:1;" d="M 4.042969 17.382812 C 1.714844 13.351562 18.628906 3.585938 20.957031 7.617188 C 21.054688 7.800781 20.988281 8.03125 20.804688 8.136719 C 20.625 8.242188 20.394531 8.183594 20.28125 8.007812 C 19.632812 6.886719 15.71875 7.484375 11.132812 10.132812 C 6.546875 12.78125 4.070312 15.875 4.71875 16.992188 C 4.816406 17.175781 4.75 17.40625 4.566406 17.511719 C 4.386719 17.617188 4.15625 17.558594 4.042969 17.382812 Z M 4.042969 17.382812 "/>
<path style=" stroke:none;fill-rule:nonzero;fill:rgb(98.823529%,64.705882%,40%);fill-opacity:1;" d="M 5.160156 14.257812 C 5.035156 14.257812 4.910156 14.28125 4.796875 14.328125 C 4.566406 14.632812 4.363281 14.953125 4.191406 15.292969 C 4.214844 15.628906 4.40625 15.933594 4.703125 16.09375 C 4.933594 15.480469 5.277344 14.914062 5.710938 14.429688 C 5.550781 14.316406 5.355469 14.257812 5.160156 14.257812 Z M 5.160156 14.257812 "/>
<path style=" stroke:none;fill-rule:nonzero;fill:rgb(82.352941%,25.882353%,24.705882%);fill-opacity:1;" d="M 5.941406 14.84375 C 5.941406 15.382812 5.503906 15.820312 4.964844 15.820312 C 4.425781 15.820312 3.988281 15.382812 3.988281 14.84375 C 3.988281 14.304688 4.425781 13.867188 4.964844 13.867188 C 5.503906 13.867188 5.941406 14.304688 5.941406 14.84375 Z M 20.117188 13.867188 C 19.578125 13.867188 19.140625 14.304688 19.140625 14.84375 C 19.140625 15.382812 19.578125 15.820312 20.117188 15.820312 C 20.65625 15.820312 21.09375 15.382812 21.09375 14.84375 C 21.09375 14.304688 20.65625 13.867188 20.117188 13.867188 Z M 14.648438 4.082031 C 14.109375 4.082031 13.671875 4.519531 13.671875 5.058594 C 13.671875 5.597656 14.109375 6.035156 14.648438 6.035156 C 15.1875 6.035156 15.625 5.597656 15.625 5.058594 C 15.625 4.519531 15.1875 4.082031 14.648438 4.082031 Z M 14.648438 4.082031 "/>
<path style=" stroke:none;fill-rule:nonzero;fill:rgb(72.941176%,23.137255%,21.960784%);fill-opacity:1;" d="M 15.273438 4.3125 C 16.039062 5.222656 14.8125 6.445312 13.90625 5.679688 C 14.136719 5.988281 14.523438 6.132812 14.894531 6.050781 C 15.269531 5.96875 15.558594 5.675781 15.640625 5.304688 C 15.722656 4.929688 15.578125 4.542969 15.273438 4.3125 Z M 15.273438 4.3125 "/>
<path style=" stroke:none;fill-rule:nonzero;fill:rgb(72.941176%,23.137255%,21.960784%);fill-opacity:1;" d="M 5.589844 14.101562 C 6.351562 15.007812 5.128906 16.234375 4.222656 15.46875 C 4.453125 15.773438 4.839844 15.917969 5.210938 15.835938 C 5.585938 15.753906 5.875 15.460938 5.957031 15.089844 C 6.039062 14.714844 5.894531 14.328125 5.589844 14.101562 Z M 5.589844 14.101562 "/>
<path style=" stroke:none;fill-rule:nonzero;fill:rgb(72.941176%,23.137255%,21.960784%);fill-opacity:1;" d="M 20.742188 14.089844 C 21.507812 15 20.28125 16.226562 19.375 15.457031 C 19.605469 15.765625 19.992188 15.910156 20.363281 15.828125 C 20.738281 15.746094 21.027344 15.453125 21.109375 15.082031 C 21.191406 14.707031 21.046875 14.320312 20.742188 14.089844 Z M 20.742188 14.089844 "/>
<path style=" stroke:none;fill-rule:nonzero;fill:rgb(86.666667%,41.176471%,40%);fill-opacity:1;" d="M 5.679688 14.179688 C 5.449219 13.875 5.0625 13.730469 4.6875 13.8125 C 4.316406 13.894531 4.023438 14.183594 3.941406 14.558594 C 3.859375 14.929688 4.003906 15.316406 4.3125 15.546875 C 3.453125 14.648438 4.765625 13.328125 5.679688 14.179688 Z M 5.679688 14.179688 "/>
<path style=" stroke:none;fill-rule:nonzero;fill:rgb(86.666667%,41.176471%,40%);fill-opacity:1;" d="M 15.359375 4.398438 C 15.132812 4.089844 14.746094 3.945312 14.371094 4.027344 C 14 4.109375 13.707031 4.402344 13.625 4.773438 C 13.542969 5.148438 13.6875 5.535156 13.992188 5.765625 C 13.136719 4.859375 14.453125 3.546875 15.359375 4.398438 Z M 15.359375 4.398438 "/>
<path style=" stroke:none;fill-rule:nonzero;fill:rgb(86.666667%,41.176471%,40%);fill-opacity:1;" d="M 20.828125 14.171875 C 20.601562 13.867188 20.214844 13.722656 19.839844 13.804688 C 19.46875 13.886719 19.175781 14.175781 19.09375 14.550781 C 19.011719 14.921875 19.15625 15.308594 19.460938 15.539062 C 18.605469 14.640625 19.921875 13.324219 20.828125 14.171875 Z M 20.828125 14.171875 "/>
</g>
</svg>
