<?xml version="1.0" encoding="UTF-8"?>
<svg xmlns="http://www.w3.org/2000/svg" xmlns:xlink="http://www.w3.org/1999/xlink" width="25px" height="25px" viewBox="0 0 25 25" version="1.1">
<defs>
<filter id="alpha" filterUnits="objectBoundingBox" x="0%" y="0%" width="100%" height="100%">
  <feColorMatrix type="matrix" in="SourceGraphic" values="0 0 0 0 1 0 0 0 0 1 0 0 0 0 1 0 0 0 1 0"/>
</filter>
<mask id="mask0">
  <g filter="url(#alpha)">
<rect x="0" y="0" width="25" height="25" style="fill:rgb(0%,0%,0%);fill-opacity:0.101961;stroke:none;"/>
  </g>
</mask>
<clipPath id="clip1">
  <rect x="0" y="0" width="25" height="25"/>
</clipPath>
<g id="surface5" clip-path="url(#clip1)">
<path style=" stroke:none;fill-rule:nonzero;fill:rgb(0%,0%,0%);fill-opacity:1;" d="M 15.617188 0.519531 L 13.535156 0.519531 C 14.398438 0.519531 15.097656 1.222656 15.097656 2.082031 L 15.097656 3.125 C 15.097656 3.988281 14.398438 4.6875 13.535156 4.6875 L 15.617188 4.6875 C 16.480469 4.6875 17.179688 3.988281 17.179688 3.125 L 17.179688 2.082031 C 17.179688 1.222656 16.480469 0.519531 15.617188 0.519531 Z M 15.617188 0.519531 "/>
</g>
<mask id="mask1">
  <g filter="url(#alpha)">
<rect x="0" y="0" width="25" height="25" style="fill:rgb(0%,0%,0%);fill-opacity:0.2;stroke:none;"/>
  </g>
</mask>
<clipPath id="clip2">
  <rect x="0" y="0" width="25" height="25"/>
</clipPath>
<g id="surface8" clip-path="url(#clip2)">
<path style=" stroke:none;fill-rule:nonzero;fill:rgb(100%,100%,100%);fill-opacity:1;" d="M 16.015625 23.21875 C 15.234375 23.089844 14.464844 22.90625 13.710938 22.667969 L 11.953125 22.105469 L 9.023438 21.175781 C 6.433594 20.347656 4.679688 17.9375 4.679688 15.21875 L 4.679688 5.730469 L 3.640625 5.730469 L 3.640625 16.261719 C 3.636719 18.984375 5.398438 21.394531 7.992188 22.21875 L 10.921875 23.144531 L 12.679688 23.707031 C 14.289062 24.210938 15.964844 24.472656 17.648438 24.480469 C 19.167969 24.480469 20.59375 23.75 21.484375 22.519531 C 20.675781 23.117188 19.695312 23.4375 18.691406 23.4375 C 17.792969 23.4375 16.898438 23.363281 16.015625 23.21875 Z M 16.015625 23.21875 "/>
</g>
<mask id="mask2">
  <g filter="url(#alpha)">
<rect x="0" y="0" width="25" height="25" style="fill:rgb(0%,0%,0%);fill-opacity:0.101961;stroke:none;"/>
  </g>
</mask>
<clipPath id="clip3">
  <rect x="0" y="0" width="25" height="25"/>
</clipPath>
<g id="surface11" clip-path="url(#clip3)">
<path style=" stroke:none;fill-rule:nonzero;fill:rgb(0%,0%,0%);fill-opacity:1;" d="M 22.390625 19.730469 C 22.394531 18.148438 21.613281 16.667969 20.304688 15.78125 L 18.890625 14.832031 L 17.097656 13.644531 C 16.519531 13.261719 16.171875 12.613281 16.171875 11.917969 L 16.171875 4.6875 L 3.640625 4.6875 L 3.640625 5.730469 L 15.097656 5.730469 L 15.097656 12.949219 C 15.097656 13.644531 15.445312 14.292969 16.023438 14.675781 L 17.816406 15.863281 L 19.234375 16.8125 C 21.410156 18.257812 22.003906 21.191406 20.558594 23.367188 C 20.519531 23.429688 20.476562 23.492188 20.429688 23.550781 C 21.660156 22.664062 22.386719 21.242188 22.390625 19.730469 Z M 22.390625 19.730469 "/>
</g>
<linearGradient id="linear0" gradientUnits="userSpaceOnUse" x1="0.0969" y1="18.3742" x2="23.6007" y2="7.4217" gradientTransform="matrix(1.041667,0,0,-1.041667,0,25)">
<stop offset="0" style="stop-color:rgb(100%,100%,100%);stop-opacity:0.2;"/>
<stop offset="1" style="stop-color:rgb(100%,100%,100%);stop-opacity:0;"/>
</linearGradient>
</defs>
<g id="surface1">
<path style=" stroke:none;fill-rule:nonzero;fill:rgb(97.254902%,97.254902%,97.254902%);fill-opacity:1;" d="M 20.273438 15.78125 L 18.859375 14.832031 L 14.972656 24.207031 C 15.855469 24.355469 16.746094 24.425781 17.640625 24.425781 C 20.261719 24.425781 22.386719 22.292969 22.382812 19.671875 C 22.382812 18.085938 21.589844 16.609375 20.273438 15.730469 Z M 20.273438 15.78125 "/>
<path style=" stroke:none;fill-rule:nonzero;fill:rgb(83.529412%,10.980392%,16.078431%);fill-opacity:1;" d="M 17.066406 13.636719 C 16.488281 13.25 16.140625 12.601562 16.140625 11.90625 L 16.140625 4.6875 L 3.640625 4.6875 L 3.640625 15.105469 C 7.738281 15.371094 10.929688 18.777344 10.929688 22.886719 C 10.929688 22.96875 10.929688 23.042969 10.929688 23.113281 L 12.691406 23.675781 C 13.445312 23.917969 14.214844 24.101562 14.992188 24.230469 L 18.878906 14.855469 Z M 17.066406 13.636719 "/>
<path style=" stroke:none;fill-rule:nonzero;fill:rgb(97.254902%,97.254902%,97.254902%);fill-opacity:1;" d="M 3.640625 15.136719 L 3.640625 16.269531 C 3.636719 18.992188 5.398438 21.402344 7.992188 22.230469 L 10.921875 23.15625 C 10.921875 23.082031 10.921875 23 10.921875 22.925781 C 10.925781 18.816406 7.738281 15.410156 3.640625 15.136719 Z M 3.640625 15.136719 "/>
<path style=" stroke:none;fill-rule:nonzero;fill:rgb(97.254902%,97.254902%,97.254902%);fill-opacity:1;" d="M 4.160156 0.519531 L 15.617188 0.519531 C 16.480469 0.519531 17.179688 1.222656 17.179688 2.082031 L 17.179688 3.125 C 17.179688 3.988281 16.480469 4.6875 15.617188 4.6875 L 4.160156 4.6875 C 3.296875 4.6875 2.597656 3.988281 2.597656 3.125 L 2.597656 2.082031 C 2.597656 1.222656 3.296875 0.519531 4.160156 0.519531 Z M 4.160156 0.519531 "/>
<path style=" stroke:none;fill-rule:nonzero;fill:rgb(100%,100%,100%);fill-opacity:1;" d="M 4.679688 3.125 L 4.679688 2.082031 C 4.679688 1.222656 5.382812 0.519531 6.242188 0.519531 L 4.160156 0.519531 C 3.296875 0.519531 2.597656 1.222656 2.597656 2.082031 L 2.597656 3.125 C 2.597656 3.988281 3.296875 4.6875 4.160156 4.6875 L 6.242188 4.6875 C 5.378906 4.6875 4.679688 3.988281 4.679688 3.125 Z M 4.679688 3.125 "/>
<use xlink:href="#surface5" mask="url(#mask0)"/>
<use xlink:href="#surface8" mask="url(#mask1)"/>
<use xlink:href="#surface11" mask="url(#mask2)"/>
<path style=" stroke:none;fill-rule:nonzero;fill:rgb(18.823529%,23.529412%,25.882353%);fill-opacity:1;" d="M 20.566406 15.34375 L 19.148438 14.394531 L 17.359375 13.207031 C 16.921875 12.917969 16.660156 12.429688 16.660156 11.90625 L 16.660156 4.917969 C 17.300781 4.546875 17.699219 3.863281 17.703125 3.125 L 17.703125 2.082031 C 17.703125 0.933594 16.769531 0 15.617188 0 L 4.160156 0 C 3.007812 0 2.078125 0.933594 2.078125 2.082031 L 2.078125 3.125 C 2.082031 3.863281 2.476562 4.546875 3.117188 4.917969 L 3.117188 16.238281 C 3.113281 19.1875 5.023438 21.800781 7.835938 22.6875 L 10.765625 23.613281 L 12.523438 24.175781 C 13.300781 24.421875 14.097656 24.609375 14.898438 24.738281 C 15.808594 24.890625 16.726562 24.96875 17.648438 24.96875 C 20.5625 24.972656 22.921875 22.613281 22.925781 19.699219 C 22.925781 17.9375 22.042969 16.289062 20.578125 15.3125 Z M 3.117188 2.082031 C 3.117188 1.507812 3.585938 1.042969 4.160156 1.042969 L 15.617188 1.042969 C 16.195312 1.042969 16.660156 1.507812 16.660156 2.082031 L 16.660156 3.125 C 16.660156 3.699219 16.195312 4.167969 15.617188 4.167969 L 4.160156 4.167969 C 3.585938 4.167969 3.117188 3.699219 3.117188 3.125 Z M 8.148438 21.71875 C 5.769531 20.96875 4.152344 18.757812 4.160156 16.261719 L 4.160156 15.707031 C 7.570312 16.191406 10.179688 19 10.410156 22.4375 Z M 11.453125 22.761719 C 11.375 18.621094 8.269531 15.164062 4.160156 14.644531 L 4.160156 5.207031 L 15.617188 5.207031 L 15.617188 11.90625 C 15.617188 12.777344 16.050781 13.589844 16.773438 14.074219 L 18.210938 15.03125 L 14.648438 23.675781 C 14.035156 23.5625 13.425781 23.410156 12.828125 23.21875 Z M 17.640625 23.957031 C 16.996094 23.957031 16.351562 23.914062 15.710938 23.832031 L 19.097656 15.625 L 19.984375 16.21875 C 21.921875 17.519531 22.4375 20.148438 21.136719 22.085938 C 20.351562 23.253906 19.042969 23.953125 17.640625 23.957031 Z M 17.640625 23.957031 "/>
<path style=" stroke:none;fill-rule:nonzero;fill:url(#linear0);" d="M 20.566406 15.34375 L 17.359375 13.207031 C 16.921875 12.917969 16.660156 12.429688 16.660156 11.90625 L 16.660156 4.917969 C 17.300781 4.546875 17.699219 3.863281 17.703125 3.125 L 17.703125 2.082031 C 17.703125 0.933594 16.769531 0 15.617188 0 L 4.160156 0 C 3.007812 0 2.078125 0.933594 2.078125 2.082031 L 2.078125 3.125 C 2.082031 3.863281 2.476562 4.546875 3.117188 4.917969 L 3.117188 16.261719 C 3.113281 19.210938 5.023438 21.820312 7.835938 22.707031 L 12.492188 24.207031 C 14.152344 24.726562 15.878906 24.992188 17.617188 25 C 20.53125 25.003906 22.890625 22.644531 22.894531 19.730469 C 22.894531 17.96875 22.011719 16.320312 20.546875 15.34375 Z M 20.566406 15.34375 "/>
</g>
</svg>
