<?xml version="1.0" encoding="UTF-8"?>
<svg xmlns="http://www.w3.org/2000/svg" xmlns:xlink="http://www.w3.org/1999/xlink" width="25px" height="25px" viewBox="0 0 25 25" version="1.1">
<defs>
<filter id="alpha" filterUnits="objectBoundingBox" x="0%" y="0%" width="100%" height="100%">
  <feColorMatrix type="matrix" in="SourceGraphic" values="0 0 0 0 1 0 0 0 0 1 0 0 0 0 1 0 0 0 1 0"/>
</filter>
<mask id="mask0">
  <g filter="url(#alpha)">
<rect x="0" y="0" width="25" height="25" style="fill:rgb(0%,0%,0%);fill-opacity:0.101961;stroke:none;"/>
  </g>
</mask>
<clipPath id="clip1">
  <rect x="0" y="0" width="25" height="25"/>
</clipPath>
<g id="surface5" clip-path="url(#clip1)">
<path style=" stroke:none;fill-rule:nonzero;fill:rgb(0%,0%,0%);fill-opacity:1;" d="M 11.425781 4.589844 C 9.003906 4.589844 6.5625 4.804688 4.160156 5.214844 L 4.257812 6.855469 L 18.59375 6.992188 L 18.671875 5.234375 C 16.289062 4.804688 13.867188 4.589844 11.425781 4.589844 Z M 11.425781 4.589844 "/>
</g>
</defs>
<g id="surface1">
<path style=" stroke:none;fill-rule:nonzero;fill:rgb(92.941176%,71.764706%,49.803922%);fill-opacity:1;" d="M 4.257812 6.835938 L 4.101562 4.121094 C 4.101562 4.0625 4.101562 3.984375 4.101562 3.925781 C 4.101562 2.578125 5.078125 1.425781 6.40625 1.191406 C 9.726562 0.644531 13.105469 0.644531 16.425781 1.191406 C 17.753906 1.40625 18.730469 2.558594 18.730469 3.925781 C 18.730469 3.984375 18.730469 4.0625 18.730469 4.121094 L 18.554688 6.972656 "/>
<use xlink:href="#surface5" mask="url(#mask0)"/>
<path style=" stroke:none;fill-rule:nonzero;fill:rgb(67.058824%,47.058824%,40%);fill-opacity:1;" d="M 22.089844 11.074219 L 23.632812 11.074219 C 23.964844 11.074219 24.21875 11.328125 24.21875 11.660156 C 24.21875 11.992188 23.964844 12.246094 23.632812 12.246094 L 22.089844 12.246094 "/>
<path style=" stroke:none;fill-rule:nonzero;fill:rgb(56.470588%,56.078431%,61.960784%);fill-opacity:1;" d="M 20.136719 23.4375 L 2.734375 23.4375 C 1.660156 23.4375 0.78125 22.558594 0.78125 21.484375 L 0.78125 11.074219 C 0.78125 9.179688 2.128906 7.558594 3.984375 7.226562 C 8.90625 6.328125 13.964844 6.328125 18.886719 7.226562 C 20.742188 7.558594 22.089844 9.179688 22.089844 11.074219 L 22.089844 21.484375 C 22.089844 22.558594 21.210938 23.4375 20.136719 23.4375 Z M 20.136719 23.4375 "/>
<path style=" stroke:none;fill-rule:nonzero;fill:rgb(100%,100%,100%);fill-opacity:1;" d="M 3.984375 7.226562 C 2.128906 7.558594 0.78125 9.179688 0.78125 11.074219 L 0.78125 21.484375 C 0.78125 22.558594 1.660156 23.4375 2.734375 23.4375 L 4.6875 23.4375 C 3.613281 23.4375 2.734375 22.558594 2.734375 21.484375 L 2.734375 11.074219 C 2.734375 9.179688 4.082031 7.558594 5.9375 7.226562 C 8.085938 6.835938 10.253906 6.621094 12.421875 6.5625 C 9.589844 6.484375 6.757812 6.71875 3.984375 7.226562 Z M 3.984375 7.226562 "/>
<path style=" stroke:none;fill-rule:nonzero;fill:rgb(100%,100%,100%);fill-opacity:1;" d="M 5.46875 3.925781 C 5.46875 2.578125 6.445312 1.425781 7.773438 1.191406 C 9.21875 0.957031 10.664062 0.820312 12.109375 0.78125 C 10.195312 0.742188 8.300781 0.878906 6.40625 1.191406 C 5.078125 1.425781 4.101562 2.578125 4.101562 3.925781 C 4.101562 3.984375 4.101562 4.0625 4.101562 4.121094 L 4.257812 6.835938 L 5.625 6.835938 L 5.46875 4.121094 C 5.488281 4.0625 5.46875 3.984375 5.46875 3.925781 Z M 5.46875 3.925781 "/>
<path style=" stroke:none;fill-rule:nonzero;fill:rgb(27.058824%,29.411765%,32.941176%);fill-opacity:1;" d="M 23.632812 10.78125 L 22.363281 10.78125 C 22.226562 8.886719 20.839844 7.285156 18.925781 6.953125 C 18.90625 6.953125 18.867188 6.953125 18.847656 6.933594 C 18.867188 6.894531 18.886719 6.855469 18.886719 6.796875 L 19.042969 4.140625 C 19.042969 4.0625 19.042969 4.003906 19.042969 3.925781 C 19.042969 2.421875 17.96875 1.152344 16.484375 0.917969 C 13.125 0.351562 9.726562 0.351562 6.367188 0.917969 C 4.882812 1.152344 3.808594 2.421875 3.808594 3.925781 C 3.808594 4.003906 3.808594 4.0625 3.808594 4.140625 L 3.964844 6.855469 C 3.964844 6.875 3.964844 6.894531 3.984375 6.914062 C 3.964844 6.914062 3.945312 6.914062 3.925781 6.933594 C 1.933594 7.304688 0.488281 9.042969 0.488281 11.074219 L 0.488281 21.484375 C 0.488281 22.714844 1.503906 23.730469 2.734375 23.730469 L 4.394531 23.730469 L 4.394531 24.21875 C 4.394531 24.375 4.53125 24.511719 4.6875 24.511719 C 4.84375 24.511719 4.980469 24.375 4.980469 24.21875 L 4.980469 23.730469 L 18.066406 23.730469 L 18.066406 24.21875 C 18.066406 24.375 18.203125 24.511719 18.359375 24.511719 C 18.515625 24.511719 18.652344 24.375 18.652344 24.21875 L 18.652344 23.730469 L 20.136719 23.730469 C 21.367188 23.730469 22.382812 22.714844 22.382812 21.484375 L 22.382812 12.539062 L 23.632812 12.539062 C 24.121094 12.539062 24.511719 12.148438 24.511719 11.660156 C 24.511719 11.171875 24.121094 10.78125 23.632812 10.78125 Z M 6.464844 1.484375 C 9.765625 0.9375 13.105469 0.9375 16.386719 1.484375 C 17.578125 1.679688 18.457031 2.714844 18.457031 3.925781 C 18.457031 3.984375 18.457031 4.042969 18.457031 4.101562 L 18.300781 6.757812 C 18.300781 6.777344 18.300781 6.796875 18.300781 6.835938 C 13.769531 6.074219 9.082031 6.074219 4.550781 6.835938 L 4.394531 4.101562 C 4.394531 4.042969 4.394531 3.984375 4.394531 3.925781 C 4.394531 2.714844 5.273438 1.679688 6.464844 1.484375 Z M 21.796875 21.484375 C 21.796875 22.402344 21.054688 23.144531 20.136719 23.144531 L 2.734375 23.144531 C 1.816406 23.144531 1.074219 22.402344 1.074219 21.484375 L 1.074219 11.367188 L 18.183594 11.367188 C 18.339844 11.367188 18.476562 11.230469 18.476562 11.074219 C 18.476562 10.917969 18.339844 10.78125 18.183594 10.78125 L 1.09375 10.78125 C 1.230469 9.160156 2.421875 7.8125 4.042969 7.519531 C 6.464844 7.070312 8.964844 6.835938 11.425781 6.835938 C 13.886719 6.835938 16.386719 7.070312 18.828125 7.5 C 20.546875 7.8125 21.796875 9.316406 21.796875 11.054688 Z M 23.632812 11.953125 L 22.382812 11.953125 L 22.382812 11.367188 L 23.632812 11.367188 C 23.789062 11.367188 23.925781 11.503906 23.925781 11.660156 C 23.925781 11.816406 23.789062 11.953125 23.632812 11.953125 Z M 23.632812 11.953125 "/>
<path style=" stroke:none;fill-rule:nonzero;fill:rgb(27.058824%,29.411765%,32.941176%);fill-opacity:1;" d="M 17.148438 4.726562 C 17.148438 4.726562 17.128906 4.726562 17.128906 4.726562 C 16.972656 4.707031 16.855469 4.570312 16.855469 4.414062 C 16.855469 4.375 16.855469 4.355469 16.855469 4.316406 C 16.855469 3.710938 16.40625 3.183594 15.800781 3.085938 C 15.644531 3.066406 15.527344 2.910156 15.566406 2.753906 C 15.585938 2.597656 15.742188 2.480469 15.898438 2.519531 C 16.796875 2.675781 17.441406 3.4375 17.441406 4.335938 C 17.441406 4.375 17.441406 4.433594 17.441406 4.472656 C 17.421875 4.609375 17.285156 4.726562 17.148438 4.726562 Z M 17.148438 4.726562 "/>
<path style=" stroke:none;fill-rule:nonzero;fill:rgb(27.058824%,29.411765%,32.941176%);fill-opacity:1;" d="M 5.859375 7.050781 C 5.703125 7.050781 5.585938 6.933594 5.566406 6.777344 L 5.429688 4.453125 C 5.429688 4.414062 5.429688 4.375 5.429688 4.316406 C 5.429688 3.417969 6.074219 2.65625 6.972656 2.5 C 7.128906 2.480469 7.285156 2.578125 7.304688 2.734375 C 7.324219 2.890625 7.226562 3.046875 7.070312 3.066406 C 6.464844 3.164062 6.015625 3.691406 6.015625 4.296875 C 6.015625 4.335938 6.015625 4.355469 6.015625 4.394531 L 6.152344 6.71875 C 6.171875 6.894531 6.054688 7.03125 5.859375 7.050781 C 5.878906 7.050781 5.878906 7.050781 5.859375 7.050781 Z M 5.859375 7.050781 "/>
</g>
</svg>
