<?xml version="1.0" encoding="UTF-8"?>
<svg xmlns="http://www.w3.org/2000/svg" xmlns:xlink="http://www.w3.org/1999/xlink" width="25px" height="25px" viewBox="0 0 25 25" version="1.1">
<g id="surface1">
<path style=" stroke:none;fill-rule:nonzero;fill:rgb(97.647059%,86.27451%,37.254902%);fill-opacity:1;" d="M 12.5 0 C 5.597656 0 0 5.597656 0 12.5 C 0 19.402344 5.597656 25 12.5 25 C 19.402344 25 25 19.402344 25 12.5 C 25 5.597656 19.402344 0 12.5 0 Z M 12.5 0 "/>
<path style=" stroke:none;fill-rule:nonzero;fill:rgb(72.54902%,44.313725%,25.490196%);fill-opacity:1;" d="M 10.746094 13.941406 C 12.128906 12.109375 12.007812 9.832031 12.007812 9.832031 C 11.804688 6.902344 9.078125 6.292969 9.078125 6.292969 C 4.726562 5.113281 3.953125 8.082031 3.953125 8.082031 C 2.980469 9.101562 3.304688 11.296875 3.304688 11.296875 C 3.261719 11.804688 2.195312 13.015625 2.195312 13.015625 C 1.972656 13.289062 2.238281 13.511719 2.238281 13.511719 C 2.390625 13.65625 2.804688 13.707031 2.804688 13.707031 C 2.867188 13.746094 2.855469 13.847656 2.855469 13.847656 L 2.734375 14.296875 C 2.703125 14.46875 2.96875 14.683594 2.96875 14.683594 C 3.007812 14.761719 2.9375 14.84375 2.9375 14.84375 C 2.835938 14.996094 2.816406 15.121094 2.816406 15.121094 C 2.777344 15.324219 3.101562 15.609375 3.101562 15.609375 C 3.140625 15.8125 2.855469 16.257812 2.855469 16.257812 C 2.777344 16.929688 3.34375 16.949219 3.34375 16.949219 L 5.09375 16.949219 L 6.027344 18.984375 L 10.789062 17.519531 C 10.015625 16.21875 10.746094 13.941406 10.746094 13.941406 Z M 10.746094 13.941406 "/>
<path style=" stroke:none;fill-rule:nonzero;fill:rgb(64.705882%,36.470588%,20.784314%);fill-opacity:1;" d="M 7.636719 15.464844 L 3.34375 16.949219 L 5.09375 16.949219 L 7.71875 15.585938 L 7.738281 14.996094 Z M 7.636719 15.464844 "/>
<path style=" stroke:none;fill-rule:nonzero;fill:rgb(43.921569%,27.45098%,16.470588%);fill-opacity:1;" d="M 12.007812 9.832031 C 11.804688 6.902344 9.078125 6.292969 9.078125 6.292969 C 4.726562 5.113281 3.953125 8.082031 3.953125 8.082031 C 7.128906 8.328125 7.238281 11.171875 8.488281 13.511719 C 9.402344 15.21875 10.429688 16.132812 10.433594 15.890625 C 10.445312 14.875 10.746094 13.941406 10.746094 13.941406 C 12.128906 12.109375 12.007812 9.832031 12.007812 9.832031 Z M 12.007812 9.832031 "/>
<path style=" stroke:none;fill-rule:nonzero;fill:rgb(64.705882%,36.470588%,20.784314%);fill-opacity:1;" d="M 8.808594 11.191406 C 7.917969 10.953125 7.800781 12.203125 7.800781 12.203125 L 7.785156 13.5 C 8.03125 13.71875 8.308594 13.789062 8.46875 13.546875 C 8.726562 13.164062 9.101562 12.617188 9.371094 12.152344 C 9.726562 11.539062 9.132812 11.277344 8.808594 11.191406 Z M 8.808594 11.191406 "/>
<path style=" stroke:none;fill-rule:nonzero;fill:rgb(64.705882%,36.470588%,20.784314%);fill-opacity:1;" d="M 3.332031 13.289062 C 3.261719 13.765625 2.855469 13.695312 2.855469 13.695312 L 3.074219 13.765625 C 3.492188 13.738281 3.332031 13.289062 3.332031 13.289062 Z M 3.332031 13.289062 "/>
<path style=" stroke:none;fill-rule:nonzero;fill:rgb(64.705882%,36.470588%,20.784314%);fill-opacity:1;" d="M 3.570312 11.335938 C 3.570312 11.335938 3.976562 11.703125 4.726562 11.214844 C 4.726562 11.214844 4.179688 11.398438 3.570312 11.335938 Z M 3.570312 11.335938 "/>
<path style=" stroke:none;fill-rule:nonzero;fill:rgb(43.921569%,27.45098%,16.470588%);fill-opacity:1;" d="M 4.820312 10.167969 C 4.535156 10.046875 3.355469 10.085938 3.355469 10.085938 C 3.246094 10.253906 3.394531 10.421875 3.46875 10.421875 C 4.515625 10.421875 5.175781 10.707031 5.175781 10.707031 C 5.144531 10.300781 4.820312 10.167969 4.820312 10.167969 Z M 4.820312 10.167969 "/>
<path style=" stroke:none;fill-rule:nonzero;fill:rgb(72.54902%,44.313725%,25.490196%);fill-opacity:1;" d="M 8.929688 10.613281 C 7.886719 10.332031 7.75 11.796875 7.75 11.796875 L 7.730469 13.316406 C 8.019531 13.570312 8.34375 13.65625 8.53125 13.371094 C 8.835938 12.921875 9.105469 12.542969 9.414062 12.070312 C 9.867188 11.375 9.308594 10.710938 8.929688 10.613281 Z M 8.929688 10.613281 "/>
<path style=" stroke:none;fill-rule:nonzero;fill:rgb(72.54902%,44.313725%,25.490196%);fill-opacity:1;" d="M 22.804688 13.015625 C 22.804688 13.015625 21.738281 11.804688 21.695312 11.296875 C 21.695312 11.296875 22.019531 9.101562 21.046875 8.082031 C 21.046875 8.082031 20.273438 5.113281 15.921875 6.292969 C 15.921875 6.292969 13.195312 6.902344 12.992188 9.832031 C 12.992188 9.832031 12.871094 12.109375 14.253906 13.941406 C 14.253906 13.941406 14.984375 16.21875 14.210938 17.519531 L 18.972656 18.984375 L 19.90625 16.949219 L 21.65625 16.949219 C 21.65625 16.949219 22.226562 16.929688 22.144531 16.257812 C 22.144531 16.257812 21.859375 15.8125 21.898438 15.609375 C 21.898438 15.609375 22.226562 15.324219 22.183594 15.121094 C 22.183594 15.121094 22.164062 14.996094 22.0625 14.84375 C 22.0625 14.84375 21.992188 14.761719 22.03125 14.683594 C 22.03125 14.683594 22.296875 14.46875 22.265625 14.296875 L 22.144531 13.847656 C 22.144531 13.847656 22.132812 13.746094 22.195312 13.707031 C 22.195312 13.707031 22.609375 13.65625 22.761719 13.511719 C 22.761719 13.511719 23.027344 13.289062 22.804688 13.015625 Z M 22.804688 13.015625 "/>
<path style=" stroke:none;fill-rule:nonzero;fill:rgb(64.705882%,36.470588%,20.784314%);fill-opacity:1;" d="M 17.363281 15.464844 L 17.261719 14.996094 L 17.28125 15.585938 L 19.90625 16.949219 L 21.65625 16.949219 Z M 17.363281 15.464844 "/>
<path style=" stroke:none;fill-rule:nonzero;fill:rgb(43.921569%,27.45098%,16.470588%);fill-opacity:1;" d="M 15.921875 6.292969 C 15.921875 6.292969 13.195312 6.902344 12.992188 9.832031 C 12.992188 9.832031 12.871094 12.109375 14.253906 13.941406 C 14.253906 13.941406 14.554688 14.875 14.566406 15.890625 C 14.570312 16.132812 15.597656 15.21875 16.511719 13.511719 C 17.761719 11.171875 17.871094 8.328125 21.046875 8.082031 C 21.046875 8.082031 20.273438 5.113281 15.921875 6.292969 Z M 15.921875 6.292969 "/>
<path style=" stroke:none;fill-rule:nonzero;fill:rgb(64.705882%,36.470588%,20.784314%);fill-opacity:1;" d="M 17.199219 12.203125 C 17.199219 12.203125 17.082031 10.953125 16.191406 11.191406 C 15.867188 11.277344 15.273438 11.539062 15.628906 12.152344 C 15.898438 12.617188 16.273438 13.164062 16.53125 13.546875 C 16.691406 13.789062 16.96875 13.71875 17.214844 13.5 Z M 17.199219 12.203125 "/>
<path style=" stroke:none;fill-rule:nonzero;fill:rgb(64.705882%,36.470588%,20.784314%);fill-opacity:1;" d="M 21.667969 13.289062 C 21.667969 13.289062 21.507812 13.738281 21.925781 13.765625 L 22.144531 13.695312 C 22.144531 13.695312 21.738281 13.765625 21.667969 13.289062 Z M 21.667969 13.289062 "/>
<path style=" stroke:none;fill-rule:nonzero;fill:rgb(64.705882%,36.470588%,20.784314%);fill-opacity:1;" d="M 20.273438 11.214844 C 21.023438 11.703125 21.429688 11.335938 21.429688 11.335938 C 20.820312 11.398438 20.273438 11.214844 20.273438 11.214844 Z M 20.273438 11.214844 "/>
<path style=" stroke:none;fill-rule:nonzero;fill:rgb(43.921569%,27.45098%,16.470588%);fill-opacity:1;" d="M 21.644531 10.085938 C 21.644531 10.085938 20.464844 10.046875 20.179688 10.167969 C 20.179688 10.167969 19.855469 10.300781 19.824219 10.707031 C 19.824219 10.707031 20.484375 10.421875 21.53125 10.421875 C 21.605469 10.421875 21.753906 10.253906 21.644531 10.085938 Z M 21.644531 10.085938 "/>
<path style=" stroke:none;fill-rule:nonzero;fill:rgb(72.54902%,44.313725%,25.490196%);fill-opacity:1;" d="M 17.25 11.796875 C 17.25 11.796875 17.113281 10.332031 16.070312 10.613281 C 15.691406 10.714844 15.132812 11.375 15.585938 12.070312 C 15.894531 12.542969 16.164062 12.921875 16.464844 13.371094 C 16.65625 13.65625 16.980469 13.570312 17.269531 13.316406 Z M 17.25 11.796875 "/>
</g>
</svg>
