<?xml version="1.0" encoding="UTF-8"?>
<svg xmlns="http://www.w3.org/2000/svg" xmlns:xlink="http://www.w3.org/1999/xlink" width="25px" height="25px" viewBox="0 0 25 25" version="1.1">
<g id="surface1">
<path style=" stroke:none;fill-rule:nonzero;fill:rgb(17.647059%,13.333333%,12.54902%);fill-opacity:1;" d="M 12.210938 3.109375 C 11.898438 3.109375 11.71875 3.125 11.71875 3.125 C 11.71875 3.125 3.125 3.90625 3.125 13.28125 C 3.125 13.28125 3.125 18.75 6.25 18.75 C 8.984375 18.75 9.328125 14.5625 10.9375 14.5625 C 11.171875 14.5625 11.421875 14.648438 11.71875 14.84375 C 14.0625 16.40625 6.25 18.75 8.59375 21.09375 C 9.210938 21.710938 10.4375 22.0625 11.898438 22.0625 C 15.96875 22.0625 21.875 19.390625 21.875 12.5 C 21.875 3.695312 14.25 3.109375 12.210938 3.109375 Z M 11.898438 21.28125 C 10.65625 21.28125 9.601562 21 9.148438 20.539062 C 8.921875 20.3125 8.929688 20.179688 8.929688 20.140625 C 8.96875 19.601562 10.054688 18.75 10.851562 18.125 C 11.992188 17.226562 12.984375 16.460938 12.945312 15.453125 C 12.929688 15.109375 12.78125 14.617188 12.15625 14.195312 C 11.742188 13.921875 11.335938 13.78125 10.9375 13.78125 C 9.789062 13.78125 9.179688 14.835938 8.578125 15.851562 C 7.835938 17.132812 7.273438 17.96875 6.25 17.96875 C 3.976562 17.96875 3.90625 13.328125 3.90625 13.28125 C 3.90625 4.75 11.46875 3.9375 11.78125 3.90625 C 11.789062 3.90625 11.945312 3.890625 12.210938 3.890625 C 14.296875 3.890625 21.09375 4.515625 21.09375 12.5 C 21.09375 18.945312 15.59375 21.28125 11.898438 21.28125 Z M 11.898438 21.28125 "/>
<path style=" stroke:none;fill-rule:nonzero;fill:rgb(100%,83.529412%,38.039216%);fill-opacity:1;" d="M 19.585938 7.15625 C 17.5 5.640625 14.921875 5.453125 13.773438 5.453125 C 13.507812 5.453125 13.351562 5.46875 13.34375 5.46875 C 13.03125 5.5 5.46875 6.3125 5.46875 14.84375 C 5.46875 14.875 5.492188 16.601562 6.03125 17.953125 C 6.101562 17.960938 6.171875 17.96875 6.25 17.96875 C 7.273438 17.96875 7.835938 17.132812 8.578125 15.851562 C 9.179688 14.835938 9.789062 13.78125 10.9375 13.78125 C 11.335938 13.78125 11.742188 13.921875 12.15625 14.195312 C 12.75 14.601562 12.914062 15.0625 12.9375 15.40625 C 12.945312 15.421875 12.945312 15.4375 12.945312 15.453125 C 12.984375 16.460938 11.992188 17.226562 10.851562 18.125 C 10.054688 18.75 8.96875 19.601562 8.929688 20.140625 C 8.929688 20.179688 8.921875 20.3125 9.148438 20.539062 C 9.453125 20.851562 10.023438 21.078125 10.75 21.1875 C 11.101562 21.25 11.492188 21.28125 11.898438 21.28125 C 15.59375 21.28125 21.09375 18.945312 21.09375 12.5 C 21.09375 10.125 20.492188 8.398438 19.585938 7.15625 Z M 10.15625 10.15625 C 9.296875 10.15625 8.59375 9.453125 8.59375 8.59375 C 8.59375 7.734375 9.296875 7.03125 10.15625 7.03125 C 11.015625 7.03125 11.71875 7.734375 11.71875 8.59375 C 11.71875 9.453125 11.015625 10.15625 10.15625 10.15625 Z M 16.40625 17.1875 C 15.546875 17.1875 14.84375 16.484375 14.84375 15.625 C 14.84375 14.765625 15.546875 14.0625 16.40625 14.0625 C 17.265625 14.0625 17.96875 14.765625 17.96875 15.625 C 17.96875 16.484375 17.265625 17.1875 16.40625 17.1875 Z M 16.40625 10.9375 C 15.546875 10.9375 14.84375 10.234375 14.84375 9.375 C 14.84375 8.515625 15.546875 7.8125 16.40625 7.8125 C 17.265625 7.8125 17.96875 8.515625 17.96875 9.375 C 17.96875 10.234375 17.265625 10.9375 16.40625 10.9375 Z M 16.40625 10.9375 "/>
<path style=" stroke:none;fill-rule:nonzero;fill:rgb(17.647059%,13.333333%,12.54902%);fill-opacity:1;" d="M 6.25 11.71875 C 5.390625 11.71875 4.6875 12.421875 4.6875 13.28125 C 4.6875 14.140625 5.390625 14.84375 6.25 14.84375 C 7.109375 14.84375 7.8125 14.140625 7.8125 13.28125 C 7.8125 12.421875 7.109375 11.71875 6.25 11.71875 Z M 6.25 14.0625 C 5.820312 14.0625 5.46875 13.710938 5.46875 13.28125 C 5.46875 12.851562 5.820312 12.5 6.25 12.5 C 6.679688 12.5 7.03125 12.851562 7.03125 13.28125 C 7.03125 13.710938 6.679688 14.0625 6.25 14.0625 Z M 6.25 14.0625 "/>
<path style=" stroke:none;fill-rule:nonzero;fill:rgb(19.215686%,81.176471%,100%);fill-opacity:1;" d="M 7.03125 13.28125 C 7.03125 13.710938 6.679688 14.0625 6.25 14.0625 C 5.820312 14.0625 5.46875 13.710938 5.46875 13.28125 C 5.46875 12.851562 5.820312 12.5 6.25 12.5 C 6.679688 12.5 7.03125 12.851562 7.03125 13.28125 Z M 7.03125 13.28125 "/>
<path style=" stroke:none;fill-rule:nonzero;fill:rgb(17.647059%,13.333333%,12.54902%);fill-opacity:1;" d="M 10.15625 6.25 C 8.859375 6.25 7.8125 7.296875 7.8125 8.59375 C 7.8125 9.890625 8.859375 10.9375 10.15625 10.9375 C 11.453125 10.9375 12.5 9.890625 12.5 8.59375 C 12.5 7.296875 11.453125 6.25 10.15625 6.25 Z M 10.15625 10.15625 C 9.296875 10.15625 8.59375 9.453125 8.59375 8.59375 C 8.59375 7.734375 9.296875 7.03125 10.15625 7.03125 C 11.015625 7.03125 11.71875 7.734375 11.71875 8.59375 C 11.71875 9.453125 11.015625 10.15625 10.15625 10.15625 Z M 10.15625 10.15625 "/>
<path style=" stroke:none;fill-rule:nonzero;fill:rgb(89.019608%,44.313725%,100%);fill-opacity:1;" d="M 11.71875 8.59375 C 11.71875 9.453125 11.015625 10.15625 10.15625 10.15625 C 9.929688 10.15625 9.710938 10.109375 9.515625 10.015625 C 9.421875 9.820312 9.375 9.601562 9.375 9.375 C 9.375 8.515625 10.078125 7.8125 10.9375 7.8125 C 11.164062 7.8125 11.382812 7.859375 11.578125 7.953125 C 11.671875 8.148438 11.71875 8.367188 11.71875 8.59375 Z M 11.71875 8.59375 "/>
<path style=" stroke:none;fill-rule:nonzero;fill:rgb(17.647059%,13.333333%,12.54902%);fill-opacity:1;" d="M 16.40625 7.03125 C 15.109375 7.03125 14.0625 8.078125 14.0625 9.375 C 14.0625 10.671875 15.109375 11.71875 16.40625 11.71875 C 17.703125 11.71875 18.75 10.671875 18.75 9.375 C 18.75 8.078125 17.703125 7.03125 16.40625 7.03125 Z M 16.40625 10.9375 C 15.546875 10.9375 14.84375 10.234375 14.84375 9.375 C 14.84375 8.515625 15.546875 7.8125 16.40625 7.8125 C 17.265625 7.8125 17.96875 8.515625 17.96875 9.375 C 17.96875 10.234375 17.265625 10.9375 16.40625 10.9375 Z M 16.40625 10.9375 "/>
<path style=" stroke:none;fill-rule:nonzero;fill:rgb(100%,41.960784%,26.27451%);fill-opacity:1;" d="M 17.96875 9.375 C 17.96875 10.234375 17.265625 10.9375 16.40625 10.9375 C 16.179688 10.9375 15.960938 10.890625 15.765625 10.796875 C 15.671875 10.601562 15.625 10.382812 15.625 10.15625 C 15.625 9.296875 16.328125 8.59375 17.1875 8.59375 C 17.414062 8.59375 17.632812 8.640625 17.828125 8.734375 C 17.921875 8.929688 17.96875 9.148438 17.96875 9.375 Z M 17.96875 9.375 "/>
<path style=" stroke:none;fill-rule:nonzero;fill:rgb(17.647059%,13.333333%,12.54902%);fill-opacity:1;" d="M 16.40625 13.28125 C 15.109375 13.28125 14.0625 14.328125 14.0625 15.625 C 14.0625 16.921875 15.109375 17.96875 16.40625 17.96875 C 17.703125 17.96875 18.75 16.921875 18.75 15.625 C 18.75 14.328125 17.703125 13.28125 16.40625 13.28125 Z M 16.40625 17.1875 C 15.546875 17.1875 14.84375 16.484375 14.84375 15.625 C 14.84375 14.765625 15.546875 14.0625 16.40625 14.0625 C 17.265625 14.0625 17.96875 14.765625 17.96875 15.625 C 17.96875 16.484375 17.265625 17.1875 16.40625 17.1875 Z M 16.40625 17.1875 "/>
<path style=" stroke:none;fill-rule:nonzero;fill:rgb(100%,63.529412%,55.294118%);fill-opacity:1;" d="M 17.96875 15.625 C 17.96875 16.484375 17.265625 17.1875 16.40625 17.1875 C 16.179688 17.1875 15.960938 17.140625 15.765625 17.046875 C 15.671875 16.851562 15.625 16.632812 15.625 16.40625 C 15.625 15.546875 16.328125 14.84375 17.1875 14.84375 C 17.414062 14.84375 17.632812 14.890625 17.828125 14.984375 C 17.921875 15.179688 17.96875 15.398438 17.96875 15.625 Z M 17.96875 15.625 "/>
</g>
</svg>
