<?xml version="1.0" encoding="UTF-8"?>
<svg xmlns="http://www.w3.org/2000/svg" xmlns:xlink="http://www.w3.org/1999/xlink" width="25px" height="25px" viewBox="0 0 25 25" version="1.1">
<g id="surface1">
<path style="fill:none;stroke-width:1.5;stroke-linecap:round;stroke-linejoin:round;stroke:rgb(0%,0%,0%);stroke-opacity:1;stroke-miterlimit:4;" d="M 12.000007 17.00251 L 12.000007 16.99501 M 12.000007 14.857508 C 12.000007 11.643757 15.000009 12.356257 15.000009 9.858756 C 15.000009 8.276255 13.653758 6.997504 12.000007 6.997504 C 10.653756 6.997504 9.521255 7.841254 9.138755 9.000005 M 21.000012 12.000007 C 21.000012 16.96876 16.96876 21.000012 12.000007 21.000012 C 7.031254 21.000012 3.000002 16.96876 3.000002 12.000007 C 3.000002 7.031254 7.031254 3.000002 12.000007 3.000002 C 16.96876 3.000002 21.000012 7.031254 21.000012 12.000007 Z M 21.000012 12.000007 " transform="matrix(1.041666,0,0,1.041666,0,0)"/>
</g>
</svg>
