<?xml version="1.0" encoding="UTF-8"?>
<svg xmlns="http://www.w3.org/2000/svg" xmlns:xlink="http://www.w3.org/1999/xlink" width="25px" height="25px" viewBox="0 0 25 25" version="1.1">
<defs>
<filter id="alpha" filterUnits="objectBoundingBox" x="0%" y="0%" width="100%" height="100%">
  <feColorMatrix type="matrix" in="SourceGraphic" values="0 0 0 0 1 0 0 0 0 1 0 0 0 0 1 0 0 0 1 0"/>
</filter>
<mask id="mask0">
  <g filter="url(#alpha)">
<rect x="0" y="0" width="25" height="25" style="fill:rgb(0%,0%,0%);fill-opacity:0.501961;stroke:none;"/>
  </g>
</mask>
<clipPath id="clip1">
  <rect x="0" y="0" width="25" height="25"/>
</clipPath>
<g id="surface5" clip-path="url(#clip1)">
<path style=" stroke:none;fill-rule:nonzero;fill:rgb(47.058824%,46.27451%,46.27451%);fill-opacity:1;" d="M 6.152344 15.625 L 6.738281 15.625 L 6.738281 21.09375 L 6.152344 21.09375 Z M 6.152344 15.625 "/>
</g>
<linearGradient id="linear0" gradientUnits="userSpaceOnUse" x1="54" y1="34.14" x2="54" y2="30.122" gradientTransform="matrix(0.195312,0,0,-0.195312,0,24.978516)">
<stop offset="0" style="stop-color:rgb(100%,9.019608%,26.666667%);stop-opacity:1;"/>
<stop offset="1" style="stop-color:rgb(83.529412%,0%,0%);stop-opacity:1;"/>
</linearGradient>
<linearGradient id="linear1" gradientUnits="userSpaceOnUse" x1="54" y1="26.14" x2="54" y2="22.12" gradientTransform="matrix(0.195312,0,0,-0.195312,0,24.978516)">
<stop offset="0" style="stop-color:rgb(46.27451%,100%,1.176471%);stop-opacity:1;"/>
<stop offset="1" style="stop-color:rgb(39.215686%,86.666667%,9.019608%);stop-opacity:1;"/>
</linearGradient>
</defs>
<g id="surface1">
<path style=" stroke:none;fill-rule:nonzero;fill:rgb(34.901961%,34.509804%,34.509804%);fill-opacity:1;" d="M 6.25 15.625 L 3.90625 12.5 L 2.34375 12.5 C 1.480469 12.5 0.78125 13.199219 0.78125 14.0625 L 0.78125 22.65625 C 0.78125 23.519531 1.480469 24.21875 2.34375 24.21875 L 3.90625 24.21875 L 6.25 21.09375 L 10.15625 21.09375 L 10.15625 15.625 Z M 6.25 15.625 "/>
<path style=" stroke:none;fill-rule:nonzero;fill:rgb(22.745098%,22.745098%,22.745098%);fill-opacity:1;" d="M 3.125 12.5 L 3.710938 12.5 L 3.710938 24.21875 L 3.125 24.21875 Z M 3.125 12.5 "/>
<path style=" stroke:none;fill-rule:nonzero;fill:rgb(34.901961%,34.509804%,34.509804%);fill-opacity:1;" d="M 23.65625 14.34375 L 22.65625 14.84375 L 19.53125 14.84375 L 19.53125 17.1875 L 22.65625 17.1875 L 23.65625 17.6875 C 23.914062 17.8125 24.21875 17.625 24.21875 17.335938 L 24.21875 14.695312 C 24.21875 14.40625 23.914062 14.214844 23.65625 14.34375 Z M 23.65625 14.34375 "/>
<path style=" stroke:none;fill-rule:nonzero;fill:rgb(24.705882%,24.705882%,24.705882%);fill-opacity:1;" d="M 12.5 9.375 L 17.96875 9.375 L 17.96875 14.84375 L 12.5 14.84375 Z M 12.5 9.375 "/>
<use xlink:href="#surface5" mask="url(#mask0)"/>
<path style=" stroke:none;fill-rule:nonzero;fill:rgb(22.745098%,22.745098%,22.745098%);fill-opacity:1;" d="M 7.960938 15.625 L 8.546875 15.625 L 8.546875 21.09375 L 7.960938 21.09375 Z M 7.960938 15.625 "/>
<path style=" stroke:none;fill-rule:nonzero;fill:rgb(31.372549%,30.980392%,30.980392%);fill-opacity:1;" d="M 15.625 7.03125 C 15.625 10.484375 12.828125 13.28125 9.375 13.28125 C 5.921875 13.28125 3.125 10.484375 3.125 7.03125 C 3.125 3.578125 5.921875 0.78125 9.375 0.78125 C 12.828125 0.78125 15.625 3.578125 15.625 7.03125 Z M 15.625 7.03125 "/>
<path style=" stroke:none;fill-rule:nonzero;fill:rgb(31.372549%,30.980392%,30.980392%);fill-opacity:1;" d="M 24.023438 8.984375 C 24.023438 11.359375 22.101562 13.28125 19.726562 13.28125 C 17.351562 13.28125 15.429688 11.359375 15.429688 8.984375 C 15.429688 6.609375 17.351562 4.6875 19.726562 4.6875 C 22.101562 4.6875 24.023438 6.609375 24.023438 8.984375 Z M 24.023438 8.984375 "/>
<path style=" stroke:none;fill-rule:nonzero;fill:rgb(31.372549%,30.980392%,30.980392%);fill-opacity:1;" d="M 20.3125 23.4375 L 10.15625 23.4375 C 9.292969 23.4375 8.59375 22.738281 8.59375 21.875 L 8.59375 14.84375 C 8.59375 13.980469 9.292969 13.28125 10.15625 13.28125 L 20.3125 13.28125 C 21.175781 13.28125 21.875 13.980469 21.875 14.84375 L 21.875 21.875 C 21.875 22.738281 21.175781 23.4375 20.3125 23.4375 Z M 20.3125 23.4375 "/>
<path style=" stroke:none;fill-rule:nonzero;fill:rgb(22.745098%,22.745098%,22.745098%);fill-opacity:1;" d="M 10.546875 18.359375 C 10.761719 18.359375 10.9375 18.535156 10.9375 18.75 C 10.9375 18.964844 10.761719 19.140625 10.546875 19.140625 C 10.332031 19.140625 10.15625 18.964844 10.15625 18.75 C 10.15625 18.535156 10.332031 18.359375 10.546875 18.359375 M 10.546875 17.96875 C 10.117188 17.96875 9.765625 18.320312 9.765625 18.75 C 9.765625 19.179688 10.117188 19.53125 10.546875 19.53125 C 10.976562 19.53125 11.328125 19.179688 11.328125 18.75 C 11.328125 18.320312 10.976562 17.96875 10.546875 17.96875 Z M 10.546875 17.96875 "/>
<path style=" stroke:none;fill-rule:nonzero;fill:rgb(22.745098%,22.745098%,22.745098%);fill-opacity:1;" d="M 10.546875 19.921875 C 10.761719 19.921875 10.9375 20.097656 10.9375 20.3125 C 10.9375 20.527344 10.761719 20.703125 10.546875 20.703125 C 10.332031 20.703125 10.15625 20.527344 10.15625 20.3125 C 10.15625 20.097656 10.332031 19.921875 10.546875 19.921875 M 10.546875 19.53125 C 10.117188 19.53125 9.765625 19.882812 9.765625 20.3125 C 9.765625 20.742188 10.117188 21.09375 10.546875 21.09375 C 10.976562 21.09375 11.328125 20.742188 11.328125 20.3125 C 11.328125 19.882812 10.976562 19.53125 10.546875 19.53125 Z M 10.546875 19.53125 "/>
<path style=" stroke:none;fill-rule:nonzero;fill:rgb(31.372549%,30.980392%,30.980392%);fill-opacity:1;" d="M 12.5 20.898438 C 12.179688 20.898438 11.914062 20.632812 11.914062 20.3125 L 11.914062 18.75 C 11.914062 18.429688 12.179688 18.164062 12.5 18.164062 L 18.75 18.164062 C 19.070312 18.164062 19.335938 18.429688 19.335938 18.75 L 19.335938 20.3125 C 19.335938 20.632812 19.070312 20.898438 18.75 20.898438 Z M 12.5 20.898438 "/>
<path style=" stroke:none;fill-rule:nonzero;fill:rgb(22.745098%,22.745098%,22.745098%);fill-opacity:1;" d="M 18.75 18.457031 C 18.914062 18.457031 19.042969 18.585938 19.042969 18.75 L 19.042969 20.3125 C 19.042969 20.476562 18.914062 20.605469 18.75 20.605469 L 12.5 20.605469 C 12.335938 20.605469 12.207031 20.476562 12.207031 20.3125 L 12.207031 18.75 C 12.207031 18.585938 12.335938 18.457031 12.5 18.457031 L 18.75 18.457031 M 18.75 17.871094 L 12.5 17.871094 C 12.015625 17.871094 11.621094 18.265625 11.621094 18.75 L 11.621094 20.3125 C 11.621094 20.796875 12.015625 21.191406 12.5 21.191406 L 18.75 21.191406 C 19.234375 21.191406 19.628906 20.796875 19.628906 20.3125 L 19.628906 18.75 C 19.628906 18.265625 19.234375 17.871094 18.75 17.871094 Z M 18.75 17.871094 "/>
<path style=" stroke:none;fill-rule:nonzero;fill:rgb(31.372549%,30.980392%,30.980392%);fill-opacity:1;" d="M 13.769531 7.03125 C 13.769531 9.457031 11.800781 11.425781 9.375 11.425781 C 6.949219 11.425781 4.980469 9.457031 4.980469 7.03125 C 4.980469 4.605469 6.949219 2.636719 9.375 2.636719 C 11.800781 2.636719 13.769531 4.605469 13.769531 7.03125 Z M 13.769531 7.03125 "/>
<path style=" stroke:none;fill-rule:nonzero;fill:rgb(22.745098%,22.745098%,22.745098%);fill-opacity:1;" d="M 9.375 2.929688 C 11.636719 2.929688 13.476562 4.769531 13.476562 7.03125 C 13.476562 9.292969 11.636719 11.132812 9.375 11.132812 C 7.113281 11.132812 5.273438 9.292969 5.273438 7.03125 C 5.273438 4.769531 7.113281 2.929688 9.375 2.929688 M 9.375 2.34375 C 6.789062 2.34375 4.6875 4.445312 4.6875 7.03125 C 4.6875 9.617188 6.789062 11.71875 9.375 11.71875 C 11.960938 11.71875 14.0625 9.617188 14.0625 7.03125 C 14.0625 4.445312 11.960938 2.34375 9.375 2.34375 Z M 9.375 2.34375 "/>
<path style=" stroke:none;fill-rule:nonzero;fill:rgb(31.372549%,30.980392%,30.980392%);fill-opacity:1;" d="M 22.167969 8.984375 C 22.167969 10.332031 21.074219 11.425781 19.726562 11.425781 C 18.378906 11.425781 17.285156 10.332031 17.285156 8.984375 C 17.285156 7.636719 18.378906 6.542969 19.726562 6.542969 C 21.074219 6.542969 22.167969 7.636719 22.167969 8.984375 Z M 22.167969 8.984375 "/>
<path style=" stroke:none;fill-rule:nonzero;fill:rgb(22.745098%,22.745098%,22.745098%);fill-opacity:1;" d="M 19.726562 6.835938 C 20.914062 6.835938 21.875 7.796875 21.875 8.984375 C 21.875 10.171875 20.914062 11.132812 19.726562 11.132812 C 18.539062 11.132812 17.578125 10.171875 17.578125 8.984375 C 17.578125 7.796875 18.539062 6.835938 19.726562 6.835938 M 19.726562 6.25 C 18.21875 6.25 16.992188 7.476562 16.992188 8.984375 C 16.992188 10.492188 18.21875 11.71875 19.726562 11.71875 C 21.234375 11.71875 22.460938 10.492188 22.460938 8.984375 C 22.460938 7.476562 21.234375 6.25 19.726562 6.25 Z M 19.726562 6.25 "/>
<path style=" stroke:none;fill-rule:nonzero;fill:rgb(38.823529%,38.431373%,38.431373%);fill-opacity:1;" d="M 10.9375 7.03125 C 10.9375 7.894531 10.238281 8.59375 9.375 8.59375 C 8.511719 8.59375 7.8125 7.894531 7.8125 7.03125 C 7.8125 6.167969 8.511719 5.46875 9.375 5.46875 C 10.238281 5.46875 10.9375 6.167969 10.9375 7.03125 Z M 10.9375 7.03125 "/>
<path style=" stroke:none;fill-rule:nonzero;fill:rgb(38.823529%,38.431373%,38.431373%);fill-opacity:1;" d="M 21.289062 8.984375 C 21.289062 9.847656 20.589844 10.546875 19.726562 10.546875 C 18.863281 10.546875 18.164062 9.847656 18.164062 8.984375 C 18.164062 8.121094 18.863281 7.421875 19.726562 7.421875 C 20.589844 7.421875 21.289062 8.121094 21.289062 8.984375 Z M 21.289062 8.984375 "/>
<path style=" stroke:none;fill-rule:nonzero;fill:url(#linear0);" d="M 10.9375 18.75 C 10.9375 18.964844 10.761719 19.140625 10.546875 19.140625 C 10.332031 19.140625 10.15625 18.964844 10.15625 18.75 C 10.15625 18.535156 10.332031 18.359375 10.546875 18.359375 C 10.761719 18.359375 10.9375 18.535156 10.9375 18.75 Z M 10.9375 18.75 "/>
<path style=" stroke:none;fill-rule:nonzero;fill:url(#linear1);" d="M 10.9375 20.3125 C 10.9375 20.527344 10.761719 20.703125 10.546875 20.703125 C 10.332031 20.703125 10.15625 20.527344 10.15625 20.3125 C 10.15625 20.097656 10.332031 19.921875 10.546875 19.921875 C 10.761719 19.921875 10.9375 20.097656 10.9375 20.3125 Z M 10.9375 20.3125 "/>
</g>
</svg>
