<?xml version="1.0" encoding="UTF-8"?>
<svg xmlns="http://www.w3.org/2000/svg" xmlns:xlink="http://www.w3.org/1999/xlink" width="25px" height="25px" viewBox="0 0 25 25" version="1.1">
<g id="surface1">
<path style="fill:none;stroke-width:1.5;stroke-linecap:round;stroke-linejoin:round;stroke:rgb(16.078431%,17.647059%,19.607843%);stroke-opacity:1;stroke-miterlimit:4;" d="M 9.16875 14.83125 L 14.83125 9.16875 " transform="matrix(1.041667,0,0,1.041667,0,0)"/>
<path style="fill:none;stroke-width:1.5;stroke-linecap:round;stroke-linejoin:round;stroke:rgb(16.078431%,17.647059%,19.607843%);stroke-opacity:1;stroke-miterlimit:4;" d="M 14.83125 14.83125 L 9.16875 9.16875 " transform="matrix(1.041667,0,0,1.041667,0,0)"/>
<path style="fill:none;stroke-width:1.5;stroke-linecap:round;stroke-linejoin:round;stroke:rgb(16.078431%,17.647059%,19.607843%);stroke-opacity:1;stroke-miterlimit:4;" d="M 9 22.00125 L 15 22.00125 C 19.99875 22.00125 22.00125 19.99875 22.00125 15 L 22.00125 9 C 22.00125 4.00125 19.99875 1.99875 15 1.99875 L 9 1.99875 C 4.00125 1.99875 1.99875 4.00125 1.99875 9 L 1.99875 15 C 1.99875 19.99875 4.00125 22.00125 9 22.00125 Z M 9 22.00125 " transform="matrix(1.041667,0,0,1.041667,0,0)"/>
</g>
</svg>
