<?xml version="1.0" encoding="UTF-8"?>
<svg xmlns="http://www.w3.org/2000/svg" xmlns:xlink="http://www.w3.org/1999/xlink" width="25px" height="25px" viewBox="0 0 25 25" version="1.1">
<g id="surface1">
<path style=" stroke:none;fill-rule:nonzero;fill:rgb(94.509804%,40.392157%,13.72549%);fill-opacity:1;" d="M 4.453125 20.75 C 4.175781 20.75 3.949219 20.527344 3.949219 20.25 C 3.949219 19.96875 4.175781 19.746094 4.453125 19.746094 C 4.730469 19.746094 4.957031 19.96875 4.957031 20.25 C 4.957031 20.527344 4.730469 20.75 4.453125 20.75 Z M 4.453125 20.085938 C 4.367188 20.085938 4.292969 20.160156 4.292969 20.25 C 4.292969 20.335938 4.367188 20.410156 4.453125 20.410156 C 4.539062 20.410156 4.613281 20.335938 4.613281 20.25 C 4.613281 20.160156 4.539062 20.085938 4.453125 20.085938 Z M 4.453125 20.085938 "/>
<path style=" stroke:none;fill-rule:nonzero;fill:rgb(0%,0%,0%);fill-opacity:1;" d="M 19.679688 12.050781 C 19.679688 12.105469 19.632812 12.152344 19.574219 12.152344 C 19.519531 12.152344 19.472656 12.105469 19.472656 12.050781 C 19.472656 11.996094 19.519531 11.949219 19.574219 11.949219 C 19.632812 11.949219 19.679688 11.996094 19.679688 12.050781 Z M 19.679688 12.050781 "/>
<path style=" stroke:none;fill-rule:nonzero;fill:rgb(0%,0%,0%);fill-opacity:1;" d="M 19.78125 2.835938 C 19.78125 2.894531 19.734375 2.9375 19.679688 2.9375 C 19.621094 2.9375 19.574219 2.894531 19.574219 2.835938 C 19.574219 2.78125 19.621094 2.734375 19.679688 2.734375 C 19.734375 2.734375 19.78125 2.78125 19.78125 2.835938 Z M 19.78125 2.835938 "/>
<path style=" stroke:none;fill-rule:nonzero;fill:rgb(0%,0%,0%);fill-opacity:1;" d="M 3.652344 6.878906 C 3.652344 6.9375 3.605469 6.984375 3.550781 6.984375 C 3.492188 6.984375 3.449219 6.9375 3.449219 6.878906 C 3.449219 6.824219 3.492188 6.777344 3.550781 6.777344 C 3.605469 6.777344 3.652344 6.824219 3.652344 6.878906 Z M 3.652344 6.878906 "/>
<path style=" stroke:none;fill-rule:nonzero;fill:rgb(0%,0%,0%);fill-opacity:1;" d="M 19.042969 2.539062 C 19.042969 2.621094 18.976562 2.691406 18.890625 2.691406 C 18.808594 2.691406 18.738281 2.621094 18.738281 2.539062 C 18.738281 2.457031 18.808594 2.386719 18.890625 2.386719 C 18.976562 2.386719 19.042969 2.457031 19.042969 2.539062 Z M 19.042969 2.539062 "/>
<path style=" stroke:none;fill-rule:nonzero;fill:rgb(98.431373%,82.352941%,3.921569%);fill-opacity:1;" d="M 20.464844 11.304688 C 20.140625 11.304688 19.882812 11.046875 19.882812 10.722656 C 19.882812 10.398438 20.140625 10.140625 20.464844 10.140625 C 20.785156 10.140625 21.046875 10.398438 21.046875 10.722656 C 21.046875 11.046875 20.785156 11.304688 20.464844 11.304688 Z M 20.464844 10.484375 C 20.332031 10.484375 20.226562 10.589844 20.226562 10.722656 C 20.226562 10.855469 20.332031 10.960938 20.464844 10.960938 C 20.59375 10.960938 20.703125 10.855469 20.703125 10.722656 C 20.703125 10.589844 20.59375 10.484375 20.464844 10.484375 Z M 20.464844 10.484375 "/>
<path style=" stroke:none;fill-rule:nonzero;fill:rgb(94.509804%,40.392157%,13.72549%);fill-opacity:1;" d="M 22.859375 19.277344 L 22.691406 19.277344 L 22.691406 19.105469 C 22.691406 19.015625 22.613281 18.9375 22.519531 18.9375 C 22.425781 18.9375 22.347656 19.015625 22.347656 19.105469 L 22.347656 19.277344 L 22.179688 19.277344 C 22.085938 19.277344 22.007812 19.355469 22.007812 19.449219 C 22.007812 19.539062 22.085938 19.617188 22.179688 19.617188 L 22.347656 19.617188 L 22.347656 19.789062 C 22.347656 19.882812 22.425781 19.960938 22.519531 19.960938 C 22.613281 19.960938 22.691406 19.882812 22.691406 19.789062 L 22.691406 19.617188 L 22.859375 19.617188 C 22.953125 19.617188 23.03125 19.539062 23.03125 19.449219 C 23.03125 19.355469 22.953125 19.277344 22.859375 19.277344 Z M 22.859375 19.277344 "/>
<path style=" stroke:none;fill-rule:nonzero;fill:rgb(100%,89.411765%,72.156863%);fill-opacity:1;" d="M 21.664062 16.09375 C 21.660156 16.09375 21.660156 16.09375 21.65625 16.09375 C 19.460938 16.09375 17.679688 14.316406 17.679688 12.117188 C 17.679688 9.921875 19.457031 8.144531 21.65625 8.144531 C 21.660156 8.144531 21.660156 8.144531 21.664062 8.144531 C 22.046875 8.144531 22.300781 7.746094 22.117188 7.40625 C 20.425781 4.234375 17.070312 2.074219 13.21875 2.09375 C 7.683594 2.125 3.242188 6.585938 3.242188 12.121094 C 3.242188 17.65625 7.730469 22.144531 13.265625 22.144531 C 17.101562 22.144531 20.425781 19.996094 22.113281 16.835938 C 22.296875 16.5 22.050781 16.089844 21.664062 16.09375 Z M 15.421875 19.265625 C 14.628906 19.265625 13.984375 18.625 13.984375 17.832031 C 13.984375 17.042969 14.628906 16.398438 15.421875 16.398438 C 16.210938 16.398438 16.855469 17.042969 16.855469 17.832031 C 16.855469 18.625 16.210938 19.265625 15.421875 19.265625 Z M 15.421875 19.265625 "/>
<path style=" stroke:none;fill-rule:nonzero;fill:rgb(90.588235%,81.568627%,66.27451%);fill-opacity:1;" d="M 21.664062 16.09375 C 21.660156 16.09375 21.660156 16.09375 21.65625 16.09375 C 19.460938 16.09375 17.679688 14.316406 17.679688 12.117188 C 17.679688 9.921875 19.457031 8.144531 21.65625 8.144531 C 21.660156 8.144531 21.660156 8.144531 21.664062 8.144531 C 22.046875 8.144531 22.300781 7.746094 22.117188 7.40625 C 20.425781 4.234375 17.070312 2.074219 13.21875 2.09375 C 13.007812 2.09375 12.796875 2.105469 12.585938 2.121094 C 16.128906 2.359375 19.164062 4.4375 20.75 7.40625 C 20.933594 7.746094 20.679688 8.148438 20.296875 8.144531 C 20.292969 8.144531 20.292969 8.144531 20.289062 8.144531 C 18.09375 8.144531 16.65625 9.921875 16.65625 12.117188 C 16.65625 14.316406 18.089844 16.09375 20.289062 16.09375 C 20.292969 16.09375 20.292969 16.09375 20.296875 16.09375 C 20.683594 16.09375 20.933594 16.5 20.746094 16.839844 C 19.160156 19.808594 16.128906 21.886719 12.585938 22.125 C 12.8125 22.140625 13.035156 22.148438 13.265625 22.148438 C 17.097656 22.148438 20.425781 20 22.113281 16.839844 C 22.296875 16.5 22.050781 16.089844 21.664062 16.09375 Z M 21.664062 16.09375 "/>
<path style=" stroke:none;fill-rule:nonzero;fill:rgb(100%,100%,100%);fill-opacity:1;" d="M 4.234375 12.117188 C 4.234375 6.777344 8.617188 2.425781 13.886719 2.109375 C 13.667969 2.09375 13.441406 2.089844 13.21875 2.089844 C 7.683594 2.117188 3.242188 6.582031 3.242188 12.113281 C 3.242188 17.652344 7.730469 22.140625 13.265625 22.140625 C 13.476562 22.140625 13.679688 22.132812 13.886719 22.117188 C 8.636719 21.804688 4.234375 17.453125 4.234375 12.117188 Z M 4.234375 12.117188 "/>
<path style=" stroke:none;fill-rule:nonzero;fill:rgb(30.588235%,60.784314%,83.137255%);fill-opacity:1;" d="M 6.101562 3.117188 L 5.933594 3.117188 L 5.933594 2.945312 C 5.933594 2.851562 5.855469 2.773438 5.761719 2.773438 C 5.667969 2.773438 5.589844 2.851562 5.589844 2.945312 L 5.589844 3.117188 L 5.421875 3.117188 C 5.328125 3.117188 5.25 3.191406 5.25 3.285156 C 5.25 3.378906 5.328125 3.457031 5.421875 3.457031 L 5.589844 3.457031 L 5.589844 3.628906 C 5.589844 3.71875 5.667969 3.796875 5.761719 3.796875 C 5.855469 3.796875 5.933594 3.71875 5.933594 3.628906 L 5.933594 3.457031 L 6.101562 3.457031 C 6.195312 3.457031 6.273438 3.378906 6.273438 3.285156 C 6.273438 3.191406 6.195312 3.117188 6.101562 3.117188 Z M 6.101562 3.117188 "/>
<path style=" stroke:none;fill-rule:nonzero;fill:rgb(0%,0%,0%);fill-opacity:1;" d="M 21.078125 20.773438 C 21.078125 20.828125 21.03125 20.875 20.976562 20.875 C 20.921875 20.875 20.875 20.828125 20.875 20.773438 C 20.875 20.714844 20.921875 20.667969 20.976562 20.667969 C 21.03125 20.667969 21.078125 20.714844 21.078125 20.773438 Z M 21.078125 20.773438 "/>
<path style=" stroke:none;fill-rule:nonzero;fill:rgb(0%,0%,0%);fill-opacity:1;" d="M 13.265625 22.441406 C 11.324219 22.441406 9.421875 21.898438 7.78125 20.867188 C 6.1875 19.867188 4.890625 18.445312 4.046875 16.765625 C 3.972656 16.621094 4.03125 16.445312 4.179688 16.371094 C 4.324219 16.296875 4.5 16.359375 4.574219 16.503906 C 5.375 18.085938 6.589844 19.421875 8.101562 20.371094 C 9.648438 21.34375 11.4375 21.855469 13.269531 21.855469 C 16.871094 21.855469 20.160156 19.882812 21.859375 16.703125 C 21.914062 16.605469 21.875 16.523438 21.855469 16.488281 C 21.835938 16.460938 21.78125 16.386719 21.667969 16.386719 L 21.660156 16.386719 C 19.304688 16.386719 17.390625 14.472656 17.390625 12.117188 C 17.390625 11.957031 17.523438 11.824219 17.683594 11.824219 C 17.847656 11.824219 17.976562 11.957031 17.976562 12.117188 C 17.976562 14.148438 19.628906 15.800781 21.660156 15.800781 L 21.667969 15.800781 C 21.953125 15.800781 22.210938 15.945312 22.359375 16.1875 C 22.503906 16.429688 22.507812 16.722656 22.378906 16.976562 C 20.570312 20.347656 17.078125 22.441406 13.265625 22.441406 Z M 15.421875 19.625 C 14.429688 19.625 13.625 18.820312 13.625 17.828125 C 13.625 16.835938 14.429688 16.03125 15.421875 16.03125 C 16.410156 16.03125 17.21875 16.835938 17.21875 17.828125 C 17.21875 18.820312 16.410156 19.625 15.421875 19.625 Z M 15.421875 16.617188 C 14.75 16.617188 14.210938 17.15625 14.210938 17.828125 C 14.210938 18.496094 14.75 19.039062 15.421875 19.039062 C 16.089844 19.039062 16.632812 18.496094 16.632812 17.828125 C 16.632812 17.15625 16.089844 16.617188 15.421875 16.617188 Z M 4.015625 16.289062 C 3.902344 16.289062 3.789062 16.222656 3.746094 16.109375 C 3.550781 15.644531 3.394531 15.167969 3.265625 14.683594 C 3.226562 14.527344 3.320312 14.367188 3.476562 14.328125 C 3.632812 14.289062 3.792969 14.378906 3.832031 14.535156 C 3.949219 14.996094 4.101562 15.445312 4.28125 15.882812 C 4.34375 16.035156 4.273438 16.207031 4.125 16.265625 C 4.09375 16.285156 4.054688 16.289062 4.015625 16.289062 Z M 3.40625 14.242188 C 3.273438 14.242188 3.148438 14.144531 3.121094 14.003906 C 3 13.375 2.949219 12.828125 2.949219 12.117188 C 2.949219 9.367188 4.015625 6.777344 5.945312 4.839844 C 7.882812 2.894531 10.464844 1.816406 13.21875 1.800781 C 13.238281 1.800781 13.25 1.800781 13.273438 1.800781 C 17.089844 1.800781 20.578125 3.890625 22.378906 7.269531 C 22.507812 7.515625 22.503906 7.808594 22.359375 8.046875 C 22.210938 8.292969 21.953125 8.4375 21.664062 8.4375 L 21.65625 8.4375 C 20.011719 8.4375 18.554688 9.546875 18.109375 11.128906 C 18.066406 11.285156 17.90625 11.378906 17.75 11.332031 C 17.59375 11.289062 17.5 11.128906 17.542969 10.972656 C 18.058594 9.136719 19.746094 7.851562 21.65625 7.851562 L 21.664062 7.851562 C 21.742188 7.851562 21.816406 7.8125 21.855469 7.746094 C 21.875 7.707031 21.910156 7.632812 21.859375 7.542969 C 20.160156 4.359375 16.871094 2.386719 13.265625 2.386719 C 13.253906 2.386719 13.234375 2.386719 13.21875 2.386719 C 10.621094 2.402344 8.183594 3.417969 6.363281 5.25 C 4.539062 7.078125 3.535156 9.523438 3.535156 12.117188 C 3.535156 12.792969 3.585938 13.304688 3.695312 13.894531 C 3.726562 14.058594 3.625 14.207031 3.46875 14.238281 C 3.445312 14.242188 3.429688 14.242188 3.40625 14.242188 Z M 3.40625 14.242188 "/>
<path style=" stroke:none;fill-rule:nonzero;fill:rgb(93.333333%,23.529412%,47.843137%);fill-opacity:1;" d="M 11.738281 7.128906 C 11.738281 5.992188 11.082031 5.074219 10.269531 5.074219 C 9.457031 5.074219 8.796875 5.992188 8.796875 7.128906 C 8.796875 8.265625 9.457031 9.183594 10.269531 9.183594 C 11.082031 9.183594 11.738281 8.265625 11.738281 7.128906 Z M 11.738281 7.128906 "/>
<path style=" stroke:none;fill-rule:nonzero;fill:rgb(100%,100%,100%);fill-opacity:1;" d="M 10.648438 7.128906 C 10.648438 5.992188 9.992188 5.074219 9.179688 5.074219 C 8.367188 5.074219 7.710938 5.992188 7.710938 7.128906 C 7.710938 8.265625 8.367188 9.183594 9.179688 9.183594 C 9.992188 9.183594 10.648438 8.265625 10.648438 7.128906 Z M 10.648438 7.128906 "/>
<path style=" stroke:none;fill-rule:nonzero;fill:rgb(94.117647%,37.254902%,53.333333%);fill-opacity:1;" d="M 10.746094 7.105469 C 10.722656 5.96875 10.171875 5.058594 9.515625 5.074219 C 8.855469 5.085938 8.339844 6.019531 8.363281 7.152344 C 8.386719 8.289062 8.9375 9.199219 9.597656 9.183594 C 10.253906 9.171875 10.769531 8.238281 10.746094 7.105469 Z M 10.746094 7.105469 "/>
<path style=" stroke:none;fill-rule:nonzero;fill:rgb(21.568627%,41.176471%,64.705882%);fill-opacity:1;" d="M 17.617188 6.058594 C 17.617188 4.925781 16.960938 4.003906 16.148438 4.003906 C 15.335938 4.003906 14.675781 4.925781 14.675781 6.058594 C 14.675781 7.195312 15.335938 8.117188 16.148438 8.117188 C 16.960938 8.117188 17.617188 7.195312 17.617188 6.058594 Z M 17.617188 6.058594 "/>
<path style=" stroke:none;fill-rule:nonzero;fill:rgb(100%,100%,100%);fill-opacity:1;" d="M 16.523438 6.058594 C 16.523438 4.925781 15.867188 4.003906 15.054688 4.003906 C 14.242188 4.003906 13.585938 4.925781 13.585938 6.058594 C 13.585938 7.195312 14.242188 8.117188 15.054688 8.117188 C 15.867188 8.117188 16.523438 7.195312 16.523438 6.058594 Z M 16.523438 6.058594 "/>
<path style=" stroke:none;fill-rule:nonzero;fill:rgb(30.588235%,60.784314%,83.137255%);fill-opacity:1;" d="M 16.625 6.058594 C 16.625 4.925781 16.09375 4.003906 15.433594 4.003906 C 14.777344 4.003906 14.242188 4.925781 14.242188 6.058594 C 14.242188 7.195312 14.777344 8.117188 15.433594 8.117188 C 16.09375 8.117188 16.625 7.195312 16.625 6.058594 Z M 16.625 6.058594 "/>
<path style=" stroke:none;fill-rule:nonzero;fill:rgb(98.039216%,68.627451%,10.196078%);fill-opacity:1;" d="M 9.136719 12.5 C 9.136719 11.363281 8.476562 10.445312 7.664062 10.445312 C 6.855469 10.445312 6.195312 11.363281 6.195312 12.5 C 6.195312 13.636719 6.855469 14.554688 7.664062 14.554688 C 8.476562 14.554688 9.136719 13.636719 9.136719 12.5 Z M 9.136719 12.5 "/>
<path style=" stroke:none;fill-rule:nonzero;fill:rgb(100%,100%,100%);fill-opacity:1;" d="M 8.046875 12.5 C 8.046875 11.363281 7.390625 10.445312 6.578125 10.445312 C 5.765625 10.445312 5.109375 11.363281 5.109375 12.5 C 5.109375 13.636719 5.765625 14.554688 6.578125 14.554688 C 7.390625 14.554688 8.046875 13.636719 8.046875 12.5 Z M 8.046875 12.5 "/>
<path style=" stroke:none;fill-rule:nonzero;fill:rgb(98.431373%,82.352941%,3.921569%);fill-opacity:1;" d="M 8.144531 12.5 C 8.144531 11.363281 7.609375 10.445312 6.953125 10.445312 C 6.296875 10.445312 5.761719 11.363281 5.761719 12.5 C 5.761719 13.636719 6.296875 14.554688 6.953125 14.554688 C 7.609375 14.554688 8.144531 13.636719 8.144531 12.5 Z M 8.144531 12.5 "/>
<path style=" stroke:none;fill-rule:nonzero;fill:rgb(94.117647%,32.156863%,14.509804%);fill-opacity:1;" d="M 11.695312 17.46875 C 11.695312 16.335938 11.035156 15.414062 10.226562 15.414062 C 9.414062 15.414062 8.753906 16.335938 8.753906 17.46875 C 8.753906 18.605469 9.414062 19.527344 10.226562 19.527344 C 11.035156 19.527344 11.695312 18.605469 11.695312 17.46875 Z M 11.695312 17.46875 "/>
<path style=" stroke:none;fill-rule:nonzero;fill:rgb(100%,100%,100%);fill-opacity:1;" d="M 10.605469 17.46875 C 10.605469 16.335938 9.949219 15.414062 9.136719 15.414062 C 8.324219 15.414062 7.664062 16.335938 7.664062 17.46875 C 7.664062 18.605469 8.324219 19.527344 9.136719 19.527344 C 9.949219 19.527344 10.605469 18.605469 10.605469 17.46875 Z M 10.605469 17.46875 "/>
<path style=" stroke:none;fill-rule:nonzero;fill:rgb(94.509804%,40.392157%,13.72549%);fill-opacity:1;" d="M 10.703125 17.46875 C 10.703125 16.335938 10.167969 15.414062 9.511719 15.414062 C 8.855469 15.414062 8.320312 16.335938 8.320312 17.46875 C 8.320312 18.605469 8.855469 19.527344 9.511719 19.527344 C 10.167969 19.527344 10.703125 18.605469 10.703125 17.46875 Z M 10.703125 17.46875 "/>
<path style=" stroke:none;fill-rule:nonzero;fill:rgb(0%,0%,0%);fill-opacity:1;" d="M 9.683594 9.476562 C 8.390625 9.476562 7.335938 8.421875 7.335938 7.128906 C 7.335938 5.835938 8.390625 4.78125 9.683594 4.78125 C 10.976562 4.78125 12.03125 5.835938 12.03125 7.128906 C 12.03125 8.421875 10.976562 9.476562 9.683594 9.476562 Z M 9.683594 5.367188 C 8.710938 5.367188 7.921875 6.15625 7.921875 7.128906 C 7.921875 8.101562 8.710938 8.890625 9.683594 8.890625 C 10.65625 8.890625 11.445312 8.101562 11.445312 7.128906 C 11.445312 6.15625 10.65625 5.367188 9.683594 5.367188 Z M 9.683594 5.367188 "/>
<path style=" stroke:none;fill-rule:nonzero;fill:rgb(0%,0%,0%);fill-opacity:1;" d="M 15.601562 8.40625 C 14.304688 8.40625 13.25 7.351562 13.25 6.058594 C 13.25 4.765625 14.304688 3.710938 15.601562 3.710938 C 16.894531 3.710938 17.949219 4.765625 17.949219 6.058594 C 17.949219 7.351562 16.894531 8.40625 15.601562 8.40625 Z M 15.601562 4.296875 C 14.628906 4.296875 13.835938 5.085938 13.835938 6.058594 C 13.835938 7.03125 14.628906 7.820312 15.601562 7.820312 C 16.570312 7.820312 17.363281 7.03125 17.363281 6.058594 C 17.363281 5.085938 16.570312 4.296875 15.601562 4.296875 Z M 15.601562 4.296875 "/>
<path style=" stroke:none;fill-rule:nonzero;fill:rgb(0%,0%,0%);fill-opacity:1;" d="M 7.121094 14.847656 C 5.824219 14.847656 4.769531 13.792969 4.769531 12.5 C 4.769531 11.207031 5.824219 10.152344 7.121094 10.152344 C 8.414062 10.152344 9.46875 11.207031 9.46875 12.5 C 9.46875 13.792969 8.414062 14.847656 7.121094 14.847656 Z M 7.121094 10.738281 C 6.148438 10.738281 5.355469 11.527344 5.355469 12.5 C 5.355469 13.472656 6.148438 14.261719 7.121094 14.261719 C 8.089844 14.261719 8.882812 13.472656 8.882812 12.5 C 8.882812 11.527344 8.089844 10.738281 7.121094 10.738281 Z M 7.121094 10.738281 "/>
<path style=" stroke:none;fill-rule:nonzero;fill:rgb(0%,0%,0%);fill-opacity:1;" d="M 9.683594 19.820312 C 8.390625 19.820312 7.335938 18.765625 7.335938 17.46875 C 7.335938 16.175781 8.390625 15.121094 9.683594 15.121094 C 10.976562 15.121094 12.03125 16.175781 12.03125 17.46875 C 12.03125 18.765625 10.976562 19.820312 9.683594 19.820312 Z M 9.683594 15.707031 C 8.710938 15.707031 7.921875 16.5 7.921875 17.46875 C 7.921875 18.441406 8.710938 19.234375 9.683594 19.234375 C 10.65625 19.234375 11.445312 18.441406 11.445312 17.46875 C 11.445312 16.5 10.65625 15.707031 9.683594 15.707031 Z M 9.683594 15.707031 "/>
</g>
</svg>
