<?xml version="1.0" encoding="UTF-8"?>
<svg xmlns="http://www.w3.org/2000/svg" xmlns:xlink="http://www.w3.org/1999/xlink" width="25px" height="25px" viewBox="0 0 25 25" version="1.1">
<g id="surface1">
<path style=" stroke:none;fill-rule:nonzero;fill:rgb(89.411765%,89.411765%,90.196078%);fill-opacity:1;" d="M 7 7.953125 C 7 7.953125 9.085938 5.359375 13.300781 5.359375 C 14.796875 5.359375 14.25 8.253906 14.25 8.253906 "/>
<path style=" stroke:none;fill-rule:nonzero;fill:rgb(26.27451%,29.411765%,33.72549%);fill-opacity:1;" d="M 14.847656 8.371094 L 13.648438 8.140625 C 13.765625 7.511719 13.800781 6.410156 13.507812 6.054688 C 13.464844 6.003906 13.414062 5.972656 13.300781 5.972656 C 9.425781 5.972656 7.492188 8.3125 7.476562 8.335938 L 6.523438 7.566406 C 6.613281 7.453125 8.84375 4.746094 13.300781 4.746094 C 13.765625 4.746094 14.164062 4.929688 14.449219 5.277344 C 15.214844 6.195312 14.917969 8.015625 14.847656 8.371094 Z M 14.847656 8.371094 "/>
<path style=" stroke:none;fill-rule:nonzero;fill:rgb(89.411765%,89.411765%,90.196078%);fill-opacity:1;" d="M 7 17.808594 C 7 17.808594 9.085938 20.402344 13.300781 20.402344 C 14.796875 20.402344 14.25 17.507812 14.25 17.507812 "/>
<path style=" stroke:none;fill-rule:nonzero;fill:rgb(26.27451%,29.411765%,33.72549%);fill-opacity:1;" d="M 13.300781 21.011719 C 8.84375 21.011719 6.613281 18.308594 6.523438 18.191406 L 7.472656 17.425781 C 7.550781 17.519531 9.453125 19.789062 13.300781 19.789062 C 13.414062 19.789062 13.464844 19.757812 13.507812 19.703125 C 13.800781 19.351562 13.765625 18.25 13.648438 17.617188 L 14.847656 17.390625 C 14.917969 17.746094 15.214844 19.5625 14.449219 20.484375 C 14.164062 20.832031 13.765625 21.011719 13.300781 21.011719 Z M 13.300781 21.011719 "/>
<path style=" stroke:none;fill-rule:nonzero;fill:rgb(69.411765%,88.235294%,97.254902%);fill-opacity:1;" d="M 10.203125 7.449219 C 6.253906 7.449219 2.785156 9.625 0.773438 12.910156 C 2.785156 16.191406 6.253906 18.367188 10.203125 18.367188 C 14.148438 18.367188 17.617188 16.191406 19.632812 12.910156 C 17.617188 9.625 14.148438 7.449219 10.203125 7.449219 Z M 10.203125 7.449219 "/>
<path style=" stroke:none;fill-rule:nonzero;fill:rgb(26.27451%,29.411765%,33.72549%);fill-opacity:1;" d="M 10.203125 18.976562 C 6.175781 18.976562 2.457031 16.828125 0.25 13.226562 L 0.0546875 12.910156 L 0.25 12.589844 C 2.457031 8.988281 6.175781 6.839844 10.203125 6.839844 C 14.226562 6.839844 17.945312 8.988281 20.152344 12.589844 L 20.351562 12.910156 L 20.152344 13.226562 C 17.945312 16.828125 14.226562 18.976562 10.203125 18.976562 Z M 1.496094 12.910156 C 3.5 15.949219 6.726562 17.753906 10.203125 17.753906 C 13.675781 17.753906 16.90625 15.949219 18.90625 12.910156 C 16.90625 9.867188 13.675781 8.0625 10.203125 8.0625 C 6.726562 8.0625 3.5 9.867188 1.496094 12.910156 Z M 1.496094 12.910156 "/>
<path style=" stroke:none;fill-rule:nonzero;fill:rgb(26.27451%,29.411765%,33.72549%);fill-opacity:1;" d="M 12.117188 15.402344 C 11.804688 15.402344 11.457031 15.335938 11.085938 15.1875 C 10.773438 15.058594 10.621094 14.703125 10.75 14.390625 C 10.875 14.078125 11.230469 13.925781 11.546875 14.054688 C 12.109375 14.28125 12.511719 14.15625 12.699219 13.964844 C 12.792969 13.867188 12.832031 13.757812 12.800781 13.683594 C 12.765625 13.605469 12.589844 13.472656 12.175781 13.4375 C 12.023438 13.449219 11.875 13.445312 11.753906 13.425781 C 11.441406 13.375 11.222656 13.09375 11.242188 12.78125 C 11.261719 12.46875 11.515625 12.21875 11.832031 12.210938 C 11.945312 12.207031 12.050781 12.207031 12.152344 12.210938 C 12.34375 12.183594 12.59375 12.109375 12.75 11.980469 C 12.839844 11.902344 12.839844 11.855469 12.839844 11.835938 C 12.738281 11.683594 12.050781 11.582031 11.394531 11.667969 C 11.058594 11.710938 10.753906 11.476562 10.707031 11.140625 C 10.664062 10.804688 10.898438 10.5 11.234375 10.453125 C 11.511719 10.417969 12.933594 10.265625 13.644531 10.898438 C 13.921875 11.144531 14.066406 11.476562 14.0625 11.851562 C 14.058594 12.210938 13.921875 12.535156 13.660156 12.800781 C 13.796875 12.945312 13.875 13.085938 13.917969 13.1875 C 14.15625 13.71875 14.019531 14.359375 13.578125 14.816406 C 13.265625 15.136719 12.757812 15.402344 12.117188 15.402344 Z M 12.117188 15.402344 "/>
<path style=" stroke:none;fill-rule:nonzero;fill:rgb(69.411765%,88.235294%,97.254902%);fill-opacity:1;" d="M 24.347656 17.257812 C 22.421875 16.304688 20.785156 14.792969 19.632812 12.90625 C 20.785156 11.027344 22.421875 9.511719 24.347656 8.558594 C 24.347656 8.558594 22.1875 13.066406 24.347656 17.257812 Z M 24.347656 17.257812 "/>
<path style=" stroke:none;fill-rule:nonzero;fill:rgb(26.27451%,29.411765%,33.72549%);fill-opacity:1;" d="M 24.347656 17.871094 C 24.257812 17.871094 24.164062 17.851562 24.078125 17.808594 C 22.050781 16.804688 20.332031 15.222656 19.109375 13.226562 C 18.992188 13.03125 18.992188 12.785156 19.109375 12.589844 C 20.332031 10.59375 22.050781 9.011719 24.078125 8.011719 C 24.308594 7.894531 24.59375 7.941406 24.777344 8.125 C 24.964844 8.308594 25.011719 8.585938 24.898438 8.824219 C 24.878906 8.863281 22.902344 13.117188 24.890625 16.980469 C 25.011719 17.214844 24.96875 17.5 24.785156 17.6875 C 24.667969 17.808594 24.507812 17.871094 24.347656 17.871094 Z M 20.355469 12.90625 C 21.109375 14.054688 22.050781 15.035156 23.128906 15.8125 C 22.492188 13.539062 22.824219 11.367188 23.210938 9.945312 C 22.097656 10.730469 21.128906 11.734375 20.355469 12.90625 Z M 20.355469 12.90625 "/>
<path style=" stroke:none;fill-rule:nonzero;fill:rgb(26.27451%,29.411765%,33.72549%);fill-opacity:1;" d="M 6.765625 18.28125 L 5.871094 17.445312 C 8.210938 14.945312 8.210938 10.871094 5.871094 8.371094 L 6.765625 7.535156 C 9.535156 10.496094 9.535156 15.320312 6.765625 18.28125 Z M 6.765625 18.28125 "/>
<path style=" stroke:none;fill-rule:nonzero;fill:rgb(26.27451%,29.411765%,33.72549%);fill-opacity:1;" d="M 4.21875 12.472656 C 4.21875 12.132812 4.492188 11.859375 4.832031 11.859375 C 5.167969 11.859375 5.441406 12.132812 5.441406 12.472656 C 5.441406 12.808594 5.167969 13.082031 4.832031 13.082031 C 4.492188 13.082031 4.21875 12.808594 4.21875 12.472656 Z M 4.21875 12.472656 "/>
</g>
</svg>
