<?xml version="1.0" encoding="UTF-8"?>
<svg xmlns="http://www.w3.org/2000/svg" xmlns:xlink="http://www.w3.org/1999/xlink" width="25px" height="25px" viewBox="0 0 25 25" version="1.1">
<defs>
<filter id="alpha" filterUnits="objectBoundingBox" x="0%" y="0%" width="100%" height="100%">
  <feColorMatrix type="matrix" in="SourceGraphic" values="0 0 0 0 1 0 0 0 0 1 0 0 0 0 1 0 0 0 1 0"/>
</filter>
<mask id="mask0">
  <g filter="url(#alpha)">
<rect x="0" y="0" width="25" height="25" style="fill:rgb(0%,0%,0%);fill-opacity:0.2;stroke:none;"/>
  </g>
</mask>
<clipPath id="clip1">
  <rect x="0" y="0" width="25" height="25"/>
</clipPath>
<g id="surface5" clip-path="url(#clip1)">
<path style=" stroke:none;fill-rule:nonzero;fill:rgb(100%,100%,100%);fill-opacity:1;" d="M 5.207031 14.582031 C 5.207031 10.867188 6.574219 7.617188 8.621094 5.773438 C 4.660156 6.199219 1.5625 9.980469 1.5625 14.582031 C 1.5625 19.183594 4.660156 22.964844 8.621094 23.394531 C 6.574219 21.550781 5.207031 18.300781 5.207031 14.582031 Z M 5.207031 14.582031 "/>
</g>
<mask id="mask1">
  <g filter="url(#alpha)">
<rect x="0" y="0" width="25" height="25" style="fill:rgb(0%,0%,0%);fill-opacity:0.101961;stroke:none;"/>
  </g>
</mask>
<clipPath id="clip2">
  <rect x="0" y="0" width="25" height="25"/>
</clipPath>
<g id="surface8" clip-path="url(#clip2)">
<path style=" stroke:none;fill-rule:nonzero;fill:rgb(0%,0%,0%);fill-opacity:1;" d="M 16.378906 5.773438 C 18.425781 7.617188 19.792969 10.867188 19.792969 14.582031 C 19.792969 18.300781 18.425781 21.550781 16.378906 23.394531 C 20.339844 22.964844 23.4375 19.1875 23.4375 14.582031 C 23.4375 9.980469 20.339844 6.199219 16.378906 5.773438 Z M 16.378906 5.773438 "/>
</g>
<linearGradient id="linear0" gradientUnits="userSpaceOnUse" x1="2.3375" y1="8.9172" x2="22.1046" y2="18.1347" gradientTransform="matrix(1.041667,0,0,1.041667,0,0)">
<stop offset="0" style="stop-color:rgb(100%,100%,100%);stop-opacity:0.2;"/>
<stop offset="1" style="stop-color:rgb(100%,100%,100%);stop-opacity:0;"/>
</linearGradient>
</defs>
<g id="surface1">
<path style=" stroke:none;fill-rule:nonzero;fill:rgb(97.647059%,62.352941%,21.960784%);fill-opacity:1;" d="M 15.625 5.730469 C 14.511719 5.730469 13.457031 5.996094 12.5 6.472656 C 11.542969 5.996094 10.488281 5.730469 9.375 5.730469 C 5.058594 5.730469 1.5625 9.695312 1.5625 14.582031 C 1.5625 19.472656 5.058594 23.4375 9.375 23.4375 C 10.488281 23.4375 14.511719 23.4375 15.625 23.4375 C 19.941406 23.4375 23.4375 19.472656 23.4375 14.582031 C 23.4375 9.695312 19.941406 5.730469 15.625 5.730469 Z M 15.625 5.730469 "/>
<use xlink:href="#surface5" mask="url(#mask0)"/>
<use xlink:href="#surface8" mask="url(#mask1)"/>
<path style=" stroke:none;fill-rule:nonzero;fill:rgb(36.078431%,40%,44.313725%);fill-opacity:1;" d="M 8.332031 8.855469 L 5.730469 13.019531 L 10.9375 13.019531 Z M 8.332031 8.855469 "/>
<path style=" stroke:none;fill-rule:nonzero;fill:rgb(36.078431%,40%,44.313725%);fill-opacity:1;" d="M 16.667969 8.855469 L 19.269531 13.019531 L 14.0625 13.019531 Z M 16.667969 8.855469 "/>
<path style=" stroke:none;fill-rule:nonzero;fill:rgb(36.078431%,40%,44.313725%);fill-opacity:1;" d="M 6.78125 16.144531 C 6.808594 17.589844 7.488281 18.980469 8.554688 19.90625 L 9.082031 18.933594 L 10.914062 19.917969 L 10.351562 20.96875 C 11.015625 21.214844 11.742188 21.355469 12.503906 21.355469 C 12.691406 21.355469 12.867188 21.320312 13.046875 21.304688 L 12.851562 19.957031 L 14.910156 19.65625 L 15.074219 20.777344 C 16.910156 19.929688 18.191406 18.136719 18.230469 16.144531 Z M 6.78125 16.144531 "/>
<path style=" stroke:none;fill-rule:nonzero;fill:rgb(5.098039%,69.411765%,29.411765%);fill-opacity:1;" d="M 11.980469 5.730469 L 11.980469 6.246094 C 12.152344 6.316406 12.332031 6.386719 12.5 6.472656 C 12.996094 6.226562 13.519531 6.039062 14.0625 5.910156 L 14.0625 5.730469 C 14.0625 3.429688 12.195312 1.5625 9.894531 1.5625 L 9.894531 3.644531 C 11.046875 3.644531 11.980469 4.578125 11.980469 5.730469 Z M 11.980469 5.730469 "/>
<path style=" stroke:none;fill-rule:nonzero;fill:rgb(18.823529%,23.529412%,25.882353%);fill-opacity:1;" d="M 11.394531 13.273438 C 11.484375 13.105469 11.480469 12.90625 11.378906 12.746094 L 8.773438 8.578125 C 8.582031 8.273438 8.082031 8.273438 7.890625 8.578125 L 5.285156 12.746094 C 5.183594 12.90625 5.179688 13.109375 5.273438 13.273438 C 5.363281 13.4375 5.539062 13.542969 5.726562 13.542969 L 10.9375 13.542969 C 11.128906 13.542969 11.300781 13.4375 11.394531 13.273438 Z M 6.667969 12.5 L 8.332031 9.835938 L 9.996094 12.5 Z M 6.667969 12.5 "/>
<path style=" stroke:none;fill-rule:nonzero;fill:rgb(18.823529%,23.529412%,25.882353%);fill-opacity:1;" d="M 17.109375 8.578125 C 16.917969 8.273438 16.414062 8.273438 16.226562 8.578125 L 13.621094 12.746094 C 13.519531 12.90625 13.515625 13.109375 13.605469 13.273438 C 13.699219 13.4375 13.871094 13.542969 14.0625 13.542969 L 19.269531 13.542969 C 19.460938 13.542969 19.632812 13.4375 19.726562 13.273438 C 19.820312 13.105469 19.8125 12.90625 19.710938 12.746094 Z M 15.003906 12.5 L 16.667969 9.835938 L 18.332031 12.5 Z M 15.003906 12.5 "/>
<path style=" stroke:none;fill-rule:nonzero;fill:rgb(18.823529%,23.529412%,25.882353%);fill-opacity:1;" d="M 18.230469 15.625 L 6.78125 15.625 C 6.640625 15.625 6.507812 15.679688 6.410156 15.78125 C 6.3125 15.882812 6.257812 16.015625 6.261719 16.15625 C 6.292969 17.714844 7.019531 19.261719 8.214844 20.300781 C 8.332031 20.40625 8.492188 20.449219 8.648438 20.417969 C 8.804688 20.390625 8.9375 20.292969 9.015625 20.152344 L 9.292969 19.636719 L 10.210938 20.132812 L 9.890625 20.722656 C 9.820312 20.855469 9.808594 21.011719 9.863281 21.152344 C 9.917969 21.292969 10.027344 21.40625 10.167969 21.457031 C 10.921875 21.734375 11.707031 21.875 12.503906 21.875 C 12.648438 21.875 12.785156 21.859375 12.917969 21.84375 L 13.089844 21.824219 C 13.230469 21.8125 13.363281 21.742188 13.453125 21.628906 C 13.542969 21.519531 13.582031 21.371094 13.5625 21.230469 L 13.441406 20.394531 L 14.472656 20.246094 L 14.558594 20.851562 C 14.582031 21.015625 14.679688 21.15625 14.824219 21.234375 C 14.96875 21.3125 15.144531 21.320312 15.292969 21.25 C 17.351562 20.304688 18.707031 18.304688 18.75 16.15625 C 18.753906 16.019531 18.699219 15.882812 18.601562 15.78125 C 18.503906 15.679688 18.367188 15.625 18.230469 15.625 Z M 15.480469 19.960938 L 15.425781 19.582031 C 15.40625 19.445312 15.335938 19.320312 15.222656 19.238281 C 15.113281 19.15625 14.972656 19.121094 14.835938 19.140625 L 12.773438 19.441406 C 12.492188 19.480469 12.292969 19.746094 12.335938 20.03125 L 12.449219 20.832031 C 11.996094 20.828125 11.546875 20.769531 11.109375 20.660156 L 11.371094 20.167969 C 11.507812 19.914062 11.414062 19.597656 11.160156 19.460938 L 9.324219 18.472656 C 9.207031 18.410156 9.0625 18.394531 8.929688 18.433594 C 8.796875 18.472656 8.6875 18.5625 8.621094 18.683594 L 8.429688 19.042969 C 7.851562 18.367188 7.46875 17.53125 7.34375 16.664062 L 17.664062 16.664062 C 17.472656 17.988281 16.667969 19.199219 15.480469 19.960938 Z M 15.480469 19.960938 "/>
<path style=" stroke:none;fill-rule:nonzero;fill:rgb(18.823529%,23.529412%,25.882353%);fill-opacity:1;" d="M 15.625 5.207031 C 15.257812 5.207031 14.898438 5.246094 14.539062 5.296875 C 14.316406 2.917969 12.332031 1.042969 9.894531 1.042969 C 9.609375 1.042969 9.375 1.273438 9.375 1.5625 L 9.375 3.644531 C 9.375 3.933594 9.609375 4.167969 9.894531 4.167969 C 10.683594 4.167969 11.328125 4.753906 11.4375 5.511719 C 10.765625 5.316406 10.078125 5.207031 9.375 5.207031 C 4.78125 5.207031 1.042969 9.414062 1.042969 14.582031 C 1.042969 19.753906 4.78125 23.957031 9.375 23.957031 L 15.625 23.957031 C 20.21875 23.957031 23.957031 19.753906 23.957031 14.582031 C 23.957031 9.414062 20.21875 5.207031 15.625 5.207031 Z M 10.417969 3.175781 L 10.417969 2.121094 C 12.113281 2.363281 13.421875 3.78125 13.523438 5.519531 C 13.175781 5.621094 12.835938 5.742188 12.5 5.894531 L 12.5 5.730469 C 12.5 4.472656 11.605469 3.417969 10.417969 3.175781 Z M 15.625 22.917969 L 9.375 22.917969 C 5.355469 22.917969 2.082031 19.179688 2.082031 14.582031 C 2.082031 9.988281 5.355469 6.25 9.375 6.25 C 10.199219 6.25 11.003906 6.414062 11.773438 6.726562 C 11.777344 6.726562 11.777344 6.726562 11.777344 6.726562 C 11.941406 6.792969 12.105469 6.855469 12.269531 6.9375 C 12.414062 7.007812 12.585938 7.007812 12.730469 6.9375 C 13.648438 6.480469 14.625 6.25 15.625 6.25 C 19.644531 6.25 22.914062 9.988281 22.914062 14.582031 C 22.914062 19.175781 19.644531 22.917969 15.625 22.917969 Z M 15.625 22.917969 "/>
<path style=" stroke:none;fill-rule:nonzero;fill:url(#linear0);" d="M 15.625 5.207031 C 15.257812 5.207031 14.898438 5.246094 14.539062 5.296875 C 14.316406 2.917969 12.332031 1.042969 9.894531 1.042969 C 9.609375 1.042969 9.375 1.273438 9.375 1.5625 L 9.375 3.644531 C 9.375 3.933594 9.609375 4.167969 9.894531 4.167969 C 10.683594 4.167969 11.328125 4.753906 11.4375 5.511719 C 10.765625 5.316406 10.078125 5.207031 9.375 5.207031 C 4.78125 5.207031 1.042969 9.414062 1.042969 14.582031 C 1.042969 19.753906 4.78125 23.957031 9.375 23.957031 L 15.625 23.957031 C 20.21875 23.957031 23.957031 19.753906 23.957031 14.582031 C 23.957031 9.414062 20.21875 5.207031 15.625 5.207031 Z M 15.625 5.207031 "/>
</g>
</svg>
