<?xml version="1.0" encoding="UTF-8"?>
<svg xmlns="http://www.w3.org/2000/svg" xmlns:xlink="http://www.w3.org/1999/xlink" width="25px" height="25px" viewBox="0 0 25 25" version="1.1">
<g id="surface1">
<path style=" stroke:none;fill-rule:nonzero;fill:rgb(92.941176%,69.803922%,84.705882%);fill-opacity:1;" d="M 11.667969 24.449219 C 7.871094 24.449219 4.792969 21.371094 4.792969 17.578125 L 4.792969 11.015625 L 18.539062 11.015625 L 18.539062 17.578125 C 18.539062 21.371094 15.460938 24.449219 11.667969 24.449219 Z M 11.667969 24.449219 "/>
<path style=" stroke:none;fill-rule:nonzero;fill:rgb(0%,0%,0%);fill-opacity:1;" d="M 19.027344 17.992188 C 20.617188 17.78125 21.851562 16.414062 21.851562 14.765625 C 21.851562 13.121094 20.625 11.757812 19.039062 11.539062 L 19.039062 11.015625 C 19.039062 10.742188 18.816406 10.519531 18.539062 10.519531 L 4.792969 10.519531 C 4.519531 10.519531 4.296875 10.742188 4.296875 11.015625 L 4.296875 17.578125 C 4.296875 20.332031 5.816406 22.738281 8.0625 24.003906 L 3.648438 24.003906 C 3.375 24.003906 3.148438 24.226562 3.148438 24.5 C 3.148438 24.777344 3.375 25 3.648438 25 L 19.582031 25 C 19.855469 25 20.078125 24.777344 20.078125 24.503906 C 20.078125 24.226562 19.855469 24.003906 19.582031 24.003906 L 15.273438 24.003906 C 17.402344 22.804688 18.882812 20.574219 19.027344 17.992188 Z M 20.855469 14.765625 C 20.855469 15.859375 20.070312 16.773438 19.039062 16.980469 L 19.039062 12.546875 C 20.070312 12.753906 20.855469 13.671875 20.855469 14.765625 Z M 11.667969 23.953125 C 8.152344 23.953125 5.292969 21.09375 5.292969 17.578125 L 5.292969 13.597656 L 10.3125 13.597656 C 10.589844 13.597656 10.8125 13.375 10.8125 13.097656 C 10.8125 12.824219 10.589844 12.601562 10.3125 12.601562 L 5.292969 12.601562 L 5.292969 11.515625 L 18.042969 11.515625 L 18.042969 17.578125 C 18.042969 21.09375 15.183594 23.953125 11.667969 23.953125 Z M 11.667969 23.953125 "/>
<path style=" stroke:none;fill-rule:nonzero;fill:rgb(0%,0%,0%);fill-opacity:1;" d="M 12.863281 12.601562 L 12.136719 12.601562 C 11.859375 12.601562 11.636719 12.824219 11.636719 13.097656 C 11.636719 13.375 11.859375 13.597656 12.136719 13.597656 L 12.863281 13.597656 C 13.140625 13.597656 13.363281 13.375 13.363281 13.097656 C 13.363281 12.824219 13.140625 12.601562 12.863281 12.601562 Z M 12.863281 12.601562 "/>
<path style=" stroke:none;fill-rule:nonzero;fill:rgb(0%,0%,0%);fill-opacity:1;" d="M 12.96875 3.316406 C 13.816406 3.316406 14.507812 4.007812 14.507812 4.855469 C 14.507812 5.703125 13.816406 6.394531 12.96875 6.394531 C 11.570312 6.394531 10.433594 7.53125 10.433594 8.929688 C 10.433594 9.203125 10.65625 9.425781 10.929688 9.425781 C 11.207031 9.425781 11.429688 9.203125 11.429688 8.929688 C 11.429688 8.082031 12.117188 7.390625 12.96875 7.390625 C 14.367188 7.390625 15.503906 6.253906 15.503906 4.855469 C 15.503906 3.457031 14.367188 2.320312 12.96875 2.320312 C 12.691406 2.320312 12.46875 2.542969 12.46875 2.816406 C 12.46875 3.09375 12.691406 3.316406 12.96875 3.316406 Z M 12.96875 3.316406 "/>
<path style=" stroke:none;fill-rule:nonzero;fill:rgb(0%,0%,0%);fill-opacity:1;" d="M 11.101562 5.070312 C 11.375 5.070312 11.597656 4.847656 11.597656 4.570312 C 11.597656 4.296875 11.375 4.074219 11.101562 4.074219 C 10.25 4.074219 9.5625 3.382812 9.5625 2.535156 C 9.5625 1.6875 10.25 0.996094 11.101562 0.996094 C 11.375 0.996094 11.597656 0.773438 11.597656 0.496094 C 11.597656 0.222656 11.375 0 11.101562 0 C 9.703125 0 8.566406 1.136719 8.566406 2.535156 C 8.566406 3.933594 9.703125 5.070312 11.101562 5.070312 Z M 11.101562 5.070312 "/>
</g>
</svg>
