<?xml version="1.0" encoding="UTF-8"?>
<svg xmlns="http://www.w3.org/2000/svg" xmlns:xlink="http://www.w3.org/1999/xlink" width="25px" height="25px" viewBox="0 0 25 25" version="1.1">
<g id="surface1">
<path style=" stroke:none;fill-rule:nonzero;fill:rgb(96.470588%,88.627451%,40%);fill-opacity:1;" d="M 14.238281 3.476562 L 10.761719 3.476562 L 10.761719 1.738281 C 10.761719 0.777344 11.539062 0 12.5 0 C 13.460938 0 14.238281 0.777344 14.238281 1.738281 Z M 14.238281 3.476562 "/>
<path style=" stroke:none;fill-rule:nonzero;fill:rgb(100%,81.568627%,39.215686%);fill-opacity:1;" d="M 12.5 0 C 12.347656 0 12.199219 0.0195312 12.054688 0.0585938 C 12.800781 0.253906 13.347656 0.933594 13.347656 1.738281 L 13.347656 3.476562 L 14.238281 3.476562 L 14.238281 1.738281 C 14.238281 0.777344 13.460938 0 12.5 0 Z M 12.5 0 "/>
<path style=" stroke:none;fill-rule:nonzero;fill:rgb(32.941176%,30.980392%,34.117647%);fill-opacity:1;" d="M 18.019531 16.46875 L 6.980469 16.46875 L 6.980469 6.527344 C 6.980469 3.898438 9.109375 1.769531 11.738281 1.769531 L 13.261719 1.769531 C 15.890625 1.769531 18.019531 3.898438 18.019531 6.527344 Z M 18.019531 16.46875 "/>
<path style=" stroke:none;fill-rule:nonzero;fill:rgb(27.058824%,25.098039%,27.058824%);fill-opacity:1;" d="M 18.019531 6.527344 C 18.019531 3.898438 15.890625 1.769531 13.261719 1.769531 L 12.039062 1.769531 C 14.667969 1.769531 16.800781 3.898438 16.800781 6.527344 L 16.800781 16.46875 L 18.019531 16.46875 Z M 18.019531 6.527344 "/>
<path style=" stroke:none;fill-rule:nonzero;fill:rgb(47.058824%,81.568627%,69.411765%);fill-opacity:1;" d="M 19.507812 24.003906 C 19.507812 24.554688 19.0625 25 18.511719 25 L 6.488281 25 C 5.9375 25 5.492188 24.554688 5.492188 24.003906 L 5.492188 19.058594 C 5.492188 16.296875 7.730469 14.054688 10.496094 14.054688 L 14.503906 14.054688 C 17.269531 14.054688 19.507812 16.296875 19.507812 19.058594 Z M 19.507812 24.003906 "/>
<path style=" stroke:none;fill-rule:nonzero;fill:rgb(38.039216%,66.666667%,71.764706%);fill-opacity:1;" d="M 19.507812 19.058594 C 19.507812 16.296875 17.269531 14.054688 14.503906 14.054688 L 13.035156 14.054688 C 15.796875 14.054688 18.039062 16.296875 18.039062 19.058594 L 18.039062 24.003906 C 18.039062 24.554688 17.59375 25 17.042969 25 L 18.511719 25 C 19.0625 25 19.507812 24.554688 19.507812 24.003906 Z M 19.507812 19.058594 "/>
<path style=" stroke:none;fill-rule:nonzero;fill:rgb(32.941176%,30.980392%,34.117647%);fill-opacity:1;" d="M 13.078125 17.636719 L 14.992188 12.886719 L 10.007812 12.886719 L 11.921875 17.636719 C 12.132812 18.15625 12.867188 18.15625 13.078125 17.636719 Z M 13.078125 17.636719 "/>
<path style=" stroke:none;fill-rule:nonzero;fill:rgb(27.058824%,25.098039%,27.058824%);fill-opacity:1;" d="M 16.015625 19.84375 C 15.808594 19.84375 15.636719 19.675781 15.636719 19.464844 L 15.636719 16.410156 C 15.636719 15.679688 15.332031 14.5625 14.925781 14.167969 C 14.773438 14.023438 14.769531 13.785156 14.914062 13.632812 C 15.058594 13.484375 15.296875 13.480469 15.449219 13.625 C 16.03125 14.1875 16.394531 15.511719 16.394531 16.410156 L 16.394531 19.464844 C 16.394531 19.675781 16.222656 19.84375 16.015625 19.84375 Z M 16.015625 19.84375 "/>
<path style=" stroke:none;fill-rule:nonzero;fill:rgb(27.058824%,25.098039%,27.058824%);fill-opacity:1;" d="M 8.984375 19.84375 C 8.777344 19.84375 8.605469 19.675781 8.605469 19.464844 L 8.605469 16.410156 C 8.605469 15.511719 8.96875 14.1875 9.550781 13.625 C 9.703125 13.480469 9.941406 13.484375 10.085938 13.632812 C 10.230469 13.785156 10.226562 14.023438 10.074219 14.167969 C 9.667969 14.5625 9.363281 15.679688 9.363281 16.410156 L 9.363281 19.464844 C 9.363281 19.675781 9.191406 19.84375 8.984375 19.84375 Z M 8.984375 19.84375 "/>
<path style=" stroke:none;fill-rule:nonzero;fill:rgb(96.470588%,94.509804%,94.509804%);fill-opacity:1;" d="M 17.140625 20.441406 C 17.140625 21.0625 16.636719 21.566406 16.015625 21.566406 C 15.394531 21.566406 14.890625 21.0625 14.890625 20.441406 C 14.890625 19.820312 15.394531 19.316406 16.015625 19.316406 C 16.636719 19.316406 17.140625 19.820312 17.140625 20.441406 Z M 17.140625 20.441406 "/>
<path style=" stroke:none;fill-rule:nonzero;fill:rgb(91.764706%,87.45098%,85.490196%);fill-opacity:1;" d="M 17.140625 20.441406 C 17.140625 19.820312 16.636719 19.316406 16.015625 19.316406 C 15.871094 19.316406 15.730469 19.34375 15.601562 19.394531 C 16.015625 19.558594 16.3125 19.964844 16.3125 20.441406 C 16.3125 20.917969 16.015625 21.324219 15.601562 21.488281 C 15.730469 21.539062 15.871094 21.566406 16.015625 21.566406 C 16.636719 21.566406 17.140625 21.0625 17.140625 20.441406 Z M 17.140625 20.441406 "/>
<path style=" stroke:none;fill-rule:nonzero;fill:rgb(96.470588%,94.509804%,94.509804%);fill-opacity:1;" d="M 10.125 23.617188 L 9.625 23.617188 C 9.417969 23.617188 9.246094 23.445312 9.246094 23.238281 C 9.246094 23.03125 9.417969 22.859375 9.625 22.859375 L 10.007812 22.859375 L 10.007812 20.925781 C 10.007812 20.363281 9.546875 19.902344 8.984375 19.902344 C 8.421875 19.902344 7.960938 20.363281 7.960938 20.925781 L 7.960938 22.859375 L 8.34375 22.859375 C 8.550781 22.859375 8.71875 23.03125 8.71875 23.238281 C 8.71875 23.445312 8.550781 23.617188 8.34375 23.617188 L 7.84375 23.617188 C 7.492188 23.617188 7.207031 23.332031 7.207031 22.980469 L 7.207031 20.925781 C 7.207031 19.945312 8.003906 19.148438 8.984375 19.148438 C 9.964844 19.148438 10.761719 19.945312 10.761719 20.925781 L 10.761719 22.980469 C 10.761719 23.332031 10.476562 23.617188 10.125 23.617188 Z M 10.125 23.617188 "/>
<path style=" stroke:none;fill-rule:nonzero;fill:rgb(96.470588%,94.509804%,94.509804%);fill-opacity:1;" d="M 12.5 23.714844 C 12.292969 23.714844 12.121094 23.546875 12.121094 23.335938 L 12.121094 21.296875 C 12.121094 21.089844 12.292969 20.921875 12.5 20.921875 C 12.707031 20.921875 12.878906 21.089844 12.878906 21.296875 L 12.878906 23.335938 C 12.878906 23.546875 12.707031 23.714844 12.5 23.714844 Z M 12.5 23.714844 "/>
<path style=" stroke:none;fill-rule:nonzero;fill:rgb(96.470588%,94.509804%,94.509804%);fill-opacity:1;" d="M 13.519531 22.695312 L 11.480469 22.695312 C 11.273438 22.695312 11.101562 22.527344 11.101562 22.316406 C 11.101562 22.109375 11.273438 21.941406 11.480469 21.941406 L 13.519531 21.941406 C 13.726562 21.941406 13.898438 22.109375 13.898438 22.316406 C 13.898438 22.527344 13.726562 22.695312 13.519531 22.695312 Z M 13.519531 22.695312 "/>
<path style=" stroke:none;fill-rule:nonzero;fill:rgb(88.627451%,65.490196%,43.921569%);fill-opacity:1;" d="M 8.109375 10.535156 L 7.734375 10.535156 C 7.171875 10.535156 6.714844 10.078125 6.714844 9.511719 L 6.714844 9.300781 C 6.714844 8.734375 7.171875 8.277344 7.734375 8.277344 L 8.109375 8.277344 Z M 8.109375 10.535156 "/>
<path style=" stroke:none;fill-rule:nonzero;fill:rgb(88.627451%,65.490196%,43.921569%);fill-opacity:1;" d="M 16.890625 10.535156 L 17.265625 10.535156 C 17.828125 10.535156 18.285156 10.078125 18.285156 9.511719 L 18.285156 9.300781 C 18.285156 8.734375 17.828125 8.277344 17.265625 8.277344 L 16.890625 8.277344 Z M 16.890625 10.535156 "/>
<path style=" stroke:none;fill-rule:nonzero;fill:rgb(94.509804%,81.568627%,64.705882%);fill-opacity:1;" d="M 16.992188 10.332031 C 16.992188 12.8125 14.980469 14.824219 12.5 14.824219 C 10.019531 14.824219 8.007812 12.8125 8.007812 10.332031 L 8.007812 7.53125 C 8.007812 7.480469 8.035156 7.433594 8.082031 7.410156 C 8.128906 7.386719 8.183594 7.390625 8.226562 7.425781 C 9.996094 8.796875 11.769531 8.714844 13.539062 7.304688 C 13.582031 7.269531 13.636719 7.265625 13.683594 7.289062 C 14.683594 7.796875 15.726562 7.773438 16.804688 7.328125 C 16.847656 7.3125 16.894531 7.316406 16.933594 7.339844 C 16.96875 7.367188 16.992188 7.410156 16.992188 7.453125 Z M 16.992188 10.332031 "/>
<path style=" stroke:none;fill-rule:nonzero;fill:rgb(94.509804%,72.54902%,52.54902%);fill-opacity:1;" d="M 13.683594 7.289062 C 13.636719 7.265625 13.582031 7.269531 13.539062 7.304688 C 11.769531 8.714844 9.996094 8.796875 8.226562 7.425781 C 8.183594 7.390625 8.128906 7.386719 8.082031 7.410156 C 8.035156 7.433594 8.007812 7.480469 8.007812 7.53125 L 8.007812 8.105469 C 9.78125 9.601562 11.554688 9.632812 13.324219 8.324219 C 13.496094 8.199219 13.722656 8.171875 13.917969 8.253906 C 14.339844 8.433594 14.769531 8.523438 15.207031 8.523438 C 15.597656 8.527344 15.914062 8.847656 15.914062 9.242188 L 15.914062 10.332031 C 15.914062 12.632812 14.1875 14.527344 11.960938 14.792969 C 12.136719 14.8125 12.316406 14.824219 12.5 14.824219 C 14.980469 14.824219 16.992188 12.8125 16.992188 10.332031 L 16.992188 7.453125 C 16.992188 7.410156 16.96875 7.367188 16.933594 7.339844 C 16.894531 7.316406 16.847656 7.3125 16.804688 7.328125 C 15.746094 7.765625 14.699219 7.804688 13.683594 7.289062 Z M 13.683594 7.289062 "/>
<path style=" stroke:none;fill-rule:nonzero;fill:rgb(27.058824%,25.098039%,27.058824%);fill-opacity:1;" d="M 14.542969 10.613281 C 14.335938 10.613281 14.167969 10.441406 14.167969 10.234375 L 14.167969 9.777344 C 14.167969 9.570312 14.335938 9.402344 14.542969 9.402344 C 14.753906 9.402344 14.921875 9.570312 14.921875 9.777344 L 14.921875 10.234375 C 14.921875 10.441406 14.753906 10.613281 14.542969 10.613281 Z M 14.542969 10.613281 "/>
<path style=" stroke:none;fill-rule:nonzero;fill:rgb(27.058824%,25.098039%,27.058824%);fill-opacity:1;" d="M 10.457031 10.613281 C 10.246094 10.613281 10.078125 10.441406 10.078125 10.234375 L 10.078125 9.777344 C 10.078125 9.570312 10.246094 9.402344 10.457031 9.402344 C 10.664062 9.402344 10.832031 9.570312 10.832031 9.777344 L 10.832031 10.234375 C 10.832031 10.441406 10.664062 10.613281 10.457031 10.613281 Z M 10.457031 10.613281 "/>
<path style=" stroke:none;fill-rule:nonzero;fill:rgb(85.490196%,29.019608%,32.941176%);fill-opacity:1;" d="M 12.5 12.746094 C 12.136719 12.746094 11.773438 12.613281 11.421875 12.347656 C 11.257812 12.21875 11.222656 11.984375 11.351562 11.816406 C 11.476562 11.652344 11.714844 11.617188 11.878906 11.746094 C 12.308594 12.070312 12.691406 12.070312 13.121094 11.746094 C 13.285156 11.617188 13.523438 11.652344 13.648438 11.816406 C 13.777344 11.984375 13.742188 12.21875 13.578125 12.347656 C 13.226562 12.613281 12.863281 12.746094 12.5 12.746094 Z M 12.5 12.746094 "/>
</g>
</svg>
