<?xml version="1.0" encoding="UTF-8"?>
<svg xmlns="http://www.w3.org/2000/svg" xmlns:xlink="http://www.w3.org/1999/xlink" width="25px" height="25px" viewBox="0 0 25 25" version="1.1">
<g id="surface1">
<path style=" stroke:none;fill-rule:nonzero;fill:rgb(37.647059%,25.098039%,92.54902%);fill-opacity:1;" d="M 21.976562 10.414062 L 9.65625 10.414062 C 9.335938 10.414062 9.070312 10.152344 9.070312 9.828125 C 9.070312 9.507812 9.335938 9.242188 9.65625 9.242188 L 21.976562 9.242188 C 22.300781 9.242188 22.5625 9.507812 22.5625 9.828125 C 22.5625 10.152344 22.300781 10.414062 21.976562 10.414062 Z M 21.976562 10.414062 "/>
<path style=" stroke:none;fill-rule:nonzero;fill:rgb(37.647059%,25.098039%,92.54902%);fill-opacity:1;" d="M 21.976562 5.390625 L 9.667969 5.390625 C 9.34375 5.390625 9.082031 5.125 9.082031 4.804688 C 9.082031 4.484375 9.34375 4.21875 9.667969 4.21875 L 21.976562 4.21875 C 22.300781 4.21875 22.5625 4.484375 22.5625 4.804688 C 22.5625 5.125 22.300781 5.390625 21.976562 5.390625 Z M 21.976562 5.390625 "/>
<path style=" stroke:none;fill-rule:nonzero;fill:rgb(37.647059%,25.098039%,92.54902%);fill-opacity:1;" d="M 21.96875 15.445312 L 9.667969 15.445312 C 9.34375 15.445312 9.082031 15.179688 9.082031 14.859375 C 9.082031 14.535156 9.34375 14.273438 9.667969 14.273438 L 21.96875 14.273438 C 22.289062 14.273438 22.554688 14.535156 22.554688 14.859375 C 22.554688 15.179688 22.289062 15.445312 21.96875 15.445312 Z M 21.96875 15.445312 "/>
<path style=" stroke:none;fill-rule:nonzero;fill:rgb(37.647059%,25.098039%,92.54902%);fill-opacity:1;" d="M 21.878906 20.460938 L 9.5625 20.460938 C 9.238281 20.460938 8.976562 20.195312 8.976562 19.875 C 8.976562 19.550781 9.238281 19.289062 9.5625 19.289062 L 21.878906 19.289062 C 22.203125 19.289062 22.464844 19.550781 22.464844 19.875 C 22.464844 20.195312 22.203125 20.460938 21.878906 20.460938 Z M 21.878906 20.460938 "/>
<path style=" stroke:none;fill-rule:nonzero;fill:rgb(4.313725%,86.27451%,28.627451%);fill-opacity:1;" d="M 5.070312 4.265625 L 4.105469 4.78125 C 3.925781 4.878906 3.832031 5.085938 3.882812 5.289062 C 3.953125 5.570312 4.273438 5.714844 4.53125 5.570312 L 5.015625 5.3125 L 5.015625 9.84375 C 5.015625 10.136719 5.253906 10.375 5.546875 10.375 C 5.839844 10.375 6.078125 10.136719 6.078125 9.84375 L 6.078125 4.875 C 6.078125 4.492188 5.773438 4.183594 5.390625 4.183594 C 5.277344 4.183594 5.164062 4.214844 5.070312 4.265625 Z M 5.070312 4.265625 "/>
<path style=" stroke:none;fill-rule:nonzero;fill:rgb(4.313725%,86.27451%,28.627451%);fill-opacity:1;" d="M 4.960938 19.292969 L 5.160156 19.082031 C 6.207031 17.953125 7.007812 16.996094 7.007812 15.820312 C 7.007812 14.898438 6.464844 13.964844 5.253906 13.964844 C 4.800781 13.964844 4.367188 14.097656 3.988281 14.34375 C 3.796875 14.472656 3.734375 14.730469 3.847656 14.929688 C 3.96875 15.152344 4.246094 15.226562 4.46875 15.097656 C 4.683594 14.976562 4.898438 14.910156 5.113281 14.910156 C 5.84375 14.910156 6 15.457031 6 15.917969 C 5.996094 16.765625 5.386719 17.515625 4.082031 18.90625 L 3.617188 19.414062 C 3.535156 19.507812 3.484375 19.625 3.484375 19.75 C 3.484375 20.023438 3.707031 20.25 3.984375 20.25 L 6.660156 20.25 C 6.921875 20.25 7.136719 20.035156 7.136719 19.769531 C 7.136719 19.507812 6.921875 19.292969 6.660156 19.292969 Z M 4.960938 19.292969 "/>
</g>
</svg>
