<?xml version="1.0" encoding="UTF-8"?>
<svg xmlns="http://www.w3.org/2000/svg" xmlns:xlink="http://www.w3.org/1999/xlink" width="25px" height="25px" viewBox="0 0 25 25" version="1.1">
<defs>
<clipPath id="clip1">
  <path d="M 1 1 L 24 1 L 24 22 L 1 22 Z M 1 1 "/>
</clipPath>
<clipPath id="clip2">
  <path d="M 21.539062 9.96875 C 21.578125 9.957031 21.601562 9.953125 21.613281 9.953125 C 22.988281 9.613281 23.949219 8.378906 23.949219 6.964844 C 23.949219 6.484375 23.949219 7.445312 23.949219 6.964844 C 23.949219 5.511719 23.074219 4.195312 21.730469 3.625 C 19.886719 2.851562 22.164062 3.808594 21.71875 3.621094 C 15.820312 1.144531 9.179688 1.144531 3.285156 3.621094 C 2.839844 3.808594 5.117188 2.851562 3.273438 3.625 C 1.929688 4.191406 1.054688 5.503906 1.054688 6.960938 C 1.054688 7.441406 1.054688 6.480469 1.054688 6.960938 C 1.054688 8.375 2.019531 9.605469 3.390625 9.945312 C 3.402344 9.945312 3.425781 9.953125 3.46875 9.964844 C 3.46875 15.726562 3.46875 19.332031 3.46875 20.773438 C 3.46875 21.113281 3.742188 21.390625 4.085938 21.390625 C 7.578125 21.378906 17.394531 21.34375 20.875 21.332031 C 21.238281 21.332031 21.539062 21.03125 21.539062 20.667969 C 21.539062 19.242188 21.539062 15.675781 21.539062 9.96875 Z M 21.539062 9.96875 "/>
</clipPath>
</defs>
<g id="surface1">
<path style=" stroke:none;fill-rule:nonzero;fill:rgb(96.470588%,86.27451%,66.666667%);fill-opacity:1;" d="M 21.539062 9.96875 C 21.578125 9.957031 21.601562 9.953125 21.613281 9.953125 C 22.988281 9.613281 23.949219 8.378906 23.949219 6.964844 C 23.949219 6.484375 23.949219 7.445312 23.949219 6.964844 C 23.949219 5.511719 23.074219 4.195312 21.730469 3.625 C 19.886719 2.851562 22.164062 3.808594 21.71875 3.621094 C 15.820312 1.144531 9.179688 1.144531 3.285156 3.621094 C 2.839844 3.808594 5.117188 2.851562 3.273438 3.625 C 1.929688 4.191406 1.054688 5.503906 1.054688 6.960938 C 1.054688 7.441406 1.054688 6.480469 1.054688 6.960938 C 1.054688 8.375 2.019531 9.605469 3.390625 9.945312 C 3.402344 9.945312 3.425781 9.953125 3.46875 9.964844 C 3.46875 15.726562 3.46875 19.332031 3.46875 20.773438 C 3.46875 21.113281 3.742188 21.390625 4.085938 21.390625 C 7.578125 21.378906 17.394531 21.34375 20.875 21.332031 C 21.238281 21.332031 21.539062 21.03125 21.539062 20.667969 C 21.539062 19.242188 21.539062 15.675781 21.539062 9.96875 Z M 21.539062 9.96875 "/>
<g clip-path="url(#clip1)" clip-rule="nonzero">
<g clip-path="url(#clip2)" clip-rule="nonzero">
<path style="fill:none;stroke-width:16;stroke-linecap:butt;stroke-linejoin:miter;stroke:rgb(84.705882%,68.235294%,36.862745%);stroke-opacity:1;stroke-miterlimit:4;" d="M 367.025625 169.8675 C 367.69125 169.667812 368.090625 169.60125 368.290312 169.60125 C 391.720312 163.810312 408.094687 142.776562 408.094687 118.680937 C 408.094687 110.49375 408.094687 126.868125 408.094687 118.680937 C 408.094687 93.919687 393.184687 71.488125 370.287187 61.77 C 338.869687 48.590625 377.675625 64.898438 370.0875 61.703437 C 269.578125 19.502812 156.421875 19.502812 55.979062 61.703437 C 48.390937 64.898438 87.196875 48.590625 55.779375 61.77 C 32.881875 71.421562 17.971875 93.786563 17.971875 118.614375 C 17.971875 126.801562 17.971875 110.427187 17.971875 118.614375 C 17.971875 142.71 34.412813 163.677188 57.77625 169.468125 C 57.975938 169.468125 58.375312 169.60125 59.1075 169.800938 C 59.1075 267.980625 59.1075 329.417812 59.1075 353.979375 C 59.1075 359.770312 63.766875 364.49625 69.624375 364.49625 C 129.13125 364.296562 296.402812 363.6975 355.71 363.497813 C 361.900312 363.497813 367.025625 358.3725 367.025625 352.182187 C 367.025625 327.886875 367.025625 267.115312 367.025625 169.8675 Z M 367.025625 169.8675 " transform="matrix(0.0586854,0,0,0.0586854,0,0)"/>
</g>
</g>
<path style=" stroke:none;fill-rule:nonzero;fill:rgb(92.54902%,79.215686%,53.72549%);fill-opacity:1;" d="M 4.8125 20.195312 C 4.8125 20.324219 4.660156 20.429688 4.472656 20.429688 C 4.285156 20.429688 4.132812 20.324219 4.132812 20.195312 C 4.132812 20.066406 4.285156 19.957031 4.472656 19.957031 C 4.660156 19.957031 4.8125 20.066406 4.8125 20.195312 Z M 4.8125 20.195312 "/>
<path style=" stroke:none;fill-rule:nonzero;fill:rgb(92.54902%,79.215686%,53.72549%);fill-opacity:1;" d="M 15.816406 3.703125 C 15.816406 3.832031 15.664062 3.9375 15.476562 3.9375 C 15.289062 3.9375 15.136719 3.832031 15.136719 3.703125 C 15.136719 3.574219 15.289062 3.46875 15.476562 3.46875 C 15.664062 3.46875 15.816406 3.574219 15.816406 3.703125 Z M 15.816406 3.703125 "/>
<path style=" stroke:none;fill-rule:nonzero;fill:rgb(76.862745%,61.568627%,34.117647%);fill-opacity:0.501961;" d="M 14.792969 2.140625 L 14.839844 2.140625 L 14.851562 2.148438 L 14.863281 2.152344 L 14.875 2.160156 L 14.886719 2.164062 L 14.898438 2.171875 L 14.910156 2.175781 L 14.921875 2.183594 L 14.933594 2.1875 L 14.945312 2.195312 L 14.957031 2.199219 L 14.992188 2.234375 L 15.007812 2.246094 L 15.054688 2.292969 L 15.058594 2.304688 L 15.066406 2.316406 L 15.070312 2.328125 L 15.078125 2.339844 L 15.082031 2.351562 L 15.089844 2.371094 L 15.09375 2.386719 L 15.386719 3.390625 L 15.445312 3.601562 L 15.511719 3.816406 L 15.574219 4.027344 L 15.640625 4.230469 L 15.703125 4.441406 L 15.773438 4.648438 L 15.84375 4.851562 L 15.984375 5.265625 L 16.054688 5.46875 L 16.132812 5.675781 L 16.207031 5.878906 L 16.363281 6.292969 L 16.445312 6.496094 L 16.527344 6.703125 L 16.609375 6.90625 L 16.773438 7.304688 L 16.859375 7.507812 L 16.949219 7.707031 L 17.035156 7.90625 L 17.125 8.105469 L 17.210938 8.304688 L 17.492188 8.902344 L 17.589844 9.097656 L 17.683594 9.289062 L 17.78125 9.484375 L 17.882812 9.675781 L 17.980469 9.871094 L 18.082031 10.066406 L 18.1875 10.257812 L 18.292969 10.453125 L 18.398438 10.644531 L 18.503906 10.839844 L 18.609375 11.027344 L 18.71875 11.214844 L 18.832031 11.402344 L 18.839844 11.386719 L 18.925781 11.539062 L 19.015625 11.691406 L 19.101562 11.84375 L 19.191406 12 L 19.277344 12.160156 L 19.359375 12.316406 L 19.523438 12.636719 L 19.605469 12.792969 L 19.6875 12.953125 L 19.769531 13.109375 L 19.851562 13.269531 L 19.929688 13.425781 L 20.007812 13.585938 L 20.082031 13.75 L 20.160156 13.914062 L 20.234375 14.078125 L 20.585938 14.898438 L 20.65625 15.066406 L 20.722656 15.230469 L 20.785156 15.394531 L 20.851562 15.558594 L 20.914062 15.722656 L 20.980469 15.886719 L 21.039062 16.050781 L 21.097656 16.21875 L 21.214844 16.5625 L 21.273438 16.730469 L 21.332031 16.902344 L 21.390625 17.070312 L 21.445312 17.242188 L 21.496094 17.410156 L 21.539062 17.554688 L 21.539062 20.488281 L 19.710938 21.390625 L 16.671875 21.402344 L 16.425781 20.550781 L 16.375 20.382812 L 16.320312 20.210938 L 16.269531 20.042969 L 16.160156 19.699219 L 16.101562 19.53125 L 16.042969 19.359375 L 15.984375 19.191406 L 15.925781 19.019531 L 15.867188 18.851562 L 15.808594 18.679688 L 15.746094 18.507812 L 15.679688 18.339844 L 15.617188 18.167969 L 15.550781 18.003906 L 15.488281 17.835938 L 15.421875 17.671875 L 15.351562 17.507812 L 15.28125 17.339844 L 15.070312 16.847656 L 14.992188 16.683594 L 14.917969 16.519531 L 14.839844 16.355469 L 14.765625 16.191406 L 14.6875 16.027344 L 14.613281 15.863281 L 14.53125 15.703125 L 14.449219 15.546875 L 14.367188 15.386719 L 14.285156 15.230469 L 14.203125 15.070312 L 14.113281 14.910156 L 14.03125 14.753906 L 13.945312 14.59375 L 13.855469 14.4375 L 13.769531 14.277344 L 13.679688 14.121094 L 13.589844 13.96875 L 13.601562 13.984375 L 13.492188 13.796875 L 13.378906 13.609375 L 12.957031 12.859375 L 12.859375 12.664062 L 12.757812 12.46875 L 12.660156 12.277344 L 12.558594 12.082031 L 12.457031 11.890625 L 12.363281 11.695312 L 12.269531 11.503906 L 12.175781 11.308594 L 12.089844 11.089844 L 11.996094 10.890625 L 11.90625 10.691406 L 11.820312 10.492188 L 11.730469 10.292969 L 11.644531 10.09375 L 11.554688 9.894531 L 11.226562 9.097656 L 11.148438 8.898438 L 11.074219 8.691406 L 10.996094 8.484375 L 10.921875 8.28125 L 10.84375 8.074219 L 10.773438 7.871094 L 10.632812 7.457031 L 10.5625 7.253906 L 10.5 7.046875 L 10.433594 6.84375 L 10.371094 6.636719 L 10.304688 6.433594 L 10.242188 6.226562 L 10.183594 6.019531 L 9.875 4.964844 L 9.871094 4.945312 L 9.863281 4.929688 L 9.859375 4.910156 L 9.859375 4.734375 L 9.863281 4.71875 L 9.871094 4.699219 L 9.875 4.683594 L 9.882812 4.664062 L 9.886719 4.648438 L 9.894531 4.628906 L 9.898438 4.617188 L 9.90625 4.605469 L 9.910156 4.59375 L 9.917969 4.582031 L 9.921875 4.570312 L 9.929688 4.558594 L 10.082031 4.40625 L 10.09375 4.402344 L 10.113281 4.394531 L 14.613281 2.175781 L 14.625 2.171875 L 14.636719 2.164062 L 14.652344 2.160156 L 14.671875 2.152344 L 14.6875 2.148438 L 14.707031 2.140625 L 14.722656 2.136719 L 14.792969 2.136719 Z M 14.792969 2.140625 "/>
<path style="fill-rule:nonzero;fill:rgb(57.647059%,72.941176%,35.294118%);fill-opacity:1;stroke-width:2;stroke-linecap:butt;stroke-linejoin:miter;stroke:rgb(63.529412%,80.392157%,41.176471%);stroke-opacity:1;stroke-miterlimit:4;" d="M 270.975937 94.119375 L 273.771562 94.51875 L 275.169375 94.785 L 276.567187 95.117812 L 278.031563 95.517187 L 279.429375 95.916562 L 280.694062 96.3825 L 282.025312 96.915 L 283.29 97.514062 L 284.488125 98.113125 L 285.68625 98.77875 L 286.884375 99.510937 L 288.0825 100.309687 L 289.214063 101.108437 L 290.279063 101.907187 L 291.410625 102.7725 L 292.409063 103.704375 L 294.405937 105.70125 L 295.27125 106.699687 L 296.203125 107.83125 L 296.802188 108.63 L 297.467812 108.230625 L 299.997187 107.0325 L 301.328438 106.5 L 302.593125 105.9675 L 305.38875 105.16875 L 306.786563 104.9025 L 308.184375 104.569688 L 310.98 104.170312 L 312.510938 104.10375 L 315.50625 104.10375 L 316.970625 104.170312 L 318.368437 104.37 L 319.832812 104.569688 L 321.230625 104.9025 L 322.628437 105.16875 L 325.424062 105.9675 L 326.68875 106.5 L 328.02 107.0325 L 329.284687 107.631563 L 330.482812 108.230625 L 331.680937 108.89625 L 332.879062 109.628437 L 334.077187 110.427187 L 335.20875 111.225938 L 336.27375 112.024687 L 337.405312 112.89 L 338.40375 113.821875 L 340.400625 115.81875 L 341.3325 116.817187 L 342.197812 117.882188 L 342.996562 119.01375 L 343.795312 120.07875 L 344.594063 121.276875 L 345.32625 122.475 L 345.991875 123.673125 L 346.590937 124.87125 L 347.19 126.2025 L 347.7225 127.467187 L 348.188437 128.798438 L 348.587812 130.129687 L 348.987188 131.5275 L 349.32 132.925312 L 349.58625 134.323125 L 349.785937 135.720937 L 349.919062 137.11875 L 349.985625 138.583125 L 349.985625 141.578438 L 349.919062 143.109375 L 349.785937 144.507187 L 349.58625 145.905 L 349.32 147.302812 L 348.987188 148.700625 L 348.188437 151.49625 L 347.7225 152.8275 L 347.19 154.092187 L 346.590937 155.423438 L 345.991875 156.621562 L 345.392812 157.62 L 345.525937 157.62 L 346.990312 157.686562 L 348.388125 157.819687 L 349.785937 158.019375 L 351.18375 158.285625 L 352.581562 158.618437 L 355.377187 159.417187 L 356.708438 159.883125 L 357.973125 160.415625 L 359.304375 161.014687 L 360.5025 161.61375 L 361.700625 162.279375 L 362.89875 163.011562 L 364.096875 163.810312 L 365.228437 164.609062 L 366.293437 165.407813 L 367.425 166.273125 L 368.423437 167.205 L 370.420312 169.201875 L 371.285625 170.200312 L 372.2175 171.331875 L 373.01625 172.396875 L 373.815 173.528437 L 374.61375 174.726562 L 375.279375 175.924688 L 376.011562 177.122812 L 376.610625 178.320937 L 377.209687 179.585625 L 377.675625 180.916875 L 378.208125 182.181562 L 379.006875 184.977187 L 379.273125 186.375 L 379.605937 187.772812 L 379.805625 189.170625 L 379.872187 190.701562 L 380.005313 192.2325 L 380.005313 195.227812 L 379.872187 196.692187 L 379.805625 198.09 L 379.605937 199.487812 L 379.273125 200.885625 L 379.006875 202.283437 L 378.208125 205.079062 L 377.675625 206.410313 L 377.209687 207.675 L 376.610625 209.00625 L 376.011562 210.204375 L 375.279375 211.4025 L 374.61375 212.600625 L 373.815 213.79875 L 373.01625 214.930312 L 372.2175 215.995312 L 371.285625 217.126875 L 370.420312 218.125312 L 369.421875 219.12375 L 368.423437 219.989062 L 367.425 220.920937 L 366.293437 221.78625 L 365.228437 222.585 L 364.096875 223.38375 L 362.89875 224.1825 L 361.700625 224.914687 L 360.5025 225.580312 L 360.169688 225.78 L 361.101562 226.57875 L 362.1 227.577187 L 363.031875 228.575625 L 363.897187 229.707187 L 364.695937 230.772188 L 365.494687 231.90375 L 366.293437 233.101875 L 367.025625 234.3 L 367.69125 235.498125 L 368.290312 236.69625 L 368.889375 238.0275 L 369.421875 239.292187 L 369.887812 240.623437 L 370.686562 243.419062 L 371.019375 244.816875 L 371.285625 246.214687 L 371.685 249.010312 L 371.818125 250.474687 L 371.818125 253.47 L 371.685 255.000937 L 371.285625 257.796562 L 371.019375 259.194375 L 370.686562 260.592187 L 369.887812 263.387812 L 369.421875 264.719063 L 368.889375 265.98375 L 368.290312 267.315 L 367.69125 268.513125 L 367.025625 269.71125 L 366.293437 270.909375 L 365.494687 272.1075 L 364.695937 273.1725 L 363.897187 274.304062 L 363.031875 275.369062 L 362.1 276.3675 L 361.101562 277.4325 L 360.103125 278.430937 L 359.104687 279.29625 L 357.973125 280.228125 L 356.908125 281.026875 L 355.776562 281.825625 L 354.578438 282.624375 L 353.380313 283.29 L 352.182187 284.022187 L 350.9175 284.62125 L 349.58625 285.220312 L 348.321562 285.68625 L 346.990312 286.21875 L 344.194687 287.0175 L 342.796875 287.28375 L 341.399062 287.616562 L 341.199375 287.616562 L 341.399062 287.882812 L 84.068438 311.978437 L 80.474063 311.978437 L 79.009687 311.911875 L 77.611875 311.77875 L 76.214062 311.579062 L 74.81625 311.312813 L 73.418437 310.98 L 72.020625 310.580625 L 70.689375 310.18125 L 69.424687 309.715312 L 68.093437 309.182813 L 66.82875 308.58375 L 65.630625 307.984688 L 64.4325 307.319062 L 63.167812 306.586875 L 61.969687 305.788125 L 60.904687 304.989375 L 59.773125 304.190625 L 58.708125 303.325312 L 57.709687 302.393438 L 55.712812 300.396562 L 54.780938 299.398125 L 53.915625 298.333125 L 52.318125 296.07 L 51.519375 294.871875 L 50.787187 293.67375 L 50.121562 292.475625 L 49.5225 291.2775 L 48.923437 290.012812 L 48.390937 288.681562 L 47.925 287.416875 L 47.12625 284.62125 L 46.793437 283.223437 L 46.527187 281.825625 L 46.127812 279.03 L 45.994687 277.499062 L 45.994687 274.50375 L 46.127812 272.972812 L 46.527187 270.177188 L 46.793437 268.779375 L 47.12625 267.381562 L 47.925 264.585938 L 48.390937 263.32125 L 48.923437 261.99 L 49.5225 260.725312 L 49.722187 260.325938 L 47.725313 258.329062 L 46.793437 257.330625 L 45.928125 256.199062 L 45.129375 255.0675 L 44.330625 254.0025 L 43.531875 252.804375 L 42.0675 250.408125 L 41.468438 249.076875 L 40.869375 247.812187 L 40.403437 246.480937 L 39.870937 245.21625 L 39.471562 243.885 L 39.072187 242.487187 L 38.805937 241.089375 L 38.473125 239.691562 L 38.07375 236.895938 L 38.007188 235.431562 L 38.007188 232.369687 L 38.07375 230.905312 L 38.273438 229.374375 L 38.473125 227.976562 L 38.805937 226.57875 L 39.072187 225.180937 L 39.870937 222.385312 L 40.403437 221.120625 L 40.869375 219.789375 L 41.468438 218.524687 L 42.0675 217.326562 L 43.531875 214.930312 L 44.330625 213.732187 L 45.928125 211.469062 L 46.793437 210.404062 L 47.725313 209.405625 L 49.722187 207.40875 L 50.720625 206.476875 L 51.785625 205.611562 L 52.917187 204.812812 L 53.982187 204.014062 L 55.180312 203.215312 L 56.378437 202.483125 L 57.576562 201.8175 L 58.774687 201.218437 L 60.105937 200.619375 L 61.370625 200.086875 L 62.169375 199.820625 L 62.701875 196.093125 L 62.968125 194.695312 L 63.300937 193.2975 L 64.099688 190.501875 L 64.632188 189.170625 L 65.098125 187.905937 L 65.697187 186.574687 L 66.29625 185.376562 L 67.028437 184.178438 L 67.694063 182.980312 L 68.492812 181.782187 L 69.291562 180.717187 L 70.090312 179.585625 L 71.022188 178.520625 L 71.8875 177.522188 L 73.884375 175.525312 L 74.882812 174.593437 L 76.014375 173.728125 L 77.079375 172.929375 L 78.210938 172.130625 L 79.409062 171.331875 L 81.805312 169.8675 L 83.003437 169.268438 L 84.268125 168.669375 L 85.599375 168.203437 L 86.398125 167.870625 L 250.00875 98.77875 L 250.275 98.579062 L 251.473125 97.913438 L 252.67125 97.314375 L 254.0025 96.715312 L 255.267187 96.182812 L 256.598437 95.716875 L 259.394062 94.918125 L 260.791875 94.585313 L 262.189687 94.319063 L 264.985312 93.919687 L 266.51625 93.786563 L 269.511562 93.786563 Z M 270.975937 94.119375 " transform="matrix(0.0586854,0,0,0.0586854,0,0)"/>
<path style=" stroke:none;fill-rule:nonzero;fill:rgb(76.862745%,61.568627%,34.117647%);fill-opacity:0.501961;" d="M 7.933594 2.964844 L 7.980469 2.964844 L 7.992188 2.96875 L 8.003906 2.976562 L 8.015625 2.980469 L 8.027344 2.988281 L 8.039062 2.992188 L 8.050781 3 L 8.0625 3.003906 L 8.074219 3.011719 L 8.085938 3.015625 L 8.097656 3.023438 L 8.191406 3.117188 L 8.199219 3.128906 L 8.203125 3.140625 L 8.210938 3.152344 L 8.214844 3.164062 L 8.222656 3.175781 L 8.226562 3.191406 L 8.234375 3.210938 L 8.519531 4.214844 L 8.578125 4.425781 L 8.644531 4.636719 L 8.707031 4.847656 L 8.773438 5.054688 L 8.839844 5.265625 L 8.910156 5.46875 L 8.980469 5.675781 L 9.050781 5.878906 L 9.191406 6.292969 L 9.265625 6.496094 L 9.34375 6.703125 L 9.417969 6.90625 L 9.496094 7.113281 L 9.578125 7.316406 L 9.742188 7.730469 L 9.90625 8.128906 L 9.992188 8.328125 L 10.171875 8.726562 L 10.257812 8.925781 L 10.632812 9.722656 L 10.726562 9.917969 L 10.828125 10.113281 L 10.925781 10.304688 L 11.027344 10.5 L 11.125 10.691406 L 11.226562 10.886719 L 11.332031 11.078125 L 11.542969 11.46875 L 11.648438 11.660156 L 11.753906 11.847656 L 11.867188 12.035156 L 11.976562 12.222656 L 11.964844 12.207031 L 12.054688 12.359375 L 12.140625 12.511719 L 12.230469 12.664062 L 12.316406 12.824219 L 12.40625 12.980469 L 12.488281 13.140625 L 12.570312 13.296875 L 12.652344 13.457031 L 12.734375 13.613281 L 12.898438 13.933594 L 12.976562 14.089844 L 13.050781 14.25 L 13.128906 14.40625 L 13.203125 14.570312 L 13.28125 14.734375 L 13.355469 14.898438 L 13.425781 15.066406 L 13.707031 15.722656 L 13.839844 16.050781 L 13.902344 16.214844 L 13.96875 16.378906 L 14.03125 16.542969 L 14.097656 16.707031 L 14.160156 16.871094 L 14.21875 17.042969 L 14.277344 17.210938 L 14.394531 17.554688 L 14.453125 17.722656 L 14.507812 17.894531 L 14.558594 18.0625 L 14.613281 18.234375 L 14.664062 18.402344 L 14.71875 18.574219 L 14.769531 18.742188 L 15.289062 20.527344 L 15.292969 20.546875 L 15.300781 20.5625 L 15.300781 20.757812 L 15.292969 20.773438 L 15.289062 20.792969 L 15.28125 20.808594 L 15.277344 20.828125 L 15.269531 20.84375 L 15.265625 20.863281 L 15.257812 20.878906 L 15.253906 20.898438 L 15.246094 20.914062 L 15.242188 20.933594 L 15.230469 20.949219 L 15.222656 20.960938 L 15.09375 21.089844 L 15.078125 21.101562 L 15.058594 21.113281 L 15.042969 21.121094 L 15.023438 21.125 L 14.535156 21.367188 L 9.546875 21.386719 L 9.566406 21.363281 L 9.511719 21.191406 L 9.460938 21.019531 L 9.40625 20.851562 L 9.355469 20.679688 L 9.300781 20.511719 L 9.25 20.339844 L 9.191406 20.171875 L 9.074219 19.828125 L 9.015625 19.660156 L 8.957031 19.488281 L 8.890625 19.320312 L 8.828125 19.148438 L 8.761719 18.980469 L 8.695312 18.816406 L 8.632812 18.644531 L 8.566406 18.480469 L 8.214844 17.660156 L 8.144531 17.492188 L 8.070312 17.328125 L 7.992188 17.164062 L 7.917969 17 L 7.839844 16.835938 L 7.765625 16.671875 L 7.683594 16.515625 L 7.601562 16.355469 L 7.511719 16.195312 L 7.429688 16.039062 L 7.347656 15.878906 L 7.265625 15.722656 L 7.175781 15.5625 L 7.089844 15.40625 L 7 15.246094 L 6.914062 15.089844 L 6.824219 14.929688 L 6.730469 14.777344 L 6.742188 14.792969 L 6.632812 14.605469 L 6.316406 14.042969 L 6.207031 13.855469 L 6.101562 13.667969 L 6.003906 13.472656 L 5.902344 13.28125 L 5.804688 13.085938 L 5.703125 12.894531 L 5.605469 12.699219 L 5.511719 12.507812 L 5.324219 12.117188 L 5.230469 11.925781 L 5.136719 11.726562 L 4.957031 11.328125 L 4.871094 11.125 L 4.78125 10.925781 L 4.289062 9.730469 L 4.214844 9.523438 L 4.136719 9.320312 L 4.0625 9.113281 L 3.984375 8.910156 L 3.84375 8.496094 L 3.773438 8.292969 L 3.703125 8.085938 L 3.632812 7.882812 L 3.566406 7.675781 L 3.503906 7.46875 L 3.4375 7.265625 L 3.375 7.058594 L 3.316406 6.855469 L 3.011719 5.796875 L 3.003906 5.78125 L 3.003906 5.75 L 3 5.734375 L 3 5.558594 L 3.003906 5.539062 L 3.011719 5.523438 L 3.015625 5.503906 L 3.023438 5.488281 L 3.027344 5.46875 L 3.035156 5.453125 L 3.039062 5.441406 L 3.046875 5.429688 L 3.050781 5.417969 L 3.058594 5.40625 L 3.0625 5.394531 L 3.226562 5.230469 L 3.238281 5.222656 L 3.25 5.21875 L 7.753906 2.980469 L 7.769531 2.976562 L 7.78125 2.96875 L 7.800781 2.964844 L 7.816406 2.957031 L 7.835938 2.953125 L 7.851562 2.945312 L 7.871094 2.941406 L 7.941406 2.941406 Z M 7.933594 2.964844 "/>
<path style=" stroke:none;fill-rule:nonzero;fill:rgb(92.54902%,79.215686%,53.72549%);fill-opacity:1;" d="M 3.566406 8.097656 C 3.566406 8.328125 3.304688 8.507812 2.980469 8.507812 C 2.660156 8.507812 2.394531 8.328125 2.394531 8.097656 C 2.394531 7.871094 2.660156 7.6875 2.980469 7.6875 C 3.304688 7.6875 3.566406 7.871094 3.566406 8.097656 Z M 3.566406 8.097656 "/>
<path style=" stroke:none;fill-rule:nonzero;fill:rgb(53.72549%,57.647059%,24.313725%);fill-opacity:1;" d="M 9.96875 8.234375 L 10.148438 8.632812 L 10.234375 8.832031 L 10.324219 9.03125 L 10.699219 9.828125 L 10.792969 10.03125 L 10.890625 10.222656 L 10.992188 10.417969 L 11.089844 10.609375 L 11.191406 10.804688 L 11.292969 10.996094 L 11.503906 11.386719 L 11.609375 11.578125 L 11.820312 11.953125 L 11.929688 12.140625 L 12.042969 12.328125 L 12.03125 12.3125 L 12.117188 12.464844 L 12.207031 12.617188 L 12.292969 12.777344 L 12.382812 12.929688 L 12.46875 13.085938 L 12.554688 13.246094 L 12.636719 13.402344 L 12.71875 13.5625 L 12.800781 13.71875 L 12.964844 14.039062 L 13.039062 14.195312 L 13.117188 14.355469 L 13.191406 14.511719 L 13.269531 14.671875 L 13.34375 14.835938 L 13.421875 15 L 13.773438 15.820312 L 13.839844 15.984375 L 13.902344 16.148438 L 13.96875 16.316406 L 14.03125 16.480469 L 14.097656 16.644531 L 14.160156 16.808594 L 14.226562 16.972656 L 14.285156 17.140625 L 14.34375 17.3125 L 14.394531 17.46875 L 8.375 18.035156 L 8.328125 17.921875 L 8.1875 17.59375 L 8.109375 17.429688 L 8.035156 17.265625 L 7.957031 17.101562 L 7.882812 16.9375 L 7.804688 16.773438 L 7.722656 16.609375 L 7.640625 16.449219 L 7.558594 16.292969 L 7.394531 15.972656 L 7.3125 15.816406 L 7.222656 15.65625 L 7.136719 15.5 L 7.046875 15.339844 L 6.960938 15.183594 L 6.871094 15.023438 L 6.777344 14.863281 L 6.789062 14.882812 L 6.679688 14.695312 L 6.257812 13.945312 L 6.148438 13.757812 L 6.050781 13.5625 L 5.949219 13.367188 L 5.851562 13.175781 L 5.75 12.980469 L 5.652344 12.789062 L 5.464844 12.398438 L 5.371094 12.207031 L 5.277344 12.011719 L 5.183594 11.820312 L 5.09375 11.621094 L 5.007812 11.421875 L 4.917969 11.21875 L 4.828125 11.019531 L 4.582031 10.421875 L 4.5 10.230469 L 4.554688 10.1875 L 4.617188 10.140625 L 4.6875 10.09375 L 4.757812 10.054688 L 4.828125 10.011719 L 4.898438 9.976562 L 4.976562 9.941406 L 5.054688 9.910156 L 5.101562 9.894531 L 9.839844 7.894531 L 9.894531 8.015625 Z M 9.96875 8.234375 "/>
<path style=" stroke:none;fill-rule:nonzero;fill:rgb(63.529412%,36.470588%,17.254902%);fill-opacity:1;" d="M 6.167969 14.6875 C 4.699219 12.1875 3.550781 9.519531 2.746094 6.738281 C 2.664062 6.449219 2.746094 6.730469 2.441406 5.679688 C 2.375 5.464844 2.480469 5.230469 2.683594 5.128906 C 3.65625 4.648438 6.214844 3.375 7.183594 2.894531 C 7.382812 2.792969 7.617188 2.898438 7.675781 3.109375 C 7.980469 4.15625 7.886719 3.832031 7.964844 4.113281 C 8.78125 6.914062 9.933594 9.601562 11.410156 12.117188 C 11.765625 12.734375 10.957031 11.351562 11.398438 12.101562 C 12.601562 14.15625 13.542969 16.34375 14.207031 18.625 C 14.335938 19.066406 14.417969 19.367188 14.722656 20.410156 C 14.792969 20.644531 14.683594 20.890625 14.464844 21.003906 C 13.496094 21.484375 11.007812 22.71875 10.054688 23.191406 C 9.824219 23.304688 9.546875 23.1875 9.476562 22.941406 C 9.179688 21.90625 9.113281 21.683594 8.984375 21.25 C 8.316406 18.949219 7.363281 16.738281 6.148438 14.671875 C 5.714844 13.925781 6.53125 15.3125 6.167969 14.6875 Z M 6.167969 14.6875 "/>
<path style=" stroke:none;fill-rule:nonzero;fill:rgb(99.607843%,68.627451%,57.254902%);fill-opacity:1;" d="M 7.945312 13.761719 C 6.492188 11.285156 5.351562 8.632812 4.554688 5.875 C 4.496094 5.679688 4.355469 5.1875 4.125 4.40625 L 5.792969 3.578125 C 6.03125 4.40625 6.179688 4.921875 6.238281 5.128906 C 7.042969 7.929688 8.226562 10.605469 9.757812 13.085938 C 10.136719 13.695312 9.296875 12.335938 9.753906 13.082031 C 11.003906 15.101562 11.972656 17.28125 12.640625 19.566406 C 12.722656 19.835938 12.921875 20.515625 13.238281 21.609375 L 11.402344 22.519531 C 11.066406 21.367188 10.855469 20.644531 10.773438 20.359375 C 10.105469 18.058594 9.15625 15.84375 7.941406 13.773438 C 7.511719 13.027344 8.308594 14.390625 7.945312 13.761719 Z M 7.945312 13.761719 "/>
<path style=" stroke:none;fill-rule:nonzero;fill:rgb(53.72549%,57.647059%,24.313725%);fill-opacity:1;" d="M 15.59375 5.644531 L 15.757812 5.667969 L 15.773438 5.675781 L 15.832031 5.839844 L 15.910156 6.042969 L 15.984375 6.25 L 16.0625 6.457031 L 16.144531 6.660156 L 16.226562 6.867188 L 16.472656 7.464844 L 16.5625 7.664062 L 16.648438 7.863281 L 16.738281 8.0625 L 16.824219 8.261719 L 16.914062 8.460938 L 17.007812 8.660156 L 17.101562 8.863281 L 17.195312 9.0625 L 17.289062 9.253906 L 17.382812 9.449219 L 17.480469 9.640625 L 17.683594 10.03125 L 17.78125 10.222656 L 17.886719 10.417969 L 17.992188 10.609375 L 18.097656 10.804688 L 18.203125 10.996094 L 18.308594 11.183594 L 18.421875 11.375 L 18.53125 11.5625 L 18.519531 11.542969 L 18.609375 11.695312 L 18.695312 11.847656 L 18.785156 12 L 18.875 12.160156 L 18.960938 12.316406 L 19.125 12.636719 L 19.207031 12.792969 L 19.289062 12.953125 L 19.371094 13.109375 L 19.453125 13.269531 L 19.535156 13.425781 L 19.613281 13.585938 L 19.6875 13.742188 L 19.765625 13.910156 L 19.839844 14.074219 L 19.917969 14.238281 L 20.339844 15.222656 L 20.40625 15.386719 L 20.46875 15.550781 L 20.535156 15.714844 L 20.597656 15.878906 L 20.664062 16.042969 L 20.722656 16.207031 L 20.78125 16.378906 L 20.816406 16.472656 L 20.757812 16.527344 L 20.691406 16.578125 L 20.628906 16.625 L 20.5625 16.671875 L 20.492188 16.71875 L 20.421875 16.761719 L 20.351562 16.800781 L 20.277344 16.835938 L 20.199219 16.871094 L 20.125 16.902344 L 20.046875 16.929688 L 19.964844 16.953125 L 19.894531 16.960938 L 19.8125 16.976562 L 19.730469 16.996094 L 19.71875 16.996094 L 19.730469 17.011719 L 14.96875 17.457031 L 14.90625 17.3125 L 14.765625 16.984375 L 14.6875 16.820312 L 14.613281 16.65625 L 14.535156 16.492188 L 14.460938 16.328125 L 14.382812 16.160156 L 14.308594 15.996094 L 14.226562 15.839844 L 14.144531 15.679688 L 14.0625 15.523438 L 13.980469 15.363281 L 13.898438 15.207031 L 13.808594 15.046875 L 13.726562 14.886719 L 13.636719 14.730469 L 13.550781 14.570312 L 13.460938 14.414062 L 13.375 14.253906 L 13.285156 14.101562 L 13.296875 14.121094 L 13.1875 13.933594 L 13.074219 13.742188 L 12.652344 12.992188 L 12.554688 12.800781 L 12.351562 12.410156 L 12.253906 12.21875 L 12.152344 12.023438 L 12.058594 11.832031 L 11.964844 11.636719 L 11.871094 11.445312 L 11.777344 11.25 L 11.683594 11.050781 L 11.597656 10.851562 L 11.507812 10.652344 L 11.421875 10.453125 L 11.242188 10.054688 L 11.160156 9.851562 L 10.914062 9.253906 L 10.839844 9.054688 L 10.761719 8.855469 L 10.6875 8.648438 L 10.609375 8.445312 L 10.535156 8.238281 L 10.464844 8.035156 L 10.394531 7.828125 L 10.324219 7.625 L 14.359375 5.921875 L 14.378906 5.910156 L 14.449219 5.867188 L 14.519531 5.832031 L 14.59375 5.796875 L 14.671875 5.769531 L 14.746094 5.738281 L 14.910156 5.691406 L 14.992188 5.675781 L 15.078125 5.65625 L 15.242188 5.632812 L 15.328125 5.628906 L 15.503906 5.628906 Z M 15.59375 5.644531 "/>
<path style=" stroke:none;fill-rule:nonzero;fill:rgb(63.529412%,36.470588%,17.254902%);fill-opacity:1;" d="M 12.722656 13.828125 C 11.257812 11.328125 10.113281 8.65625 9.300781 5.875 C 9.21875 5.585938 9.300781 5.867188 8.996094 4.816406 C 8.933594 4.601562 9.039062 4.367188 9.238281 4.265625 C 10.210938 3.78125 12.765625 2.511719 13.738281 2.03125 C 13.9375 1.929688 14.171875 2.035156 14.238281 2.246094 C 14.542969 3.292969 14.449219 2.96875 14.53125 3.25 C 15.339844 6.050781 16.503906 8.738281 17.976562 11.257812 C 18.332031 11.871094 17.523438 10.488281 17.964844 11.238281 C 19.167969 13.292969 20.113281 15.480469 20.773438 17.765625 C 20.902344 18.203125 20.984375 18.503906 21.292969 19.546875 C 21.363281 19.78125 21.25 20.03125 21.03125 20.140625 C 20.066406 20.621094 17.582031 21.855469 16.621094 22.328125 C 16.390625 22.441406 16.113281 22.324219 16.042969 22.078125 C 15.746094 21.042969 15.679688 20.820312 15.550781 20.386719 C 14.882812 18.085938 13.933594 15.875 12.71875 13.804688 C 12.269531 13.0625 13.085938 14.449219 12.722656 13.828125 Z M 12.722656 13.828125 "/>
<path style=" stroke:none;fill-rule:nonzero;fill:rgb(99.607843%,68.627451%,57.254902%);fill-opacity:1;" d="M 14.507812 12.898438 C 13.050781 10.421875 11.914062 7.769531 11.113281 5.011719 C 11.054688 4.816406 10.914062 4.324219 10.6875 3.542969 L 12.351562 2.71875 C 12.59375 3.542969 12.742188 4.0625 12.800781 4.265625 C 13.601562 7.066406 14.789062 9.742188 16.320312 12.222656 C 16.695312 12.835938 15.855469 11.472656 16.320312 12.21875 C 17.570312 14.242188 18.539062 16.421875 19.207031 18.703125 C 19.289062 18.972656 19.488281 19.652344 19.804688 20.746094 L 17.976562 21.65625 C 17.640625 20.503906 17.429688 19.78125 17.347656 19.496094 C 16.679688 17.195312 15.726562 14.980469 14.511719 12.917969 C 14.078125 12.164062 14.875 13.527344 14.507812 12.898438 Z M 14.507812 12.898438 "/>
<path style=" stroke:none;fill-rule:nonzero;fill:rgb(0%,0%,0%);fill-opacity:0.180392;" d="M 19.980469 11.707031 C 19.980469 14.835938 17.429688 17.371094 14.289062 17.371094 C 11.148438 17.371094 8.597656 14.835938 8.597656 11.707031 C 8.597656 8.578125 11.148438 6.042969 14.289062 6.042969 C 17.429688 6.042969 19.980469 8.578125 19.980469 11.707031 Z M 19.980469 11.707031 "/>
<path style="fill-rule:nonzero;fill:rgb(80.784314%,25.490196%,25.490196%);fill-opacity:1;stroke-width:12;stroke-linecap:butt;stroke-linejoin:miter;stroke:rgb(66.666667%,10.588235%,10.588235%);stroke-opacity:1;stroke-miterlimit:4;" d="M 329.684062 191.500312 C 329.684062 241.2225 289.41375 281.492813 239.691562 281.492813 C 189.969375 281.492813 149.699062 241.2225 149.699062 191.500312 C 149.699062 141.778125 189.969375 101.507812 239.691562 101.507812 C 289.280625 101.507812 329.684062 141.778125 329.684062 191.500312 Z M 329.684062 191.500312 " transform="matrix(0.0586854,0,0,0.0586854,0,0)"/>
<path style=" stroke:none;fill-rule:nonzero;fill:rgb(73.72549%,9.803922%,9.803922%);fill-opacity:1;" d="M 12.6875 10.234375 C 12.5 10.523438 12.421875 10.84375 12.464844 11.207031 C 12.5 11.507812 12.351562 11.796875 12.101562 11.949219 C 11.707031 12.183594 10.792969 12.730469 10.363281 12.988281 C 10.253906 13.050781 10.105469 12.992188 10.078125 12.863281 C 9.789062 11.613281 9.933594 10.40625 10.511719 9.242188 C 11.066406 8.121094 11.984375 7.410156 13.257812 7.09375 C 13.457031 7.046875 13.648438 7.199219 13.648438 7.40625 C 13.648438 7.828125 13.648438 8.742188 13.648438 9.183594 C 13.648438 9.382812 13.527344 9.566406 13.339844 9.636719 C 13.109375 9.722656 12.894531 9.921875 12.6875 10.234375 Z M 12.6875 10.234375 "/>
<path style=" stroke:none;fill-rule:nonzero;fill:rgb(96.470588%,86.27451%,66.666667%);fill-opacity:1;" d="M 13.105469 8.445312 C 13.105469 8.679688 12.976562 8.867188 12.816406 8.867188 C 12.660156 8.867188 12.53125 8.679688 12.53125 8.445312 C 12.53125 8.210938 12.660156 8.023438 12.816406 8.023438 C 12.976562 8.023438 13.105469 8.210938 13.105469 8.445312 Z M 13.105469 8.445312 "/>
<path style=" stroke:none;fill-rule:nonzero;fill:rgb(96.470588%,86.27451%,66.666667%);fill-opacity:1;" d="M 11.003906 11.050781 C 11.203125 10.9375 11.425781 10.960938 11.503906 11.101562 C 11.578125 11.242188 11.480469 11.457031 11.28125 11.566406 C 11.078125 11.679688 10.855469 11.65625 10.78125 11.515625 C 10.703125 11.375 10.804688 11.167969 11.003906 11.050781 Z M 11.003906 11.050781 "/>
<path style=" stroke:none;fill-rule:nonzero;fill:rgb(96.470588%,86.27451%,66.666667%);fill-opacity:1;" d="M 11.671875 9.296875 C 11.859375 9.425781 11.949219 9.636719 11.859375 9.777344 C 11.773438 9.910156 11.550781 9.921875 11.363281 9.792969 C 11.171875 9.664062 11.085938 9.449219 11.171875 9.3125 C 11.257812 9.179688 11.480469 9.171875 11.671875 9.296875 Z M 11.671875 9.296875 "/>
<path style=" stroke:none;fill-rule:nonzero;fill:rgb(73.72549%,9.803922%,9.803922%);fill-opacity:1;" d="M 15.691406 10.632812 C 15.550781 10.328125 15.324219 10.101562 15.011719 9.957031 C 14.734375 9.835938 14.558594 9.558594 14.558594 9.253906 C 14.558594 8.78125 14.558594 7.765625 14.558594 7.265625 C 14.558594 7.078125 14.742188 6.949219 14.917969 7.007812 C 16.050781 7.382812 16.949219 8.097656 17.605469 9.167969 C 18.257812 10.230469 18.398438 11.414062 18.015625 12.71875 C 17.957031 12.917969 17.730469 13.011719 17.546875 12.898438 C 17.195312 12.6875 16.457031 12.242188 16.089844 12.023438 C 15.914062 11.917969 15.828125 11.71875 15.863281 11.519531 C 15.902344 11.273438 15.84375 10.972656 15.691406 10.632812 Z M 15.691406 10.632812 "/>
<path style=" stroke:none;fill-rule:nonzero;fill:rgb(96.470588%,86.27451%,66.666667%);fill-opacity:1;" d="M 16.972656 11.902344 C 16.777344 11.785156 16.683594 11.574219 16.761719 11.433594 C 16.835938 11.292969 17.058594 11.269531 17.257812 11.386719 C 17.453125 11.503906 17.546875 11.714844 17.46875 11.855469 C 17.394531 11.996094 17.171875 12.019531 16.972656 11.902344 Z M 16.972656 11.902344 "/>
<path style=" stroke:none;fill-rule:nonzero;fill:rgb(96.470588%,86.27451%,66.666667%);fill-opacity:1;" d="M 15.851562 8.703125 C 15.84375 8.9375 15.714844 9.125 15.558594 9.125 C 15.398438 9.121094 15.277344 8.933594 15.277344 8.695312 C 15.28125 8.460938 15.410156 8.273438 15.570312 8.273438 C 15.734375 8.273438 15.855469 8.46875 15.851562 8.703125 Z M 15.851562 8.703125 "/>
<path style=" stroke:none;fill-rule:nonzero;fill:rgb(96.470588%,86.27451%,66.666667%);fill-opacity:1;" d="M 16.976562 10.183594 C 16.777344 10.289062 16.554688 10.257812 16.484375 10.113281 C 16.414062 9.964844 16.519531 9.757812 16.71875 9.652344 C 16.917969 9.546875 17.140625 9.578125 17.210938 9.722656 C 17.28125 9.871094 17.183594 10.078125 16.976562 10.183594 Z M 16.976562 10.183594 "/>
<path style=" stroke:none;fill-rule:nonzero;fill:rgb(73.72549%,9.803922%,9.803922%);fill-opacity:1;" d="M 13.875 13.140625 C 14.203125 13.167969 14.5 13.074219 14.777344 12.859375 C 15.019531 12.675781 15.339844 12.660156 15.597656 12.8125 C 15.992188 13.046875 16.894531 13.589844 17.328125 13.851562 C 17.445312 13.921875 17.464844 14.085938 17.371094 14.179688 C 16.472656 15.058594 15.394531 15.535156 14.136719 15.59375 C 12.929688 15.652344 11.878906 15.183594 10.972656 14.191406 C 10.832031 14.03125 10.867188 13.785156 11.050781 13.671875 C 11.402344 13.460938 12.140625 13.015625 12.507812 12.800781 C 12.675781 12.695312 12.898438 12.71875 13.050781 12.847656 C 13.234375 13.011719 13.507812 13.109375 13.875 13.140625 Z M 13.875 13.140625 "/>
<path style=" stroke:none;fill-rule:nonzero;fill:rgb(96.470588%,86.27451%,66.666667%);fill-opacity:1;" d="M 12.171875 13.660156 C 12.363281 13.542969 12.589844 13.5625 12.671875 13.707031 C 12.746094 13.851562 12.652344 14.0625 12.457031 14.179688 C 12.265625 14.296875 12.042969 14.277344 11.960938 14.132812 C 11.882812 13.984375 11.976562 13.78125 12.171875 13.660156 Z M 12.171875 13.660156 "/>
<path style=" stroke:none;fill-rule:nonzero;fill:rgb(96.470588%,86.27451%,66.666667%);fill-opacity:1;" d="M 15.398438 14.25 C 15.207031 14.125 15.117188 13.914062 15.199219 13.773438 C 15.28125 13.632812 15.503906 13.613281 15.699219 13.738281 C 15.890625 13.863281 15.980469 14.074219 15.902344 14.214844 C 15.816406 14.355469 15.59375 14.367188 15.398438 14.25 Z M 15.398438 14.25 "/>
<path style=" stroke:none;fill-rule:nonzero;fill:rgb(96.470588%,86.27451%,66.666667%);fill-opacity:1;" d="M 13.601562 14.523438 C 13.613281 14.289062 13.75 14.109375 13.910156 14.113281 C 14.066406 14.121094 14.183594 14.320312 14.171875 14.554688 C 14.160156 14.789062 14.027344 14.96875 13.867188 14.964844 C 13.707031 14.953125 13.585938 14.757812 13.601562 14.523438 Z M 13.601562 14.523438 "/>
<path style=" stroke:none;fill-rule:nonzero;fill:rgb(0%,0%,0%);fill-opacity:0.129412;" d="M 14.113281 16.402344 C 14.113281 19.347656 11.714844 21.742188 8.761719 21.742188 C 5.808594 21.742188 3.402344 19.347656 3.402344 16.402344 C 3.402344 13.457031 5.804688 11.0625 8.757812 11.0625 C 11.707031 11.0625 14.113281 13.457031 14.113281 16.402344 Z M 14.113281 16.402344 "/>
<path style="fill-rule:nonzero;fill:rgb(80.784314%,25.490196%,25.490196%);fill-opacity:1;stroke-width:12;stroke-linecap:butt;stroke-linejoin:miter;stroke:rgb(66.666667%,10.588235%,10.588235%);stroke-opacity:1;stroke-miterlimit:4;" d="M 227.976562 279.29625 C 227.976562 326.222812 189.902812 364.296562 142.97625 364.296562 C 96.11625 364.296562 57.975938 326.222812 57.975938 279.29625 C 57.975938 232.369687 96.11625 194.295937 142.97625 194.295937 C 189.902812 194.295937 227.976562 232.369687 227.976562 279.29625 Z M 227.976562 279.29625 " transform="matrix(0.0586854,0,0,0.0586854,0,0)"/>
<path style=" stroke:none;fill-rule:nonzero;fill:rgb(73.72549%,9.803922%,9.803922%);fill-opacity:1;" d="M 7.105469 15.476562 C 6.9375 15.726562 6.867188 16.007812 6.90625 16.332031 C 6.9375 16.609375 6.800781 16.871094 6.566406 17.011719 C 6.203125 17.222656 5.363281 17.707031 4.96875 17.941406 C 4.863281 18 4.730469 17.945312 4.699219 17.824219 C 4.4375 16.707031 4.570312 15.632812 5.105469 14.601562 C 5.617188 13.601562 6.460938 12.96875 7.640625 12.6875 C 7.828125 12.640625 8.003906 12.789062 8.003906 12.976562 C 8.003906 13.351562 8.003906 14.148438 8.003906 14.535156 C 8.003906 14.71875 7.886719 14.886719 7.71875 14.945312 C 7.492188 15.023438 7.292969 15.199219 7.105469 15.476562 Z M 7.105469 15.476562 "/>
<path style=" stroke:none;fill-rule:nonzero;fill:rgb(96.470588%,86.27451%,66.666667%);fill-opacity:1;" d="M 7.488281 13.878906 C 7.488281 14.089844 7.371094 14.261719 7.222656 14.261719 C 7.078125 14.261719 6.960938 14.089844 6.960938 13.878906 C 6.960938 13.667969 7.078125 13.496094 7.222656 13.496094 C 7.371094 13.496094 7.488281 13.667969 7.488281 13.878906 Z M 7.488281 13.878906 "/>
<path style=" stroke:none;fill-rule:nonzero;fill:rgb(96.470588%,86.27451%,66.666667%);fill-opacity:1;" d="M 5.550781 16.207031 C 5.734375 16.109375 5.9375 16.125 6.007812 16.257812 C 6.078125 16.386719 5.984375 16.574219 5.804688 16.671875 C 5.621094 16.773438 5.417969 16.753906 5.347656 16.625 C 5.277344 16.496094 5.371094 16.308594 5.550781 16.207031 Z M 5.550781 16.207031 "/>
<path style=" stroke:none;fill-rule:nonzero;fill:rgb(96.470588%,86.27451%,66.666667%);fill-opacity:1;" d="M 6.167969 14.640625 C 6.34375 14.753906 6.421875 14.945312 6.339844 15.070312 C 6.257812 15.195312 6.050781 15.199219 5.878906 15.089844 C 5.703125 14.976562 5.628906 14.78125 5.703125 14.660156 C 5.785156 14.535156 5.992188 14.523438 6.167969 14.640625 Z M 6.167969 14.640625 "/>
<path style=" stroke:none;fill-rule:nonzero;fill:rgb(73.72549%,9.803922%,9.803922%);fill-opacity:1;" d="M 9.871094 15.886719 C 9.742188 15.609375 9.53125 15.410156 9.238281 15.28125 C 8.984375 15.171875 8.820312 14.921875 8.820312 14.648438 C 8.820312 14.226562 8.820312 13.460938 8.820312 13.050781 C 8.820312 12.804688 9.066406 12.636719 9.296875 12.710938 C 10.277344 13.050781 11.054688 13.671875 11.632812 14.578125 C 12.234375 15.523438 12.359375 16.578125 12.011719 17.742188 C 11.960938 17.921875 11.75 18.011719 11.578125 17.910156 C 11.257812 17.722656 10.570312 17.324219 10.234375 17.128906 C 10.078125 17.035156 9.988281 16.855469 10.023438 16.671875 C 10.066406 16.457031 10.011719 16.191406 9.871094 15.886719 Z M 9.871094 15.886719 "/>
<path style=" stroke:none;fill-rule:nonzero;fill:rgb(96.470588%,86.27451%,66.666667%);fill-opacity:1;" d="M 11.054688 17.019531 C 10.875 16.914062 10.785156 16.726562 10.863281 16.597656 C 10.933594 16.46875 11.144531 16.449219 11.320312 16.554688 C 11.503906 16.660156 11.589844 16.847656 11.515625 16.972656 C 11.4375 17.105469 11.230469 17.125 11.054688 17.019531 Z M 11.054688 17.019531 "/>
<path style=" stroke:none;fill-rule:nonzero;fill:rgb(96.470588%,86.27451%,66.666667%);fill-opacity:1;" d="M 10.019531 14.167969 C 10.011719 14.378906 9.894531 14.542969 9.746094 14.542969 C 9.601562 14.535156 9.488281 14.367188 9.488281 14.15625 C 9.496094 13.945312 9.613281 13.78125 9.757812 13.78125 C 9.90625 13.785156 10.023438 13.957031 10.019531 14.167969 Z M 10.019531 14.167969 "/>
<path style=" stroke:none;fill-rule:nonzero;fill:rgb(96.470588%,86.27451%,66.666667%);fill-opacity:1;" d="M 11.054688 15.488281 C 10.875 15.582031 10.667969 15.550781 10.597656 15.421875 C 10.535156 15.292969 10.628906 15.113281 10.816406 15.011719 C 11.003906 14.917969 11.203125 14.945312 11.273438 15.078125 C 11.34375 15.207031 11.242188 15.394531 11.054688 15.488281 Z M 11.054688 15.488281 "/>
<path style=" stroke:none;fill-rule:nonzero;fill:rgb(73.72549%,9.803922%,9.803922%);fill-opacity:1;" d="M 8.226562 17.980469 C 8.527344 18.003906 8.808594 17.921875 9.0625 17.730469 C 9.285156 17.566406 9.578125 17.546875 9.816406 17.6875 C 10.183594 17.898438 11.015625 18.386719 11.414062 18.613281 C 11.519531 18.679688 11.539062 18.820312 11.449219 18.910156 C 10.621094 19.695312 9.628906 20.117188 8.46875 20.171875 C 7.351562 20.222656 6.386719 19.804688 5.550781 18.921875 C 5.421875 18.78125 5.453125 18.554688 5.621094 18.457031 C 5.945312 18.269531 6.632812 17.871094 6.964844 17.675781 C 7.125 17.582031 7.328125 17.601562 7.46875 17.722656 C 7.640625 17.871094 7.894531 17.957031 8.226562 17.980469 Z M 8.226562 17.980469 "/>
<path style=" stroke:none;fill-rule:nonzero;fill:rgb(96.470588%,86.27451%,66.666667%);fill-opacity:1;" d="M 6.632812 18.449219 C 6.8125 18.34375 7.019531 18.363281 7.089844 18.492188 C 7.160156 18.621094 7.078125 18.808594 6.894531 18.914062 C 6.714844 19.019531 6.507812 19.003906 6.4375 18.875 C 6.363281 18.742188 6.449219 18.554688 6.632812 18.449219 Z M 6.632812 18.449219 "/>
<path style=" stroke:none;fill-rule:nonzero;fill:rgb(96.470588%,86.27451%,66.666667%);fill-opacity:1;" d="M 9.605469 18.972656 C 9.429688 18.867188 9.34375 18.671875 9.417969 18.550781 C 9.496094 18.425781 9.699219 18.410156 9.875 18.519531 C 10.054688 18.625 10.140625 18.820312 10.066406 18.945312 C 9.988281 19.066406 9.78125 19.085938 9.605469 18.972656 Z M 9.605469 18.972656 "/>
<path style=" stroke:none;fill-rule:nonzero;fill:rgb(96.470588%,86.27451%,66.666667%);fill-opacity:1;" d="M 7.945312 19.21875 C 7.957031 19.007812 8.082031 18.84375 8.226562 18.855469 C 8.375 18.863281 8.480469 19.039062 8.472656 19.25 C 8.460938 19.460938 8.339844 19.625 8.191406 19.613281 C 8.046875 19.605469 7.933594 19.429688 7.945312 19.21875 Z M 7.945312 19.21875 "/>
<path style=" stroke:none;fill-rule:nonzero;fill:rgb(92.54902%,79.215686%,53.72549%);fill-opacity:1;" d="M 18.542969 4.320312 C 18.542969 4.449219 18.390625 4.554688 18.203125 4.554688 C 18.015625 4.554688 17.863281 4.449219 17.863281 4.320312 C 17.863281 4.191406 18.015625 4.085938 18.203125 4.085938 C 18.390625 4.085938 18.542969 4.191406 18.542969 4.320312 Z M 18.542969 4.320312 "/>
<path style=" stroke:none;fill-rule:nonzero;fill:rgb(92.54902%,79.215686%,53.72549%);fill-opacity:1;" d="M 17.242188 4.933594 C 17.242188 5.066406 17.089844 5.171875 16.902344 5.171875 C 16.714844 5.171875 16.5625 5.066406 16.5625 4.933594 C 16.5625 4.804688 16.714844 4.699219 16.902344 4.699219 C 17.089844 4.699219 17.242188 4.804688 17.242188 4.933594 Z M 17.242188 4.933594 "/>
<path style=" stroke:none;fill-rule:nonzero;fill:rgb(92.54902%,79.215686%,53.72549%);fill-opacity:1;" d="M 20.351562 5.289062 C 20.351562 5.515625 20.089844 5.699219 19.765625 5.699219 C 19.441406 5.699219 19.179688 5.515625 19.179688 5.289062 C 19.179688 5.058594 19.441406 4.875 19.765625 4.875 C 20.089844 4.875 20.351562 5.066406 20.351562 5.289062 Z M 20.351562 5.289062 "/>
<path style=" stroke:none;fill-rule:nonzero;fill:rgb(92.54902%,79.215686%,53.72549%);fill-opacity:1;" d="M 22.289062 7.21875 C 22.289062 7.445312 22.023438 7.628906 21.703125 7.628906 C 21.378906 7.628906 21.113281 7.445312 21.113281 7.21875 C 21.113281 6.988281 21.378906 6.808594 21.703125 6.808594 C 22.023438 6.808594 22.289062 6.988281 22.289062 7.21875 Z M 22.289062 7.21875 "/>
<path style=" stroke:none;fill-rule:nonzero;fill:rgb(92.54902%,79.215686%,53.72549%);fill-opacity:1;" d="M 21.9375 5.28125 C 21.9375 5.410156 21.785156 5.515625 21.597656 5.515625 C 21.410156 5.515625 21.257812 5.410156 21.257812 5.28125 C 21.257812 5.152344 21.410156 5.046875 21.597656 5.046875 C 21.785156 5.046875 21.9375 5.152344 21.9375 5.28125 Z M 21.9375 5.28125 "/>
<path style=" stroke:none;fill-rule:nonzero;fill:rgb(92.54902%,79.215686%,53.72549%);fill-opacity:1;" d="M 2.394531 6.695312 C 2.394531 6.824219 2.242188 6.929688 2.054688 6.929688 C 1.867188 6.929688 1.714844 6.824219 1.714844 6.695312 C 1.714844 6.566406 1.867188 6.460938 2.054688 6.460938 C 2.242188 6.460938 2.394531 6.566406 2.394531 6.695312 Z M 2.394531 6.695312 "/>
<path style=" stroke:none;fill-rule:nonzero;fill:rgb(92.54902%,79.215686%,53.72549%);fill-opacity:1;" d="M 9.613281 3.050781 C 9.613281 3.179688 9.460938 3.285156 9.273438 3.285156 C 9.085938 3.285156 8.933594 3.179688 8.933594 3.050781 C 8.933594 2.921875 9.085938 2.816406 9.273438 2.816406 C 9.460938 2.816406 9.613281 2.921875 9.613281 3.050781 Z M 9.613281 3.050781 "/>
<path style="fill:none;stroke-width:8;stroke-linecap:butt;stroke-linejoin:miter;stroke:rgb(100%,100%,100%);stroke-opacity:0.141176;stroke-miterlimit:4;" d="M 128.931562 50.720625 L 41.0025 94.984687 " transform="matrix(0.0586854,0,0,0.0586854,0,0)"/>
<path style="fill:none;stroke-width:8;stroke-linecap:butt;stroke-linejoin:miter;stroke:rgb(100%,100%,100%);stroke-opacity:0.141176;stroke-miterlimit:4;" d="M 240.490312 36.21 L 152.627813 80.4075 " transform="matrix(0.0586854,0,0,0.0586854,0,0)"/>
<path style="fill:none;stroke-width:2;stroke-linecap:butt;stroke-linejoin:miter;stroke:rgb(100%,100%,100%);stroke-opacity:0.270588;stroke-miterlimit:4;" d="M 198.09 207.608437 C 169.60125 189.170625 141.1125 184.710938 112.62375 194.09625 C 84.068438 203.481562 64.632188 225.713437 54.181875 260.791875 " transform="matrix(0.0586854,0,0,0.0586854,0,0)"/>
<path style="fill:none;stroke-width:2;stroke-linecap:butt;stroke-linejoin:miter;stroke:rgb(100%,100%,100%);stroke-opacity:0.270588;stroke-miterlimit:4;" d="M 295.670625 114.820312 C 269.311875 94.984687 239.89125 90.79125 207.608437 102.306562 C 175.325625 113.821875 154.824375 137.385 146.104687 173.195625 " transform="matrix(0.0586854,0,0,0.0586854,0,0)"/>
</g>
</svg>
