<?xml version="1.0" encoding="UTF-8"?>
<svg xmlns="http://www.w3.org/2000/svg" xmlns:xlink="http://www.w3.org/1999/xlink" width="35px" height="35px" viewBox="0 0 35 35" version="1.1">
<defs>
<filter id="alpha" filterUnits="objectBoundingBox" x="0%" y="0%" width="100%" height="100%">
  <feColorMatrix type="matrix" in="SourceGraphic" values="0 0 0 0 1 0 0 0 0 1 0 0 0 0 1 0 0 0 1 0"/>
</filter>
<mask id="mask0">
  <g filter="url(#alpha)">
<rect x="0" y="0" width="35" height="35" style="fill:rgb(0%,0%,0%);fill-opacity:0.4;stroke:none;"/>
  </g>
</mask>
<clipPath id="clip1">
  <rect x="0" y="0" width="35" height="35"/>
</clipPath>
<g id="surface5" clip-path="url(#clip1)">
<path style=" stroke:none;fill-rule:nonzero;fill:rgb(16.078431%,17.647059%,19.607843%);fill-opacity:1;" d="M 27.226562 2.917969 L 24.457031 2.917969 C 21.277344 2.917969 19.597656 4.59375 19.597656 7.773438 L 19.597656 10.542969 C 19.597656 13.722656 21.277344 15.398438 24.457031 15.398438 L 27.226562 15.398438 C 30.40625 15.398438 32.082031 13.722656 32.082031 10.542969 L 32.082031 7.773438 C 32.082031 4.59375 30.40625 2.917969 27.226562 2.917969 Z M 27.226562 2.917969 "/>
</g>
<mask id="mask1">
  <g filter="url(#alpha)">
<rect x="0" y="0" width="35" height="35" style="fill:rgb(0%,0%,0%);fill-opacity:0.4;stroke:none;"/>
  </g>
</mask>
<clipPath id="clip2">
  <rect x="0" y="0" width="35" height="35"/>
</clipPath>
<g id="surface8" clip-path="url(#clip2)">
<path style=" stroke:none;fill-rule:nonzero;fill:rgb(16.078431%,17.647059%,19.607843%);fill-opacity:1;" d="M 10.558594 19.585938 L 7.789062 19.585938 C 4.59375 19.585938 2.917969 21.261719 2.917969 24.441406 L 2.917969 27.210938 C 2.917969 30.40625 4.59375 32.082031 7.773438 32.082031 L 10.542969 32.082031 C 13.722656 32.082031 15.398438 30.40625 15.398438 27.226562 L 15.398438 24.457031 C 15.414062 21.261719 13.738281 19.585938 10.558594 19.585938 Z M 10.558594 19.585938 "/>
</g>
</defs>
<g id="surface1">
<path style=" stroke:none;fill-rule:nonzero;fill:rgb(16.078431%,17.647059%,19.607843%);fill-opacity:1;" d="M 10.558594 2.917969 L 7.789062 2.917969 C 4.59375 2.917969 2.917969 4.59375 2.917969 7.773438 L 2.917969 10.542969 C 2.917969 13.722656 4.59375 15.398438 7.773438 15.398438 L 10.542969 15.398438 C 13.722656 15.398438 15.398438 13.722656 15.398438 10.542969 L 15.398438 7.773438 C 15.414062 4.59375 13.738281 2.917969 10.558594 2.917969 Z M 10.558594 2.917969 "/>
<use xlink:href="#surface5" mask="url(#mask0)"/>
<path style=" stroke:none;fill-rule:nonzero;fill:rgb(16.078431%,17.647059%,19.607843%);fill-opacity:1;" d="M 27.226562 19.585938 L 24.457031 19.585938 C 21.277344 19.585938 19.597656 21.261719 19.597656 24.441406 L 19.597656 27.210938 C 19.597656 30.390625 21.277344 32.070312 24.457031 32.070312 L 27.226562 32.070312 C 30.40625 32.070312 32.082031 30.390625 32.082031 27.210938 L 32.082031 24.441406 C 32.082031 21.261719 30.40625 19.585938 27.226562 19.585938 Z M 27.226562 19.585938 "/>
<use xlink:href="#surface8" mask="url(#mask1)"/>
</g>
</svg>
