<?xml version="1.0" encoding="UTF-8"?>
<svg xmlns="http://www.w3.org/2000/svg" xmlns:xlink="http://www.w3.org/1999/xlink" width="25px" height="25px" viewBox="0 0 25 25" version="1.1">
<g id="surface1">
<path style=" stroke:none;fill-rule:nonzero;fill:rgb(100%,100%,100%);fill-opacity:1;" d="M 12.425781 18.871094 C 11.953125 17.703125 11.832031 17.316406 11.460938 16.179688 C 11.089844 15.042969 10.746094 13.980469 10.449219 12.863281 C 11.085938 13.179688 11.789062 13.332031 12.5 13.308594 C 13.199219 13.332031 13.894531 13.183594 14.523438 12.878906 C 14.234375 13.988281 13.902344 15.078125 13.542969 16.179688 C 13.171875 17.316406 13.050781 17.703125 12.578125 18.871094 Z M 12.425781 18.871094 "/>
<path style=" stroke:none;fill-rule:nonzero;fill:rgb(58.431373%,49.803922%,43.137255%);fill-opacity:1;" d="M 7.765625 6.234375 C 7.6875 3.984375 8.28125 2.351562 9.214844 1.457031 C 9.777344 0.917969 11.046875 0.183594 12.46875 0.183594 C 13.179688 0.171875 13.882812 0.308594 14.539062 0.582031 L 14.644531 0.640625 L 15.226562 0.972656 C 15.441406 1.121094 15.644531 1.292969 15.832031 1.476562 C 16.542969 2.164062 17.039062 3.402344 17.117188 4.507812 C 17.140625 4.828125 17.191406 5.660156 17.140625 6.234375 C 17.167969 8.132812 17.515625 9.199219 17.699219 9.722656 C 17.839844 10.101562 17.914062 10.503906 17.917969 10.914062 C 17.925781 11.625 17.039062 12.542969 16.023438 12.179688 L 8.769531 12.355469 C 7.839844 12.375 7.234375 11.691406 7.238281 11.058594 C 7.257812 10.527344 7.332031 10 7.464844 9.484375 C 7.640625 8.859375 7.765625 7.757812 7.765625 6.234375 "/>
<path style=" stroke:none;fill-rule:nonzero;fill:rgb(70.196078%,70.196078%,70.196078%);fill-opacity:1;" d="M 19.332031 14.878906 C 19.035156 14.011719 18.410156 13.289062 17.589844 12.875 C 17.027344 12.597656 16.449219 12.355469 15.855469 12.152344 C 15.738281 12.042969 15.617188 11.9375 15.492188 11.839844 L 14.84375 11.5625 C 14.488281 13.140625 14.042969 14.648438 13.542969 16.179688 C 13.175781 17.316406 13.050781 17.703125 12.578125 18.871094 L 12.425781 18.871094 C 11.953125 17.703125 11.832031 17.316406 11.460938 16.179688 C 10.960938 14.648438 10.511719 13.253906 10.15625 11.679688 L 9.472656 11.871094 C 9.375 11.949219 9.277344 12.035156 9.1875 12.117188 C 8.011719 12.539062 7.476562 12.722656 6.738281 13.277344 C 6.511719 13.453125 6.3125 13.664062 6.148438 13.902344 C 5.882812 14.359375 5.695312 14.863281 5.601562 15.386719 C 5.265625 17.3125 5.183594 19.273438 5.363281 21.21875 C 5.441406 22.109375 5.648438 22.945312 5.945312 23.414062 C 6.203125 23.832031 6.574219 24.164062 7.019531 24.371094 C 7.847656 24.742188 9.339844 24.554688 10.242188 24.304688 C 10.546875 24.222656 10.902344 24.121094 11.265625 24.011719 C 12.222656 24.296875 13.273438 24.546875 14.097656 24.660156 C 15.175781 24.808594 15.992188 24.867188 17.144531 24.761719 C 18.105469 24.636719 18.746094 24.265625 19.046875 23.710938 C 19.414062 23.03125 19.5625 22.398438 19.621094 21.507812 C 19.695312 20.390625 19.742188 19.269531 19.726562 18.148438 C 19.707031 17.066406 19.675781 15.914062 19.328125 14.878906 "/>
<path style=" stroke:none;fill-rule:nonzero;fill:rgb(100%,100%,100%);fill-opacity:1;" d="M 8.882812 5.78125 L 9.121094 5.78125 C 9.359375 5.671875 10.015625 5.386719 10.109375 5.328125 C 10.429688 5.144531 10.734375 4.9375 11.023438 4.714844 L 11.058594 4.761719 C 12.058594 4.535156 13.429688 3.785156 13.921875 3.199219 L 14.03125 3.199219 C 14.171875 3.664062 14.292969 4.105469 14.796875 4.78125 C 15.148438 5.257812 15.601562 5.554688 15.867188 5.761719 L 16.039062 5.949219 C 16.148438 5.851562 16.292969 5.796875 16.441406 5.804688 C 16.628906 5.800781 16.808594 5.898438 16.898438 6.066406 C 17.054688 6.339844 17.046875 6.84375 16.941406 7.15625 C 16.867188 7.375 16.742188 7.714844 16.449219 7.953125 C 16.316406 8.0625 16.148438 8.113281 15.976562 8.089844 L 15.925781 8.078125 C 15.765625 8.625 15.5 9.132812 15.140625 9.574219 C 14.804688 9.980469 14.488281 10.230469 14.101562 10.410156 C 14.109375 10.621094 14.097656 10.671875 14.117188 10.90625 C 14.117188 11.007812 14.136719 11.105469 14.167969 11.203125 C 14.210938 11.324219 14.285156 11.433594 14.382812 11.515625 C 14.507812 11.617188 14.648438 11.699219 14.796875 11.761719 C 14.710938 12.136719 14.621094 12.507812 14.523438 12.878906 C 13.894531 13.183594 13.199219 13.332031 12.5 13.308594 C 11.789062 13.332031 11.085938 13.179688 10.449219 12.867188 C 10.355469 12.519531 10.269531 12.164062 10.183594 11.804688 C 10.371094 11.734375 10.546875 11.640625 10.703125 11.515625 C 10.804688 11.433594 10.878906 11.324219 10.921875 11.203125 C 10.949219 11.105469 10.96875 11.007812 10.972656 10.90625 C 10.984375 10.738281 10.984375 10.664062 10.984375 10.554688 L 11.003906 10.5 C 10.582031 10.320312 10.203125 10.007812 9.847656 9.574219 C 9.484375 9.125 9.214844 8.605469 9.058594 8.050781 L 9.019531 8.0625 C 8.851562 8.082031 8.679688 8.035156 8.550781 7.921875 C 8.257812 7.679688 8.136719 7.339844 8.0625 7.121094 C 7.960938 6.808594 7.957031 6.304688 8.113281 6.03125 C 8.207031 5.867188 8.386719 5.765625 8.574219 5.773438 C 8.613281 5.773438 8.652344 5.773438 8.691406 5.78125 Z M 8.882812 5.78125 "/>
<path style=" stroke:none;fill-rule:nonzero;fill:rgb(100%,100%,100%);fill-opacity:1;" d="M 17.109375 19.796875 C 17.050781 20.394531 16.9375 21.425781 16.753906 22.417969 L 16.683594 22.40625 C 16.046875 22.480469 14.011719 22.664062 13.699219 22.507812 L 13.609375 22.527344 C 13.464844 21.808594 13.199219 20.832031 13.058594 20.242188 C 13.050781 20.210938 13.039062 20.175781 13.023438 20.144531 L 13.113281 20.121094 C 13.613281 19.898438 13.902344 19.820312 14.425781 19.667969 C 14.894531 19.53125 15.394531 19.390625 16.039062 19.390625 C 16.332031 19.402344 16.621094 19.460938 16.894531 19.566406 L 17.128906 19.585938 C 17.125 19.652344 17.117188 19.722656 17.109375 19.796875 Z M 17.109375 19.796875 "/>
<path style=" stroke:none;fill-rule:nonzero;fill:rgb(100%,100%,100%);fill-opacity:1;" d="M 8.632812 18.089844 C 9.199219 18.597656 10.234375 19.628906 10.761719 20.167969 L 10.777344 20.253906 C 9.789062 20.441406 8.730469 20.640625 7.953125 20.78125 L 7.917969 20.589844 C 7.816406 20.457031 7.714844 20.320312 7.597656 20.164062 C 7.535156 20.09375 7.488281 20.015625 7.453125 19.925781 C 7.421875 19.824219 7.441406 19.714844 7.503906 19.628906 C 7.59375 19.523438 7.707031 19.515625 7.855469 19.539062 L 7.90625 19.488281 C 7.847656 19.425781 7.785156 19.359375 7.722656 19.296875 C 7.621094 19.203125 7.535156 19.089844 7.472656 18.964844 C 7.429688 18.859375 7.445312 18.738281 7.519531 18.652344 C 7.601562 18.5625 7.726562 18.519531 7.847656 18.542969 L 7.933594 18.539062 C 7.898438 18.5 7.871094 18.457031 7.847656 18.410156 C 7.785156 18.277344 7.804688 18.121094 7.902344 18.007812 C 7.996094 17.925781 8.121094 17.886719 8.246094 17.902344 C 8.390625 17.925781 8.527344 17.988281 8.632812 18.089844 Z M 8.632812 18.089844 "/>
<path style=" stroke:none;fill-rule:nonzero;fill:rgb(12.941176%,9.019608%,8.235294%);fill-opacity:1;" d="M 7.949219 6.234375 C 7.902344 4.84375 8.078125 3.332031 8.871094 2.152344 C 9.183594 1.699219 9.59375 1.324219 10.070312 1.054688 C 10.730469 0.660156 11.476562 0.425781 12.25 0.375 C 12.703125 0.351562 13.15625 0.386719 13.601562 0.480469 C 13.792969 0.519531 13.976562 0.574219 14.160156 0.636719 C 14.253906 0.667969 14.347656 0.703125 14.4375 0.738281 C 14.492188 0.757812 14.457031 0.746094 14.445312 0.742188 C 14.457031 0.746094 14.46875 0.753906 14.480469 0.761719 L 14.550781 0.800781 C 14.757812 0.917969 14.945312 0.597656 14.738281 0.480469 C 14.453125 0.332031 14.152344 0.222656 13.839844 0.15625 C 13.4375 0.0585938 13.027344 0.0078125 12.613281 0 C 11.757812 -0.0078125 10.910156 0.191406 10.148438 0.589844 C 9.589844 0.867188 9.09375 1.261719 8.707031 1.753906 C 8.324219 2.269531 8.042969 2.855469 7.875 3.480469 C 7.621094 4.371094 7.550781 5.308594 7.578125 6.234375 C 7.585938 6.46875 7.957031 6.472656 7.949219 6.234375 Z M 7.949219 6.234375 "/>
<path style=" stroke:none;fill-rule:nonzero;fill:rgb(12.941176%,9.019608%,8.235294%);fill-opacity:1;" d="M 17.328125 6.234375 C 17.351562 5.84375 17.355469 5.449219 17.332031 5.058594 C 17.324219 4.71875 17.292969 4.378906 17.246094 4.039062 C 17.125 3.234375 16.820312 2.46875 16.351562 1.800781 C 16.082031 1.441406 15.757812 1.121094 15.390625 0.863281 C 15.304688 0.8125 15.191406 0.839844 15.136719 0.929688 C 15.089844 1.015625 15.117188 1.128906 15.203125 1.179688 C 15.800781 1.617188 16.261719 2.214844 16.539062 2.898438 C 16.691406 3.265625 16.804688 3.652344 16.875 4.046875 C 16.921875 4.355469 16.953125 4.664062 16.960938 4.976562 C 16.988281 5.394531 16.984375 5.816406 16.957031 6.234375 C 16.957031 6.335938 17.039062 6.417969 17.140625 6.417969 C 17.242188 6.414062 17.324219 6.335938 17.328125 6.234375 Z M 17.328125 6.234375 "/>
<path style=" stroke:none;fill-rule:nonzero;fill:rgb(12.941176%,9.019608%,8.235294%);fill-opacity:1;" d="M 7.578125 6.234375 C 7.578125 6.828125 7.5625 7.421875 7.511719 8.015625 C 7.480469 8.425781 7.421875 8.832031 7.335938 9.234375 C 7.292969 9.425781 7.238281 9.613281 7.199219 9.808594 C 7.144531 10.078125 7.105469 10.351562 7.082031 10.625 C 7.046875 10.847656 7.046875 11.074219 7.078125 11.296875 C 7.113281 11.5 7.199219 11.6875 7.320312 11.851562 C 7.664062 12.304688 8.203125 12.558594 8.769531 12.539062 C 9.007812 12.535156 9.007812 12.164062 8.769531 12.167969 C 8.339844 12.175781 7.917969 12.019531 7.648438 11.675781 C 7.539062 11.539062 7.46875 11.378906 7.433594 11.210938 C 7.429688 11.171875 7.425781 11.136719 7.425781 11.101562 C 7.421875 11.050781 7.425781 11 7.425781 10.953125 C 7.429688 10.839844 7.441406 10.726562 7.453125 10.613281 C 7.476562 10.367188 7.511719 10.121094 7.5625 9.878906 C 7.597656 9.695312 7.652344 9.515625 7.691406 9.332031 C 7.777344 8.933594 7.839844 8.53125 7.871094 8.128906 C 7.929688 7.5 7.949219 6.867188 7.949219 6.234375 C 7.949219 5.996094 7.578125 5.996094 7.578125 6.234375 Z M 7.578125 6.234375 "/>
<path style=" stroke:none;fill-rule:nonzero;fill:rgb(12.941176%,9.019608%,8.235294%);fill-opacity:1;" d="M 16.957031 6.234375 C 16.972656 7.242188 17.074219 8.261719 17.351562 9.234375 C 17.449219 9.589844 17.59375 9.933594 17.671875 10.296875 C 17.699219 10.441406 17.71875 10.589844 17.726562 10.734375 C 17.730469 10.804688 17.734375 10.875 17.734375 10.941406 C 17.734375 10.984375 17.730469 11.027344 17.71875 11.066406 C 17.675781 11.257812 17.589844 11.4375 17.460938 11.589844 C 17.113281 12.003906 16.589844 12.179688 16.074219 12.003906 C 15.847656 11.925781 15.75 12.28125 15.972656 12.359375 C 16.503906 12.535156 17.089844 12.421875 17.515625 12.058594 C 17.898438 11.75 18.113281 11.28125 18.097656 10.789062 C 18.085938 10.457031 18.023438 10.125 17.921875 9.808594 C 17.875 9.660156 17.820312 9.515625 17.773438 9.367188 C 17.660156 9 17.570312 8.625 17.503906 8.246094 C 17.390625 7.582031 17.332031 6.90625 17.328125 6.234375 C 17.324219 5.996094 16.953125 5.996094 16.957031 6.234375 Z M 16.957031 6.234375 "/>
<path style=" stroke:none;fill-rule:nonzero;fill:rgb(12.941176%,9.019608%,8.235294%);fill-opacity:1;" d="M 12.03125 8.988281 C 12.058594 8.972656 12.082031 8.960938 12.109375 8.949219 L 12.113281 8.945312 C 12.085938 8.960938 12.117188 8.945312 12.125 8.941406 C 12.140625 8.9375 12.160156 8.929688 12.179688 8.921875 C 12.234375 8.90625 12.289062 8.894531 12.34375 8.886719 C 12.3125 8.890625 12.339844 8.886719 12.355469 8.886719 C 12.371094 8.882812 12.386719 8.882812 12.402344 8.882812 C 12.441406 8.878906 12.480469 8.875 12.515625 8.875 C 12.554688 8.875 12.589844 8.878906 12.625 8.878906 C 12.640625 8.878906 12.65625 8.882812 12.675781 8.882812 C 12.675781 8.882812 12.734375 8.890625 12.699219 8.886719 C 12.753906 8.894531 12.804688 8.90625 12.855469 8.921875 C 12.867188 8.921875 12.914062 8.949219 12.921875 8.945312 C 12.917969 8.945312 12.886719 8.925781 12.910156 8.9375 C 12.917969 8.945312 12.929688 8.949219 12.9375 8.953125 C 12.949219 8.960938 12.964844 8.96875 12.976562 8.976562 C 12.992188 8.984375 13.039062 9.019531 12.980469 8.976562 C 13.054688 9.046875 13.167969 9.046875 13.242188 8.976562 C 13.304688 8.910156 13.324219 8.777344 13.242188 8.714844 C 13.039062 8.570312 12.789062 8.496094 12.539062 8.507812 C 12.296875 8.5 12.058594 8.558594 11.84375 8.667969 C 11.757812 8.71875 11.726562 8.832031 11.777344 8.921875 C 11.832031 9.007812 11.941406 9.035156 12.03125 8.988281 Z M 12.03125 8.988281 "/>
<path style=" stroke:none;fill-rule:nonzero;fill:rgb(12.941176%,9.019608%,8.235294%);fill-opacity:1;" d="M 12.445312 7.234375 C 12.476562 7.351562 12.5 7.464844 12.519531 7.585938 L 12.511719 7.535156 C 12.515625 7.550781 12.515625 7.566406 12.515625 7.582031 L 12.519531 7.535156 C 12.519531 7.542969 12.519531 7.550781 12.515625 7.554688 L 12.535156 7.511719 C 12.53125 7.515625 12.53125 7.523438 12.527344 7.527344 L 12.554688 7.488281 C 12.550781 7.492188 12.546875 7.496094 12.542969 7.5 L 12.582031 7.472656 C 12.574219 7.476562 12.5625 7.480469 12.554688 7.484375 L 12.597656 7.46875 C 12.582031 7.472656 12.566406 7.476562 12.550781 7.480469 L 12.601562 7.472656 C 12.585938 7.476562 12.570312 7.476562 12.558594 7.472656 L 12.605469 7.480469 C 12.589844 7.480469 12.574219 7.476562 12.554688 7.472656 C 12.53125 7.464844 12.507812 7.464844 12.484375 7.46875 C 12.457031 7.46875 12.433594 7.476562 12.414062 7.492188 C 12.324219 7.542969 12.296875 7.65625 12.347656 7.742188 C 12.371094 7.785156 12.410156 7.816406 12.457031 7.828125 C 12.496094 7.832031 12.535156 7.84375 12.570312 7.84375 C 12.628906 7.84375 12.6875 7.832031 12.742188 7.804688 C 12.808594 7.773438 12.855469 7.714844 12.875 7.644531 C 12.886719 7.585938 12.886719 7.527344 12.875 7.472656 C 12.855469 7.359375 12.828125 7.246094 12.800781 7.136719 C 12.773438 7.039062 12.671875 6.980469 12.574219 7.007812 C 12.472656 7.035156 12.417969 7.136719 12.445312 7.234375 Z M 12.445312 7.234375 "/>
<path style=" stroke:none;fill-rule:nonzero;fill:rgb(12.941176%,9.019608%,8.235294%);fill-opacity:1;" d="M 10.597656 6.242188 C 10.539062 6.433594 10.578125 6.867188 10.9375 6.90625 C 11.414062 6.902344 11.4375 6.375 11.277344 6.128906 C 11.148438 5.921875 10.761719 5.839844 10.597656 6.242188 Z M 10.597656 6.242188 "/>
<path style=" stroke:none;fill-rule:nonzero;fill:rgb(12.941176%,9.019608%,8.235294%);fill-opacity:1;" d="M 14.40625 6.242188 C 14.464844 6.433594 14.425781 6.867188 14.066406 6.90625 C 13.589844 6.902344 13.566406 6.375 13.726562 6.128906 C 13.855469 5.921875 14.242188 5.839844 14.40625 6.242188 Z M 14.40625 6.242188 "/>
<path style=" stroke:none;fill-rule:nonzero;fill:rgb(12.941176%,9.019608%,8.235294%);fill-opacity:1;" d="M 11.949219 3.472656 C 11.640625 3.925781 11.257812 4.320312 10.816406 4.644531 C 10.578125 4.820312 10.332031 4.984375 10.074219 5.136719 C 9.933594 5.214844 9.789062 5.285156 9.640625 5.347656 C 9.4375 5.4375 9.230469 5.527344 9.027344 5.621094 C 8.941406 5.675781 8.914062 5.785156 8.964844 5.875 C 9.015625 5.960938 9.128906 5.988281 9.214844 5.941406 C 9.542969 5.789062 9.886719 5.664062 10.203125 5.492188 C 10.730469 5.199219 11.21875 4.832031 11.652344 4.410156 C 11.882812 4.183594 12.089844 3.929688 12.265625 3.660156 C 12.394531 3.460938 12.078125 3.277344 11.949219 3.472656 Z M 11.949219 3.472656 "/>
<path style=" stroke:none;fill-rule:nonzero;fill:rgb(12.941176%,9.019608%,8.235294%);fill-opacity:1;" d="M 13.851562 2.992188 C 13.839844 3.003906 13.832031 3.019531 13.824219 3.03125 C 13.804688 3.058594 13.832031 3.023438 13.808594 3.050781 C 13.78125 3.085938 13.753906 3.117188 13.722656 3.148438 C 13.660156 3.210938 13.597656 3.273438 13.527344 3.332031 C 13.371094 3.464844 13.203125 3.585938 13.027344 3.695312 C 12.625 3.957031 12.195312 4.175781 11.746094 4.351562 C 11.507812 4.445312 11.261719 4.523438 11.011719 4.582031 C 10.777344 4.636719 10.875 4.992188 11.109375 4.9375 C 11.59375 4.820312 12.0625 4.644531 12.507812 4.414062 C 12.945312 4.203125 13.359375 3.941406 13.738281 3.636719 C 13.902344 3.503906 14.046875 3.351562 14.171875 3.179688 C 14.304688 2.980469 13.984375 2.796875 13.851562 2.992188 Z M 13.851562 2.992188 "/>
<path style=" stroke:none;fill-rule:nonzero;fill:rgb(12.941176%,9.019608%,8.235294%);fill-opacity:1;" d="M 15.996094 5.628906 C 15.804688 5.480469 15.609375 5.34375 15.429688 5.183594 C 15.191406 4.976562 14.984375 4.742188 14.808594 4.480469 C 14.65625 4.257812 14.523438 4.019531 14.417969 3.769531 C 14.335938 3.570312 14.273438 3.359375 14.207031 3.152344 C 14.136719 2.925781 13.78125 3.019531 13.851562 3.25 C 14.007812 3.753906 14.191406 4.226562 14.492188 4.667969 C 14.675781 4.949219 14.894531 5.203125 15.144531 5.425781 C 15.253906 5.523438 15.367188 5.613281 15.484375 5.699219 C 15.527344 5.734375 15.574219 5.769531 15.621094 5.804688 C 15.652344 5.828125 15.722656 5.878906 15.734375 5.890625 C 15.808594 5.960938 15.921875 5.960938 15.996094 5.890625 C 16.066406 5.816406 16.066406 5.703125 15.996094 5.628906 Z M 15.996094 5.628906 "/>
<path style=" stroke:none;fill-rule:nonzero;fill:rgb(12.941176%,9.019608%,8.235294%);fill-opacity:1;" d="M 10.527344 5.410156 C 10.488281 5.460938 10.4375 5.507812 10.386719 5.546875 L 10.425781 5.519531 C 10.367188 5.5625 10.300781 5.601562 10.234375 5.632812 L 10.277344 5.613281 C 10.257812 5.621094 10.238281 5.628906 10.21875 5.636719 C 10.171875 5.648438 10.132812 5.679688 10.105469 5.71875 C 10.082031 5.761719 10.074219 5.8125 10.089844 5.863281 C 10.101562 5.90625 10.132812 5.949219 10.171875 5.972656 C 10.214844 5.996094 10.269531 6.003906 10.316406 5.992188 C 10.5 5.929688 10.664062 5.820312 10.789062 5.671875 C 10.820312 5.636719 10.839844 5.589844 10.84375 5.539062 C 10.84375 5.492188 10.824219 5.445312 10.789062 5.410156 C 10.753906 5.375 10.707031 5.355469 10.65625 5.355469 C 10.609375 5.355469 10.5625 5.375 10.527344 5.410156 Z M 10.527344 5.410156 "/>
<path style=" stroke:none;fill-rule:nonzero;fill:rgb(12.941176%,9.019608%,8.235294%);fill-opacity:1;" d="M 8.8125 7.828125 C 8.925781 8.355469 9.136719 8.859375 9.433594 9.316406 C 9.75 9.796875 10.167969 10.253906 10.671875 10.539062 C 10.933594 10.6875 11.21875 10.789062 11.515625 10.832031 C 11.613281 10.855469 11.710938 10.800781 11.742188 10.703125 C 11.765625 10.605469 11.710938 10.503906 11.613281 10.476562 C 10.566406 10.316406 9.789062 9.402344 9.398438 8.472656 C 9.300781 8.230469 9.222656 7.984375 9.167969 7.730469 C 9.117188 7.5 8.761719 7.597656 8.8125 7.828125 Z M 8.8125 7.828125 "/>
<path style=" stroke:none;fill-rule:nonzero;fill:rgb(12.941176%,9.019608%,8.235294%);fill-opacity:1;" d="M 15.824219 7.730469 C 15.695312 8.332031 15.429688 8.898438 15.054688 9.386719 C 14.871094 9.628906 14.652344 9.84375 14.410156 10.023438 C 14.171875 10.183594 13.914062 10.308594 13.640625 10.390625 C 13.417969 10.464844 13.511719 10.824219 13.738281 10.75 C 14.210938 10.601562 14.640625 10.347656 14.996094 10.007812 C 15.40625 9.59375 15.730469 9.105469 15.945312 8.570312 C 16.046875 8.328125 16.125 8.082031 16.179688 7.828125 C 16.230469 7.597656 15.875 7.496094 15.824219 7.730469 Z M 15.824219 7.730469 "/>
<path style=" stroke:none;fill-rule:nonzero;fill:rgb(12.941176%,9.019608%,8.235294%);fill-opacity:1;" d="M 16.171875 6.082031 C 16.265625 6 16.390625 5.96875 16.511719 5.996094 C 16.5625 6.007812 16.605469 6.023438 16.648438 6.050781 C 16.664062 6.058594 16.675781 6.070312 16.6875 6.085938 C 16.691406 6.089844 16.734375 6.144531 16.710938 6.109375 C 16.839844 6.292969 16.84375 6.550781 16.828125 6.765625 C 16.808594 6.992188 16.742188 7.214844 16.636719 7.417969 C 16.527344 7.632812 16.3125 7.949219 16.027344 7.910156 C 15.929688 7.886719 15.828125 7.945312 15.800781 8.039062 C 15.773438 8.136719 15.832031 8.238281 15.929688 8.265625 C 16.582031 8.359375 16.964844 7.707031 17.128906 7.167969 C 17.207031 6.898438 17.226562 6.613281 17.179688 6.335938 C 17.15625 6.101562 17.039062 5.886719 16.851562 5.746094 C 16.558594 5.554688 16.171875 5.585938 15.910156 5.820312 C 15.734375 5.980469 15.996094 6.238281 16.171875 6.082031 Z M 16.171875 6.082031 "/>
<path style=" stroke:none;fill-rule:nonzero;fill:rgb(12.941176%,9.019608%,8.235294%);fill-opacity:1;" d="M 9.105469 5.792969 C 8.867188 5.578125 8.527344 5.527344 8.238281 5.667969 C 8.042969 5.773438 7.902344 5.964844 7.855469 6.183594 C 7.722656 6.695312 7.847656 7.277344 8.128906 7.714844 C 8.324219 8.019531 8.636719 8.296875 9.019531 8.246094 C 9.121094 8.242188 9.203125 8.164062 9.207031 8.0625 C 9.207031 7.972656 9.121094 7.863281 9.019531 7.875 C 8.714844 7.917969 8.507812 7.652344 8.378906 7.40625 C 8.269531 7.203125 8.199219 6.976562 8.179688 6.746094 C 8.164062 6.527344 8.167969 6.261719 8.304688 6.078125 C 8.28125 6.109375 8.359375 6.023438 8.351562 6.03125 C 8.394531 5.996094 8.449219 5.976562 8.503906 5.964844 C 8.625 5.9375 8.75 5.972656 8.84375 6.054688 C 9.019531 6.214844 9.28125 5.953125 9.105469 5.792969 Z M 9.105469 5.792969 "/>
<path style=" stroke:none;fill-rule:nonzero;fill:rgb(12.941176%,9.019608%,8.235294%);fill-opacity:1;" d="M 10.359375 11.929688 C 10.632812 11.8125 10.917969 11.648438 11.050781 11.367188 C 11.167969 11.113281 11.167969 10.828125 11.167969 10.554688 C 11.167969 10.453125 11.085938 10.371094 10.984375 10.371094 C 10.882812 10.371094 10.800781 10.453125 10.800781 10.554688 C 10.800781 10.652344 10.796875 10.746094 10.792969 10.84375 C 10.789062 10.875 10.789062 10.90625 10.785156 10.9375 C 10.785156 10.957031 10.78125 10.972656 10.78125 10.992188 C 10.78125 11 10.777344 11.007812 10.777344 11.015625 C 10.773438 11.046875 10.765625 11.082031 10.757812 11.113281 C 10.753906 11.128906 10.746094 11.144531 10.738281 11.160156 C 10.726562 11.195312 10.757812 11.125 10.730469 11.179688 C 10.71875 11.207031 10.707031 11.230469 10.691406 11.257812 C 10.683594 11.269531 10.671875 11.285156 10.664062 11.296875 C 10.660156 11.300781 10.644531 11.320312 10.660156 11.304688 C 10.621094 11.347656 10.578125 11.386719 10.53125 11.417969 C 10.417969 11.496094 10.296875 11.558594 10.171875 11.613281 C 10.085938 11.664062 10.054688 11.777344 10.105469 11.863281 C 10.160156 11.949219 10.269531 11.980469 10.359375 11.929688 Z M 10.359375 11.929688 "/>
<path style=" stroke:none;fill-rule:nonzero;fill:rgb(12.941176%,9.019608%,8.235294%);fill-opacity:1;" d="M 13.917969 10.554688 C 13.921875 10.8125 13.917969 11.089844 14.023438 11.328125 C 14.140625 11.601562 14.382812 11.773438 14.644531 11.894531 C 14.734375 11.941406 14.84375 11.914062 14.898438 11.828125 C 14.949219 11.738281 14.917969 11.625 14.832031 11.574219 C 14.71875 11.523438 14.613281 11.460938 14.511719 11.386719 C 14.492188 11.371094 14.476562 11.355469 14.457031 11.335938 C 14.449219 11.324219 14.4375 11.3125 14.429688 11.300781 C 14.410156 11.277344 14.441406 11.320312 14.421875 11.296875 C 14.410156 11.273438 14.394531 11.25 14.378906 11.226562 C 14.371094 11.214844 14.367188 11.199219 14.359375 11.1875 C 14.359375 11.179688 14.34375 11.144531 14.351562 11.171875 C 14.339844 11.144531 14.332031 11.113281 14.324219 11.085938 C 14.320312 11.074219 14.316406 11.058594 14.316406 11.046875 C 14.3125 11.039062 14.308594 11 14.3125 11.027344 C 14.304688 10.964844 14.300781 10.902344 14.296875 10.84375 C 14.289062 10.746094 14.289062 10.652344 14.289062 10.554688 C 14.289062 10.453125 14.207031 10.371094 14.105469 10.371094 C 14.003906 10.371094 13.917969 10.453125 13.917969 10.554688 Z M 13.917969 10.554688 "/>
<path style=" stroke:none;fill-rule:nonzero;fill:rgb(12.941176%,9.019608%,8.235294%);fill-opacity:1;" d="M 10.464844 13.078125 C 11.105469 13.363281 11.800781 13.503906 12.5 13.492188 C 13.199219 13.503906 13.894531 13.363281 14.535156 13.078125 C 14.621094 13.027344 14.652344 12.914062 14.601562 12.824219 C 14.546875 12.738281 14.4375 12.710938 14.347656 12.757812 C 13.761719 13.027344 13.140625 13.121094 12.5 13.121094 C 11.859375 13.121094 11.238281 13.027344 10.652344 12.757812 C 10.5625 12.710938 10.453125 12.738281 10.398438 12.824219 C 10.347656 12.914062 10.378906 13.027344 10.464844 13.078125 Z M 10.464844 13.078125 "/>
<path style=" stroke:none;fill-rule:nonzero;fill:rgb(12.941176%,9.019608%,8.235294%);fill-opacity:1;" d="M 10.890625 20.039062 C 10.335938 19.464844 9.765625 18.90625 9.1875 18.355469 C 8.90625 18.085938 8.589844 17.695312 8.164062 17.714844 C 7.910156 17.730469 7.6875 17.882812 7.636719 18.140625 C 7.589844 18.40625 7.734375 18.613281 7.910156 18.789062 C 8.292969 19.171875 8.675781 19.550781 9.058594 19.929688 C 9.226562 20.097656 9.488281 19.835938 9.320312 19.671875 C 9.015625 19.371094 8.71875 19.070312 8.417969 18.769531 C 8.34375 18.695312 8.269531 18.625 8.195312 18.550781 C 8.121094 18.488281 8.058594 18.414062 8.011719 18.328125 C 7.945312 18.171875 8.078125 18.070312 8.222656 18.085938 C 8.398438 18.101562 8.523438 18.238281 8.644531 18.347656 C 8.765625 18.460938 8.886719 18.574219 9.003906 18.6875 C 9.277344 18.949219 9.546875 19.214844 9.816406 19.480469 C 10.089844 19.75 10.359375 20.023438 10.628906 20.300781 C 10.796875 20.46875 11.054688 20.207031 10.890625 20.039062 Z M 10.890625 20.039062 "/>
<path style=" stroke:none;fill-rule:nonzero;fill:rgb(12.941176%,9.019608%,8.235294%);fill-opacity:1;" d="M 7.847656 18.355469 C 7.628906 18.328125 7.414062 18.441406 7.3125 18.636719 C 7.199219 18.878906 7.316406 19.109375 7.472656 19.296875 C 7.621094 19.476562 7.792969 19.636719 7.953125 19.804688 C 8.117188 19.972656 8.28125 20.140625 8.453125 20.300781 C 8.628906 20.460938 8.890625 20.199219 8.714844 20.039062 C 8.4375 19.78125 8.179688 19.503906 7.917969 19.230469 C 7.855469 19.167969 7.789062 19.105469 7.734375 19.035156 C 7.6875 18.988281 7.652344 18.925781 7.632812 18.859375 C 7.617188 18.742188 7.746094 18.710938 7.847656 18.726562 C 7.949219 18.726562 8.03125 18.644531 8.03125 18.542969 C 8.03125 18.441406 7.949219 18.359375 7.847656 18.355469 Z M 7.847656 18.355469 "/>
<path style=" stroke:none;fill-rule:nonzero;fill:rgb(12.941176%,9.019608%,8.235294%);fill-opacity:1;" d="M 8.078125 20.496094 C 8 20.394531 7.921875 20.289062 7.84375 20.183594 C 7.804688 20.132812 7.765625 20.082031 7.726562 20.03125 C 7.707031 20.007812 7.691406 19.984375 7.675781 19.960938 C 7.664062 19.945312 7.65625 19.929688 7.648438 19.914062 C 7.644531 19.910156 7.625 19.871094 7.632812 19.890625 C 7.640625 19.90625 7.628906 19.867188 7.628906 19.867188 C 7.625 19.859375 7.621094 19.824219 7.625 19.847656 C 7.625 19.878906 7.625 19.835938 7.625 19.832031 C 7.625 19.816406 7.625 19.804688 7.625 19.792969 C 7.625 19.769531 7.617188 19.824219 7.628906 19.789062 C 7.632812 19.777344 7.636719 19.761719 7.640625 19.746094 C 7.632812 19.773438 7.628906 19.757812 7.640625 19.746094 C 7.664062 19.734375 7.605469 19.78125 7.644531 19.746094 C 7.648438 19.742188 7.679688 19.714844 7.660156 19.730469 C 7.636719 19.746094 7.671875 19.726562 7.675781 19.722656 C 7.707031 19.703125 7.65625 19.722656 7.675781 19.722656 C 7.6875 19.71875 7.695312 19.71875 7.707031 19.714844 C 7.75 19.703125 7.671875 19.714844 7.714844 19.714844 C 7.726562 19.714844 7.738281 19.714844 7.75 19.714844 C 7.765625 19.714844 7.777344 19.714844 7.789062 19.714844 C 7.800781 19.714844 7.847656 19.722656 7.808594 19.714844 C 7.90625 19.738281 8.003906 19.683594 8.035156 19.585938 C 8.054688 19.5 8.007812 19.375 7.90625 19.359375 C 7.75 19.339844 7.585938 19.332031 7.453125 19.425781 C 7.3125 19.527344 7.238281 19.695312 7.257812 19.867188 C 7.273438 20.039062 7.371094 20.167969 7.472656 20.300781 C 7.566406 20.425781 7.664062 20.554688 7.761719 20.683594 C 7.8125 20.769531 7.925781 20.800781 8.011719 20.75 C 8.089844 20.703125 8.140625 20.582031 8.078125 20.5 Z M 8.078125 20.496094 "/>
<path style=" stroke:none;fill-rule:nonzero;fill:rgb(12.941176%,9.019608%,8.235294%);fill-opacity:1;" d="M 16.882812 22.746094 C 17.148438 21.382812 17.285156 20 17.394531 18.613281 C 17.421875 18.226562 17.460938 17.835938 17.503906 17.449219 C 17.503906 17.347656 17.421875 17.265625 17.320312 17.265625 C 17.21875 17.265625 17.136719 17.347656 17.136719 17.449219 C 17.0625 18.089844 17.019531 18.734375 16.964844 19.378906 C 16.910156 20.019531 16.835938 20.664062 16.746094 21.304688 C 16.683594 21.753906 16.613281 22.203125 16.527344 22.648438 C 16.5 22.746094 16.558594 22.847656 16.65625 22.875 C 16.753906 22.902344 16.855469 22.84375 16.882812 22.746094 Z M 16.882812 22.746094 "/>
<path style=" stroke:none;fill-rule:nonzero;fill:rgb(12.941176%,9.019608%,8.235294%);fill-opacity:1;" d="M 19.152344 14.925781 C 19.523438 16.054688 19.539062 17.261719 19.542969 18.4375 C 19.546875 19.074219 19.53125 19.707031 19.503906 20.34375 C 19.476562 20.9375 19.464844 21.539062 19.375 22.128906 C 19.304688 22.605469 19.164062 23.066406 18.949219 23.496094 C 18.867188 23.671875 18.757812 23.828125 18.625 23.964844 C 18.484375 24.097656 18.324219 24.207031 18.148438 24.292969 C 17.691406 24.523438 17.175781 24.585938 16.667969 24.613281 C 16.125 24.644531 15.578125 24.632812 15.035156 24.585938 C 13.917969 24.476562 12.808594 24.265625 11.726562 23.953125 C 11.585938 23.914062 11.445312 23.871094 11.304688 23.828125 C 11.074219 23.761719 10.976562 24.117188 11.207031 24.1875 C 12.332031 24.53125 13.492188 24.777344 14.664062 24.917969 C 15.214844 24.980469 15.769531 25.007812 16.324219 24.996094 C 16.898438 24.980469 17.480469 24.945312 18.023438 24.746094 C 18.441406 24.605469 18.808594 24.34375 19.082031 23.996094 C 19.214844 23.804688 19.324219 23.601562 19.40625 23.382812 C 19.507812 23.152344 19.585938 22.910156 19.644531 22.667969 C 19.78125 22.101562 19.808594 21.515625 19.84375 20.933594 C 19.878906 20.28125 19.90625 19.625 19.910156 18.972656 C 19.917969 18.339844 19.910156 17.710938 19.878906 17.078125 C 19.855469 16.46875 19.773438 15.859375 19.632812 15.265625 C 19.597656 15.117188 19.554688 14.972656 19.507812 14.828125 C 19.433594 14.605469 19.078125 14.699219 19.152344 14.925781 Z M 19.152344 14.925781 "/>
<path style=" stroke:none;fill-rule:nonzero;fill:rgb(12.941176%,9.019608%,8.235294%);fill-opacity:1;" d="M 16.011719 12.40625 C 16.597656 12.621094 17.191406 12.839844 17.722656 13.164062 C 18.140625 13.414062 18.5 13.757812 18.769531 14.164062 C 18.925781 14.402344 19.054688 14.65625 19.152344 14.925781 C 19.179688 15.023438 19.28125 15.082031 19.378906 15.054688 C 19.476562 15.027344 19.535156 14.925781 19.507812 14.828125 C 19.324219 14.308594 19.035156 13.832031 18.652344 13.433594 C 18.242188 13.011719 17.742188 12.726562 17.210938 12.488281 C 16.851562 12.328125 16.480469 12.1875 16.113281 12.050781 C 16.011719 12.023438 15.914062 12.082031 15.882812 12.179688 C 15.859375 12.277344 15.917969 12.378906 16.011719 12.40625 Z M 16.011719 12.40625 "/>
<path style=" stroke:none;fill-rule:nonzero;fill:rgb(12.941176%,9.019608%,8.235294%);fill-opacity:1;" d="M 5.417969 15.347656 C 5.074219 17.320312 5 19.332031 5.1875 21.328125 C 5.273438 22.179688 5.4375 23.113281 5.992188 23.796875 C 6.273438 24.148438 6.636719 24.417969 7.054688 24.585938 C 7.410156 24.707031 7.785156 24.769531 8.164062 24.765625 C 8.960938 24.777344 9.753906 24.636719 10.515625 24.421875 C 11.304688 24.199219 12.089844 23.960938 12.867188 23.699219 C 13.027344 23.644531 13.1875 23.589844 13.347656 23.53125 C 13.535156 23.464844 13.707031 23.386719 13.796875 23.199219 C 13.886719 23.007812 13.851562 22.820312 13.8125 22.621094 C 13.78125 22.4375 13.742188 22.253906 13.699219 22.074219 C 13.609375 21.667969 13.503906 21.265625 13.402344 20.863281 C 13.359375 20.683594 13.3125 20.503906 13.269531 20.324219 C 13.222656 20.128906 13.160156 19.953125 12.984375 19.835938 C 12.804688 19.714844 12.617188 19.738281 12.414062 19.773438 C 12.242188 19.800781 12.070312 19.832031 11.898438 19.863281 C 11.5 19.933594 11.101562 20.007812 10.707031 20.082031 C 9.898438 20.234375 9.089844 20.386719 8.28125 20.535156 C 8.113281 20.566406 7.945312 20.59375 7.777344 20.625 C 7.679688 20.652344 7.625 20.753906 7.648438 20.851562 C 7.679688 20.949219 7.78125 21.003906 7.878906 20.980469 C 9.371094 20.71875 10.855469 20.417969 12.347656 20.15625 C 12.46875 20.136719 12.636719 20.074219 12.753906 20.128906 C 12.890625 20.191406 12.898438 20.363281 12.929688 20.492188 C 13.019531 20.863281 13.117188 21.230469 13.207031 21.601562 C 13.296875 21.964844 13.386719 22.328125 13.453125 22.695312 C 13.476562 22.820312 13.53125 22.972656 13.433594 23.078125 C 13.351562 23.175781 13.167969 23.207031 13.050781 23.246094 C 12.324219 23.5 11.589844 23.726562 10.851562 23.941406 C 10.140625 24.148438 9.433594 24.332031 8.691406 24.382812 C 8.320312 24.414062 7.949219 24.402344 7.582031 24.34375 C 7.21875 24.285156 6.882812 24.128906 6.601562 23.894531 C 6.316406 23.65625 6.089844 23.355469 5.945312 23.011719 C 5.785156 22.621094 5.675781 22.207031 5.617188 21.789062 C 5.550781 21.328125 5.507812 20.859375 5.488281 20.394531 C 5.464844 19.941406 5.453125 19.484375 5.453125 19.027344 C 5.460938 18.078125 5.527344 17.132812 5.660156 16.191406 C 5.695312 15.941406 5.734375 15.695312 5.773438 15.445312 C 5.796875 15.347656 5.742188 15.25 5.644531 15.21875 C 5.546875 15.191406 5.445312 15.25 5.417969 15.347656 Z M 5.417969 15.347656 "/>
<path style=" stroke:none;fill-rule:nonzero;fill:rgb(12.941176%,9.019608%,8.235294%);fill-opacity:1;" d="M 5.785156 15.425781 C 5.839844 15.101562 5.933594 14.78125 6.0625 14.480469 C 6.171875 14.195312 6.332031 13.933594 6.535156 13.710938 C 6.925781 13.300781 7.441406 13.003906 7.957031 12.777344 C 8.300781 12.628906 8.660156 12.503906 9.011719 12.378906 C 9.109375 12.347656 9.164062 12.246094 9.140625 12.148438 C 9.113281 12.050781 9.011719 11.996094 8.914062 12.019531 C 8.296875 12.242188 7.667969 12.460938 7.109375 12.804688 C 6.832031 12.964844 6.574219 13.160156 6.339844 13.382812 C 6.109375 13.617188 5.921875 13.890625 5.789062 14.191406 C 5.617188 14.550781 5.496094 14.933594 5.429688 15.328125 C 5.40625 15.425781 5.460938 15.523438 5.558594 15.554688 C 5.65625 15.582031 5.757812 15.523438 5.785156 15.425781 Z M 5.785156 15.425781 "/>
<path style=" stroke:none;fill-rule:nonzero;fill:rgb(12.941176%,9.019608%,8.235294%);fill-opacity:1;" d="M 13.605469 22.667969 C 13.738281 22.722656 13.882812 22.75 14.027344 22.746094 C 14.230469 22.757812 14.433594 22.753906 14.632812 22.75 C 15.117188 22.734375 15.597656 22.695312 16.078125 22.652344 C 16.28125 22.632812 16.480469 22.613281 16.683594 22.589844 C 16.785156 22.585938 16.867188 22.507812 16.867188 22.40625 C 16.867188 22.304688 16.785156 22.222656 16.683594 22.222656 C 16.292969 22.265625 15.898438 22.300781 15.507812 22.328125 C 15.058594 22.363281 14.605469 22.394531 14.152344 22.382812 C 14.066406 22.378906 13.976562 22.375 13.890625 22.367188 C 13.855469 22.363281 13.898438 22.367188 13.902344 22.367188 C 13.890625 22.367188 13.882812 22.367188 13.871094 22.363281 C 13.855469 22.363281 13.839844 22.359375 13.824219 22.355469 C 13.8125 22.351562 13.800781 22.347656 13.789062 22.347656 C 13.746094 22.335938 13.796875 22.351562 13.792969 22.347656 C 13.703125 22.300781 13.59375 22.328125 13.539062 22.414062 C 13.488281 22.503906 13.519531 22.613281 13.605469 22.667969 Z M 13.605469 22.667969 "/>
<path style=" stroke:none;fill-rule:nonzero;fill:rgb(12.941176%,9.019608%,8.235294%);fill-opacity:1;" d="M 13.207031 20.28125 C 13.757812 20.046875 14.324219 19.863281 14.90625 19.726562 C 15.203125 19.648438 15.511719 19.601562 15.820312 19.582031 C 15.996094 19.570312 16.167969 19.578125 16.339844 19.605469 C 16.511719 19.636719 16.679688 19.683594 16.84375 19.742188 C 17.070312 19.820312 17.167969 19.460938 16.941406 19.386719 C 16.59375 19.261719 16.226562 19.199219 15.855469 19.210938 C 15.511719 19.226562 15.167969 19.277344 14.835938 19.363281 C 14.214844 19.511719 13.605469 19.710938 13.019531 19.960938 C 12.933594 20.011719 12.902344 20.125 12.953125 20.214844 C 13.007812 20.300781 13.117188 20.328125 13.207031 20.28125 Z M 13.207031 20.28125 "/>
<path style=" stroke:none;fill-rule:nonzero;fill:rgb(12.941176%,9.019608%,8.235294%);fill-opacity:1;" d="M 9.980469 11.726562 C 10.214844 12.773438 10.511719 13.804688 10.832031 14.828125 C 11.117188 15.738281 11.40625 16.652344 11.722656 17.550781 C 11.886719 18.011719 12.0625 18.46875 12.246094 18.921875 C 12.277344 19.015625 12.378906 19.074219 12.476562 19.050781 C 12.574219 19.023438 12.628906 18.921875 12.605469 18.824219 C 12.285156 18.039062 12 17.246094 11.738281 16.441406 C 11.40625 15.425781 11.074219 14.410156 10.785156 13.386719 C 10.621094 12.804688 10.46875 12.21875 10.335938 11.628906 C 10.285156 11.398438 9.925781 11.496094 9.980469 11.726562 Z M 9.980469 11.726562 "/>
<path style=" stroke:none;fill-rule:nonzero;fill:rgb(12.941176%,9.019608%,8.235294%);fill-opacity:1;" d="M 11.414062 18.828125 C 10.5625 17.351562 9.722656 15.867188 8.933594 14.351562 C 8.882812 14.25 8.820312 14.148438 8.777344 14.042969 C 8.773438 14.039062 8.769531 14.03125 8.769531 14.023438 C 8.769531 14.046875 8.777344 14.027344 8.796875 14.003906 C 8.835938 13.957031 8.882812 13.914062 8.925781 13.867188 C 9.097656 13.691406 9.273438 13.523438 9.457031 13.351562 C 9.496094 13.3125 9.515625 13.253906 9.507812 13.199219 C 9.5 13.140625 9.464844 13.09375 9.417969 13.0625 L 9.09375 12.878906 L 8.949219 12.792969 L 8.867188 12.75 L 8.835938 12.730469 C 8.800781 12.707031 8.792969 12.703125 8.816406 12.722656 L 8.839844 12.816406 C 8.871094 12.75 8.910156 12.6875 8.960938 12.632812 C 9.015625 12.5625 9.074219 12.492188 9.136719 12.429688 C 9.28125 12.277344 9.4375 12.132812 9.601562 12 C 9.675781 11.929688 9.675781 11.8125 9.601562 11.738281 C 9.53125 11.671875 9.414062 11.671875 9.339844 11.738281 C 9.050781 11.976562 8.757812 12.242188 8.5625 12.5625 C 8.507812 12.636719 8.476562 12.726562 8.46875 12.816406 C 8.476562 12.9375 8.570312 13.003906 8.664062 13.058594 L 9.230469 13.382812 L 9.195312 13.089844 C 9.023438 13.25 8.851562 13.414062 8.6875 13.582031 C 8.535156 13.734375 8.339844 13.902344 8.421875 14.144531 C 8.460938 14.242188 8.507812 14.339844 8.558594 14.429688 C 8.613281 14.527344 8.664062 14.628906 8.714844 14.726562 C 8.820312 14.925781 8.925781 15.125 9.03125 15.324219 C 9.460938 16.128906 9.902344 16.921875 10.351562 17.714844 C 10.597656 18.148438 10.847656 18.582031 11.097656 19.015625 C 11.214844 19.222656 11.535156 19.035156 11.414062 18.828125 Z M 11.414062 18.828125 "/>
<path style=" stroke:none;fill-rule:nonzero;fill:rgb(12.941176%,9.019608%,8.235294%);fill-opacity:1;" d="M 14.667969 11.511719 C 14.425781 12.585938 14.136719 13.648438 13.816406 14.703125 C 13.535156 15.625 13.246094 16.546875 12.925781 17.453125 C 12.761719 17.914062 12.582031 18.371094 12.402344 18.824219 C 12.375 18.921875 12.429688 19.023438 12.53125 19.050781 C 12.628906 19.074219 12.726562 19.019531 12.757812 18.921875 C 13.074219 18.136719 13.359375 17.34375 13.621094 16.539062 C 13.960938 15.5 14.289062 14.460938 14.574219 13.40625 C 14.738281 12.8125 14.886719 12.214844 15.023438 11.613281 C 15.074219 11.378906 14.71875 11.28125 14.667969 11.511719 Z M 14.667969 11.511719 "/>
<path style=" stroke:none;fill-rule:nonzero;fill:rgb(12.941176%,9.019608%,8.235294%);fill-opacity:1;" d="M 13.90625 19.015625 C 14.804688 17.457031 15.695312 15.890625 16.515625 14.292969 C 16.570312 14.183594 16.625 14.074219 16.59375 13.949219 C 16.566406 13.824219 16.464844 13.734375 16.378906 13.648438 C 16.195312 13.457031 16.003906 13.273438 15.808594 13.089844 L 15.773438 13.382812 L 16.339844 13.058594 C 16.433594 13.003906 16.53125 12.9375 16.535156 12.816406 C 16.527344 12.71875 16.492188 12.621094 16.429688 12.542969 C 16.222656 12.214844 15.921875 11.949219 15.621094 11.707031 C 15.550781 11.640625 15.433594 11.640625 15.359375 11.707031 C 15.289062 11.78125 15.289062 11.898438 15.359375 11.96875 C 15.535156 12.105469 15.695312 12.253906 15.851562 12.410156 C 15.917969 12.480469 15.980469 12.550781 16.039062 12.628906 C 16.074219 12.671875 16.164062 12.773438 16.164062 12.816406 L 16.1875 12.722656 C 16.203125 12.695312 16.171875 12.730469 16.152344 12.738281 L 16.070312 12.785156 L 15.910156 12.878906 L 15.585938 13.0625 C 15.539062 13.09375 15.503906 13.140625 15.496094 13.199219 C 15.492188 13.253906 15.507812 13.3125 15.550781 13.351562 C 15.710938 13.503906 15.871094 13.65625 16.027344 13.816406 C 16.0625 13.851562 16.097656 13.886719 16.132812 13.921875 C 16.171875 13.953125 16.207031 13.992188 16.234375 14.035156 C 16.242188 14.046875 16.234375 14.015625 16.234375 14.03125 C 16.230469 14.046875 16.222656 14.058594 16.214844 14.074219 C 16.191406 14.121094 16.164062 14.167969 16.140625 14.214844 C 15.949219 14.585938 15.753906 14.960938 15.550781 15.332031 C 15.144531 16.089844 14.722656 16.84375 14.296875 17.59375 C 14.0625 18.003906 13.828125 18.417969 13.589844 18.828125 C 13.46875 19.035156 13.789062 19.222656 13.90625 19.015625 Z M 13.90625 19.015625 "/>
</g>
</svg>
