<?xml version="1.0" encoding="UTF-8"?>
<svg xmlns="http://www.w3.org/2000/svg" xmlns:xlink="http://www.w3.org/1999/xlink" width="25px" height="25px" viewBox="0 0 25 25" version="1.1">
<g id="surface1">
<path style=" stroke:none;fill-rule:nonzero;fill:rgb(17.647059%,35.686275%,88.627451%);fill-opacity:1;" d="M 24.125 19.101562 C 23.945312 19.761719 23.378906 20.242188 22.699219 20.3125 C 18.671875 20.769531 14.621094 20.953125 10.570312 20.863281 L 6.742188 24.175781 L 6.421875 24.175781 C 6.328125 24.652344 5.910156 25 5.421875 25 C 4.933594 25 4.515625 24.652344 4.421875 24.175781 L 4.367188 24.175781 L 4.367188 20.519531 C 3.679688 20.457031 2.988281 20.390625 2.296875 20.3125 C 1.617188 20.242188 1.054688 19.761719 0.871094 19.101562 C -0.0351562 13.367188 -0.0351562 7.523438 0.871094 1.789062 C 1.054688 1.128906 1.617188 0.648438 2.296875 0.578125 C 9.074219 -0.191406 15.917969 -0.191406 22.695312 0.578125 C 23.375 0.648438 23.941406 1.128906 24.121094 1.789062 C 25.03125 7.523438 25.03125 13.367188 24.125 19.101562 Z M 8.132812 9.015625 C 7.230469 9.027344 6.507812 9.773438 6.519531 10.675781 C 6.53125 11.578125 7.269531 12.304688 8.171875 12.296875 C 9.078125 12.292969 9.804688 11.554688 9.804688 10.652344 C 9.792969 9.738281 9.046875 9.003906 8.132812 9.011719 Z M 16.464844 9.015625 C 15.5625 9.027344 14.839844 9.769531 14.851562 10.675781 C 14.859375 11.578125 15.597656 12.304688 16.503906 12.296875 C 17.40625 12.292969 18.136719 11.558594 18.136719 10.65625 C 18.128906 9.742188 17.378906 9.003906 16.464844 9.011719 Z M 16.464844 9.015625 "/>
</g>
</svg>
