<?xml version="1.0" encoding="UTF-8"?>
<svg xmlns="http://www.w3.org/2000/svg" xmlns:xlink="http://www.w3.org/1999/xlink" width="50px" height="50px" viewBox="0 0 50 50" version="1.1">
<g id="surface1">
<path style="fill:none;stroke-width:1.5;stroke-linecap:round;stroke-linejoin:round;stroke:rgb(0%,0%,0%);stroke-opacity:1;stroke-miterlimit:4;" d="M 21.999375 12 C 21.999375 12 21.3075 13.33125 20.000625 14.833125 M 9.999375 5.235 C 10.32375 5.158125 10.6575 5.098125 11.000625 5.05875 C 11.325 5.019375 11.65875 5.000625 12 5.000625 C 14.878125 5.000625 17.1975 6.43125 18.875625 8.000625 M 12 9 C 12.350625 9 12.688125 9.06 12.999375 9.170625 C 13.8525 9.4725 14.5275 10.1475 14.829375 11.000625 C 14.94 11.311875 15 11.649375 15 12 M 3 3 L 21 21 M 12 15 C 11.649375 15 11.311875 14.94 11.000625 14.829375 C 10.1475 14.5275 9.4725 13.8525 9.170625 12.999375 C 9.114375 12.84 9.07125 12.67125 9.04125 12.500625 M 4.1475 9 C 3.838125 9.345 3.5625 9.6825 3.31875 9.999375 C 2.4525 11.128125 2.000625 12 2.000625 12 C 2.000625 12 5.63625 18.999375 12 18.999375 C 12.34125 18.999375 12.675 18.980625 12.999375 18.94125 " transform="matrix(2.083333,0,0,2.083333,0,0)"/>
</g>
</svg>
