<?xml version="1.0" encoding="UTF-8"?>
<svg xmlns="http://www.w3.org/2000/svg" xmlns:xlink="http://www.w3.org/1999/xlink" width="16px" height="16px" viewBox="0 0 16 16" version="1.1">
<g id="surface1">
<path style="fill:none;stroke-width:1.5;stroke-linecap:round;stroke-linejoin:round;stroke:rgb(16.078431%,17.647059%,19.607843%);stroke-opacity:1;stroke-miterlimit:4;" d="M 9.169922 14.830078 L 14.830078 9.169922 " transform="matrix(0.666667,0,0,0.666667,0,0)"/>
<path style="fill:none;stroke-width:1.5;stroke-linecap:round;stroke-linejoin:round;stroke:rgb(16.078431%,17.647059%,19.607843%);stroke-opacity:1;stroke-miterlimit:4;" d="M 14.830078 14.830078 L 9.169922 9.169922 " transform="matrix(0.666667,0,0,0.666667,0,0)"/>
<path style="fill:none;stroke-width:1.5;stroke-linecap:round;stroke-linejoin:round;stroke:rgb(16.078431%,17.647059%,19.607843%);stroke-opacity:1;stroke-miterlimit:4;" d="M 9 22.001953 L 15 22.001953 C 19.998047 22.001953 22.001953 19.998047 22.001953 15 L 22.001953 9 C 22.001953 4.001953 19.998047 1.998047 15 1.998047 L 9 1.998047 C 4.001953 1.998047 1.998047 4.001953 1.998047 9 L 1.998047 15 C 1.998047 19.998047 4.001953 22.001953 9 22.001953 Z M 9 22.001953 " transform="matrix(0.666667,0,0,0.666667,0,0)"/>
</g>
</svg>
