<?xml version="1.0" encoding="UTF-8"?>
<svg xmlns="http://www.w3.org/2000/svg" xmlns:xlink="http://www.w3.org/1999/xlink" width="50px" height="50px" viewBox="0 0 50 50" version="1.1">
<g id="surface1">
<path style="fill:none;stroke-width:1.5;stroke-linecap:round;stroke-linejoin:round;stroke:rgb(16.078431%,17.647059%,19.607843%);stroke-opacity:1;stroke-miterlimit:4;" d="M 9.168743 14.831238 L 14.831238 9.168743 " transform="matrix(2.083335,0,0,2.083335,0,0)"/>
<path style="fill:none;stroke-width:1.5;stroke-linecap:round;stroke-linejoin:round;stroke:rgb(16.078431%,17.647059%,19.607843%);stroke-opacity:1;stroke-miterlimit:4;" d="M 14.831238 14.831238 L 9.168743 9.168743 " transform="matrix(2.083335,0,0,2.083335,0,0)"/>
<path style="fill:none;stroke-width:1.5;stroke-linecap:round;stroke-linejoin:round;stroke:rgb(16.078431%,17.647059%,19.607843%);stroke-opacity:1;stroke-miterlimit:4;" d="M 8.999993 22.003107 L 14.999988 22.003107 C 19.996859 22.003107 22.003107 19.996859 22.003107 14.999988 L 22.003107 8.999993 C 22.003107 4.003122 19.996859 1.996873 14.999988 1.996873 L 8.999993 1.996873 C 4.003122 1.996873 1.996873 4.003122 1.996873 8.999993 L 1.996873 14.999988 C 1.996873 19.996859 4.003122 22.003107 8.999993 22.003107 Z M 8.999993 22.003107 " transform="matrix(2.083335,0,0,2.083335,0,0)"/>
</g>
</svg>
