<?xml version="1.0" encoding="UTF-8"?>
<svg xmlns="http://www.w3.org/2000/svg" xmlns:xlink="http://www.w3.org/1999/xlink" width="25px" height="25px" viewBox="0 0 25 25" version="1.1">
<g id="surface1">
<path style=" stroke:none;fill-rule:nonzero;fill:rgb(11.764706%,65.098039%,77.647059%);fill-opacity:1;" d="M 5.445312 10.308594 C 5.445312 10.28125 5.441406 10.257812 5.441406 10.230469 C 5.441406 7.644531 7.539062 5.546875 10.125 5.546875 C 12.351562 5.546875 14.21875 7.105469 14.691406 9.1875 C 15.132812 8.941406 15.640625 8.800781 16.179688 8.800781 C 17.871094 8.800781 19.238281 10.171875 19.238281 11.859375 C 19.238281 11.929688 19.238281 11.996094 19.234375 12.066406 C 20.488281 12.53125 21.378906 13.738281 21.378906 15.152344 C 21.378906 16.972656 19.90625 18.449219 18.085938 18.449219 L 6.339844 18.449219 C 4.066406 18.449219 2.222656 16.605469 2.222656 14.328125 C 2.222656 12.363281 3.601562 10.71875 5.445312 10.308594 Z M 5.445312 10.308594 "/>
<path style=" stroke:none;fill-rule:nonzero;fill:rgb(96.862745%,81.176471%,32.156863%);fill-opacity:1;" d="M 14.1875 0 L 14.960938 0 L 14.960938 3.019531 L 14.1875 3.019531 Z M 14.1875 0 "/>
<path style=" stroke:none;fill-rule:nonzero;fill:rgb(96.862745%,81.176471%,32.156863%);fill-opacity:1;" d="M 18.511719 4.8125 L 17.964844 4.265625 L 20.101562 2.128906 L 20.648438 2.675781 Z M 18.511719 4.8125 "/>
<path style=" stroke:none;fill-rule:nonzero;fill:rgb(96.862745%,81.176471%,32.156863%);fill-opacity:1;" d="M 19.757812 7.816406 L 22.777344 7.816406 L 22.777344 8.589844 L 19.757812 8.589844 Z M 19.757812 7.816406 "/>
<path style=" stroke:none;fill-rule:nonzero;fill:rgb(96.862745%,81.176471%,32.156863%);fill-opacity:1;" d="M 10.640625 4.8125 L 8.503906 2.675781 L 9.050781 2.128906 L 11.183594 4.265625 Z M 10.640625 4.8125 "/>
<path style=" stroke:none;fill-rule:nonzero;fill:rgb(96.862745%,81.176471%,32.156863%);fill-opacity:1;" d="M 18.570312 8.195312 C 18.570312 8.453125 18.546875 8.699219 18.5 8.941406 C 17.863281 8.433594 17.058594 8.128906 16.183594 8.128906 C 15.820312 8.128906 15.457031 8.183594 15.113281 8.285156 C 14.777344 7.425781 14.214844 6.652344 13.488281 6.066406 C 13.023438 5.6875 12.496094 5.394531 11.941406 5.195312 C 12.644531 4.578125 13.566406 4.203125 14.574219 4.203125 C 16.78125 4.203125 18.570312 5.988281 18.570312 8.195312 Z M 18.570312 8.195312 "/>
<path style=" stroke:none;fill-rule:nonzero;fill:rgb(58.823529%,87.843137%,87.058824%);fill-opacity:1;" d="M 4.769531 19.183594 L 5.542969 19.183594 L 5.542969 20.855469 L 4.769531 20.855469 Z M 4.769531 19.183594 "/>
<path style=" stroke:none;fill-rule:nonzero;fill:rgb(58.823529%,87.843137%,87.058824%);fill-opacity:1;" d="M 4.769531 21.660156 L 5.542969 21.660156 L 5.542969 25 L 4.769531 25 Z M 4.769531 21.660156 "/>
<path style=" stroke:none;fill-rule:nonzero;fill:rgb(58.823529%,87.843137%,87.058824%);fill-opacity:1;" d="M 6.433594 19.183594 L 7.203125 19.183594 L 7.203125 25 L 6.433594 25 Z M 6.433594 19.183594 "/>
<path style=" stroke:none;fill-rule:nonzero;fill:rgb(58.823529%,87.843137%,87.058824%);fill-opacity:1;" d="M 8.09375 19.183594 L 8.867188 19.183594 L 8.867188 22.097656 L 8.09375 22.097656 Z M 8.09375 19.183594 "/>
<path style=" stroke:none;fill-rule:nonzero;fill:rgb(58.823529%,87.843137%,87.058824%);fill-opacity:1;" d="M 8.09375 22.859375 L 8.867188 22.859375 L 8.867188 25 L 8.09375 25 Z M 8.09375 22.859375 "/>
<path style=" stroke:none;fill-rule:nonzero;fill:rgb(58.823529%,87.843137%,87.058824%);fill-opacity:1;" d="M 9.753906 19.183594 L 10.527344 19.183594 L 10.527344 25 L 9.753906 25 Z M 9.753906 19.183594 "/>
<path style=" stroke:none;fill-rule:nonzero;fill:rgb(58.823529%,87.843137%,87.058824%);fill-opacity:1;" d="M 13.074219 23.207031 L 13.847656 23.207031 L 13.847656 25 L 13.074219 25 Z M 13.074219 23.207031 "/>
<path style=" stroke:none;fill-rule:nonzero;fill:rgb(58.823529%,87.843137%,87.058824%);fill-opacity:1;" d="M 13.074219 19.183594 L 13.847656 19.183594 L 13.847656 22.410156 L 13.074219 22.410156 Z M 13.074219 19.183594 "/>
<path style=" stroke:none;fill-rule:nonzero;fill:rgb(58.823529%,87.843137%,87.058824%);fill-opacity:1;" d="M 11.414062 19.183594 L 12.1875 19.183594 L 12.1875 20.121094 L 11.414062 20.121094 Z M 11.414062 19.183594 "/>
<path style=" stroke:none;fill-rule:nonzero;fill:rgb(58.823529%,87.843137%,87.058824%);fill-opacity:1;" d="M 11.414062 20.855469 L 12.1875 20.855469 L 12.1875 25 L 11.414062 25 Z M 11.414062 20.855469 "/>
<path style=" stroke:none;fill-rule:nonzero;fill:rgb(58.823529%,87.843137%,87.058824%);fill-opacity:1;" d="M 14.734375 19.183594 L 15.507812 19.183594 L 15.507812 21.726562 L 14.734375 21.726562 Z M 14.734375 19.183594 "/>
<path style=" stroke:none;fill-rule:nonzero;fill:rgb(58.823529%,87.843137%,87.058824%);fill-opacity:1;" d="M 14.734375 22.492188 L 15.507812 22.492188 L 15.507812 25 L 14.734375 25 Z M 14.734375 22.492188 "/>
<path style=" stroke:none;fill-rule:nonzero;fill:rgb(58.823529%,87.843137%,87.058824%);fill-opacity:1;" d="M 16.398438 19.183594 L 17.171875 19.183594 L 17.171875 23.265625 L 16.398438 23.265625 Z M 16.398438 19.183594 "/>
<path style=" stroke:none;fill-rule:nonzero;fill:rgb(58.823529%,87.843137%,87.058824%);fill-opacity:1;" d="M 16.398438 24 L 17.171875 24 L 17.171875 25 L 16.398438 25 Z M 16.398438 24 "/>
<path style=" stroke:none;fill-rule:nonzero;fill:rgb(58.823529%,87.843137%,87.058824%);fill-opacity:1;" d="M 18.058594 19.183594 L 18.832031 19.183594 L 18.832031 25 L 18.058594 25 Z M 18.058594 19.183594 "/>
</g>
</svg>
