<?xml version="1.0" encoding="UTF-8"?>
<svg xmlns="http://www.w3.org/2000/svg" xmlns:xlink="http://www.w3.org/1999/xlink" width="25px" height="25px" viewBox="0 0 25 25" version="1.1">
<g id="surface1">
<path style=" stroke:none;fill-rule:nonzero;fill:rgb(84.705882%,80%,73.72549%);fill-opacity:1;" d="M 1.746094 0.871094 C 0.78125 0.871094 0 1.652344 0 2.617188 C 0 3.578125 0.78125 4.359375 1.746094 4.359375 L 4.652344 4.359375 L 4.652344 0.871094 Z M 1.746094 0.871094 "/>
<path style=" stroke:none;fill-rule:nonzero;fill:rgb(92.156863%,89.411765%,86.666667%);fill-opacity:1;" d="M 1.746094 0.871094 C 2.707031 0.871094 3.488281 1.652344 3.488281 2.617188 L 3.488281 22.382812 C 3.488281 23.347656 4.269531 24.128906 5.234375 24.128906 L 22.09375 24.128906 C 21.128906 24.128906 20.347656 23.347656 20.347656 22.382812 L 20.292969 2.179688 C 20.101562 1.429688 19.417969 0.871094 18.605469 0.871094 L 1.746094 0.871094 "/>
<path style=" stroke:none;fill-rule:nonzero;fill:rgb(84.705882%,80%,73.72549%);fill-opacity:1;" d="M 20.347656 22.382812 L 20.292969 2.179688 C 20.101562 1.429688 19.417969 0.871094 18.605469 0.871094 L 12.210938 0.871094 L 12.210938 24.128906 L 22.09375 24.128906 C 21.128906 24.128906 20.347656 23.347656 20.347656 22.382812 Z M 20.347656 22.382812 "/>
<path style=" stroke:none;fill-rule:nonzero;fill:rgb(70.588235%,84.705882%,94.509804%);fill-opacity:1;" d="M 23.636719 10.121094 C 25.453125 8.304688 25.453125 5.359375 23.636719 3.542969 C 21.820312 1.726562 18.875 1.726562 17.058594 3.542969 L 8.425781 12.175781 L 8.425781 18.753906 L 15.003906 18.753906 Z M 23.636719 10.121094 "/>
<path style=" stroke:none;fill-rule:nonzero;fill:rgb(59.607843%,78.431373%,92.941176%);fill-opacity:1;" d="M 23.636719 3.683594 C 23.589844 3.636719 23.539062 3.589844 23.492188 3.542969 L 8.425781 18.609375 L 8.425781 18.894531 L 15.003906 18.894531 L 23.636719 10.261719 C 25.453125 8.445312 25.453125 5.5 23.636719 3.683594 Z M 23.636719 3.683594 "/>
<path style=" stroke:none;fill-rule:nonzero;fill:rgb(53.333333%,53.333333%,56.078431%);fill-opacity:1;" d="M 20.964844 7.449219 L 19.730469 6.214844 L 5.34375 20.605469 L 6.578125 21.835938 L 12.488281 15.925781 L 15.414062 15.925781 L 15.414062 14.183594 L 14.230469 14.183594 L 16.1875 12.226562 L 19.117188 12.226562 L 19.117188 10.480469 L 17.933594 10.480469 Z M 20.964844 7.449219 "/>
</g>
</svg>
