<?xml version="1.0" encoding="UTF-8"?>
<svg xmlns="http://www.w3.org/2000/svg" xmlns:xlink="http://www.w3.org/1999/xlink" width="25px" height="25px" viewBox="0 0 25 25" version="1.1">
<g id="surface1">
<path style=" stroke:none;fill-rule:nonzero;fill:rgb(35.294118%,41.960784%,58.823529%);fill-opacity:1;" d="M 9.707031 15.292969 C 12.65625 18.242188 13.917969 21.949219 13.003906 24.367188 C 13.65625 24.019531 14.265625 23.574219 14.808594 23.03125 C 18.042969 19.792969 17.792969 14.296875 14.25 10.75 C 10.703125 7.207031 5.207031 6.957031 1.96875 10.191406 C 1.425781 10.734375 0.980469 11.34375 0.632812 11.996094 C 3.050781 11.082031 6.757812 12.34375 9.707031 15.292969 Z M 9.707031 15.292969 "/>
<path style=" stroke:none;fill-rule:nonzero;fill:rgb(93.72549%,93.72549%,93.72549%);fill-opacity:1;" d="M 24 8.277344 C 23.785156 9.078125 23.472656 9.757812 23.035156 10.195312 C 20.886719 12.820312 17.449219 15.679688 14.121094 17.628906 L 7.371094 10.878906 C 9.320312 7.550781 12.179688 4.113281 14.804688 1.964844 C 15.242188 1.527344 15.921875 1.214844 16.722656 1 Z M 24 8.277344 "/>
<path style=" stroke:none;fill-rule:nonzero;fill:rgb(100%,49.019608%,27.45098%);fill-opacity:1;" d="M 24 8.277344 L 16.722656 1 C 19.699219 0.195312 24.332031 0.667969 24.332031 0.667969 C 24.332031 0.667969 24.804688 5.300781 24 8.277344 Z M 24 8.277344 "/>
<path style=" stroke:none;fill-rule:nonzero;fill:rgb(27.058824%,80%,100%);fill-opacity:1;" d="M 18.011719 9.363281 C 18.011719 10.671875 16.949219 11.738281 15.636719 11.738281 C 14.328125 11.738281 13.261719 10.671875 13.261719 9.363281 C 13.261719 8.050781 14.328125 6.988281 15.636719 6.988281 C 16.949219 6.988281 18.011719 8.050781 18.011719 9.363281 Z M 18.011719 9.363281 "/>
<path style=" stroke:none;fill-rule:nonzero;fill:rgb(100%,49.019608%,27.45098%);fill-opacity:1;" d="M 14.121094 17.628906 C 13.464844 18.011719 12.8125 18.363281 12.175781 18.667969 C 10.226562 16.71875 8.28125 14.773438 6.332031 12.824219 C 6.636719 12.1875 6.988281 11.535156 7.371094 10.878906 Z M 14.121094 17.628906 "/>
<path style=" stroke:none;fill-rule:nonzero;fill:rgb(35.294118%,41.960784%,58.823529%);fill-opacity:1;" d="M 10.234375 16.777344 C 8.457031 18.558594 6.007812 18.992188 6.007812 18.992188 C 6.007812 18.992188 6.441406 16.542969 8.222656 14.765625 C 10 12.984375 12.449219 12.550781 12.449219 12.550781 C 12.449219 12.550781 12.015625 15 10.234375 16.777344 Z M 10.234375 16.777344 "/>
<path style=" stroke:none;fill-rule:nonzero;fill:rgb(13.72549%,12.156863%,12.54902%);fill-opacity:1;" d="M 24.855469 0.617188 C 24.832031 0.367188 24.632812 0.167969 24.386719 0.144531 C 24.191406 0.125 19.621094 -0.332031 16.585938 0.488281 C 15.640625 0.746094 14.921875 1.109375 14.449219 1.570312 C 12.605469 3.082031 10.65625 5.207031 8.972656 7.5 C 6.289062 7.101562 3.550781 7.863281 1.597656 9.820312 C 1.027344 10.386719 0.546875 11.035156 0.167969 11.746094 C 0.0625 11.941406 0.09375 12.179688 0.238281 12.34375 C 0.382812 12.507812 0.613281 12.566406 0.820312 12.488281 C 2.222656 11.960938 4.085938 12.25 5.953125 13.191406 C 5.953125 13.191406 5.957031 13.195312 5.960938 13.199219 C 6.476562 13.714844 6.992188 14.234375 7.511719 14.75 C 5.914062 16.574219 5.503906 18.800781 5.488281 18.902344 C 5.457031 19.070312 5.511719 19.246094 5.632812 19.367188 C 5.734375 19.464844 5.867188 19.519531 6.007812 19.519531 C 6.039062 19.519531 6.066406 19.519531 6.097656 19.511719 C 6.199219 19.496094 8.425781 19.085938 10.25 17.488281 C 10.765625 18.003906 11.285156 18.523438 11.800781 19.039062 C 11.804688 19.042969 11.804688 19.042969 11.808594 19.046875 C 12.75 20.910156 13.039062 22.777344 12.511719 24.179688 C 12.433594 24.386719 12.492188 24.617188 12.65625 24.761719 C 12.753906 24.851562 12.878906 24.894531 13.003906 24.894531 C 13.089844 24.894531 13.175781 24.875 13.253906 24.832031 C 13.964844 24.453125 14.613281 23.972656 15.179688 23.402344 C 16.851562 21.730469 17.710938 19.453125 17.597656 16.984375 C 17.582031 16.660156 17.550781 16.339844 17.503906 16.023438 C 19.792969 14.339844 21.917969 12.390625 23.429688 10.550781 C 23.890625 10.078125 24.253906 9.359375 24.511719 8.414062 C 25.332031 5.378906 24.875 0.808594 24.855469 0.617188 Z M 23.84375 1.15625 C 23.921875 2.210938 24.078125 4.984375 23.691406 7.21875 L 17.78125 1.308594 C 20.015625 0.925781 22.789062 1.078125 23.84375 1.15625 Z M 2.355469 11.171875 C 2.160156 11.171875 1.96875 11.179688 1.78125 11.199219 C 1.953125 10.976562 2.144531 10.765625 2.34375 10.566406 C 3.921875 8.984375 6.089844 8.300781 8.273438 8.480469 C 7.789062 9.1875 7.332031 9.902344 6.917969 10.613281 C 6.621094 11.113281 6.351562 11.609375 6.105469 12.09375 C 5.789062 11.945312 5.46875 11.8125 5.148438 11.699219 C 4.164062 11.347656 3.222656 11.171875 2.355469 11.171875 Z M 8.261719 14.007812 C 7.832031 13.578125 7.402344 13.148438 6.972656 12.71875 C 7.132812 12.398438 7.304688 12.070312 7.488281 11.742188 L 9.113281 13.367188 C 8.828125 13.554688 8.539062 13.769531 8.261719 14.007812 Z M 6.757812 18.242188 C 7.027344 17.421875 7.578125 16.152344 8.59375 15.136719 C 9.609375 14.121094 10.878906 13.570312 11.703125 13.296875 C 11.429688 14.121094 10.878906 15.390625 9.863281 16.40625 C 8.847656 17.421875 7.578125 17.972656 6.757812 18.242188 Z M 12.28125 18.027344 C 11.851562 17.597656 11.421875 17.167969 10.992188 16.738281 C 11.230469 16.460938 11.445312 16.171875 11.632812 15.886719 L 13.257812 17.511719 C 12.929688 17.695312 12.601562 17.867188 12.28125 18.027344 Z M 16.542969 17.03125 C 16.640625 19.199219 15.894531 21.199219 14.433594 22.65625 C 14.234375 22.855469 14.023438 23.046875 13.800781 23.21875 C 13.898438 22.195312 13.730469 21.054688 13.300781 19.851562 C 13.1875 19.53125 13.054688 19.210938 12.90625 18.894531 C 13.390625 18.648438 13.886719 18.375 14.386719 18.082031 C 15.101562 17.664062 15.816406 17.207031 16.523438 16.722656 C 16.53125 16.824219 16.539062 16.929688 16.542969 17.03125 Z M 22.945312 9.464844 C 22.941406 9.457031 22.9375 9.449219 22.929688 9.445312 L 21.46875 7.984375 C 21.265625 7.777344 20.929688 7.777344 20.722656 7.984375 C 20.515625 8.191406 20.515625 8.523438 20.722656 8.730469 L 22.183594 10.191406 C 22.214844 10.222656 22.25 10.246094 22.285156 10.269531 C 20.246094 12.636719 17.21875 15.148438 14.203125 16.964844 L 12.171875 14.933594 C 12.769531 13.722656 12.957031 12.707031 12.96875 12.640625 C 13 12.472656 12.945312 12.296875 12.824219 12.175781 C 12.703125 12.054688 12.527344 12 12.359375 12.03125 C 12.292969 12.042969 11.277344 12.230469 10.066406 12.828125 L 8.035156 10.796875 C 9.851562 7.785156 12.355469 4.765625 14.71875 2.722656 C 14.730469 2.738281 14.742188 2.75 14.753906 2.761719 L 17.855469 5.863281 C 17.960938 5.964844 18.09375 6.019531 18.230469 6.019531 C 18.363281 6.019531 18.5 5.964844 18.601562 5.863281 C 18.808594 5.65625 18.808594 5.324219 18.601562 5.117188 L 15.539062 2.050781 C 15.808594 1.878906 16.15625 1.722656 16.570312 1.59375 L 23.40625 8.429688 C 23.273438 8.84375 23.121094 9.191406 22.945312 9.464844 Z M 22.945312 9.464844 "/>
<path style=" stroke:none;fill-rule:nonzero;fill:rgb(13.72549%,12.156863%,12.54902%);fill-opacity:1;" d="M 19.273438 6.535156 C 19.066406 6.738281 19.066406 7.074219 19.273438 7.28125 L 19.324219 7.332031 C 19.429688 7.4375 19.5625 7.488281 19.699219 7.488281 C 19.835938 7.488281 19.96875 7.4375 20.070312 7.332031 C 20.277344 7.125 20.277344 6.792969 20.070312 6.585938 L 20.019531 6.535156 C 19.8125 6.328125 19.480469 6.328125 19.273438 6.535156 Z M 19.273438 6.535156 "/>
<path style=" stroke:none;fill-rule:nonzero;fill:rgb(13.72549%,12.156863%,12.54902%);fill-opacity:1;" d="M 15.636719 6.460938 C 14.863281 6.460938 14.132812 6.761719 13.585938 7.308594 C 12.453125 8.441406 12.453125 10.28125 13.585938 11.414062 C 14.132812 11.960938 14.863281 12.265625 15.636719 12.265625 C 16.414062 12.265625 17.140625 11.960938 17.691406 11.414062 C 18.238281 10.867188 18.539062 10.136719 18.539062 9.363281 C 18.539062 8.585938 18.238281 7.859375 17.691406 7.308594 C 17.140625 6.761719 16.414062 6.460938 15.636719 6.460938 Z M 16.945312 10.667969 C 16.59375 11.015625 16.132812 11.210938 15.636719 11.210938 C 15.144531 11.210938 14.679688 11.015625 14.332031 10.667969 C 13.613281 9.949219 13.613281 8.777344 14.332031 8.054688 C 14.679688 7.707031 15.144531 7.515625 15.636719 7.515625 C 16.132812 7.515625 16.59375 7.707031 16.945312 8.054688 C 17.292969 8.40625 17.484375 8.867188 17.484375 9.363281 C 17.484375 9.855469 17.292969 10.320312 16.945312 10.667969 Z M 16.945312 10.667969 "/>
<path style=" stroke:none;fill-rule:nonzero;fill:rgb(13.72549%,12.156863%,12.54902%);fill-opacity:1;" d="M 0.527344 20.523438 C 0.664062 20.523438 0.796875 20.46875 0.902344 20.367188 L 4.539062 16.730469 C 4.742188 16.523438 4.742188 16.191406 4.539062 15.984375 C 4.332031 15.777344 3.996094 15.777344 3.789062 15.984375 L 0.15625 19.621094 C -0.0507812 19.828125 -0.0507812 20.160156 0.15625 20.367188 C 0.257812 20.46875 0.394531 20.523438 0.527344 20.523438 Z M 0.527344 20.523438 "/>
<path style=" stroke:none;fill-rule:nonzero;fill:rgb(13.72549%,12.156863%,12.54902%);fill-opacity:1;" d="M 8.269531 20.460938 L 4.632812 24.097656 C 4.425781 24.304688 4.425781 24.640625 4.632812 24.84375 C 4.734375 24.949219 4.871094 25 5.007812 25 C 5.140625 25 5.277344 24.949219 5.378906 24.84375 L 9.015625 21.210938 C 9.222656 21.003906 9.222656 20.667969 9.015625 20.460938 C 8.808594 20.257812 8.476562 20.257812 8.269531 20.460938 Z M 8.269531 20.460938 "/>
<path style=" stroke:none;fill-rule:nonzero;fill:rgb(13.72549%,12.156863%,12.54902%);fill-opacity:1;" d="M 4.640625 20.359375 C 4.433594 20.152344 4.101562 20.152344 3.894531 20.359375 L 0.207031 24.046875 C 0 24.253906 0 24.585938 0.207031 24.792969 C 0.308594 24.894531 0.445312 24.945312 0.582031 24.945312 C 0.714844 24.945312 0.851562 24.894531 0.953125 24.792969 L 4.640625 21.105469 C 4.847656 20.898438 4.847656 20.566406 4.640625 20.359375 Z M 4.640625 20.359375 "/>
</g>
</svg>
