<?xml version="1.0" encoding="UTF-8"?>
<svg xmlns="http://www.w3.org/2000/svg" xmlns:xlink="http://www.w3.org/1999/xlink" width="25px" height="25px" viewBox="0 0 25 25" version="1.1">
<g id="surface1">
<path style=" stroke:none;fill-rule:nonzero;fill:rgb(80%,81.960784%,85.098039%);fill-opacity:1;" d="M 2.34375 18.75 L 2.34375 12.5 L 3.515625 10.9375 L 21.484375 10.9375 L 22.65625 12.5 L 22.65625 18.75 Z M 2.34375 18.75 "/>
<path style=" stroke:none;fill-rule:nonzero;fill:rgb(66.666667%,69.803922%,74.117647%);fill-opacity:1;" d="M 2.34375 12.5 L 22.65625 12.5 L 22.65625 13.28125 L 2.34375 13.28125 Z M 2.34375 12.5 "/>
<path style=" stroke:none;fill-rule:nonzero;fill:rgb(66.666667%,69.803922%,74.117647%);fill-opacity:1;" d="M 7.597656 11.71875 L 3.125 14.402344 L 3.125 18.75 L 21.875 18.75 L 21.875 14.402344 L 17.402344 11.71875 Z M 7.597656 11.71875 "/>
<path style=" stroke:none;fill-rule:nonzero;fill:rgb(51.372549%,56.078431%,60.784314%);fill-opacity:1;" d="M 17.1875 12.5 L 22.65625 12.5 L 21.484375 10.9375 L 3.515625 10.9375 L 2.34375 12.5 Z M 17.1875 12.5 "/>
<path style=" stroke:none;fill-rule:nonzero;fill:rgb(39.607843%,42.745098%,47.058824%);fill-opacity:1;" d="M 7.03125 10.9375 L 17.96875 10.9375 L 17.96875 12.5 L 7.03125 12.5 Z M 7.03125 10.9375 "/>
<path style=" stroke:none;fill-rule:nonzero;fill:rgb(87.45098%,69.803922%,54.509804%);fill-opacity:1;" d="M 1.5625 23.828125 L 1.5625 18.75 L 23.4375 18.75 L 23.4375 23.828125 Z M 1.5625 23.828125 "/>
<path style=" stroke:none;fill-rule:nonzero;fill:rgb(81.176471%,61.960784%,46.27451%);fill-opacity:1;" d="M 16.796875 23.4375 L 8.203125 23.4375 L 5.859375 20.3125 L 1.5625 20.3125 L 1.5625 23.828125 L 23.4375 23.828125 L 23.4375 23.4375 L 18.75 23.4375 L 19.921875 21.875 L 23.4375 21.875 L 23.4375 20.3125 L 19.140625 20.3125 Z M 1.5625 23.4375 L 1.5625 21.875 L 5.078125 21.875 L 6.25 23.4375 Z M 1.5625 23.4375 "/>
<path style=" stroke:none;fill-rule:nonzero;fill:rgb(81.176471%,61.960784%,46.27451%);fill-opacity:1;" d="M 19.605469 23.828125 L 18.957031 22.375 L 17.75 18.75 L 7.25 18.75 L 6.042969 22.375 L 5.394531 23.828125 Z M 19.605469 23.828125 "/>
<path style=" stroke:none;fill-rule:nonzero;fill:rgb(94.117647%,81.568627%,70.588235%);fill-opacity:1;" d="M 7.8125 19.53125 L 17.1875 19.53125 L 18.230469 22.65625 L 18.75 24.21875 L 6.25 24.21875 L 6.769531 22.65625 Z M 7.8125 19.53125 "/>
<path style=" stroke:none;fill-rule:nonzero;fill:rgb(92.54902%,75.686275%,61.176471%);fill-opacity:1;" d="M 6.769531 22.65625 L 6.25 24.21875 L 18.75 24.21875 L 18.230469 22.65625 L 17.96875 21.875 L 16.796875 23.4375 L 8.203125 23.4375 L 7.03125 21.875 Z M 6.769531 22.65625 "/>
<path style=" stroke:none;fill-rule:nonzero;fill:rgb(94.117647%,81.568627%,70.588235%);fill-opacity:1;" d="M 17.1875 24.21875 L 19.53125 21.09375 L 24.21875 21.09375 L 24.21875 24.21875 L 0.78125 24.21875 L 0.78125 21.09375 L 5.46875 21.09375 L 7.8125 24.21875 Z M 17.1875 24.21875 "/>
<path style=" stroke:none;fill-rule:nonzero;fill:rgb(81.176471%,61.960784%,46.27451%);fill-opacity:1;" d="M 9.375 21.09375 L 11.71875 21.09375 L 11.71875 24.21875 L 9.375 24.21875 Z M 9.375 21.09375 "/>
<path style=" stroke:none;fill-rule:nonzero;fill:rgb(90.196078%,91.372549%,92.941176%);fill-opacity:1;" d="M 3.90625 10.9375 L 3.90625 8.59375 L 8.59375 6.25 L 16.40625 6.25 L 21.09375 8.59375 L 21.09375 10.9375 Z M 3.90625 10.9375 "/>
<path style=" stroke:none;fill-rule:nonzero;fill:rgb(80%,81.960784%,85.098039%);fill-opacity:1;" d="M 7.03125 9.375 L 17.96875 9.375 L 17.96875 10.9375 L 7.03125 10.9375 Z M 7.03125 9.375 "/>
<path style=" stroke:none;fill-rule:nonzero;fill:rgb(80%,81.960784%,85.098039%);fill-opacity:1;" d="M 3.90625 8.59375 L 21.09375 8.59375 L 21.09375 9.375 L 3.90625 9.375 Z M 3.90625 8.59375 "/>
<path style=" stroke:none;fill-rule:nonzero;fill:rgb(51.372549%,56.078431%,60.784314%);fill-opacity:1;" d="M 16.40625 8.59375 L 21.09375 8.59375 L 16.40625 6.25 L 8.59375 6.25 L 3.90625 8.59375 Z M 16.40625 8.59375 "/>
<path style=" stroke:none;fill-rule:nonzero;fill:rgb(39.607843%,42.745098%,47.058824%);fill-opacity:1;" d="M 16.40625 6.25 L 8.59375 6.25 L 7.8125 6.640625 L 7.8125 8.59375 L 17.1875 8.59375 L 17.1875 6.640625 Z M 16.40625 6.25 "/>
<path style=" stroke:none;fill-rule:nonzero;fill:rgb(90.196078%,91.372549%,92.941176%);fill-opacity:1;" d="M 3.90625 18.75 L 3.90625 14.84375 L 7.8125 12.5 L 17.1875 12.5 L 21.09375 14.84375 L 21.09375 18.75 Z M 3.90625 18.75 "/>
<path style=" stroke:none;fill-rule:nonzero;fill:rgb(80%,81.960784%,85.098039%);fill-opacity:1;" d="M 7.03125 14.84375 L 17.96875 14.84375 L 17.96875 18.359375 L 7.03125 18.359375 Z M 7.03125 14.84375 "/>
<path style=" stroke:none;fill-rule:nonzero;fill:rgb(80%,81.960784%,85.098039%);fill-opacity:1;" d="M 5.46875 18.75 L 5.46875 16.40625 L 19.53125 16.40625 L 19.53125 18.75 Z M 5.46875 18.75 "/>
<path style=" stroke:none;fill-rule:nonzero;fill:rgb(66.666667%,69.803922%,74.117647%);fill-opacity:1;" d="M 7.03125 16.40625 L 17.96875 16.40625 L 17.96875 18.75 L 7.03125 18.75 Z M 7.03125 16.40625 "/>
<path style=" stroke:none;fill-rule:nonzero;fill:rgb(51.372549%,56.078431%,60.784314%);fill-opacity:1;" d="M 17.1875 14.84375 L 21.09375 14.84375 L 17.1875 12.5 L 7.8125 12.5 L 3.90625 14.84375 Z M 17.1875 14.84375 "/>
<path style=" stroke:none;fill-rule:nonzero;fill:rgb(39.607843%,42.745098%,47.058824%);fill-opacity:1;" d="M 17.1875 12.5 L 7.8125 12.5 L 7.03125 12.96875 L 7.03125 14.84375 L 17.96875 14.84375 L 17.96875 12.96875 Z M 17.1875 12.5 "/>
<path style=" stroke:none;fill-rule:nonzero;fill:rgb(81.176471%,61.960784%,46.27451%);fill-opacity:1;" d="M 13.28125 21.09375 L 15.625 21.09375 L 15.625 24.21875 L 13.28125 24.21875 Z M 13.28125 21.09375 "/>
<path style=" stroke:none;fill-rule:nonzero;fill:rgb(90.196078%,91.372549%,92.941176%);fill-opacity:1;" d="M 8.59375 10.15625 L 8.59375 4.6875 L 12.5 1.171875 L 16.40625 4.6875 L 16.40625 10.15625 Z M 8.59375 10.15625 "/>
<path style=" stroke:none;fill-rule:nonzero;fill:rgb(51.372549%,56.078431%,60.784314%);fill-opacity:1;" d="M 8.59375 4.6875 L 16.40625 4.6875 L 12.5 1.171875 Z M 8.59375 4.6875 "/>
<path style=" stroke:none;fill-rule:nonzero;fill:rgb(90.196078%,91.372549%,92.941176%);fill-opacity:1;" d="M 13.28125 3.90625 C 13.28125 4.335938 12.929688 4.6875 12.5 4.6875 C 12.070312 4.6875 11.71875 4.335938 11.71875 3.90625 C 11.71875 3.476562 12.070312 3.125 12.5 3.125 C 12.929688 3.125 13.28125 3.476562 13.28125 3.90625 Z M 13.28125 3.90625 "/>
<path style=" stroke:none;fill-rule:nonzero;fill:rgb(90.196078%,91.372549%,92.941176%);fill-opacity:1;" d="M 7.8125 10.15625 L 17.1875 10.15625 L 17.1875 19.53125 L 7.8125 19.53125 Z M 7.8125 10.15625 "/>
<path style=" stroke:none;fill-rule:nonzero;fill:rgb(80%,81.960784%,85.098039%);fill-opacity:1;" d="M 7.8125 18.75 L 17.1875 18.75 L 17.1875 19.53125 L 7.8125 19.53125 Z M 7.8125 18.75 "/>
<path style=" stroke:none;fill-rule:nonzero;fill:rgb(51.372549%,56.078431%,60.784314%);fill-opacity:1;" d="M 10.15625 6.25 L 11.71875 6.25 L 11.71875 8.59375 L 10.15625 8.59375 Z M 10.15625 6.25 "/>
<path style=" stroke:none;fill-rule:nonzero;fill:rgb(51.372549%,56.078431%,60.784314%);fill-opacity:1;" d="M 13.28125 6.25 L 14.84375 6.25 L 14.84375 8.59375 L 13.28125 8.59375 Z M 13.28125 6.25 "/>
<path style=" stroke:none;fill-rule:nonzero;fill:rgb(81.176471%,61.960784%,46.27451%);fill-opacity:1;" d="M 10.9375 19.53125 L 10.9375 17.1875 C 10.9375 16.324219 11.636719 15.625 12.5 15.625 C 13.363281 15.625 14.0625 16.324219 14.0625 17.1875 L 14.0625 19.53125 Z M 10.9375 19.53125 "/>
<path style=" stroke:none;fill-rule:nonzero;fill:rgb(51.372549%,56.078431%,60.784314%);fill-opacity:1;" d="M 9.375 11.71875 L 15.625 11.71875 L 15.625 14.0625 L 9.375 14.0625 Z M 9.375 11.71875 "/>
<path style=" stroke:none;fill-rule:nonzero;fill:rgb(66.666667%,69.803922%,74.117647%);fill-opacity:1;" d="M 10.546875 11.71875 L 11.328125 11.71875 L 11.328125 14.0625 L 10.546875 14.0625 Z M 10.546875 11.71875 "/>
<path style=" stroke:none;fill-rule:nonzero;fill:rgb(66.666667%,69.803922%,74.117647%);fill-opacity:1;" d="M 12.109375 11.71875 L 12.890625 11.71875 L 12.890625 14.0625 L 12.109375 14.0625 Z M 12.109375 11.71875 "/>
<path style=" stroke:none;fill-rule:nonzero;fill:rgb(66.666667%,69.803922%,74.117647%);fill-opacity:1;" d="M 13.671875 11.71875 L 14.453125 11.71875 L 14.453125 14.0625 L 13.671875 14.0625 Z M 13.671875 11.71875 "/>
<path style=" stroke:none;fill-rule:nonzero;fill:rgb(80%,81.960784%,85.098039%);fill-opacity:1;" d="M 8.59375 9.375 L 16.40625 9.375 L 16.40625 10.15625 L 8.59375 10.15625 Z M 8.59375 9.375 "/>
<path style=" stroke:none;fill-rule:nonzero;fill:rgb(80%,81.960784%,85.098039%);fill-opacity:1;" d="M 8.59375 4.6875 L 16.40625 4.6875 L 16.40625 5.46875 L 8.59375 5.46875 Z M 8.59375 4.6875 "/>
<path style=" stroke:none;fill-rule:nonzero;fill:rgb(80%,81.960784%,85.098039%);fill-opacity:1;" d="M 7.8125 8.59375 L 8.59375 8.59375 L 8.59375 10.15625 L 7.8125 10.15625 Z M 7.8125 8.59375 "/>
<path style=" stroke:none;fill-rule:nonzero;fill:rgb(80%,81.960784%,85.098039%);fill-opacity:1;" d="M 16.40625 8.59375 L 17.1875 8.59375 L 17.1875 10.15625 L 16.40625 10.15625 Z M 16.40625 8.59375 "/>
<path style=" stroke:none;fill-rule:nonzero;fill:rgb(80%,81.960784%,85.098039%);fill-opacity:1;" d="M 3.90625 14.84375 L 7.8125 14.84375 L 7.8125 15.625 L 3.90625 15.625 Z M 3.90625 14.84375 "/>
<path style=" stroke:none;fill-rule:nonzero;fill:rgb(80%,81.960784%,85.098039%);fill-opacity:1;" d="M 17.1875 14.84375 L 21.09375 14.84375 L 21.09375 15.625 L 17.1875 15.625 Z M 17.1875 14.84375 "/>
<path style=" stroke:none;fill-rule:nonzero;fill:rgb(69.803922%,47.45098%,27.45098%);fill-opacity:1;" d="M 9.375 23.4375 L 11.71875 23.4375 L 11.71875 24.21875 L 9.375 24.21875 Z M 9.375 23.4375 "/>
<path style=" stroke:none;fill-rule:nonzero;fill:rgb(69.803922%,47.45098%,27.45098%);fill-opacity:1;" d="M 13.28125 23.4375 L 15.625 23.4375 L 15.625 24.21875 L 13.28125 24.21875 Z M 13.28125 23.4375 "/>
<path style=" stroke:none;fill-rule:nonzero;fill:rgb(69.803922%,47.45098%,27.45098%);fill-opacity:1;" d="M 10.9375 18.75 L 14.0625 18.75 L 14.0625 19.53125 L 10.9375 19.53125 Z M 10.9375 18.75 "/>
</g>
</svg>
