<?xml version="1.0" encoding="UTF-8"?>
<svg xmlns="http://www.w3.org/2000/svg" xmlns:xlink="http://www.w3.org/1999/xlink" width="25px" height="25px" viewBox="0 0 25 25" version="1.1">
<g id="surface1">
<path style=" stroke:none;fill-rule:evenodd;fill:rgb(92.941176%,44.313725%,38.039216%);fill-opacity:1;" d="M 13.4375 15.625 C 12.824219 15.421875 13.105469 14.511719 13.234375 14.183594 C 13.261719 14.117188 13.28125 14.070312 13.28125 14.0625 C 13.28125 12.335938 11.882812 10.9375 10.15625 10.9375 C 8.835938 10.9375 7.710938 11.753906 7.253906 12.910156 C 6.5625 14.125 5.46875 14.0625 5.46875 14.0625 C 2.449219 14.0625 0 16.511719 0 19.53125 C 0 21.867188 3.132812 25 5.46875 25 C 8.488281 25 10.9375 22.550781 10.9375 19.53125 C 10.9375 19.503906 10.933594 19.480469 10.933594 19.453125 L 10.9375 19.453125 C 10.9375 16.886719 13.070312 17.21875 13.4375 17.1875 C 13.867188 17.1875 14.21875 16.835938 14.21875 16.40625 C 14.21875 15.976562 13.871094 15.625 13.4375 15.625 Z M 13.4375 15.625 "/>
<path style=" stroke:none;fill-rule:evenodd;fill:rgb(61.568627%,37.254902%,34.117647%);fill-opacity:1;" d="M 10.933594 19.453125 L 10.9375 19.453125 C 10.9375 16.886719 13.070312 17.21875 13.4375 17.1875 C 13.867188 17.1875 14.21875 16.835938 14.21875 16.40625 C 14.21875 15.976562 13.867188 15.625 13.4375 15.625 C 12.824219 15.421875 13.105469 14.511719 13.230469 14.183594 C 13.261719 14.117188 13.28125 14.070312 13.28125 14.0625 C 13.28125 13.597656 13.175781 13.15625 12.992188 12.757812 C 11.589844 14.023438 5.46875 19.53125 5.46875 19.53125 C 5.46875 19.53125 8.351562 22.597656 10.203125 22.261719 C 10.667969 21.457031 10.9375 20.527344 10.9375 19.53125 C 10.9375 19.503906 10.933594 19.480469 10.933594 19.453125 Z M 10.933594 19.453125 "/>
<path style=" stroke:none;fill-rule:nonzero;fill:rgb(100%,100%,100%);fill-opacity:1;" d="M 9.945312 16.003906 L 8.972656 15.03125 C 8.703125 14.761719 8.269531 14.761719 8 15.03125 C 7.730469 15.300781 7.730469 15.734375 8 16.003906 L 8.972656 16.976562 C 9.242188 17.246094 9.679688 17.246094 9.945312 16.976562 C 10.214844 16.707031 10.214844 16.273438 9.945312 16.003906 Z M 9.945312 16.003906 "/>
<path style=" stroke:none;fill-rule:nonzero;fill:rgb(100%,100%,100%);fill-opacity:1;" d="M 6.820312 19.128906 L 5.847656 18.15625 C 5.578125 17.886719 5.144531 17.886719 4.875 18.15625 C 4.605469 18.425781 4.605469 18.859375 4.875 19.128906 L 5.847656 20.101562 C 6.117188 20.371094 6.554688 20.371094 6.820312 20.101562 C 7.089844 19.832031 7.089844 19.398438 6.820312 19.128906 Z M 6.820312 19.128906 "/>
<path style=" stroke:none;fill-rule:evenodd;fill:rgb(100%,100%,100%);fill-opacity:1;" d="M 5.859375 21.875 C 5.644531 21.875 5.46875 22.050781 5.46875 22.265625 C 5.46875 22.480469 5.644531 22.65625 5.859375 22.65625 C 6.074219 22.65625 6.25 22.480469 6.25 22.265625 C 6.25 22.050781 6.074219 21.875 5.859375 21.875 Z M 7.421875 21.875 C 7.207031 21.875 7.03125 22.050781 7.03125 22.265625 C 7.03125 22.480469 7.207031 22.65625 7.421875 22.65625 C 7.636719 22.65625 7.8125 22.480469 7.8125 22.265625 C 7.8125 22.050781 7.636719 21.875 7.421875 21.875 Z M 7.421875 21.875 "/>
<path style=" stroke:none;fill-rule:evenodd;fill:rgb(90.980392%,67.843137%,44.705882%);fill-opacity:1;" d="M 24.21875 0.78125 L 23.4375 0 L 22.65625 0 L 20.3125 2.34375 L 20.703125 2.734375 L 9.375 14.0625 L 10.9375 15.625 L 22.265625 4.296875 L 22.65625 4.6875 L 25 2.34375 L 25 1.5625 Z M 24.21875 0.78125 "/>
<path style=" stroke:none;fill-rule:evenodd;fill:rgb(40%,40%,40%);fill-opacity:1;" d="M 24.21875 0.78125 L 23.4375 0 L 22.65625 0 L 20.3125 2.34375 L 20.3125 3.125 L 21.875 4.6875 L 22.65625 4.6875 L 25 2.34375 L 25 1.5625 Z M 24.21875 0.78125 "/>
</g>
</svg>
