<?xml version="1.0" encoding="UTF-8"?>
<svg xmlns="http://www.w3.org/2000/svg" xmlns:xlink="http://www.w3.org/1999/xlink" width="25px" height="25px" viewBox="0 0 25 25" version="1.1">
<g id="surface1">
<path style=" stroke:none;fill-rule:evenodd;fill:rgb(98.039216%,84.705882%,25.490196%);fill-opacity:1;" d="M 0.695312 19.988281 C 0.695312 19.988281 0.316406 20.5625 2.683594 20.929688 C 5.050781 21.296875 11.316406 27.085938 21.351562 14.792969 C 24.15625 11.355469 23.046875 8.566406 23.425781 6.449219 C 23.800781 4.332031 24.878906 3.144531 23.746094 2.640625 C 22.609375 2.140625 21.882812 2.253906 21.730469 2.742188 C 21.578125 3.226562 22.0625 6.464844 20.042969 6.992188 C 17.246094 7.722656 13.726562 14.925781 5.152344 17.800781 C 5.152344 17.800781 3.300781 18.546875 1.96875 18.640625 C 0.632812 18.730469 0.503906 19.589844 0.695312 19.988281 "/>
<path style=" stroke:none;fill-rule:evenodd;fill:rgb(98.039216%,67.45098%,15.686275%);fill-opacity:1;" d="M 23.746094 2.640625 C 23.277344 2.4375 22.882812 2.339844 22.566406 2.324219 C 22.480469 2.980469 21.984375 3.933594 21.75 5.238281 C 21.371094 7.367188 22.488281 10.171875 19.667969 13.625 C 9.578125 25.980469 3.28125 20.160156 0.90625 19.792969 C 0.808594 19.777344 0.722656 19.761719 0.632812 19.746094 C 0.644531 19.835938 0.660156 19.921875 0.695312 19.988281 C 0.695312 19.988281 0.316406 20.5625 2.683594 20.929688 C 5.050781 21.296875 11.316406 27.085938 21.351562 14.792969 C 24.15625 11.355469 23.046875 8.566406 23.425781 6.449219 C 23.800781 4.332031 24.878906 3.144531 23.746094 2.640625 "/>
<path style=" stroke:none;fill-rule:evenodd;fill:rgb(27.058824%,28.235294%,28.627451%);fill-opacity:1;" d="M 1.3125 19.921875 C 1.460938 20.007812 1.847656 20.167969 2.777344 20.3125 C 3.238281 20.382812 3.742188 20.59375 4.382812 20.859375 C 7.308594 22.074219 12.753906 24.335938 20.867188 14.398438 C 22.761719 12.078125 22.734375 10.097656 22.714844 8.347656 C 22.703125 7.644531 22.695312 6.976562 22.808594 6.339844 C 22.945312 5.574219 23.167969 4.925781 23.347656 4.402344 C 23.480469 4.011719 23.683594 3.417969 23.617188 3.292969 C 23.617188 3.292969 23.59375 3.257812 23.492188 3.214844 C 22.808594 2.914062 22.441406 2.929688 22.324219 2.957031 C 22.316406 3.054688 22.316406 3.230469 22.3125 3.378906 C 22.292969 4.574219 22.25 7.0625 20.199219 7.597656 C 19.316406 7.828125 18.210938 8.96875 16.808594 10.414062 C 14.292969 13.003906 10.851562 16.550781 5.347656 18.394531 C 5.304688 18.414062 3.425781 19.167969 2.007812 19.261719 C 1.640625 19.285156 1.375 19.386719 1.285156 19.539062 C 1.234375 19.621094 1.25 19.707031 1.257812 19.722656 C 1.285156 19.785156 1.304688 19.855469 1.3125 19.921875 M 8.976562 23.21875 C 6.804688 23.21875 5.097656 22.507812 3.902344 22.011719 C 3.363281 21.789062 2.898438 21.59375 2.589844 21.546875 C 1.125 21.320312 0.367188 20.976562 0.125 20.433594 C 0.0625 20.296875 0.0429688 20.160156 0.0507812 20.039062 C -0.0507812 19.667969 0.00390625 19.253906 0.207031 18.910156 C 0.421875 18.539062 0.894531 18.085938 1.925781 18.015625 C 3.140625 17.933594 4.898438 17.230469 4.917969 17.222656 C 10.167969 15.460938 13.488281 12.042969 15.914062 9.542969 C 17.449219 7.957031 18.667969 6.707031 19.882812 6.386719 C 20.929688 6.117188 21.042969 4.679688 21.0625 3.355469 C 21.070312 2.972656 21.074219 2.742188 21.132812 2.550781 C 21.234375 2.230469 21.464844 1.972656 21.78125 1.828125 C 22.320312 1.585938 23.085938 1.667969 23.996094 2.070312 C 25.269531 2.632812 24.859375 3.839844 24.527344 4.808594 C 24.355469 5.3125 24.15625 5.886719 24.039062 6.558594 C 23.945312 7.082031 23.953125 7.6875 23.960938 8.332031 C 23.988281 10.195312 24.015625 12.515625 21.835938 15.1875 C 16.601562 21.601562 12.257812 23.21875 8.976562 23.21875 "/>
<path style=" stroke:none;fill-rule:evenodd;fill:rgb(99.607843%,99.607843%,99.607843%);fill-opacity:1;" d="M 6.550781 19.460938 C 6.335938 19.460938 6.144531 19.3125 6.09375 19.09375 C 6.039062 18.839844 6.195312 18.589844 6.449219 18.535156 C 6.484375 18.527344 10.109375 17.6875 12.871094 14.960938 C 13.050781 14.78125 13.351562 14.78125 13.53125 14.964844 C 13.714844 15.148438 13.710938 15.445312 13.527344 15.628906 C 10.570312 18.550781 6.8125 19.414062 6.652344 19.449219 C 6.617188 19.457031 6.585938 19.460938 6.550781 19.460938 "/>
<path style=" stroke:none;fill-rule:evenodd;fill:rgb(99.607843%,99.607843%,99.607843%);fill-opacity:1;" d="M 14.773438 13.714844 C 15.011719 13.917969 15.039062 14.277344 14.839844 14.515625 C 14.636719 14.753906 14.277344 14.785156 14.039062 14.582031 C 13.796875 14.378906 13.769531 14.019531 13.972656 13.78125 C 14.175781 13.542969 14.53125 13.511719 14.773438 13.714844 "/>
</g>
</svg>
