<?xml version="1.0" encoding="UTF-8"?>
<svg xmlns="http://www.w3.org/2000/svg" xmlns:xlink="http://www.w3.org/1999/xlink" width="25px" height="25px" viewBox="0 0 25 25" version="1.1">
<g id="surface1">
<path style=" stroke:none;fill-rule:nonzero;fill:rgb(55.686275%,40%,12.54902%);fill-opacity:1;" d="M 7.972656 7.351562 L 7.941406 5.074219 C 7.9375 4.726562 8.21875 4.441406 8.566406 4.441406 L 16.433594 4.441406 C 16.777344 4.441406 17.058594 4.71875 17.058594 5.066406 L 17.058594 7.339844 L 15.453125 7.339844 L 15.453125 6.042969 L 9.558594 6.042969 L 9.574219 7.332031 Z M 7.972656 7.351562 "/>
<path style=" stroke:none;fill-rule:nonzero;fill:rgb(100%,69.019608%,0%);fill-opacity:1;" d="M 9.867188 8.195312 L 7.628906 8.195312 C 7.589844 8.195312 7.554688 8.164062 7.554688 8.125 L 7.554688 7.386719 C 7.554688 7.347656 7.589844 7.3125 7.628906 7.3125 L 9.867188 7.3125 C 9.90625 7.3125 9.9375 7.34375 9.9375 7.386719 L 9.9375 8.125 C 9.9375 8.164062 9.90625 8.195312 9.867188 8.195312 Z M 17.367188 8.195312 L 15.144531 8.195312 C 15.101562 8.195312 15.066406 8.164062 15.066406 8.121094 L 15.066406 7.394531 C 15.066406 7.351562 15.101562 7.316406 15.144531 7.316406 L 17.367188 7.316406 C 17.410156 7.316406 17.445312 7.351562 17.445312 7.394531 L 17.445312 8.121094 C 17.449219 8.164062 17.410156 8.195312 17.367188 8.195312 Z M 17.367188 8.195312 "/>
<path style=" stroke:none;fill-rule:nonzero;fill:rgb(55.686275%,40%,12.54902%);fill-opacity:1;" d="M 21.066406 22.757812 L 3.980469 22.757812 C 3.035156 22.757812 2.265625 21.992188 2.265625 21.046875 L 2.265625 9.820312 C 2.265625 8.875 3.035156 8.109375 3.980469 8.109375 L 21.066406 8.109375 C 22.011719 8.109375 22.777344 8.875 22.777344 9.820312 L 22.777344 21.046875 C 22.777344 21.992188 22.011719 22.757812 21.066406 22.757812 Z M 21.066406 22.757812 "/>
<path style=" stroke:none;fill-rule:nonzero;fill:rgb(100%,69.019608%,0%);fill-opacity:1;" d="M 5.726562 8.113281 L 7.558594 8.109375 L 7.601562 22.738281 L 5.769531 22.746094 Z M 17.449219 8.113281 L 19.277344 8.109375 L 19.320312 22.738281 L 17.488281 22.746094 Z M 17.449219 8.113281 "/>
</g>
</svg>
