<?xml version="1.0" encoding="UTF-8"?>
<svg xmlns="http://www.w3.org/2000/svg" xmlns:xlink="http://www.w3.org/1999/xlink" width="25px" height="25px" viewBox="0 0 25 25" version="1.1">
<g id="surface1">
<path style=" stroke:none;fill-rule:nonzero;fill:rgb(61.568627%,74.509804%,52.941176%);fill-opacity:1;" d="M 5.726562 3.851562 L 24.039062 3.851562 C 24.371094 3.851562 24.625 4.105469 24.625 4.4375 L 24.625 15.832031 C 24.625 16.164062 24.371094 16.417969 24.039062 16.417969 L 5.726562 16.417969 C 5.394531 16.417969 5.140625 16.164062 5.140625 15.832031 L 5.140625 4.4375 C 5.140625 4.105469 5.394531 3.851562 5.726562 3.851562 Z M 5.726562 3.851562 "/>
<path style=" stroke:none;fill-rule:nonzero;fill:rgb(7.45098%,7.45098%,7.45098%);fill-opacity:1;" d="M 24.039062 16.808594 L 5.726562 16.808594 C 5.179688 16.808594 4.75 16.378906 4.75 15.832031 L 4.75 4.4375 C 4.75 3.890625 5.179688 3.460938 5.726562 3.460938 L 24.039062 3.460938 C 24.585938 3.460938 25.015625 3.890625 25.015625 4.4375 L 25.015625 15.832031 C 25.015625 16.359375 24.585938 16.808594 24.039062 16.808594 Z M 5.726562 4.242188 C 5.609375 4.242188 5.53125 4.320312 5.53125 4.4375 L 5.53125 15.832031 C 5.53125 15.949219 5.609375 16.027344 5.726562 16.027344 L 24.039062 16.027344 C 24.15625 16.027344 24.234375 15.949219 24.234375 15.832031 L 24.234375 4.4375 C 24.234375 4.320312 24.15625 4.242188 24.039062 4.242188 Z M 5.726562 4.242188 "/>
<path style=" stroke:none;fill-rule:nonzero;fill:rgb(61.568627%,74.509804%,52.941176%);fill-opacity:1;" d="M 4.066406 5.511719 L 22.398438 5.511719 C 22.730469 5.511719 22.984375 5.765625 22.984375 6.097656 L 22.984375 17.492188 C 22.984375 17.824219 22.730469 18.082031 22.398438 18.082031 L 4.066406 18.082031 C 3.734375 18.082031 3.480469 17.824219 3.480469 17.492188 L 3.480469 6.097656 C 3.480469 5.765625 3.734375 5.511719 4.066406 5.511719 Z M 4.066406 5.511719 "/>
<path style=" stroke:none;fill-rule:nonzero;fill:rgb(7.45098%,7.45098%,7.45098%);fill-opacity:1;" d="M 22.378906 18.472656 L 4.066406 18.472656 C 3.519531 18.472656 3.089844 18.039062 3.089844 17.492188 L 3.089844 6.097656 C 3.089844 5.550781 3.519531 5.121094 4.066406 5.121094 L 22.398438 5.121094 C 22.945312 5.121094 23.375 5.550781 23.375 6.097656 L 23.375 17.492188 C 23.355469 18.019531 22.925781 18.472656 22.378906 18.472656 Z M 4.066406 5.902344 C 3.949219 5.902344 3.871094 5.980469 3.871094 6.097656 L 3.871094 17.492188 C 3.871094 17.609375 3.949219 17.6875 4.066406 17.6875 L 22.398438 17.6875 C 22.515625 17.6875 22.59375 17.609375 22.59375 17.492188 L 22.59375 6.097656 C 22.59375 5.980469 22.515625 5.902344 22.398438 5.902344 Z M 4.066406 5.902344 "/>
<path style=" stroke:none;fill-rule:nonzero;fill:rgb(61.568627%,74.509804%,52.941176%);fill-opacity:1;" d="M 2.539062 7.136719 L 20.875 7.136719 C 21.207031 7.136719 21.460938 7.390625 21.460938 7.722656 L 21.460938 19.117188 C 21.460938 19.449219 21.207031 19.703125 20.875 19.703125 L 2.539062 19.703125 C 2.207031 19.703125 1.953125 19.449219 1.953125 19.117188 L 1.953125 7.722656 C 1.953125 7.410156 2.207031 7.136719 2.539062 7.136719 Z M 2.539062 7.136719 "/>
<path style=" stroke:none;fill-rule:nonzero;fill:rgb(7.45098%,7.45098%,7.45098%);fill-opacity:1;" d="M 20.875 20.09375 L 2.539062 20.09375 C 1.992188 20.09375 1.5625 19.664062 1.5625 19.117188 L 1.5625 7.722656 C 1.5625 7.175781 1.992188 6.742188 2.539062 6.742188 L 20.875 6.742188 C 21.421875 6.742188 21.851562 7.175781 21.851562 7.722656 L 21.851562 19.117188 C 21.851562 19.644531 21.402344 20.09375 20.875 20.09375 Z M 2.539062 7.527344 C 2.421875 7.527344 2.34375 7.605469 2.34375 7.722656 L 2.34375 19.117188 C 2.34375 19.234375 2.421875 19.3125 2.539062 19.3125 L 20.875 19.3125 C 20.992188 19.3125 21.070312 19.234375 21.070312 19.117188 L 21.070312 7.722656 C 21.070312 7.605469 20.992188 7.527344 20.875 7.527344 Z M 2.539062 7.527344 "/>
<path style=" stroke:none;fill-rule:nonzero;fill:rgb(61.568627%,74.509804%,52.941176%);fill-opacity:1;" d="M 0.976562 8.582031 L 19.308594 8.582031 C 19.644531 8.582031 19.898438 8.835938 19.898438 9.167969 L 19.898438 20.5625 C 19.898438 20.894531 19.644531 21.148438 19.308594 21.148438 L 0.976562 21.148438 C 0.644531 21.148438 0.390625 20.894531 0.390625 20.5625 L 0.390625 9.167969 C 0.390625 8.855469 0.644531 8.582031 0.976562 8.582031 Z M 0.976562 8.582031 "/>
<path style=" stroke:none;fill-rule:nonzero;fill:rgb(7.45098%,7.45098%,7.45098%);fill-opacity:1;" d="M 19.308594 21.539062 L 0.976562 21.539062 C 0.429688 21.539062 0 21.109375 0 20.5625 L 0 9.167969 C 0 8.621094 0.429688 8.191406 0.976562 8.191406 L 19.308594 8.191406 C 19.859375 8.191406 20.289062 8.621094 20.289062 9.167969 L 20.289062 20.5625 C 20.289062 21.109375 19.839844 21.539062 19.308594 21.539062 Z M 0.976562 8.972656 C 0.859375 8.972656 0.78125 9.050781 0.78125 9.167969 L 0.78125 20.5625 C 0.78125 20.679688 0.859375 20.757812 0.976562 20.757812 L 19.308594 20.757812 C 19.425781 20.757812 19.507812 20.679688 19.507812 20.5625 L 19.507812 9.167969 C 19.507812 9.050781 19.425781 8.972656 19.308594 8.972656 Z M 0.976562 8.972656 "/>
<path style=" stroke:none;fill-rule:nonzero;fill:rgb(83.921569%,94.117647%,77.254902%);fill-opacity:1;" d="M 16.847656 19.390625 L 3.441406 19.390625 C 3.441406 18.472656 2.675781 17.707031 1.757812 17.707031 L 1.757812 11.804688 C 2.675781 11.804688 3.441406 11.042969 3.441406 10.125 L 16.847656 10.125 C 16.847656 11.042969 17.609375 11.804688 18.527344 11.804688 L 18.527344 17.707031 C 17.589844 17.707031 16.847656 18.472656 16.847656 19.390625 Z M 16.847656 19.390625 "/>
<path style=" stroke:none;fill-rule:nonzero;fill:rgb(7.45098%,7.45098%,7.45098%);fill-opacity:1;" d="M 16.847656 19.78125 L 3.441406 19.78125 C 3.226562 19.78125 3.050781 19.605469 3.050781 19.390625 C 3.050781 18.6875 2.460938 18.101562 1.757812 18.101562 C 1.542969 18.101562 1.367188 17.921875 1.367188 17.707031 L 1.367188 11.804688 C 1.367188 11.589844 1.542969 11.414062 1.757812 11.414062 C 2.460938 11.414062 3.050781 10.828125 3.050781 10.125 C 3.050781 9.910156 3.226562 9.734375 3.441406 9.734375 L 16.847656 9.734375 C 17.0625 9.734375 17.238281 9.910156 17.238281 10.125 C 17.238281 10.828125 17.824219 11.414062 18.527344 11.414062 C 18.742188 11.414062 18.917969 11.589844 18.917969 11.804688 L 18.917969 17.707031 C 18.917969 17.921875 18.742188 18.101562 18.527344 18.101562 C 17.824219 18.101562 17.238281 18.6875 17.238281 19.390625 C 17.238281 19.605469 17.0625 19.78125 16.847656 19.78125 Z M 3.792969 19 L 16.476562 19 C 16.632812 18.179688 17.296875 17.511719 18.117188 17.355469 L 18.117188 12.15625 C 17.296875 12 16.632812 11.335938 16.476562 10.515625 L 3.792969 10.515625 C 3.636719 11.335938 2.972656 12 2.148438 12.15625 L 2.148438 17.335938 C 2.972656 17.511719 3.636719 18.179688 3.792969 19 Z M 3.792969 19 "/>
<path style=" stroke:none;fill-rule:nonzero;fill:rgb(7.45098%,7.45098%,7.45098%);fill-opacity:1;" d="M 10.183594 17.414062 C 9.558594 17.414062 8.894531 17.179688 8.425781 16.574219 C 8.285156 16.398438 8.324219 16.164062 8.484375 16.027344 C 8.660156 15.890625 8.894531 15.929688 9.03125 16.085938 C 9.5 16.691406 10.222656 16.710938 10.691406 16.554688 C 11.082031 16.417969 11.316406 16.164062 11.316406 15.890625 C 11.316406 15.636719 10.710938 15.460938 10.183594 15.304688 C 9.363281 15.050781 8.324219 14.757812 8.324219 13.78125 C 8.324219 13.3125 8.621094 12.882812 9.128906 12.628906 C 9.753906 12.3125 10.808594 12.195312 11.804688 12.921875 C 11.980469 13.058594 12.019531 13.292969 11.882812 13.46875 C 11.746094 13.644531 11.511719 13.683594 11.335938 13.546875 C 10.671875 13.058594 9.929688 13.078125 9.480469 13.3125 C 9.246094 13.429688 9.089844 13.605469 9.089844 13.78125 C 9.089844 14.152344 9.636719 14.328125 10.378906 14.5625 C 11.179688 14.796875 12.058594 15.070312 12.058594 15.890625 C 12.058594 16.496094 11.609375 17.042969 10.90625 17.296875 C 10.710938 17.355469 10.4375 17.414062 10.183594 17.414062 Z M 10.183594 17.414062 "/>
<path style=" stroke:none;fill-rule:nonzero;fill:rgb(7.45098%,7.45098%,7.45098%);fill-opacity:1;" d="M 10.144531 13.15625 C 9.929688 13.15625 9.753906 12.980469 9.753906 12.765625 L 9.753906 11.902344 C 9.753906 11.6875 9.929688 11.511719 10.144531 11.511719 C 10.359375 11.511719 10.535156 11.6875 10.535156 11.902344 L 10.535156 12.765625 C 10.535156 13 10.359375 13.15625 10.144531 13.15625 Z M 10.144531 13.15625 "/>
<path style=" stroke:none;fill-rule:nonzero;fill:rgb(7.45098%,7.45098%,7.45098%);fill-opacity:1;" d="M 10.144531 18.160156 C 9.929688 18.160156 9.753906 17.980469 9.753906 17.765625 L 9.753906 17.121094 C 9.753906 16.90625 9.929688 16.730469 10.144531 16.730469 C 10.359375 16.730469 10.535156 16.90625 10.535156 17.121094 L 10.535156 17.765625 C 10.535156 17.980469 10.359375 18.160156 10.144531 18.160156 Z M 10.144531 18.160156 "/>
<path style=" stroke:none;fill-rule:nonzero;fill:rgb(68.235294%,80.392157%,60%);fill-opacity:1;" d="M 4.320312 14.992188 C 4.320312 15.390625 4.644531 15.714844 5.042969 15.714844 C 5.441406 15.714844 5.765625 15.390625 5.765625 14.992188 C 5.765625 14.59375 5.441406 14.269531 5.042969 14.269531 C 4.644531 14.269531 4.320312 14.59375 4.320312 14.992188 Z M 4.320312 14.992188 "/>
<path style=" stroke:none;fill-rule:nonzero;fill:rgb(7.45098%,7.45098%,7.45098%);fill-opacity:1;" d="M 5.042969 16.085938 C 4.4375 16.085938 3.929688 15.597656 3.929688 14.972656 C 3.929688 14.347656 4.417969 13.859375 5.042969 13.859375 C 5.648438 13.859375 6.15625 14.347656 6.15625 14.972656 C 6.15625 15.597656 5.648438 16.085938 5.042969 16.085938 Z M 5.042969 14.660156 C 4.867188 14.660156 4.710938 14.796875 4.710938 14.992188 C 4.710938 15.1875 4.847656 15.324219 5.042969 15.324219 C 5.21875 15.324219 5.375 15.1875 5.375 14.992188 C 5.375 14.796875 5.21875 14.660156 5.042969 14.660156 Z M 5.042969 14.660156 "/>
<path style=" stroke:none;fill-rule:nonzero;fill:rgb(68.235294%,80.392157%,60%);fill-opacity:1;" d="M 14.5625 14.992188 C 14.5625 15.390625 14.886719 15.714844 15.285156 15.714844 C 15.683594 15.714844 16.007812 15.390625 16.007812 14.992188 C 16.007812 14.59375 15.683594 14.269531 15.285156 14.269531 C 14.886719 14.269531 14.5625 14.59375 14.5625 14.992188 Z M 14.5625 14.992188 "/>
<path style=" stroke:none;fill-rule:nonzero;fill:rgb(7.45098%,7.45098%,7.45098%);fill-opacity:1;" d="M 15.285156 16.085938 C 14.679688 16.085938 14.171875 15.597656 14.171875 14.972656 C 14.171875 14.347656 14.660156 13.859375 15.285156 13.859375 C 15.890625 13.859375 16.398438 14.347656 16.398438 14.972656 C 16.398438 15.597656 15.890625 16.085938 15.285156 16.085938 Z M 15.285156 14.660156 C 15.109375 14.660156 14.953125 14.796875 14.953125 14.992188 C 14.953125 15.1875 15.089844 15.324219 15.285156 15.324219 C 15.480469 15.324219 15.617188 15.1875 15.617188 14.992188 C 15.617188 14.796875 15.460938 14.660156 15.285156 14.660156 Z M 15.285156 14.660156 "/>
</g>
</svg>
