<?xml version="1.0" encoding="UTF-8"?>
<svg xmlns="http://www.w3.org/2000/svg" xmlns:xlink="http://www.w3.org/1999/xlink" width="50px" height="50px" viewBox="0 0 50 50" version="1.1">
<g id="surface1">
<path style="fill:none;stroke-width:1;stroke-linecap:round;stroke-linejoin:miter;stroke:rgb(13.333333%,13.333333%,13.333333%);stroke-opacity:1;stroke-miterlimit:4;" d="M 9 9.999375 L 12.256875 12.444375 C 12.680625 12.7575 13.265625 12.695625 13.60875 12.305625 L 20.000625 5.000625 " transform="matrix(2.083333,0,0,2.083333,0,0)"/>
<path style="fill:none;stroke-width:1;stroke-linecap:round;stroke-linejoin:miter;stroke:rgb(13.333333%,13.333333%,13.333333%);stroke-opacity:1;stroke-miterlimit:4;" d="M 21 12 C 21 13.8825 20.413125 15.710625 19.3125 17.2425 C 18.219375 18.774375 16.6725 19.914375 14.89125 20.52375 C 13.11 21.125625 11.188125 21.155625 9.39 20.61 C 7.58625 20.07 6.0075 18.969375 4.86 17.476875 C 3.718125 15.984375 3.061875 14.17125 3.0075 12.29625 C 2.945625 10.41375 3.46875 8.563125 4.515 6.999375 C 5.563125 5.4375 7.070625 4.243125 8.8275 3.5775 C 10.58625 2.91375 12.515625 2.82 14.32875 3.305625 " transform="matrix(2.083333,0,0,2.083333,0,0)"/>
</g>
</svg>
