<?xml version="1.0" encoding="UTF-8"?>
<svg xmlns="http://www.w3.org/2000/svg" xmlns:xlink="http://www.w3.org/1999/xlink" width="40px" height="40px" viewBox="0 0 40 40" version="1.1">
<g id="surface1">
<path style="fill:none;stroke-width:2;stroke-linecap:round;stroke-linejoin:miter;stroke:rgb(20%,21.176471%,24.705882%);stroke-opacity:1;stroke-miterlimit:4;" d="M 9 10.000781 L 12.257812 12.442969 C 12.677344 12.757031 13.265625 12.696094 13.610156 12.302344 L 19.999219 4.999219 " transform="matrix(1.666667,0,0,1.666667,0,0)"/>
<path style="fill:none;stroke-width:2;stroke-linecap:round;stroke-linejoin:miter;stroke:rgb(20%,21.176471%,24.705882%);stroke-opacity:1;stroke-miterlimit:4;" d="M 21 12 C 21 13.879687 20.411719 15.714844 19.314844 17.242969 C 18.220312 18.771094 16.673437 19.917187 14.892187 20.521875 C 13.113281 21.126562 11.186719 21.159375 9.386719 20.613281 C 7.589062 20.067187 6.004687 18.970312 4.860937 17.479687 C 3.714844 15.986719 3.065625 14.175 3.004687 12.295312 C 2.94375 10.415625 3.471094 8.564062 4.516406 7.000781 C 5.561719 5.435156 7.06875 4.239844 8.828906 3.576562 C 10.589062 2.913281 12.513281 2.819531 14.329687 3.307031 " transform="matrix(1.666667,0,0,1.666667,0,0)"/>
</g>
</svg>
