<?xml version="1.0" encoding="UTF-8"?>
<svg xmlns="http://www.w3.org/2000/svg" xmlns:xlink="http://www.w3.org/1999/xlink" width="25px" height="25px" viewBox="0 0 25 25" version="1.1">
<g id="surface1">
<path style=" stroke:none;fill-rule:evenodd;fill:rgb(25.882353%,25.882353%,25.882353%);fill-opacity:1;" d="M 9.546875 3.925781 C 9.546875 4.148438 9.660156 4.433594 9.761719 4.628906 L 10.058594 5.253906 C 9.9375 5.394531 9.285156 5.824219 9.046875 6.046875 L 8.902344 6.171875 C 8.871094 6.199219 8.871094 6.203125 8.84375 6.230469 C 8.65625 6.417969 8.3125 6.804688 8.175781 7.003906 C 7.671875 7.761719 7.617188 7.917969 7.3125 8.707031 C 7.238281 8.894531 7.210938 9.070312 7.15625 9.257812 C 6.976562 9.898438 6.976562 10.90625 7.0625 11.582031 C 7.125 12.050781 7.152344 12.472656 7.027344 12.933594 C 6.851562 13.582031 6.851562 13.246094 6.851562 14.046875 C 6.851562 14.144531 6.898438 14.347656 6.914062 14.476562 L 6.9375 14.933594 C 6.628906 14.910156 6.324219 14.558594 6.121094 14.347656 C 6.03125 14.25 5.984375 14.214844 5.886719 14.113281 C 5.570312 13.769531 5.277344 13.378906 5.050781 12.972656 C 5.015625 12.910156 5.035156 12.941406 5.007812 12.898438 C 4.96875 12.832031 4.960938 12.816406 4.925781 12.746094 C 4.878906 12.652344 4.824219 12.535156 4.769531 12.421875 C 4.660156 12.191406 4.582031 11.976562 4.5 11.746094 L 4.398438 11.375 C 4.300781 11.113281 4.207031 10.449219 4.1875 10.179688 C 4.160156 9.855469 4.171875 9.527344 4.226562 9.191406 C 4.351562 8.472656 4.410156 8.226562 4.703125 7.519531 C 4.816406 7.246094 4.933594 7.050781 5.074219 6.820312 C 5.25 6.53125 5.476562 6.1875 5.710938 5.957031 C 5.878906 5.785156 6.296875 5.40625 6.507812 5.25 L 6.644531 5.128906 C 6.292969 5.011719 5.46875 5.742188 5.191406 6 C 4.738281 6.417969 4.179688 7.125 3.933594 7.714844 L 3.890625 7.820312 C 3.773438 8.054688 3.660156 8.3125 3.585938 8.554688 C 3.488281 8.878906 3.367188 9.164062 3.324219 9.5 L 3.230469 9.996094 C 3.136719 10.738281 3.125 10.949219 3.125 11.714844 C 3.125 12.089844 3.191406 12.5625 3.246094 12.945312 C 3.296875 13.289062 3.445312 13.757812 3.492188 14.082031 C 3.550781 14.492188 3.527344 14.984375 3.527344 15.402344 C 3.523438 15.757812 3.574219 16.351562 3.644531 16.671875 L 3.738281 17.019531 C 3.828125 17.304688 3.921875 17.601562 4.042969 17.875 C 4.414062 18.710938 4.625 19.058594 5.242188 19.652344 C 5.324219 19.734375 5.652344 19.96875 5.777344 20.03125 L 6.085938 20.164062 C 6.203125 20.210938 6.316406 20.246094 6.441406 20.277344 C 6.699219 20.34375 6.949219 20.378906 7.25 20.378906 C 7.558594 20.378906 7.808594 20.375 8.046875 20.269531 L 8.484375 19.796875 C 8.550781 19.636719 8.371094 19.25 8.316406 19.089844 C 8.175781 18.6875 8.273438 18.804688 8.21875 18.480469 C 8.140625 18.027344 8.105469 18.105469 8.253906 17.6875 C 8.367188 17.765625 9.023438 19 9.074219 19.097656 L 9.371094 19.625 C 9.402344 19.691406 9.441406 19.742188 9.480469 19.8125 C 10.15625 21.019531 10.90625 22.113281 12.25 22.652344 C 12.738281 22.847656 13.539062 22.949219 14.082031 22.859375 C 14.40625 22.804688 14.675781 22.738281 14.9375 22.59375 C 15.636719 22.214844 15.316406 22.003906 15.105469 21.589844 C 14.898438 21.1875 14.738281 20.835938 14.667969 20.34375 C 14.597656 19.847656 14.617188 19.300781 14.558594 18.773438 C 14.507812 18.34375 14.492188 18.097656 14.578125 17.660156 C 14.664062 17.199219 14.773438 16.976562 15.3125 16.800781 C 15.769531 16.648438 16.070312 17.097656 16.132812 17.496094 L 16.167969 18.027344 C 16.167969 18.148438 16.144531 18.15625 16.140625 18.292969 C 16.125 18.820312 16.101562 19.433594 15.996094 19.9375 L 15.910156 20.773438 C 15.910156 20.96875 15.949219 21.140625 15.972656 21.332031 C 15.996094 21.527344 16.070312 21.632812 16.183594 21.71875 L 16.628906 21.898438 L 17.28125 21.898438 C 17.703125 21.898438 18.445312 21.566406 18.820312 21.367188 C 19.800781 20.84375 20.054688 20.316406 20.460938 19.289062 C 20.714844 18.640625 21.171875 17.519531 21.304688 16.828125 C 21.339844 16.652344 21.503906 16.101562 21.554688 15.839844 C 21.628906 15.425781 21.820312 14.398438 21.816406 14.046875 C 21.816406 13.757812 21.863281 13.550781 21.875 13.277344 L 21.875 12.332031 C 21.875 12.265625 21.824219 12.09375 21.820312 12.007812 C 21.792969 11.671875 21.792969 11.3125 21.703125 10.976562 C 21.667969 10.832031 21.667969 10.832031 21.640625 10.65625 C 21.597656 10.382812 21.453125 10.050781 21.363281 9.777344 C 21.304688 9.882812 21.300781 10.105469 21.300781 10.269531 C 21.304688 10.550781 21.242188 10.726562 21.210938 11.003906 L 21.105469 11.503906 C 20.738281 12.625 20.351562 13.320312 19.316406 13.988281 C 18.828125 14.300781 18.140625 14.523438 17.542969 14.53125 C 17.429688 14.53125 17.378906 14.554688 17.28125 14.558594 C 16.714844 14.546875 16.636719 14.378906 16.242188 14.984375 C 16.238281 14.992188 16.226562 15.011719 16.222656 15.019531 C 16.21875 15.023438 16.210938 15.03125 16.210938 15.035156 C 16.089844 15.199219 15.882812 15.351562 15.695312 15.40625 C 15.203125 15.546875 14.527344 14.988281 14.269531 14.988281 C 13.960938 14.988281 13.730469 15.222656 13.222656 15.125 C 12.707031 15.023438 12.617188 14.683594 12.445312 14.246094 C 12.402344 14.140625 12.449219 14.242188 12.398438 14.148438 C 12.246094 13.878906 12.246094 13.890625 11.902344 13.789062 C 10.667969 13.425781 9.890625 12.824219 9.320312 11.679688 C 9.238281 11.515625 9.207031 11.363281 9.140625 11.183594 C 8.957031 10.691406 8.917969 10.140625 8.917969 9.621094 C 8.917969 9.378906 9.042969 8.679688 9.121094 8.421875 L 9.257812 7.878906 C 9.289062 7.75 9.3125 7.738281 9.347656 7.613281 C 9.414062 7.363281 9.515625 7.09375 9.625 6.863281 C 9.867188 6.355469 10.109375 6.03125 10.472656 5.613281 C 10.710938 5.710938 10.972656 5.871094 11.230469 5.871094 C 11.414062 5.871094 11.585938 5.621094 11.707031 5.523438 C 12.183594 5.144531 12.816406 4.957031 13.378906 4.726562 C 13.414062 4.320312 13.453125 3.933594 13.382812 3.515625 L 13.277344 3.148438 C 12.996094 2.339844 12.453125 2.046875 11.496094 2.117188 C 10.980469 2.15625 10.5 2.441406 10.195312 2.683594 C 9.84375 2.960938 9.546875 3.460938 9.546875 3.925781 Z M 9.546875 3.925781 "/>
<path style=" stroke:none;fill-rule:evenodd;fill:rgb(25.882353%,25.882353%,25.882353%);fill-opacity:1;" d="M 17.949219 4.988281 C 17.949219 5.148438 18 5.273438 18.097656 5.378906 C 18.179688 5.464844 18.28125 5.507812 18.398438 5.554688 C 19.589844 6.027344 19.1875 6.011719 19.492188 6.40625 L 19.992188 6.875 C 20.253906 6.976562 21.03125 6.480469 21.3125 6.21875 C 21.675781 5.882812 21.863281 5.320312 21.777344 4.851562 C 21.703125 4.441406 21.460938 4.042969 21.144531 3.78125 L 20.828125 3.535156 C 20.722656 3.46875 20.644531 3.414062 20.539062 3.355469 L 19.785156 3.148438 C 19.054688 3.050781 18.363281 3.761719 18.144531 4.3125 C 18.089844 4.449219 17.949219 4.878906 17.949219 4.988281 Z M 17.949219 4.988281 "/>
<path style=" stroke:none;fill-rule:evenodd;fill:rgb(25.882353%,25.882353%,25.882353%);fill-opacity:1;" d="M 16.113281 10.828125 L 16.304688 11.097656 C 16.425781 11.300781 16.5625 11.664062 16.640625 11.878906 C 16.875 12.511719 17.140625 13.0625 17.957031 12.980469 C 18.207031 12.957031 18.339844 12.820312 18.464844 12.695312 C 18.640625 12.519531 18.691406 12.476562 18.804688 12.238281 L 18.867188 12.09375 C 19.179688 11.238281 18.753906 9.828125 17.875 9.503906 C 16.898438 9.140625 16.339844 10.058594 16.113281 10.828125 Z M 16.113281 10.828125 "/>
<path style=" stroke:none;fill-rule:evenodd;fill:rgb(25.882353%,25.882353%,25.882353%);fill-opacity:1;" d="M 10.867188 10.800781 C 10.867188 11.246094 10.996094 11.628906 11.300781 11.9375 C 11.34375 11.984375 11.449219 12.058594 11.5 12.09375 C 11.539062 12.121094 11.570312 12.136719 11.617188 12.152344 C 11.964844 12.261719 12.351562 12.132812 12.601562 11.933594 C 12.835938 11.746094 12.964844 11.554688 13.117188 11.296875 L 13.265625 11.0625 C 13.457031 10.800781 13.558594 10.726562 13.804688 10.480469 C 13.777344 10.246094 13.757812 9.925781 13.6875 9.730469 C 13.660156 9.65625 13.667969 9.691406 13.640625 9.597656 C 13.585938 9.394531 13.355469 9.019531 13.222656 8.957031 C 13.121094 8.910156 12.714844 8.796875 12.589844 8.796875 C 12.523438 8.796875 12.292969 8.859375 12.234375 8.882812 C 11.519531 9.128906 10.867188 10.078125 10.867188 10.800781 Z M 10.867188 10.800781 "/>
<path style=" stroke:none;fill-rule:evenodd;fill:rgb(25.882353%,25.882353%,25.882353%);fill-opacity:1;" d="M 14.242188 14.722656 C 14.734375 14.75 14.390625 14.570312 15.085938 14.386719 C 15.226562 14.347656 15.347656 14.328125 15.496094 14.289062 C 15.5625 14.246094 15.710938 14.035156 15.710938 13.957031 C 15.710938 13.496094 14.8125 13.433594 14.417969 13.386719 C 14.058594 13.339844 13.511719 13.238281 13.289062 13.535156 C 12.953125 13.984375 13.707031 14.140625 13.921875 14.273438 C 14.027344 14.34375 14.171875 14.625 14.242188 14.722656 Z M 14.242188 14.722656 "/>
<path style=" stroke:none;fill-rule:evenodd;fill:rgb(25.882353%,25.882353%,25.882353%);fill-opacity:1;" d="M 14.359375 16.222656 C 14.609375 16.222656 15.058594 16.007812 15.308594 15.914062 C 15.296875 15.5625 15.019531 15.738281 14.34375 15.632812 L 13.601562 15.472656 C 12.953125 15.296875 13.410156 15.832031 13.660156 16.015625 C 13.800781 16.117188 14.140625 16.222656 14.359375 16.222656 Z M 14.359375 16.222656 "/>
</g>
</svg>
