<?xml version="1.0" encoding="UTF-8"?>
<svg xmlns="http://www.w3.org/2000/svg" xmlns:xlink="http://www.w3.org/1999/xlink" width="25px" height="25px" viewBox="0 0 25 25" version="1.1">
<g id="surface1">
<path style=" stroke:none;fill-rule:nonzero;fill:rgb(49.019608%,52.941176%,57.254902%);fill-opacity:1;" d="M 4.453125 0.386719 L 20.527344 0.386719 C 20.835938 0.386719 21.070312 0.640625 21.070312 0.933594 L 21.070312 24.050781 C 21.070312 24.359375 20.816406 24.59375 20.527344 24.59375 L 4.453125 24.59375 C 4.144531 24.59375 3.910156 24.339844 3.910156 24.050781 L 3.910156 0.933594 C 3.910156 0.640625 4.164062 0.386719 4.453125 0.386719 Z M 4.453125 0.386719 "/>
<path style=" stroke:none;fill-rule:nonzero;fill:rgb(0%,0%,0%);fill-opacity:1;" d="M 20.546875 25 L 4.453125 25 C 3.929688 25 3.523438 24.574219 3.523438 24.066406 L 3.523438 0.933594 C 3.523438 0.425781 3.949219 0 4.453125 0 L 20.527344 0 C 21.050781 0 21.457031 0.425781 21.457031 0.933594 L 21.457031 24.050781 C 21.476562 24.574219 21.050781 25 20.546875 25 Z M 4.453125 0.777344 C 4.375 0.777344 4.300781 0.855469 4.300781 0.933594 L 4.300781 24.050781 C 4.300781 24.144531 4.375 24.203125 4.453125 24.203125 L 20.527344 24.203125 C 20.625 24.203125 20.679688 24.125 20.679688 24.050781 L 20.679688 0.933594 C 20.679688 0.835938 20.605469 0.777344 20.527344 0.777344 Z M 4.453125 0.777344 "/>
<path style=" stroke:none;fill-rule:nonzero;fill:rgb(74.901961%,92.156863%,100%);fill-opacity:1;" d="M 6.203125 2.71875 L 18.722656 2.71875 L 18.722656 7.472656 L 6.203125 7.472656 Z M 6.203125 2.71875 "/>
<path style=" stroke:none;fill-rule:nonzero;fill:rgb(0%,0%,0%);fill-opacity:1;" d="M 19.109375 7.859375 L 5.8125 7.859375 L 5.8125 2.328125 L 19.109375 2.328125 Z M 6.589844 7.085938 L 18.332031 7.085938 L 18.332031 3.105469 L 6.589844 3.105469 Z M 6.589844 7.085938 "/>
<path style=" stroke:none;fill-rule:nonzero;fill:rgb(74.509804%,78.823529%,83.137255%);fill-opacity:1;" d="M 6.746094 9.800781 L 11.304688 9.800781 C 11.617188 9.800781 11.851562 10.054688 11.851562 10.34375 L 11.851562 14.65625 C 11.851562 14.964844 11.597656 15.199219 11.304688 15.199219 L 6.746094 15.199219 C 6.433594 15.199219 6.203125 14.945312 6.203125 14.65625 L 6.203125 10.34375 C 6.203125 10.054688 6.433594 9.800781 6.746094 9.800781 Z M 6.746094 9.800781 "/>
<path style=" stroke:none;fill-rule:nonzero;fill:rgb(0%,0%,0%);fill-opacity:1;" d="M 11.304688 15.585938 L 6.746094 15.585938 C 6.222656 15.585938 5.8125 15.160156 5.8125 14.65625 L 5.8125 10.34375 C 5.8125 9.820312 6.242188 9.414062 6.746094 9.414062 L 11.304688 9.414062 C 11.832031 9.414062 12.238281 9.839844 12.238281 10.34375 L 12.238281 14.65625 C 12.238281 15.179688 11.832031 15.585938 11.304688 15.585938 Z M 6.746094 10.191406 C 6.648438 10.191406 6.589844 10.269531 6.589844 10.34375 L 6.589844 14.65625 C 6.589844 14.75 6.667969 14.808594 6.746094 14.808594 L 11.304688 14.808594 C 11.402344 14.808594 11.460938 14.730469 11.460938 14.65625 L 11.460938 10.34375 C 11.460938 10.25 11.382812 10.191406 11.304688 10.191406 Z M 6.746094 10.191406 "/>
<path style=" stroke:none;fill-rule:nonzero;fill:rgb(74.509804%,78.823529%,83.137255%);fill-opacity:1;" d="M 13.714844 9.800781 L 18.273438 9.800781 C 18.585938 9.800781 18.816406 10.054688 18.816406 10.34375 L 18.816406 14.65625 C 18.816406 14.964844 18.566406 15.199219 18.273438 15.199219 L 13.714844 15.199219 C 13.402344 15.199219 13.167969 14.945312 13.167969 14.65625 L 13.167969 10.34375 C 13.167969 10.054688 13.402344 9.800781 13.714844 9.800781 Z M 13.714844 9.800781 "/>
<path style=" stroke:none;fill-rule:nonzero;fill:rgb(0%,0%,0%);fill-opacity:1;" d="M 18.273438 15.585938 L 13.714844 15.585938 C 13.1875 15.585938 12.78125 15.160156 12.78125 14.65625 L 12.78125 10.34375 C 12.78125 9.820312 13.207031 9.414062 13.714844 9.414062 L 18.273438 9.414062 C 18.796875 9.414062 19.207031 9.839844 19.207031 10.34375 L 19.207031 14.65625 C 19.207031 15.179688 18.796875 15.585938 18.273438 15.585938 Z M 13.714844 10.191406 C 13.617188 10.191406 13.558594 10.269531 13.558594 10.34375 L 13.558594 14.65625 C 13.558594 14.75 13.636719 14.808594 13.714844 14.808594 L 18.273438 14.808594 C 18.371094 14.808594 18.429688 14.730469 18.429688 14.65625 L 18.429688 10.34375 C 18.429688 10.25 18.351562 10.191406 18.273438 10.191406 Z M 13.714844 10.191406 "/>
<path style=" stroke:none;fill-rule:nonzero;fill:rgb(74.509804%,78.823529%,83.137255%);fill-opacity:1;" d="M 13.714844 16.75 L 18.273438 16.75 C 18.585938 16.75 18.816406 17.003906 18.816406 17.292969 L 18.816406 21.601562 C 18.816406 21.914062 18.566406 22.148438 18.273438 22.148438 L 13.714844 22.148438 C 13.402344 22.148438 13.167969 21.894531 13.167969 21.601562 L 13.167969 17.292969 C 13.167969 17.003906 13.402344 16.75 13.714844 16.75 Z M 13.714844 16.75 "/>
<path style=" stroke:none;fill-rule:nonzero;fill:rgb(0%,0%,0%);fill-opacity:1;" d="M 18.273438 22.535156 L 13.714844 22.535156 C 13.1875 22.535156 12.78125 22.109375 12.78125 21.601562 L 12.78125 17.292969 C 12.78125 16.769531 13.207031 16.363281 13.714844 16.363281 L 18.273438 16.363281 C 18.796875 16.363281 19.207031 16.789062 19.207031 17.292969 L 19.207031 21.601562 C 19.207031 22.128906 18.796875 22.535156 18.273438 22.535156 Z M 13.714844 17.140625 C 13.617188 17.140625 13.558594 17.214844 13.558594 17.292969 L 13.558594 21.601562 C 13.558594 21.699219 13.636719 21.757812 13.714844 21.757812 L 18.273438 21.757812 C 18.371094 21.757812 18.429688 21.679688 18.429688 21.601562 L 18.429688 17.292969 C 18.429688 17.195312 18.351562 17.140625 18.273438 17.140625 Z M 13.714844 17.140625 "/>
<path style=" stroke:none;fill-rule:nonzero;fill:rgb(74.509804%,78.823529%,83.137255%);fill-opacity:1;" d="M 6.746094 16.75 L 11.304688 16.75 C 11.617188 16.75 11.851562 17.003906 11.851562 17.292969 L 11.851562 21.601562 C 11.851562 21.914062 11.597656 22.148438 11.304688 22.148438 L 6.746094 22.148438 C 6.433594 22.148438 6.203125 21.894531 6.203125 21.601562 L 6.203125 17.292969 C 6.203125 17.003906 6.433594 16.75 6.746094 16.75 Z M 6.746094 16.75 "/>
<path style=" stroke:none;fill-rule:nonzero;fill:rgb(0%,0%,0%);fill-opacity:1;" d="M 11.304688 22.535156 L 6.746094 22.535156 C 6.222656 22.535156 5.8125 22.109375 5.8125 21.601562 L 5.8125 17.292969 C 5.8125 16.769531 6.242188 16.363281 6.746094 16.363281 L 11.304688 16.363281 C 11.832031 16.363281 12.238281 16.789062 12.238281 17.292969 L 12.238281 21.601562 C 12.238281 22.128906 11.832031 22.535156 11.304688 22.535156 Z M 6.746094 17.140625 C 6.648438 17.140625 6.589844 17.214844 6.589844 17.292969 L 6.589844 21.601562 C 6.589844 21.699219 6.667969 21.757812 6.746094 21.757812 L 11.304688 21.757812 C 11.402344 21.757812 11.460938 21.679688 11.460938 21.601562 L 11.460938 17.292969 C 11.460938 17.195312 11.382812 17.140625 11.304688 17.140625 Z M 9.015625 14.128906 C 8.800781 14.128906 8.628906 13.957031 8.628906 13.742188 L 8.628906 11.257812 C 8.628906 11.042969 8.800781 10.871094 9.015625 10.871094 C 9.230469 10.871094 9.402344 11.042969 9.402344 11.257812 L 9.402344 13.742188 C 9.402344 13.957031 9.230469 14.128906 9.015625 14.128906 Z M 9.015625 14.128906 "/>
<path style=" stroke:none;fill-rule:nonzero;fill:rgb(0%,0%,0%);fill-opacity:1;" d="M 10.21875 12.886719 L 7.851562 12.886719 C 7.636719 12.886719 7.464844 12.714844 7.464844 12.5 C 7.464844 12.285156 7.636719 12.113281 7.851562 12.113281 L 10.238281 12.113281 C 10.453125 12.113281 10.625 12.285156 10.625 12.5 C 10.625 12.714844 10.433594 12.886719 10.21875 12.886719 Z M 10.21875 12.886719 "/>
<path style=" stroke:none;fill-rule:nonzero;fill:rgb(0%,0%,0%);fill-opacity:1;" d="M 9.832031 20.691406 C 9.734375 20.691406 9.636719 20.652344 9.558594 20.574219 L 7.871094 18.886719 C 7.714844 18.730469 7.714844 18.496094 7.871094 18.34375 C 8.027344 18.1875 8.257812 18.1875 8.414062 18.34375 L 10.101562 20.03125 C 10.257812 20.1875 10.257812 20.417969 10.101562 20.574219 C 10.042969 20.652344 9.929688 20.691406 9.832031 20.691406 Z M 9.832031 20.691406 "/>
<path style=" stroke:none;fill-rule:nonzero;fill:rgb(0%,0%,0%);fill-opacity:1;" d="M 8.140625 20.691406 C 8.046875 20.691406 7.949219 20.652344 7.871094 20.574219 C 7.714844 20.417969 7.714844 20.1875 7.871094 20.03125 L 9.558594 18.34375 C 9.714844 18.1875 9.949219 18.1875 10.101562 18.34375 C 10.257812 18.496094 10.257812 18.730469 10.101562 18.886719 L 8.414062 20.574219 C 8.335938 20.652344 8.238281 20.691406 8.140625 20.691406 Z M 8.140625 20.691406 "/>
<path style=" stroke:none;fill-rule:nonzero;fill:rgb(0%,0%,0%);fill-opacity:1;" d="M 17.324219 12.886719 L 14.664062 12.886719 C 14.449219 12.886719 14.277344 12.714844 14.277344 12.5 C 14.277344 12.285156 14.449219 12.113281 14.664062 12.113281 L 17.34375 12.113281 C 17.554688 12.113281 17.730469 12.285156 17.730469 12.5 C 17.730469 12.714844 17.535156 12.886719 17.324219 12.886719 Z M 17.324219 12.886719 "/>
<path style=" stroke:none;fill-rule:nonzero;fill:rgb(0%,0%,0%);fill-opacity:1;" d="M 17.324219 19.175781 L 14.664062 19.175781 C 14.449219 19.175781 14.277344 19.003906 14.277344 18.789062 C 14.277344 18.574219 14.449219 18.402344 14.664062 18.402344 L 17.34375 18.402344 C 17.554688 18.402344 17.730469 18.574219 17.730469 18.789062 C 17.730469 19.003906 17.535156 19.175781 17.324219 19.175781 Z M 17.324219 19.175781 "/>
<path style=" stroke:none;fill-rule:nonzero;fill:rgb(0%,0%,0%);fill-opacity:1;" d="M 17.324219 20.691406 L 14.664062 20.691406 C 14.449219 20.691406 14.277344 20.515625 14.277344 20.304688 C 14.277344 20.089844 14.449219 19.914062 14.664062 19.914062 L 17.34375 19.914062 C 17.554688 19.914062 17.730469 20.089844 17.730469 20.304688 C 17.730469 20.515625 17.535156 20.691406 17.324219 20.691406 Z M 17.324219 20.691406 "/>
</g>
</svg>
