<?xml version="1.0" encoding="UTF-8"?>
<svg xmlns="http://www.w3.org/2000/svg" xmlns:xlink="http://www.w3.org/1999/xlink" width="25px" height="25px" viewBox="0 0 25 25" version="1.1">
<g id="surface1">
<path style=" stroke:none;fill-rule:nonzero;fill:rgb(91.764706%,35.294118%,27.843137%);fill-opacity:1;" d="M 13.355469 5.105469 L 13.5 6.191406 L 13.636719 6.210938 L 14.113281 5.320312 L 14.863281 5.582031 C 14.8125 6.125 14.257812 7.050781 15.234375 7.410156 C 14.59375 7.625 14.257812 7.839844 13.625 7.402344 C 13.261719 7.152344 12.710938 7.433594 12.5 7.523438 C 12.238281 7.632812 11.929688 7.75 11.984375 8.195312 C 12 8.316406 12.117188 8.429688 11.835938 8.789062 C 11.285156 9.414062 10.890625 9.347656 10.195312 10.59375 C 9.347656 9.472656 9.789062 7.148438 11.207031 6.324219 L 11.039062 5.648438 L 11.769531 5.328125 L 12.34375 6.230469 L 12.667969 5.105469 Z M 13.355469 5.105469 "/>
<path style=" stroke:none;fill-rule:nonzero;fill:rgb(82.352941%,18.431373%,15.294118%);fill-opacity:1;" d="M 13.160156 17.820312 C 13.769531 16.519531 14.019531 15.078125 13.875 13.648438 C 13.746094 12.398438 13.8125 12.5 13.949219 11.953125 C 14.9375 12.742188 16.175781 12.605469 17.183594 12.359375 C 17.472656 12.820312 17.566406 13.375 17.445312 13.90625 C 17.140625 15.8125 16.253906 17.582031 14.90625 18.96875 C 13.789062 20.117188 12.671875 20.230469 11.40625 19.257812 C 9.625 17.894531 8.125 16.292969 7.53125 14.03125 C 7.207031 12.800781 8.203125 10.871094 9.390625 10.417969 C 9.667969 10.304688 9.992188 10.375 10.195312 10.59375 C 10.828125 11.195312 11.308594 11.9375 11.597656 12.761719 C 11.816406 13.300781 12.003906 13.859375 12.21875 14.449219 C 11.199219 11.566406 10.753906 11.058594 10.195312 10.59375 C 10.550781 9.742188 11.53125 9.089844 11.835938 8.789062 C 11.957031 8.660156 12.019531 8.488281 12.007812 8.3125 C 11.894531 8.027344 12.035156 7.707031 12.316406 7.59375 C 12.339844 7.585938 12.359375 7.578125 12.382812 7.570312 C 12.855469 7.375 13.304688 7.105469 13.835938 7.542969 C 14.113281 7.679688 14.433594 7.695312 14.71875 7.585938 C 15.480469 7.339844 16.21875 7.023438 16.871094 6.773438 L 17.742188 8.539062 C 17.210938 8.90625 16.554688 9.332031 15.933594 9.804688 C 15.445312 10.160156 14.988281 10.558594 14.566406 10.988281 C 13.9375 11.617188 13.664062 12.515625 13.835938 13.386719 C 14.074219 14.820312 13.863281 16.292969 13.234375 17.601562 C 13.203125 17.671875 13.183594 17.746094 13.160156 17.820312 Z M 13.160156 17.820312 "/>
<path style=" stroke:none;fill-rule:nonzero;fill:rgb(91.764706%,35.294118%,27.843137%);fill-opacity:1;" d="M 10.195312 10.59375 C 9.15625 9.699219 7.953125 11.648438 7.625 12.59375 C 7.28125 12.007812 7.175781 11.3125 7.316406 10.648438 C 7.695312 9.265625 8.101562 7.890625 8.480469 6.5625 L 10.867188 6.5625 C 10.636719 6.761719 10.441406 6.996094 10.285156 7.253906 C 9.78125 8.085938 9.644531 9.09375 9.90625 10.03125 C 9.980469 10.230469 10.078125 10.417969 10.195312 10.59375 Z M 10.195312 10.59375 "/>
<path style=" stroke:none;fill-rule:nonzero;fill:rgb(91.764706%,35.294118%,27.843137%);fill-opacity:1;" d="M 15.933594 9.804688 C 16.4375 10.3125 16.726562 10.996094 16.734375 11.710938 C 16.734375 11.855469 16.773438 12.453125 16.648438 12.472656 C 15.992188 12.609375 15.308594 12.570312 14.671875 12.363281 C 13.84375 12.058594 13.945312 11.742188 14.3125 11.289062 C 14.792969 10.730469 15.335938 10.234375 15.933594 9.804688 Z M 15.933594 9.804688 "/>
<path style="fill:none;stroke-width:2;stroke-linecap:round;stroke-linejoin:round;stroke:rgb(0%,0%,0%);stroke-opacity:1;stroke-miterlimit:4;" d="M 38.46375 14.70375 L 38.88 17.83125 L 39.27375 17.8875 L 40.64625 15.3225 L 42.80625 16.07625 C 42.66 17.64 41.0625 20.30625 43.875 21.34125 C 42.03 21.96 41.0625 22.57875 39.24 21.31875 C 38.19375 20.59875 36.6075 21.40875 36 21.6675 C 35.24625 21.9825 34.3575 22.32 34.515 23.6025 C 34.56 23.95125 34.8975 24.2775 34.0875 25.3125 C 32.50125 27.1125 31.365 26.92125 29.3625 30.51 C 26.92125 27.28125 28.1925 20.5875 32.27625 18.21375 L 31.7925 16.2675 L 33.89625 15.345 L 35.55 17.94375 L 36.48375 14.70375 Z M 38.46375 14.70375 " transform="matrix(0.347222,0,0,0.347222,0,0)"/>
<path style="fill:none;stroke-width:2;stroke-linecap:round;stroke-linejoin:round;stroke:rgb(0%,0%,0%);stroke-opacity:1;stroke-miterlimit:4;" d="M 37.90125 51.3225 C 39.65625 47.57625 40.37625 43.425 39.96 39.3075 C 39.58875 35.7075 39.78 36 40.17375 34.425 C 43.02 36.6975 46.58625 36.30375 49.48875 35.595 C 50.32125 36.9225 50.59125 38.52 50.2425 40.05 C 49.365 45.54 46.81125 50.63625 42.93 54.63 C 39.7125 57.9375 36.495 58.26375 32.85 55.4625 C 27.72 51.53625 23.4 46.92375 21.69 40.41 C 20.75625 36.86625 23.625 31.30875 27.045 30.00375 C 27.84375 29.6775 28.7775 29.88 29.3625 30.51 C 31.185 32.2425 32.56875 34.38 33.40125 36.75375 C 34.03125 38.30625 34.57125 39.915 35.19 41.61375 C 32.25375 33.31125 30.97125 31.84875 29.3625 30.51 C 30.38625 28.0575 33.21 26.17875 34.0875 25.3125 C 34.43625 24.94125 34.61625 24.44625 34.5825 23.94 C 34.25625 23.11875 34.66125 22.19625 35.47125 21.87 C 35.53875 21.8475 35.595 21.825 35.6625 21.8025 C 37.02375 21.24 38.3175 20.46375 39.8475 21.72375 C 40.64625 22.1175 41.56875 22.1625 42.39 21.8475 C 44.58375 21.13875 46.71 20.2275 48.58875 19.5075 L 51.0975 24.5925 C 49.5675 25.65 47.6775 26.87625 45.88875 28.2375 C 44.4825 29.26125 43.16625 30.40875 41.95125 31.64625 C 40.14 33.4575 39.3525 36.045 39.8475 38.55375 C 40.53375 42.6825 39.92625 46.92375 38.115 50.6925 C 38.025 50.895 37.96875 51.10875 37.90125 51.3225 Z M 37.90125 51.3225 " transform="matrix(0.347222,0,0,0.347222,0,0)"/>
<path style="fill:none;stroke-width:2;stroke-linecap:round;stroke-linejoin:round;stroke:rgb(0%,0%,0%);stroke-opacity:1;stroke-miterlimit:4;" d="M 29.3625 30.51 C 26.37 27.93375 22.905 33.5475 21.96 36.27 C 20.97 34.5825 20.66625 32.58 21.07125 30.6675 C 22.1625 26.685 23.3325 22.725 24.42375 18.9 L 31.2975 18.9 C 30.63375 19.47375 30.07125 20.14875 29.62125 20.89125 C 28.17 23.2875 27.77625 26.19 28.53 28.89 C 28.74375 29.46375 29.025 30.00375 29.3625 30.51 Z M 29.3625 30.51 " transform="matrix(0.347222,0,0,0.347222,0,0)"/>
<path style="fill:none;stroke-width:2;stroke-linecap:round;stroke-linejoin:round;stroke:rgb(0%,0%,0%);stroke-opacity:1;stroke-miterlimit:4;" d="M 45.88875 28.2375 C 47.34 29.7 48.1725 31.66875 48.195 33.7275 C 48.195 34.14375 48.3075 35.865 47.9475 35.92125 C 46.0575 36.315 44.08875 36.2025 42.255 35.60625 C 39.87 34.72875 40.1625 33.8175 41.22 32.5125 C 42.60375 30.90375 44.1675 29.475 45.88875 28.2375 Z M 45.88875 28.2375 " transform="matrix(0.347222,0,0,0.347222,0,0)"/>
</g>
</svg>
