<?xml version="1.0" encoding="UTF-8"?>
<svg xmlns="http://www.w3.org/2000/svg" xmlns:xlink="http://www.w3.org/1999/xlink" width="25px" height="25px" viewBox="0 0 25 25" version="1.1">
<g id="surface1">
<path style=" stroke:none;fill-rule:nonzero;fill:rgb(29.019608%,50.196078%,80.784314%);fill-opacity:1;" d="M 19.609375 7.507812 C 19.609375 11.425781 16.433594 14.605469 12.515625 14.605469 C 8.59375 14.605469 5.417969 11.425781 5.417969 7.507812 C 5.417969 3.589844 8.59375 0.410156 12.515625 0.410156 C 16.433594 0.410156 19.609375 3.589844 19.609375 7.507812 Z M 19.609375 7.507812 "/>
<path style=" stroke:none;fill-rule:nonzero;fill:rgb(35.294118%,55.686275%,90.980392%);fill-opacity:1;" d="M 18.457031 7.507812 C 18.457031 10.789062 15.796875 13.449219 12.515625 13.449219 C 9.230469 13.449219 6.570312 10.789062 6.570312 7.507812 C 6.570312 4.226562 9.230469 1.566406 12.515625 1.566406 C 15.796875 1.566406 18.457031 4.226562 18.457031 7.507812 Z M 18.457031 7.507812 "/>
<path style=" stroke:none;fill-rule:nonzero;fill:rgb(91.764706%,56.470588%,0%);fill-opacity:1;" d="M 22.28125 7.507812 C 22.28125 8.054688 21.835938 8.5 21.289062 8.5 C 20.742188 8.5 20.296875 8.054688 20.296875 7.507812 C 20.296875 6.960938 20.742188 6.515625 21.289062 6.515625 C 21.835938 6.515625 22.28125 6.960938 22.28125 7.507812 Z M 22.28125 7.507812 "/>
<path style=" stroke:none;fill-rule:nonzero;fill:rgb(91.764706%,56.470588%,0%);fill-opacity:1;" d="M 4.730469 7.511719 C 4.730469 8.0625 4.289062 8.503906 3.738281 8.503906 C 3.191406 8.503906 2.746094 8.0625 2.746094 7.511719 C 2.746094 6.964844 3.191406 6.519531 3.738281 6.519531 C 4.289062 6.519531 4.730469 6.964844 4.730469 7.511719 Z M 4.730469 7.511719 "/>
<path style=" stroke:none;fill-rule:nonzero;fill:rgb(49.411765%,71.372549%,95.294118%);fill-opacity:1;" d="M 11.835938 13.410156 L 17.683594 4.574219 C 17.375 4.035156 16.984375 3.546875 16.527344 3.128906 L 10.050781 12.914062 C 10.605469 13.167969 11.207031 13.339844 11.835938 13.410156 Z M 11.835938 13.410156 "/>
<path style=" stroke:none;fill-rule:nonzero;fill:rgb(49.411765%,71.372549%,95.294118%);fill-opacity:1;" d="M 12.515625 13.449219 C 12.875 13.449219 13.230469 13.417969 13.578125 13.355469 L 18.34375 6.355469 C 18.269531 5.976562 18.160156 5.613281 18.015625 5.265625 L 12.445312 13.449219 C 12.46875 13.449219 12.492188 13.449219 12.515625 13.449219 Z M 12.515625 13.449219 "/>
<path style=" stroke:none;fill-rule:nonzero;fill:rgb(0%,0%,0%);fill-opacity:1;" d="M 12.492188 2.605469 C 12.726562 2.605469 12.914062 2.417969 12.914062 2.183594 C 12.914062 1.953125 12.726562 1.765625 12.492188 1.765625 C 9.324219 1.765625 6.742188 4.34375 6.742188 7.515625 C 6.742188 7.75 6.929688 7.9375 7.164062 7.9375 C 7.394531 7.9375 7.582031 7.75 7.582031 7.515625 C 7.582031 4.808594 9.785156 2.605469 12.492188 2.605469 Z M 12.492188 2.605469 "/>
<path style=" stroke:none;fill-rule:nonzero;fill:rgb(0%,0%,0%);fill-opacity:1;" d="M 22.570312 6.96875 C 22.265625 6.25 21.4375 5.914062 20.71875 6.214844 C 20.382812 6.355469 20.128906 6.613281 19.988281 6.921875 C 19.683594 3.054688 16.4375 0 12.492188 0 C 8.558594 0 5.316406 3.042969 5.003906 6.898438 C 4.675781 6.230469 3.878906 5.921875 3.183594 6.214844 C 2.464844 6.519531 2.128906 7.347656 2.429688 8.066406 C 2.578125 8.414062 2.851562 8.683594 3.199219 8.824219 C 3.265625 8.851562 3.332031 8.875 3.402344 8.890625 C 4.050781 13.234375 7.6875 16.503906 12.074219 16.703125 L 12.074219 24.160156 L 8.828125 24.160156 C 8.59375 24.160156 8.40625 24.347656 8.40625 24.578125 C 8.40625 24.8125 8.59375 25 8.828125 25 L 16.175781 25 C 16.40625 25 16.59375 24.8125 16.59375 24.578125 C 16.59375 24.347656 16.40625 24.160156 16.175781 24.160156 L 12.914062 24.160156 L 12.914062 16.703125 C 17.300781 16.503906 20.933594 13.234375 21.585938 8.894531 C 21.664062 8.875 21.742188 8.851562 21.816406 8.816406 C 22.535156 8.515625 22.871094 7.683594 22.570312 6.96875 Z M 12.492188 0.839844 C 16.175781 0.839844 19.171875 3.835938 19.171875 7.515625 C 19.171875 11.199219 16.175781 14.191406 12.492188 14.191406 C 8.8125 14.191406 5.816406 11.199219 5.816406 7.515625 C 5.816406 3.835938 8.8125 0.839844 12.492188 0.839844 Z M 3.203125 7.738281 C 3.144531 7.597656 3.144531 7.441406 3.203125 7.300781 C 3.257812 7.160156 3.367188 7.050781 3.507812 6.988281 C 3.582031 6.957031 3.65625 6.945312 3.730469 6.945312 C 3.953125 6.945312 4.167969 7.074219 4.257812 7.292969 C 4.382812 7.585938 4.246094 7.921875 3.953125 8.042969 C 3.664062 8.167969 3.328125 8.03125 3.203125 7.738281 Z M 12.492188 15.871094 C 8.363281 15.871094 4.878906 12.871094 4.242188 8.832031 C 4.257812 8.828125 4.269531 8.824219 4.28125 8.816406 C 4.609375 8.679688 4.859375 8.429688 5.003906 8.132812 C 5.316406 11.988281 8.554688 15.035156 12.492188 15.035156 C 16.4375 15.035156 19.683594 11.976562 19.988281 8.109375 C 20.136719 8.433594 20.402344 8.6875 20.734375 8.824219 C 20.738281 8.828125 20.742188 8.828125 20.746094 8.828125 C 20.109375 12.867188 16.625 15.871094 12.492188 15.871094 Z M 21.492188 8.042969 C 21.199219 8.167969 20.863281 8.03125 20.742188 7.738281 C 20.617188 7.449219 20.753906 7.113281 21.046875 6.988281 C 21.335938 6.867188 21.671875 7.003906 21.796875 7.292969 C 21.917969 7.585938 21.78125 7.921875 21.492188 8.042969 Z M 21.492188 8.042969 "/>
</g>
</svg>
