<?xml version="1.0" encoding="UTF-8"?>
<svg xmlns="http://www.w3.org/2000/svg" xmlns:xlink="http://www.w3.org/1999/xlink" width="25px" height="25px" viewBox="0 0 25 25" version="1.1">
<g id="surface1">
<path style=" stroke:none;fill-rule:nonzero;fill:rgb(91.764706%,72.54902%,19.607843%);fill-opacity:1;" d="M 10.058594 0.886719 C 11.636719 0.886719 12.914062 2.167969 12.914062 3.746094 C 12.914062 5.324219 11.636719 6.601562 10.058594 6.601562 C 10.042969 6.601562 10.027344 6.601562 10.011719 6.601562 L 7.242188 3.238281 C 7.484375 1.902344 8.652344 0.886719 10.058594 0.886719 Z M 10.058594 0.886719 "/>
<path style=" stroke:none;fill-rule:nonzero;fill:rgb(100%,81.568627%,22.352941%);fill-opacity:1;" d="M 12.914062 3.746094 C 12.914062 5.324219 11.636719 6.601562 10.058594 6.601562 C 9.804688 6.601562 9.554688 6.570312 9.320312 6.507812 C 8.855469 6.058594 8.5625 5.425781 8.5625 4.726562 C 8.5625 3.359375 9.671875 2.25 11.039062 2.25 C 11.738281 2.25 12.371094 2.542969 12.820312 3.007812 C 12.882812 3.242188 12.914062 3.492188 12.914062 3.746094 Z M 12.914062 3.746094 "/>
<path style=" stroke:none;fill-rule:nonzero;fill:rgb(80%,80%,80%);fill-opacity:1;" d="M 19.226562 1.75 L 19.910156 1.75 L 19.910156 3.226562 L 19.226562 3.226562 Z M 19.226562 1.75 "/>
<path style=" stroke:none;fill-rule:nonzero;fill:rgb(90.196078%,90.196078%,90.196078%);fill-opacity:1;" d="M 18.757812 2.773438 L 20.378906 2.773438 L 20.378906 4.621094 L 18.757812 4.621094 Z M 18.757812 2.773438 "/>
<path style=" stroke:none;fill-rule:nonzero;fill:rgb(80%,80%,80%);fill-opacity:1;" d="M 21.445312 4.222656 L 21.445312 7.722656 L 17.691406 7.722656 L 17.691406 4.222656 Z M 21.445312 4.222656 "/>
<path style=" stroke:none;fill-rule:nonzero;fill:rgb(90.196078%,90.196078%,90.196078%);fill-opacity:1;" d="M 22.382812 7.210938 L 22.382812 22.949219 L 20.507812 22.949219 L 16.75 18.796875 L 16.75 7.210938 Z M 22.382812 7.210938 "/>
<path style=" stroke:none;fill-rule:nonzero;fill:rgb(30.196078%,30.196078%,30.196078%);fill-opacity:1;" d="M 19.265625 8.203125 L 19.871094 8.203125 L 19.871094 21.800781 L 19.265625 21.800781 Z M 19.265625 8.203125 "/>
<path style=" stroke:none;fill-rule:nonzero;fill:rgb(30.196078%,30.196078%,30.196078%);fill-opacity:1;" d="M 20.660156 8.203125 L 21.261719 8.203125 L 21.261719 21.800781 L 20.660156 21.800781 Z M 20.660156 8.203125 "/>
<path style=" stroke:none;fill-rule:nonzero;fill:rgb(30.196078%,30.196078%,30.196078%);fill-opacity:1;" d="M 17.871094 8.203125 L 18.476562 8.203125 L 18.476562 21.800781 L 17.871094 21.800781 Z M 17.871094 8.203125 "/>
<path style=" stroke:none;fill-rule:nonzero;fill:rgb(30.196078%,30.196078%,30.196078%);fill-opacity:1;" d="M 18.515625 5.023438 L 19.367188 5.023438 L 19.367188 6.40625 L 18.515625 6.40625 Z M 18.515625 5.023438 "/>
<path style=" stroke:none;fill-rule:nonzero;fill:rgb(30.196078%,30.196078%,30.196078%);fill-opacity:1;" d="M 19.765625 5.023438 L 20.621094 5.023438 L 20.621094 6.40625 L 19.765625 6.40625 Z M 19.765625 5.023438 "/>
<path style=" stroke:none;fill-rule:nonzero;fill:rgb(73.72549%,63.529412%,63.529412%);fill-opacity:1;" d="M 2.617188 10.980469 L 6.199219 10.980469 L 6.199219 22.949219 L 2.617188 22.949219 Z M 2.617188 10.980469 "/>
<path style=" stroke:none;fill-rule:nonzero;fill:rgb(90.196078%,90.196078%,90.196078%);fill-opacity:1;" d="M 10.011719 6.601562 L 10.011719 22.949219 L 5.574219 22.949219 L 5.574219 3.238281 L 10.011719 3.238281 Z M 10.011719 6.601562 "/>
<path style=" stroke:none;fill-rule:nonzero;fill:rgb(30.196078%,30.196078%,30.196078%);fill-opacity:1;" d="M 6.226562 3.96875 L 6.871094 3.96875 L 6.871094 22.214844 L 6.226562 22.214844 Z M 6.226562 3.96875 "/>
<path style=" stroke:none;fill-rule:nonzero;fill:rgb(30.196078%,30.196078%,30.196078%);fill-opacity:1;" d="M 7.46875 3.96875 L 8.113281 3.96875 L 8.113281 22.214844 L 7.46875 22.214844 Z M 7.46875 3.96875 "/>
<path style=" stroke:none;fill-rule:nonzero;fill:rgb(30.196078%,30.196078%,30.196078%);fill-opacity:1;" d="M 8.714844 3.96875 L 9.355469 3.96875 L 9.355469 22.214844 L 8.714844 22.214844 Z M 8.714844 3.96875 "/>
<path style=" stroke:none;fill-rule:nonzero;fill:rgb(30.196078%,30.196078%,30.196078%);fill-opacity:1;" d="M 4.574219 12.839844 C 4.574219 13.078125 4.382812 13.265625 4.144531 13.265625 L 2.617188 13.265625 L 2.617188 12.414062 L 4.144531 12.414062 C 4.382812 12.414062 4.574219 12.605469 4.574219 12.839844 Z M 4.574219 12.839844 "/>
<path style=" stroke:none;fill-rule:nonzero;fill:rgb(30.196078%,30.196078%,30.196078%);fill-opacity:1;" d="M 4.574219 20.863281 C 4.574219 21.097656 4.382812 21.289062 4.144531 21.289062 L 2.617188 21.289062 L 2.617188 20.433594 L 4.144531 20.433594 C 4.382812 20.433594 4.574219 20.625 4.574219 20.863281 Z M 4.574219 20.863281 "/>
<path style=" stroke:none;fill-rule:nonzero;fill:rgb(30.196078%,30.196078%,30.196078%);fill-opacity:1;" d="M 4.574219 19.257812 C 4.574219 19.492188 4.382812 19.683594 4.144531 19.683594 L 2.617188 19.683594 L 2.617188 18.832031 L 4.144531 18.832031 C 4.382812 18.832031 4.574219 19.023438 4.574219 19.257812 Z M 4.574219 19.257812 "/>
<path style=" stroke:none;fill-rule:nonzero;fill:rgb(30.196078%,30.196078%,30.196078%);fill-opacity:1;" d="M 4.574219 14.445312 C 4.574219 14.679688 4.382812 14.871094 4.144531 14.871094 L 2.617188 14.871094 L 2.617188 14.019531 L 4.144531 14.019531 C 4.382812 14.019531 4.574219 14.210938 4.574219 14.445312 Z M 4.574219 14.445312 "/>
<path style=" stroke:none;fill-rule:nonzero;fill:rgb(30.196078%,30.196078%,30.196078%);fill-opacity:1;" d="M 4.574219 17.652344 C 4.574219 17.890625 4.382812 18.078125 4.144531 18.078125 L 2.617188 18.078125 L 2.617188 17.226562 L 4.144531 17.226562 C 4.382812 17.226562 4.574219 17.417969 4.574219 17.652344 Z M 4.574219 17.652344 "/>
<path style=" stroke:none;fill-rule:nonzero;fill:rgb(30.196078%,30.196078%,30.196078%);fill-opacity:1;" d="M 4.574219 16.050781 C 4.574219 16.285156 4.382812 16.476562 4.144531 16.476562 L 2.617188 16.476562 L 2.617188 15.621094 L 4.144531 15.621094 C 4.382812 15.621094 4.574219 15.8125 4.574219 16.050781 Z M 4.574219 16.050781 "/>
<path style=" stroke:none;fill-rule:nonzero;fill:rgb(80%,80%,80%);fill-opacity:1;" d="M 12.96875 18.792969 L 12.96875 18.796875 L 12.441406 22.949219 L 8.53125 22.949219 L 8.53125 9.390625 L 12.96875 9.390625 Z M 12.96875 18.792969 "/>
<path style=" stroke:none;fill-rule:nonzero;fill:rgb(30.196078%,30.196078%,30.196078%);fill-opacity:1;" d="M 10.449219 10.480469 L 11.050781 10.480469 L 11.050781 21.6875 L 10.449219 21.6875 Z M 10.449219 10.480469 "/>
<path style=" stroke:none;fill-rule:nonzero;fill:rgb(30.196078%,30.196078%,30.196078%);fill-opacity:1;" d="M 11.84375 10.480469 L 12.445312 10.480469 L 12.445312 21.6875 L 11.84375 21.6875 Z M 11.84375 10.480469 "/>
<path style=" stroke:none;fill-rule:nonzero;fill:rgb(30.196078%,30.196078%,30.196078%);fill-opacity:1;" d="M 9.054688 10.480469 L 9.660156 10.480469 L 9.660156 21.6875 L 9.054688 21.6875 Z M 9.054688 10.480469 "/>
<path style=" stroke:none;fill-rule:nonzero;fill:rgb(73.72549%,63.529412%,63.529412%);fill-opacity:1;" d="M 20.507812 18.796875 L 20.507812 22.949219 L 11.488281 22.949219 L 11.488281 18.796875 Z M 20.507812 18.796875 "/>
<path style=" stroke:none;fill-rule:nonzero;fill:rgb(30.196078%,30.196078%,30.196078%);fill-opacity:1;" d="M 12.441406 19.457031 L 19.554688 19.457031 L 19.554688 19.972656 L 12.441406 19.972656 Z M 12.441406 19.457031 "/>
<path style=" stroke:none;fill-rule:nonzero;fill:rgb(30.196078%,30.196078%,30.196078%);fill-opacity:1;" d="M 12.441406 20.5 L 19.554688 20.5 L 19.554688 21.015625 L 12.441406 21.015625 Z M 12.441406 20.5 "/>
<path style=" stroke:none;fill-rule:nonzero;fill:rgb(30.196078%,30.196078%,30.196078%);fill-opacity:1;" d="M 12.441406 21.542969 L 19.554688 21.542969 L 19.554688 22.054688 L 12.441406 22.054688 Z M 12.441406 21.542969 "/>
<path style=" stroke:none;fill-rule:nonzero;fill:rgb(70.196078%,70.196078%,70.196078%);fill-opacity:1;" d="M 25 24.113281 L 0 24.113281 C 0 23.847656 0.0703125 23.59375 0.199219 23.378906 C 0.449219 22.949219 0.917969 22.664062 1.449219 22.664062 L 23.550781 22.664062 C 23.949219 22.664062 24.3125 22.824219 24.574219 23.089844 C 24.660156 23.175781 24.738281 23.273438 24.800781 23.378906 C 24.925781 23.59375 25 23.847656 25 24.113281 Z M 25 24.113281 "/>
<path style=" stroke:none;fill-rule:nonzero;fill:rgb(60%,60%,60%);fill-opacity:1;" d="M 25 24.113281 L 0 24.113281 C 0 23.847656 0.0703125 23.59375 0.199219 23.378906 L 24.800781 23.378906 C 24.925781 23.59375 25 23.847656 25 24.113281 Z M 25 24.113281 "/>
</g>
</svg>
