<?xml version="1.0" encoding="UTF-8"?>
<svg xmlns="http://www.w3.org/2000/svg" xmlns:xlink="http://www.w3.org/1999/xlink" width="25px" height="25px" viewBox="0 0 25 25" version="1.1">
<g id="surface1">
<path style=" stroke:none;fill-rule:nonzero;fill:rgb(17.254902%,76.862745%,99.607843%);fill-opacity:1;" d="M 10.9375 16.699219 L 14.257812 16.699219 L 14.257812 21.070312 L 10.9375 21.070312 Z M 10.9375 16.699219 "/>
<path style=" stroke:none;fill-rule:nonzero;fill:rgb(31.764706%,31.764706%,31.764706%);fill-opacity:1;" d="M 14.355469 21.167969 L 10.839844 21.167969 L 10.839844 16.601562 L 14.355469 16.601562 Z M 11.035156 20.972656 L 14.160156 20.972656 L 14.160156 16.796875 L 11.035156 16.796875 Z M 11.035156 20.972656 "/>
<path style=" stroke:none;fill-rule:nonzero;fill:rgb(17.254902%,76.862745%,99.607843%);fill-opacity:1;" d="M 21.3125 17.042969 L 3.636719 17.042969 C 3.367188 17.042969 3.148438 16.824219 3.148438 16.554688 L 3.148438 5.03125 C 3.148438 4.761719 3.367188 4.542969 3.636719 4.542969 L 21.3125 4.542969 C 21.582031 4.542969 21.800781 4.761719 21.800781 5.03125 L 21.800781 16.554688 C 21.800781 16.824219 21.582031 17.042969 21.3125 17.042969 Z M 21.3125 17.042969 "/>
<path style=" stroke:none;fill-rule:nonzero;fill:rgb(31.764706%,31.764706%,31.764706%);fill-opacity:1;" d="M 21.3125 17.140625 L 3.636719 17.140625 C 3.3125 17.140625 3.050781 16.878906 3.050781 16.554688 L 3.050781 5.03125 C 3.050781 4.707031 3.3125 4.445312 3.636719 4.445312 L 21.3125 4.445312 C 21.636719 4.445312 21.898438 4.707031 21.898438 5.03125 L 21.898438 16.554688 C 21.898438 16.878906 21.636719 17.140625 21.3125 17.140625 Z M 3.636719 4.640625 C 3.421875 4.640625 3.246094 4.816406 3.246094 5.03125 L 3.246094 16.554688 C 3.246094 16.769531 3.421875 16.945312 3.636719 16.945312 L 21.3125 16.945312 C 21.527344 16.945312 21.703125 16.769531 21.703125 16.554688 L 21.703125 5.03125 C 21.703125 4.816406 21.527344 4.640625 21.3125 4.640625 Z M 3.636719 4.640625 "/>
<path style=" stroke:none;fill-rule:nonzero;fill:rgb(63.137255%,89.411765%,99.215686%);fill-opacity:1;" d="M 21.703125 15.160156 L 3.246094 15.160156 L 3.246094 5.042969 C 3.246094 4.820312 3.425781 4.640625 3.648438 4.640625 L 21.300781 4.640625 C 21.523438 4.640625 21.703125 4.820312 21.703125 5.042969 Z M 21.703125 15.160156 "/>
<path style=" stroke:none;fill-rule:nonzero;fill:rgb(31.764706%,31.764706%,31.764706%);fill-opacity:1;" d="M 17.261719 21.167969 L 7.910156 21.167969 C 7.855469 21.167969 7.8125 21.125 7.8125 21.070312 C 7.8125 21.015625 7.855469 20.972656 7.910156 20.972656 L 17.261719 20.972656 C 17.316406 20.972656 17.359375 21.015625 17.359375 21.070312 C 17.359375 21.125 17.316406 21.167969 17.261719 21.167969 Z M 17.261719 21.167969 "/>
<path style=" stroke:none;fill-rule:nonzero;fill:rgb(17.254902%,76.862745%,99.607843%);fill-opacity:1;" d="M 4.328125 8.550781 L 6.453125 6.425781 "/>
<path style=" stroke:none;fill-rule:nonzero;fill:rgb(84.313725%,97.647059%,100%);fill-opacity:1;" d="M 4.328125 8.648438 C 4.289062 8.648438 4.253906 8.625 4.238281 8.585938 C 4.222656 8.550781 4.230469 8.507812 4.257812 8.480469 L 6.382812 6.355469 C 6.421875 6.316406 6.480469 6.316406 6.519531 6.355469 C 6.558594 6.394531 6.558594 6.457031 6.519531 6.496094 L 4.394531 8.617188 C 4.378906 8.636719 4.351562 8.648438 4.328125 8.648438 Z M 4.328125 8.648438 "/>
<path style=" stroke:none;fill-rule:nonzero;fill:rgb(17.254902%,76.862745%,99.607843%);fill-opacity:1;" d="M 4.328125 10.269531 L 8.042969 6.554688 "/>
<path style=" stroke:none;fill-rule:nonzero;fill:rgb(84.313725%,97.647059%,100%);fill-opacity:1;" d="M 4.328125 10.367188 C 4.289062 10.367188 4.253906 10.34375 4.238281 10.308594 C 4.222656 10.269531 4.230469 10.230469 4.257812 10.203125 L 7.972656 6.488281 C 8.011719 6.449219 8.070312 6.449219 8.109375 6.488281 C 8.148438 6.527344 8.148438 6.585938 8.109375 6.625 L 4.394531 10.339844 C 4.378906 10.359375 4.351562 10.367188 4.328125 10.367188 Z M 4.328125 10.367188 "/>
</g>
</svg>
