<?xml version="1.0" encoding="UTF-8"?>
<svg xmlns="http://www.w3.org/2000/svg" xmlns:xlink="http://www.w3.org/1999/xlink" width="25px" height="25px" viewBox="0 0 25 25" version="1.1">
<g id="surface1">
<path style=" stroke:none;fill-rule:nonzero;fill:rgb(17.647059%,26.666667%,32.156863%);fill-opacity:1;" d="M 25 12.5 C 25 19.402344 19.402344 25 12.5 25 C 5.597656 25 0 19.402344 0 12.5 C 0 5.597656 5.597656 0 12.5 0 C 19.402344 0 25 5.597656 25 12.5 Z M 25 12.5 "/>
<path style=" stroke:none;fill-rule:nonzero;fill:rgb(13.72549%,20.784314%,25.098039%);fill-opacity:1;" d="M 20.261719 8.203125 L 4.636719 8.203125 L 4.636719 16.992188 L 7.386719 23.90625 C 8.949219 24.605469 10.679688 25 12.5 25 C 17.625 25 22.03125 21.910156 23.957031 17.496094 Z M 20.261719 8.203125 "/>
<path style=" stroke:none;fill-rule:nonzero;fill:rgb(27.058824%,60%,54.509804%);fill-opacity:1;" d="M 20.199219 16.992188 L 4.574219 16.992188 L 4.574219 8.203125 L 20.199219 8.203125 Z M 20.199219 16.992188 "/>
<path style=" stroke:none;fill-rule:nonzero;fill:rgb(72.156863%,90.196078%,87.45098%);fill-opacity:1;" d="M 19.808594 14.648438 L 19.808594 10.546875 C 18.832031 10.546875 17.96875 9.671875 17.96875 8.59375 L 7.226562 8.59375 C 7.226562 9.671875 6.296875 10.546875 5.21875 10.546875 C 5.152344 10.546875 5.160156 10.542969 4.964844 10.535156 L 4.964844 14.660156 C 5.160156 14.652344 5.152344 14.648438 5.21875 14.648438 C 6.296875 14.648438 7.226562 15.523438 7.226562 16.601562 L 17.96875 16.601562 C 17.96875 15.523438 18.832031 14.648438 19.808594 14.648438 Z M 19.808594 14.648438 "/>
<path style=" stroke:none;fill-rule:nonzero;fill:rgb(27.058824%,60%,54.509804%);fill-opacity:1;" d="M 8.59375 12.597656 C 8.59375 13.136719 8.15625 13.574219 7.617188 13.574219 C 7.078125 13.574219 6.640625 13.136719 6.640625 12.597656 C 6.640625 12.058594 7.078125 11.621094 7.617188 11.621094 C 8.15625 11.621094 8.59375 12.058594 8.59375 12.597656 Z M 8.59375 12.597656 "/>
<path style=" stroke:none;fill-rule:nonzero;fill:rgb(27.058824%,60%,54.509804%);fill-opacity:1;" d="M 18.359375 12.597656 C 18.359375 13.136719 17.921875 13.574219 17.382812 13.574219 C 16.84375 13.574219 16.40625 13.136719 16.40625 12.597656 C 16.40625 12.058594 16.84375 11.621094 17.382812 11.621094 C 17.921875 11.621094 18.359375 12.058594 18.359375 12.597656 Z M 18.359375 12.597656 "/>
<path style=" stroke:none;fill-rule:nonzero;fill:rgb(27.058824%,60%,54.509804%);fill-opacity:1;" d="M 15.429688 12.597656 C 15.429688 14.214844 14.117188 15.527344 12.5 15.527344 C 10.882812 15.527344 9.570312 14.214844 9.570312 12.597656 C 9.570312 10.980469 10.882812 9.667969 12.5 9.667969 C 14.117188 9.667969 15.429688 10.980469 15.429688 12.597656 Z M 15.429688 12.597656 "/>
<path style=" stroke:none;fill-rule:nonzero;fill:rgb(96.078431%,96.078431%,96.078431%);fill-opacity:1;" d="M 13.410156 11.074219 L 13.277344 11.703125 C 13.148438 11.574219 12.960938 11.511719 12.710938 11.511719 C 12.464844 11.511719 12.265625 11.601562 12.109375 11.777344 C 12.023438 11.878906 11.960938 12.003906 11.925781 12.152344 L 13.179688 12.152344 L 13.105469 12.507812 L 11.882812 12.507812 C 11.878906 12.542969 11.878906 12.585938 11.878906 12.640625 C 11.878906 12.695312 11.878906 12.75 11.882812 12.808594 L 13.042969 12.808594 L 12.96875 13.160156 L 11.933594 13.160156 C 11.96875 13.324219 12.027344 13.449219 12.105469 13.542969 C 12.257812 13.722656 12.457031 13.8125 12.699219 13.8125 C 12.992188 13.8125 13.222656 13.722656 13.394531 13.542969 L 13.394531 14.238281 C 13.199219 14.339844 12.96875 14.386719 12.707031 14.386719 C 12.261719 14.386719 11.898438 14.234375 11.613281 13.933594 C 11.417969 13.726562 11.289062 13.46875 11.226562 13.160156 L 10.890625 13.160156 L 10.964844 12.808594 L 11.1875 12.808594 C 11.1875 12.769531 11.183594 12.730469 11.183594 12.691406 C 11.183594 12.621094 11.1875 12.558594 11.1875 12.507812 L 10.890625 12.507812 L 10.964844 12.152344 L 11.234375 12.152344 C 11.296875 11.851562 11.425781 11.597656 11.613281 11.394531 C 11.902344 11.089844 12.277344 10.933594 12.746094 10.933594 C 13 10.933594 13.222656 10.980469 13.410156 11.074219 Z M 13.410156 11.074219 "/>
</g>
</svg>
