<?xml version="1.0" encoding="UTF-8"?>
<svg xmlns="http://www.w3.org/2000/svg" xmlns:xlink="http://www.w3.org/1999/xlink" width="25px" height="25px" viewBox="0 0 25 25" version="1.1">
<defs>
<radialGradient id="radial0" gradientUnits="userSpaceOnUse" cx="136.839" cy="363.269" fx="136.839" fy="363.269" r="137.789" gradientTransform="matrix(0.0498008,0,0,0.0498008,0,0)">
<stop offset="0.0223" style="stop-color:rgb(96.862745%,94.117647%,66.27451%);stop-opacity:1;"/>
<stop offset="0.9994" style="stop-color:rgb(95.686275%,89.411765%,41.568627%);stop-opacity:1;"/>
</radialGradient>
<linearGradient id="linear0" gradientUnits="userSpaceOnUse" x1="238.727" y1="136.825" x2="502" y2="136.825" gradientTransform="matrix(0.0498008,0,0,0.0498008,0,0)">
<stop offset="0" style="stop-color:rgb(63.529412%,48.627451%,81.176471%);stop-opacity:1;"/>
<stop offset="0.9777" style="stop-color:rgb(53.72549%,34.901961%,76.470588%);stop-opacity:1;"/>
</linearGradient>
<linearGradient id="linear1" gradientUnits="userSpaceOnUse" x1="0" y1="125.5" x2="251" y2="125.5" gradientTransform="matrix(0.0498008,0,0,0.0498008,0,0)">
<stop offset="0.0206" style="stop-color:rgb(46.666667%,89.411765%,82.745098%);stop-opacity:1;"/>
<stop offset="1" style="stop-color:rgb(0.392157%,76.078431%,62.745098%);stop-opacity:1;"/>
</linearGradient>
<linearGradient id="linear2" gradientUnits="userSpaceOnUse" x1="376.5" y1="502" x2="376.5" y2="251" gradientTransform="matrix(0.0498008,0,0,0.0498008,0,0)">
<stop offset="0" style="stop-color:rgb(99.215686%,52.54902%,61.176471%);stop-opacity:1;"/>
<stop offset="0.9788" style="stop-color:rgb(95.294118%,21.960784%,36.470588%);stop-opacity:1;"/>
</linearGradient>
</defs>
<g id="surface1">
<path style=" stroke:none;fill-rule:nonzero;fill:url(#radial0);" d="M 0 12.5 L 0 21.628906 C 0 23.488281 1.511719 25 3.371094 25 L 12.5 25 L 13.628906 18.707031 L 12.5 12.5 L 6.25 11.183594 Z M 0 12.5 "/>
<path style=" stroke:none;fill-rule:nonzero;fill:url(#linear0);" d="M 21.628906 0 L 12.5 0 L 11.890625 6.25 L 12.5 12.5 L 18.75 13.628906 L 25 12.5 L 25 3.371094 C 25 1.511719 23.488281 0 21.628906 0 Z M 21.628906 0 "/>
<path style=" stroke:none;fill-rule:nonzero;fill:url(#linear1);" d="M 3.371094 0 C 1.511719 0 0 1.511719 0 3.371094 L 0 12.5 L 12.5 12.5 L 12.5 0 Z M 3.371094 0 "/>
<path style=" stroke:none;fill-rule:nonzero;fill:rgb(98.431373%,60%,67.45098%);fill-opacity:1;" d="M 2.617188 7.425781 C 2.617188 7.097656 2.285156 6.828125 1.875 6.828125 C 1.460938 6.828125 1.128906 7.097656 1.128906 7.425781 C 1.128906 7.757812 1.460938 8.023438 1.875 8.023438 C 2.285156 8.023438 2.617188 7.757812 2.617188 7.425781 Z M 2.617188 7.425781 "/>
<path style=" stroke:none;fill-rule:nonzero;fill:rgb(98.431373%,60%,67.45098%);fill-opacity:1;" d="M 11.371094 7.425781 C 11.371094 7.097656 11.039062 6.828125 10.625 6.828125 C 10.214844 6.828125 9.882812 7.097656 9.882812 7.425781 C 9.882812 7.757812 10.214844 8.023438 10.625 8.023438 C 11.039062 8.023438 11.371094 7.757812 11.371094 7.425781 Z M 11.371094 7.425781 "/>
<path style=" stroke:none;fill-rule:nonzero;fill:rgb(100%,100%,100%);fill-opacity:1;" d="M 4.625 5.949219 C 4.625 6.765625 3.964844 7.425781 3.148438 7.425781 C 2.332031 7.425781 1.671875 6.765625 1.671875 5.949219 C 1.671875 5.136719 2.332031 4.476562 3.148438 4.476562 C 3.964844 4.476562 4.625 5.136719 4.625 5.949219 Z M 4.625 5.949219 "/>
<path style=" stroke:none;fill-rule:nonzero;fill:rgb(100%,100%,100%);fill-opacity:1;" d="M 10.828125 5.949219 C 10.828125 6.765625 10.167969 7.425781 9.351562 7.425781 C 8.535156 7.425781 7.875 6.765625 7.875 5.949219 C 7.875 5.136719 8.535156 4.476562 9.351562 4.476562 C 10.167969 4.476562 10.828125 5.136719 10.828125 5.949219 Z M 10.828125 5.949219 "/>
<path style=" stroke:none;fill-rule:nonzero;fill:rgb(21.960784%,21.960784%,25.882353%);fill-opacity:1;" d="M 4.027344 5.949219 C 4.027344 6.4375 3.632812 6.832031 3.148438 6.832031 C 2.664062 6.832031 2.269531 6.4375 2.269531 5.949219 C 2.269531 5.464844 2.664062 5.070312 3.148438 5.070312 C 3.632812 5.070312 4.027344 5.464844 4.027344 5.949219 Z M 4.027344 5.949219 "/>
<path style=" stroke:none;fill-rule:nonzero;fill:rgb(21.960784%,21.960784%,25.882353%);fill-opacity:1;" d="M 10.230469 5.949219 C 10.230469 6.4375 9.835938 6.832031 9.351562 6.832031 C 8.867188 6.832031 8.472656 6.4375 8.472656 5.949219 C 8.472656 5.464844 8.867188 5.070312 9.351562 5.070312 C 9.835938 5.070312 10.230469 5.464844 10.230469 5.949219 Z M 10.230469 5.949219 "/>
<path style=" stroke:none;fill-rule:nonzero;fill:rgb(21.960784%,21.960784%,25.882353%);fill-opacity:1;" d="M 6.25 7.472656 C 5.988281 7.472656 5.726562 7.375 5.515625 7.175781 C 5.414062 7.082031 5.40625 6.925781 5.5 6.824219 C 5.59375 6.722656 5.75 6.71875 5.851562 6.8125 C 6.085938 7.027344 6.414062 7.027344 6.648438 6.8125 C 6.746094 6.71875 6.90625 6.722656 7 6.824219 C 7.09375 6.925781 7.085938 7.082031 6.984375 7.175781 C 6.773438 7.375 6.511719 7.472656 6.25 7.472656 Z M 6.25 7.472656 "/>
<path style=" stroke:none;fill-rule:nonzero;fill:url(#linear2);" d="M 12.5 12.5 L 12.5 25 L 21.628906 25 C 23.488281 25 25 23.488281 25 21.628906 L 25 12.5 Z M 12.5 12.5 "/>
<path style=" stroke:none;fill-rule:nonzero;fill:rgb(99.215686%,69.019608%,74.901961%);fill-opacity:1;" d="M 21.628906 24.003906 C 21.351562 24.003906 21.128906 23.78125 21.128906 23.507812 C 21.128906 23.230469 21.351562 23.007812 21.628906 23.007812 C 21.777344 23.007812 21.925781 22.984375 22.070312 22.933594 C 22.328125 22.847656 22.613281 22.988281 22.699219 23.246094 C 22.789062 23.507812 22.648438 23.789062 22.386719 23.878906 C 22.140625 23.960938 21.882812 24.003906 21.628906 24.003906 Z M 21.628906 24.003906 "/>
<path style=" stroke:none;fill-rule:nonzero;fill:rgb(99.215686%,69.019608%,74.901961%);fill-opacity:1;" d="M 23.21875 22.746094 C 22.960938 22.648438 22.828125 22.363281 22.921875 22.105469 C 22.964844 21.996094 22.988281 21.882812 23 21.765625 C 23.027344 21.492188 23.273438 21.292969 23.546875 21.320312 C 23.820312 21.347656 24.019531 21.59375 23.992188 21.867188 C 23.972656 22.066406 23.925781 22.261719 23.855469 22.449219 C 23.761719 22.707031 23.476562 22.839844 23.21875 22.746094 Z M 23.21875 22.746094 "/>
<path style=" stroke:none;fill-rule:nonzero;fill:rgb(98.431373%,60%,67.45098%);fill-opacity:1;" d="M 15.117188 7.425781 C 15.117188 7.097656 14.785156 6.828125 14.375 6.828125 C 13.960938 6.828125 13.628906 7.097656 13.628906 7.425781 C 13.628906 7.757812 13.960938 8.023438 14.375 8.023438 C 14.785156 8.023438 15.117188 7.757812 15.117188 7.425781 Z M 15.117188 7.425781 "/>
<path style=" stroke:none;fill-rule:nonzero;fill:rgb(98.431373%,60%,67.45098%);fill-opacity:1;" d="M 23.871094 7.425781 C 23.871094 7.097656 23.539062 6.828125 23.125 6.828125 C 22.714844 6.828125 22.382812 7.097656 22.382812 7.425781 C 22.382812 7.757812 22.714844 8.023438 23.125 8.023438 C 23.539062 8.023438 23.871094 7.757812 23.871094 7.425781 Z M 23.871094 7.425781 "/>
<path style=" stroke:none;fill-rule:nonzero;fill:rgb(83.921569%,83.529412%,84.705882%);fill-opacity:1;" d="M 17.121094 5.953125 C 17.121094 6.765625 16.460938 7.425781 15.648438 7.425781 C 14.835938 7.425781 14.175781 6.765625 14.175781 5.953125 C 14.175781 5.140625 14.835938 4.480469 15.648438 4.480469 C 16.460938 4.480469 17.121094 5.140625 17.121094 5.953125 Z M 17.121094 5.953125 "/>
<path style=" stroke:none;fill-rule:nonzero;fill:rgb(100%,100%,100%);fill-opacity:1;" d="M 14.175781 6.023438 C 14.214844 6.804688 14.859375 7.425781 15.648438 7.425781 C 16.4375 7.425781 17.082031 6.804688 17.121094 6.023438 Z M 14.175781 6.023438 "/>
<path style=" stroke:none;fill-rule:nonzero;fill:rgb(21.960784%,21.960784%,25.882353%);fill-opacity:1;" d="M 14.773438 6.023438 C 14.808594 6.476562 15.1875 6.832031 15.648438 6.832031 C 16.109375 6.832031 16.488281 6.476562 16.523438 6.023438 Z M 14.773438 6.023438 "/>
<path style=" stroke:none;fill-rule:nonzero;fill:rgb(83.921569%,83.529412%,84.705882%);fill-opacity:1;" d="M 23.324219 5.953125 C 23.324219 6.765625 22.664062 7.425781 21.851562 7.425781 C 21.039062 7.425781 20.378906 6.765625 20.378906 5.953125 C 20.378906 5.140625 21.039062 4.480469 21.851562 4.480469 C 22.664062 4.480469 23.324219 5.140625 23.324219 5.953125 Z M 23.324219 5.953125 "/>
<path style=" stroke:none;fill-rule:nonzero;fill:rgb(100%,100%,100%);fill-opacity:1;" d="M 20.378906 6.023438 C 20.417969 6.804688 21.0625 7.425781 21.851562 7.425781 C 22.640625 7.425781 23.285156 6.804688 23.324219 6.023438 Z M 20.378906 6.023438 "/>
<path style=" stroke:none;fill-rule:nonzero;fill:rgb(21.960784%,21.960784%,25.882353%);fill-opacity:1;" d="M 20.976562 6.023438 C 21.011719 6.476562 21.390625 6.832031 21.851562 6.832031 C 22.3125 6.832031 22.691406 6.476562 22.726562 6.023438 Z M 20.976562 6.023438 "/>
<path style=" stroke:none;fill-rule:nonzero;fill:rgb(21.960784%,21.960784%,25.882353%);fill-opacity:1;" d="M 19.316406 7.597656 C 19.226562 7.597656 19.132812 7.566406 19.0625 7.5 C 18.875 7.324219 18.625 7.324219 18.4375 7.5 C 18.285156 7.636719 18.050781 7.628906 17.910156 7.476562 C 17.769531 7.328125 17.777344 7.089844 17.929688 6.949219 C 18.40625 6.507812 19.09375 6.507812 19.570312 6.949219 C 19.722656 7.089844 19.730469 7.328125 19.589844 7.476562 C 19.515625 7.558594 19.417969 7.597656 19.316406 7.597656 Z M 19.316406 7.597656 "/>
<path style=" stroke:none;fill-rule:nonzero;fill:rgb(98.431373%,60%,67.45098%);fill-opacity:1;" d="M 15.117188 19.925781 C 15.117188 19.597656 14.785156 19.328125 14.375 19.328125 C 13.960938 19.328125 13.628906 19.597656 13.628906 19.925781 C 13.628906 20.257812 13.960938 20.523438 14.375 20.523438 C 14.785156 20.523438 15.117188 20.257812 15.117188 19.925781 Z M 15.117188 19.925781 "/>
<path style=" stroke:none;fill-rule:nonzero;fill:rgb(98.431373%,60%,67.45098%);fill-opacity:1;" d="M 23.871094 19.925781 C 23.871094 19.597656 23.539062 19.328125 23.125 19.328125 C 22.714844 19.328125 22.382812 19.597656 22.382812 19.925781 C 22.382812 20.257812 22.714844 20.523438 23.125 20.523438 C 23.539062 20.523438 23.871094 20.257812 23.871094 19.925781 Z M 23.871094 19.925781 "/>
<path style=" stroke:none;fill-rule:nonzero;fill:rgb(100%,100%,100%);fill-opacity:1;" d="M 17.125 18.449219 C 17.125 19.265625 16.464844 19.925781 15.648438 19.925781 C 14.832031 19.925781 14.171875 19.265625 14.171875 18.449219 C 14.171875 17.636719 14.832031 16.976562 15.648438 16.976562 C 16.464844 16.976562 17.125 17.636719 17.125 18.449219 Z M 17.125 18.449219 "/>
<path style=" stroke:none;fill-rule:nonzero;fill:rgb(100%,100%,100%);fill-opacity:1;" d="M 23.328125 18.449219 C 23.328125 19.265625 22.667969 19.925781 21.851562 19.925781 C 21.035156 19.925781 20.375 19.265625 20.375 18.449219 C 20.375 17.636719 21.035156 16.976562 21.851562 16.976562 C 22.667969 16.976562 23.328125 17.636719 23.328125 18.449219 Z M 23.328125 18.449219 "/>
<path style=" stroke:none;fill-rule:nonzero;fill:rgb(21.960784%,21.960784%,25.882353%);fill-opacity:1;" d="M 16.136719 18.96875 C 16.003906 18.96875 15.875 18.902344 15.808594 18.777344 C 15.761719 18.691406 15.679688 18.683594 15.648438 18.683594 C 15.617188 18.683594 15.535156 18.691406 15.488281 18.777344 C 15.390625 18.957031 15.164062 19.023438 14.980469 18.925781 C 14.800781 18.824219 14.734375 18.597656 14.835938 18.417969 C 14.996094 18.121094 15.308594 17.9375 15.648438 17.933594 C 15.988281 17.933594 16.300781 18.121094 16.460938 18.417969 C 16.5625 18.597656 16.496094 18.824219 16.316406 18.925781 C 16.257812 18.957031 16.195312 18.96875 16.136719 18.96875 Z M 16.136719 18.96875 "/>
<path style=" stroke:none;fill-rule:nonzero;fill:rgb(21.960784%,21.960784%,25.882353%);fill-opacity:1;" d="M 21.363281 18.96875 C 21.304688 18.96875 21.242188 18.957031 21.183594 18.925781 C 21.003906 18.824219 20.9375 18.597656 21.039062 18.417969 C 21.199219 18.121094 21.511719 17.933594 21.851562 17.933594 C 22.191406 17.9375 22.503906 18.121094 22.664062 18.417969 C 22.765625 18.597656 22.699219 18.824219 22.519531 18.925781 C 22.335938 19.023438 22.109375 18.957031 22.011719 18.777344 C 21.964844 18.691406 21.882812 18.683594 21.851562 18.683594 C 21.820312 18.683594 21.738281 18.691406 21.691406 18.777344 C 21.625 18.902344 21.496094 18.96875 21.363281 18.96875 Z M 21.363281 18.96875 "/>
<path style=" stroke:none;fill-rule:nonzero;fill:rgb(21.960784%,21.960784%,25.882353%);fill-opacity:1;" d="M 19.332031 20.433594 L 18.167969 20.433594 C 17.84375 20.433594 17.582031 20.171875 17.582031 19.847656 C 17.582031 19.523438 17.84375 19.257812 18.167969 19.257812 L 19.332031 19.257812 C 19.65625 19.257812 19.917969 19.523438 19.917969 19.847656 C 19.917969 20.171875 19.65625 20.433594 19.332031 20.433594 Z M 19.332031 20.433594 "/>
<path style=" stroke:none;fill-rule:nonzero;fill:rgb(98.431373%,60%,67.45098%);fill-opacity:1;" d="M 2.617188 19.925781 C 2.617188 19.597656 2.285156 19.328125 1.875 19.328125 C 1.460938 19.328125 1.128906 19.597656 1.128906 19.925781 C 1.128906 20.257812 1.460938 20.523438 1.875 20.523438 C 2.285156 20.523438 2.617188 20.257812 2.617188 19.925781 Z M 2.617188 19.925781 "/>
<path style=" stroke:none;fill-rule:nonzero;fill:rgb(98.431373%,60%,67.45098%);fill-opacity:1;" d="M 11.371094 19.925781 C 11.371094 19.597656 11.039062 19.328125 10.625 19.328125 C 10.214844 19.328125 9.882812 19.597656 9.882812 19.925781 C 9.882812 20.257812 10.214844 20.523438 10.625 20.523438 C 11.039062 20.523438 11.371094 20.257812 11.371094 19.925781 Z M 11.371094 19.925781 "/>
<path style=" stroke:none;fill-rule:nonzero;fill:rgb(100%,100%,100%);fill-opacity:1;" d="M 4.625 18.449219 C 4.625 19.265625 3.964844 19.925781 3.148438 19.925781 C 2.332031 19.925781 1.671875 19.265625 1.671875 18.449219 C 1.671875 17.636719 2.332031 16.976562 3.148438 16.976562 C 3.964844 16.976562 4.625 17.636719 4.625 18.449219 Z M 4.625 18.449219 "/>
<path style=" stroke:none;fill-rule:nonzero;fill:rgb(21.960784%,21.960784%,25.882353%);fill-opacity:1;" d="M 3.941406 17.601562 C 3.46875 17.488281 2.996094 17.78125 2.886719 18.253906 C 2.773438 18.726562 3.066406 19.199219 3.539062 19.3125 C 4.011719 19.421875 4.484375 19.132812 4.597656 18.660156 C 4.707031 18.1875 4.414062 17.714844 3.941406 17.601562 Z M 3.941406 17.601562 "/>
<path style=" stroke:none;fill-rule:nonzero;fill:rgb(100%,100%,100%);fill-opacity:1;" d="M 10.828125 18.449219 C 10.828125 19.265625 10.167969 19.925781 9.351562 19.925781 C 8.535156 19.925781 7.875 19.265625 7.875 18.449219 C 7.875 17.636719 8.535156 16.976562 9.351562 16.976562 C 10.167969 16.976562 10.828125 17.636719 10.828125 18.449219 Z M 10.828125 18.449219 "/>
<path style=" stroke:none;fill-rule:nonzero;fill:rgb(21.960784%,21.960784%,25.882353%);fill-opacity:1;" d="M 10.5625 17.828125 C 10.21875 17.484375 9.664062 17.484375 9.320312 17.828125 C 8.976562 18.171875 8.976562 18.726562 9.320312 19.070312 C 9.664062 19.414062 10.21875 19.414062 10.5625 19.070312 C 10.90625 18.726562 10.90625 18.171875 10.5625 17.828125 Z M 10.5625 17.828125 "/>
<path style=" stroke:none;fill-rule:nonzero;fill:rgb(21.960784%,21.960784%,25.882353%);fill-opacity:1;" d="M 6.910156 19.570312 C 6.910156 19.09375 6.613281 18.707031 6.25 18.707031 C 5.886719 18.707031 5.589844 19.09375 5.589844 19.570312 C 5.589844 20.046875 5.886719 20.433594 6.25 20.433594 C 6.613281 20.433594 6.910156 20.046875 6.910156 19.570312 Z M 6.910156 19.570312 "/>
<path style=" stroke:none;fill-rule:nonzero;fill:rgb(82.745098%,75.686275%,90.588235%);fill-opacity:1;" d="M 23.507812 3.871094 C 23.230469 3.871094 23.007812 3.648438 23.007812 3.371094 C 23.007812 3.25 22.992188 3.125 22.960938 3.007812 C 22.886719 2.742188 23.042969 2.46875 23.308594 2.398438 C 23.574219 2.324219 23.847656 2.480469 23.921875 2.746094 C 23.976562 2.949219 24.003906 3.160156 24.003906 3.371094 C 24.003906 3.648438 23.78125 3.871094 23.507812 3.871094 Z M 23.507812 3.871094 "/>
<path style=" stroke:none;fill-rule:nonzero;fill:rgb(82.745098%,75.686275%,90.588235%);fill-opacity:1;" d="M 22.21875 2.125 C 22.035156 2.039062 21.832031 1.992188 21.628906 1.992188 C 21.351562 1.992188 21.128906 1.769531 21.128906 1.492188 C 21.128906 1.21875 21.351562 0.996094 21.628906 0.996094 C 21.976562 0.996094 22.328125 1.074219 22.644531 1.226562 C 22.894531 1.34375 23 1.640625 22.882812 1.890625 C 22.765625 2.136719 22.46875 2.246094 22.21875 2.125 Z M 22.21875 2.125 "/>
</g>
</svg>
