<?xml version="1.0" encoding="UTF-8"?>
<svg xmlns="http://www.w3.org/2000/svg" xmlns:xlink="http://www.w3.org/1999/xlink" width="25px" height="25px" viewBox="0 0 25 25" version="1.1">
<g id="surface1">
<path style="fill:none;stroke-width:2;stroke-linecap:round;stroke-linejoin:round;stroke:rgb(2.745098%,54.901961%,83.921569%);stroke-opacity:1;stroke-miterlimit:4;" d="M 38.15 21.7 C 38.15 25.09 35.39 31 32 31 C 28.61 31 25.85 25.08 25.85 21.68 C 25.98 18.38 28.69 15.78 32 15.78 C 35.3 15.78 38.01 18.38 38.14 21.68 Z M 38.15 21.7 " transform="matrix(0.390625,0,0,0.390625,0,0)"/>
<path style="fill:none;stroke-width:2;stroke-linecap:round;stroke-linejoin:round;stroke:rgb(2.745098%,54.901961%,83.921569%);stroke-opacity:1;stroke-miterlimit:4;" d="M 19.34 48.3 C 19.34 41.31 25.01 35.64 32 35.64 C 38.99 35.64 44.66 41.31 44.66 48.3 " transform="matrix(0.390625,0,0,0.390625,0,0)"/>
<path style="fill:none;stroke-width:2;stroke-linecap:round;stroke-linejoin:round;stroke:rgb(2.745098%,54.901961%,83.921569%);stroke-opacity:1;stroke-miterlimit:4;" d="M 53.49 25.77 C 53.49 28.64 51.16 33.77 48.29 33.77 C 45.42 33.77 43.09 28.6 43.09 25.77 C 43.09 22.9 45.42 20.57 48.3 20.57 C 51.17 20.57 53.5 22.9 53.5 25.77 Z M 53.49 25.77 " transform="matrix(0.390625,0,0,0.390625,0,0)"/>
<path style="fill:none;stroke-width:2;stroke-linecap:round;stroke-linejoin:round;stroke:rgb(2.745098%,54.901961%,83.921569%);stroke-opacity:1;stroke-miterlimit:4;" d="M 41.81 39.9 C 45.05 37.44 49.41 37.04 53.05 38.85 C 56.7 40.66 59 44.38 59 48.45 " transform="matrix(0.390625,0,0,0.390625,0,0)"/>
<path style="fill:none;stroke-width:2;stroke-linecap:round;stroke-linejoin:round;stroke:rgb(2.745098%,54.901961%,83.921569%);stroke-opacity:1;stroke-miterlimit:4;" d="M 10.51 25.77 C 10.51 28.64 12.84 33.77 15.71 33.77 C 18.58 33.77 20.91 28.6 20.91 25.77 C 20.91 22.9 18.58 20.56 15.7 20.56 C 12.83 20.56 10.5 22.9 10.5 25.77 Z M 10.51 25.77 " transform="matrix(0.390625,0,0,0.390625,0,0)"/>
<path style="fill:none;stroke-width:2;stroke-linecap:round;stroke-linejoin:round;stroke:rgb(2.745098%,54.901961%,83.921569%);stroke-opacity:1;stroke-miterlimit:4;" d="M 22.19 39.9 C 18.95 37.44 14.59 37.04 10.95 38.85 C 7.3 40.66 5 44.38 5 48.45 " transform="matrix(0.390625,0,0,0.390625,0,0)"/>
</g>
</svg>
