<?xml version="1.0" encoding="UTF-8"?>
<svg xmlns="http://www.w3.org/2000/svg" xmlns:xlink="http://www.w3.org/1999/xlink" width="25px" height="25px" viewBox="0 0 25 25" version="1.1">
<g id="surface1">
<path style=" stroke:none;fill-rule:nonzero;fill:rgb(99.215686%,78.039216%,58.039216%);fill-opacity:1;" d="M 22.257812 7.542969 C 22.042969 7.414062 21.742188 7.328125 21.480469 7.328125 C 20.878906 7.328125 20.40625 7.757812 20.101562 8.234375 C 19.757812 8.835938 17.601562 12.5 17.601562 12.5 L 19.972656 2.371094 C 20.144531 1.378906 19.371094 0.820312 18.464844 0.863281 C 17.644531 0.863281 17.171875 1.507812 16.957031 2.371094 L 14.585938 11.636719 L 14.585938 1.507812 C 14.585938 0.691406 13.894531 0 13.078125 0 C 12.257812 0 11.570312 0.691406 11.570312 1.507812 L 11.570312 11.335938 L 9.199219 3.234375 C 8.9375 2.457031 8.636719 1.765625 7.6875 1.722656 C 7.128906 1.722656 6.65625 2.027344 6.394531 2.457031 C 6.179688 2.800781 6.179688 3.191406 6.265625 3.578125 L 8.765625 13.792969 C 7.90625 11.636719 5.835938 10.085938 4.414062 9.308594 C 3.25 8.664062 0.835938 10.042969 2.820312 11.550781 C 4.199219 12.628906 5.707031 15.34375 6.179688 16.851562 L 6.179688 16.808594 C 6.957031 20.472656 9.414062 21.984375 9.414062 21.984375 L 9.414062 23.707031 C 9.414062 24.527344 10.015625 25 10.707031 25 L 18.25 25 C 18.980469 25 19.328125 24.527344 19.328125 23.707031 L 19.328125 21.984375 C 20.535156 20.386719 20.621094 20.257812 20.621094 17.585938 C 20.621094 16.507812 21.007812 15.386719 21.308594 14.351562 L 22.863281 9.265625 C 23.078125 8.621094 22.820312 7.886719 22.257812 7.542969 "/>
<path style=" stroke:none;fill-rule:nonzero;fill:rgb(97.647059%,65.098039%,44.313725%);fill-opacity:1;" d="M 11.136719 22.414062 L 9.84375 22.414062 C 9.585938 22.414062 9.414062 22.242188 9.414062 21.984375 C 9.414062 21.722656 9.585938 21.550781 9.84375 21.550781 L 11.136719 21.550781 C 11.394531 21.550781 11.570312 21.722656 11.570312 21.984375 C 11.570312 22.242188 11.394531 22.414062 11.136719 22.414062 Z M 11.136719 22.414062 "/>
<path style=" stroke:none;fill-rule:nonzero;fill:rgb(97.647059%,65.098039%,44.313725%);fill-opacity:1;" d="M 18.894531 22.414062 L 18.035156 22.414062 C 17.773438 22.414062 17.601562 22.242188 17.601562 21.984375 C 17.601562 21.722656 17.773438 21.550781 18.035156 21.550781 L 18.894531 21.550781 C 19.15625 21.550781 19.328125 21.722656 19.328125 21.984375 C 19.328125 22.242188 19.15625 22.414062 18.894531 22.414062 Z M 18.894531 22.414062 "/>
<path style=" stroke:none;fill-rule:nonzero;fill:rgb(99.215686%,78.039216%,58.039216%);fill-opacity:1;" d="M 8.765625 13.792969 C 8.980469 14.398438 9.242188 15 10.058594 15.515625 "/>
<path style=" stroke:none;fill-rule:nonzero;fill:rgb(97.647059%,65.098039%,44.313725%);fill-opacity:1;" d="M 10.058594 15.949219 C 9.972656 15.949219 9.886719 15.90625 9.84375 15.863281 C 8.894531 15.257812 8.59375 14.527344 8.378906 13.964844 C 8.292969 13.75 8.378906 13.492188 8.636719 13.40625 C 8.851562 13.320312 9.113281 13.40625 9.199219 13.664062 C 9.414062 14.222656 9.628906 14.742188 10.320312 15.171875 C 10.535156 15.300781 10.578125 15.558594 10.449219 15.777344 C 10.320312 15.863281 10.1875 15.949219 10.058594 15.949219 Z M 10.058594 15.949219 "/>
<path style=" stroke:none;fill-rule:nonzero;fill:rgb(99.215686%,78.039216%,58.039216%);fill-opacity:1;" d="M 11.570312 11.207031 C 11.65625 11.679688 11.570312 12.070312 11.308594 12.15625 "/>
<path style=" stroke:none;fill-rule:nonzero;fill:rgb(97.647059%,65.098039%,44.313725%);fill-opacity:1;" d="M 11.308594 12.585938 C 11.09375 12.585938 10.921875 12.457031 10.878906 12.242188 C 10.835938 12.027344 10.964844 11.808594 11.136719 11.722656 C 11.179688 11.636719 11.179688 11.507812 11.136719 11.292969 C 11.09375 11.078125 11.265625 10.820312 11.480469 10.777344 C 11.699219 10.734375 11.957031 10.90625 12 11.121094 C 12.128906 11.851562 11.914062 12.457031 11.394531 12.542969 C 11.351562 12.585938 11.351562 12.585938 11.308594 12.585938 Z M 11.308594 12.585938 "/>
<path style=" stroke:none;fill-rule:nonzero;fill:rgb(99.215686%,78.039216%,58.039216%);fill-opacity:1;" d="M 11.570312 11.207031 C 11.65625 11.679688 11.914062 12.027344 12.171875 11.984375 "/>
<path style=" stroke:none;fill-rule:nonzero;fill:rgb(97.647059%,65.098039%,44.313725%);fill-opacity:1;" d="M 12.128906 12.414062 C 11.699219 12.414062 11.308594 11.984375 11.179688 11.292969 C 11.09375 11.078125 11.265625 10.820312 11.480469 10.777344 C 11.699219 10.734375 11.957031 10.90625 12 11.121094 C 12.042969 11.335938 12.128906 11.464844 12.171875 11.550781 C 12.386719 11.550781 12.558594 11.679688 12.601562 11.898438 C 12.644531 12.113281 12.515625 12.371094 12.257812 12.414062 C 12.214844 12.414062 12.171875 12.414062 12.128906 12.414062 Z M 12.128906 12.414062 "/>
<path style=" stroke:none;fill-rule:nonzero;fill:rgb(99.215686%,78.039216%,58.039216%);fill-opacity:1;" d="M 14.585938 11.636719 C 14.585938 12.113281 14.371094 12.5 14.15625 12.5 "/>
<path style=" stroke:none;fill-rule:nonzero;fill:rgb(97.647059%,65.098039%,44.313725%);fill-opacity:1;" d="M 14.15625 12.929688 C 13.894531 12.929688 13.722656 12.757812 13.722656 12.5 C 13.722656 12.285156 13.851562 12.113281 14.070312 12.070312 C 14.113281 12.027344 14.15625 11.851562 14.15625 11.636719 C 14.15625 11.378906 14.328125 11.207031 14.585938 11.207031 C 14.84375 11.207031 15.015625 11.378906 15.015625 11.636719 C 15.015625 12.371094 14.671875 12.929688 14.15625 12.929688 Z M 14.15625 12.929688 "/>
<path style=" stroke:none;fill-rule:nonzero;fill:rgb(99.215686%,78.039216%,58.039216%);fill-opacity:1;" d="M 14.585938 11.636719 C 14.585938 12.113281 14.757812 12.5 15.015625 12.5 "/>
<path style=" stroke:none;fill-rule:nonzero;fill:rgb(97.647059%,65.098039%,44.313725%);fill-opacity:1;" d="M 15.015625 12.929688 C 14.5 12.929688 14.15625 12.371094 14.15625 11.636719 C 14.15625 11.378906 14.328125 11.207031 14.585938 11.207031 C 14.84375 11.207031 15.015625 11.378906 15.015625 11.636719 C 15.015625 11.851562 15.058594 12.027344 15.101562 12.070312 C 15.320312 12.113281 15.449219 12.285156 15.449219 12.5 C 15.449219 12.757812 15.277344 12.929688 15.015625 12.929688 Z M 15.144531 12.113281 Z M 15.144531 12.113281 "/>
<path style=" stroke:none;fill-rule:nonzero;fill:rgb(99.215686%,78.039216%,58.039216%);fill-opacity:1;" d="M 17.601562 12.5 C 17.515625 12.972656 17.257812 13.320312 17 13.277344 "/>
<path style=" stroke:none;fill-rule:nonzero;fill:rgb(97.647059%,65.098039%,44.313725%);fill-opacity:1;" d="M 17.042969 13.707031 C 17 13.707031 16.957031 13.707031 16.914062 13.707031 C 16.699219 13.664062 16.523438 13.449219 16.570312 13.191406 C 16.613281 12.972656 16.785156 12.84375 17 12.84375 C 17.042969 12.800781 17.128906 12.671875 17.171875 12.414062 C 17.214844 12.199219 17.429688 12.027344 17.6875 12.070312 C 17.90625 12.113281 18.078125 12.371094 18.035156 12.585938 C 17.949219 13.015625 17.730469 13.40625 17.472656 13.578125 C 17.34375 13.664062 17.171875 13.707031 17.042969 13.707031 Z M 17.042969 13.707031 "/>
<path style=" stroke:none;fill-rule:nonzero;fill:rgb(99.215686%,78.039216%,58.039216%);fill-opacity:1;" d="M 17.601562 12.5 C 17.515625 12.972656 17.601562 13.363281 17.863281 13.449219 "/>
<path style=" stroke:none;fill-rule:nonzero;fill:rgb(97.647059%,65.098039%,44.313725%);fill-opacity:1;" d="M 17.863281 13.878906 C 17.820312 13.878906 17.820312 13.878906 17.773438 13.878906 C 17.300781 13.75 17.042969 13.148438 17.171875 12.414062 C 17.214844 12.199219 17.472656 12.027344 17.6875 12.070312 C 17.90625 12.113281 18.078125 12.371094 18.035156 12.585938 C 17.992188 12.800781 18.035156 12.972656 18.035156 13.015625 C 18.207031 13.101562 18.335938 13.277344 18.292969 13.492188 C 18.25 13.707031 18.078125 13.878906 17.863281 13.878906 Z M 18.035156 13.058594 Z M 18.035156 13.058594 "/>
</g>
</svg>
