<?xml version="1.0" encoding="UTF-8"?>
<svg xmlns="http://www.w3.org/2000/svg" xmlns:xlink="http://www.w3.org/1999/xlink" width="25px" height="25px" viewBox="0 0 25 25" version="1.1">
<g id="surface1">
<path style=" stroke:none;fill-rule:nonzero;fill:rgb(58.431373%,20.392157%,11.372549%);fill-opacity:1;" d="M 14.359375 20.878906 L 13.5625 20.878906 L 13.03125 23.539062 L 15.246094 23.539062 Z M 14.359375 20.878906 "/>
<path style=" stroke:none;fill-rule:nonzero;fill:rgb(67.058824%,36.470588%,29.019608%);fill-opacity:1;" d="M 12.765625 20.878906 L 11.878906 23.539062 L 13.5625 23.539062 L 13.5625 20.878906 Z M 12.765625 20.878906 "/>
<path style=" stroke:none;fill-rule:nonzero;fill:rgb(58.431373%,20.392157%,11.372549%);fill-opacity:1;" d="M 17.285156 22.472656 L 15.691406 22.472656 L 17.820312 24.601562 L 19.414062 24.601562 C 19.414062 23.425781 18.460938 22.472656 17.285156 22.472656 Z M 17.285156 22.472656 "/>
<path style=" stroke:none;fill-rule:nonzero;fill:rgb(67.058824%,36.470588%,29.019608%);fill-opacity:1;" d="M 15.691406 22.472656 L 9.839844 22.472656 C 8.664062 22.472656 7.710938 23.425781 7.710938 24.601562 L 17.820312 24.601562 C 17.820312 23.425781 16.867188 22.472656 15.691406 22.472656 Z M 15.691406 22.472656 "/>
<path style=" stroke:none;fill-rule:nonzero;fill:rgb(40.784314%,68.235294%,95.686275%);fill-opacity:1;" d="M 18.894531 2.316406 L 14.027344 0.414062 C 12.234375 0.3125 10.414062 0.785156 8.871094 1.835938 C 8.871094 1.835938 20.484375 13.453125 20.503906 13.46875 C 22.714844 10.210938 22.375 5.738281 19.488281 2.851562 C 19.296875 2.664062 19.097656 2.484375 18.894531 2.316406 Z M 18.894531 2.316406 "/>
<path style=" stroke:none;fill-rule:nonzero;fill:rgb(48.627451%,78.431373%,93.72549%);fill-opacity:1;" d="M 13.1875 1.253906 C 11.664062 1.007812 10.167969 1.214844 8.917969 1.898438 L 6.621094 4.082031 C 5.953125 5.070312 5.519531 6.167969 5.316406 7.300781 L 6.773438 13.6875 C 7.03125 14.042969 7.320312 14.378906 7.640625 14.699219 C 7.929688 14.992188 8.238281 15.257812 8.558594 15.496094 L 13.28125 17.148438 C 15.015625 17.207031 16.761719 16.730469 18.257812 15.71875 C 18.257812 15.71875 20.441406 13.421875 20.441406 13.421875 C 21.929688 10.691406 21.15625 6.777344 18.359375 3.980469 Z M 13.1875 1.253906 "/>
<path style=" stroke:none;fill-rule:nonzero;fill:rgb(15.294118%,41.568627%,67.843137%);fill-opacity:1;" d="M 14.027344 0.410156 C 14.027344 0.414062 13.1875 1.253906 13.1875 1.253906 L 18.359375 3.980469 L 18.894531 3.445312 C 19.207031 3.132812 19.207031 2.625 18.894531 2.316406 C 17.480469 1.140625 15.765625 0.507812 14.027344 0.410156 Z M 14.027344 0.410156 "/>
<path style=" stroke:none;fill-rule:nonzero;fill:rgb(21.960784%,56.862745%,91.372549%);fill-opacity:1;" d="M 18.359375 3.980469 L 17.324219 5.015625 L 16.382812 4.074219 L 12.621094 7.835938 L 11.496094 6.707031 L 12.621094 5.578125 C 12.3125 5.269531 12.3125 4.761719 12.621094 4.453125 L 13 4.074219 L 11.683594 2.757812 L 13.1875 1.253906 C 14.996094 1.542969 16.839844 2.464844 18.359375 3.980469 Z M 18.359375 3.980469 "/>
<path style=" stroke:none;fill-rule:nonzero;fill:rgb(21.960784%,56.862745%,91.372549%);fill-opacity:1;" d="M 15.820312 6.894531 L 19.394531 10.46875 L 18.078125 11.785156 C 17.664062 12.199219 16.984375 12.199219 16.570312 11.785156 L 15.253906 10.46875 L 14.878906 10.84375 C 14.464844 11.261719 13.789062 11.261719 13.375 10.84375 C 12.960938 10.429688 12.960938 9.757812 13.375 9.339844 Z M 15.820312 6.894531 "/>
<path style=" stroke:none;fill-rule:nonzero;fill:rgb(94.117647%,92.156863%,91.764706%);fill-opacity:1;" d="M 20.441406 13.421875 L 19.546875 14.636719 C 19.90625 14.273438 20.226562 13.882812 20.503906 13.46875 C 20.484375 13.453125 20.464844 13.4375 20.441406 13.421875 Z M 20.441406 13.421875 "/>
<path style=" stroke:none;fill-rule:nonzero;fill:rgb(94.117647%,92.156863%,91.764706%);fill-opacity:1;" d="M 7.703125 2.792969 L 8.917969 1.898438 C 8.902344 1.875 8.886719 1.855469 8.871094 1.835938 C 8.457031 2.113281 8.066406 2.433594 7.703125 2.792969 Z M 7.703125 2.792969 "/>
<path style=" stroke:none;fill-rule:nonzero;fill:rgb(100%,100%,100%);fill-opacity:1;" d="M 8.917969 1.898438 C 9.386719 2.523438 9.335938 3.414062 8.769531 3.980469 C 8.179688 4.566406 7.25 4.601562 6.621094 4.082031 C 6.917969 3.648438 7.253906 3.238281 7.640625 2.851562 C 7.660156 2.832031 7.679688 2.8125 7.703125 2.789062 C 8.070312 2.433594 8.480469 2.136719 8.917969 1.898438 Z M 8.917969 1.898438 "/>
<path style=" stroke:none;fill-rule:nonzero;fill:rgb(100%,100%,100%);fill-opacity:1;" d="M 18.359375 13.570312 C 18.925781 13.003906 19.816406 12.953125 20.441406 13.421875 C 20.203125 13.859375 19.90625 14.269531 19.546875 14.636719 C 19.527344 14.660156 19.507812 14.679688 19.488281 14.699219 C 19.101562 15.085938 18.691406 15.425781 18.257812 15.71875 C 17.738281 15.089844 17.773438 14.160156 18.359375 13.570312 Z M 18.359375 13.570312 "/>
<path style=" stroke:none;fill-rule:nonzero;fill:rgb(21.960784%,56.862745%,91.372549%);fill-opacity:1;" d="M 13.28125 17.148438 L 13.101562 15.289062 C 13.046875 14.707031 12.660156 13.890625 12.246094 13.476562 L 11.117188 12.351562 L 8.863281 14.605469 C 8.621094 14.847656 8.519531 15.179688 8.558594 15.496094 C 9.960938 16.542969 11.613281 17.09375 13.28125 17.148438 Z M 13.28125 17.148438 "/>
<path style=" stroke:none;fill-rule:nonzero;fill:rgb(21.960784%,56.862745%,91.372549%);fill-opacity:1;" d="M 5.316406 7.300781 L 9.238281 11.222656 L 6.773438 13.6875 C 5.410156 11.808594 4.925781 9.492188 5.316406 7.300781 Z M 5.316406 7.300781 "/>
<path style=" stroke:none;fill-rule:nonzero;fill:rgb(0%,0%,0%);fill-opacity:1;" d="M 19.015625 7.835938 C 18.859375 7.992188 18.859375 8.246094 19.015625 8.402344 L 19.394531 8.777344 C 19.472656 8.855469 19.574219 8.894531 19.675781 8.894531 C 19.777344 8.894531 19.878906 8.855469 19.957031 8.777344 C 20.113281 8.621094 20.113281 8.367188 19.957031 8.210938 L 19.582031 7.835938 C 19.425781 7.679688 19.171875 7.679688 19.015625 7.835938 Z M 19.015625 7.835938 "/>
<path style=" stroke:none;fill-rule:nonzero;fill:rgb(0%,0%,0%);fill-opacity:1;" d="M 9.519531 5.671875 C 9.363281 5.519531 9.113281 5.519531 8.957031 5.671875 C 8.800781 5.828125 8.800781 6.082031 8.957031 6.238281 L 9.332031 6.613281 C 9.410156 6.691406 9.511719 6.730469 9.613281 6.730469 C 9.714844 6.730469 9.816406 6.691406 9.894531 6.613281 C 10.050781 6.457031 10.050781 6.207031 9.894531 6.050781 Z M 9.519531 5.671875 "/>
<path style=" stroke:none;fill-rule:nonzero;fill:rgb(0%,0%,0%);fill-opacity:1;" d="M 21.273438 15.921875 C 21.273438 15.921875 20.042969 14.695312 20.042969 14.695312 C 23.1875 11.253906 23.097656 5.898438 19.769531 2.570312 C 18.113281 0.914062 15.90625 0 13.5625 0 C 11.351562 0 9.265625 0.8125 7.644531 2.296875 L 5.851562 0.503906 C 5.695312 0.347656 5.445312 0.347656 5.289062 0.503906 C 5.132812 0.65625 5.132812 0.910156 5.289062 1.066406 L 5.578125 1.355469 C 1.605469 5.625 1.695312 12.328125 5.851562 16.488281 C 7.878906 18.511719 10.507812 19.570312 13.164062 19.667969 L 13.164062 20.480469 L 12.765625 20.480469 C 12.59375 20.480469 12.441406 20.589844 12.386719 20.75 L 11.945312 22.074219 L 9.839844 22.074219 C 8.582031 22.074219 7.535156 22.996094 7.34375 24.203125 L 7.179688 24.203125 C 6.960938 24.203125 6.78125 24.378906 6.78125 24.601562 C 6.78125 24.820312 6.960938 25 7.179688 25 L 19.945312 25 C 20.167969 25 20.34375 24.820312 20.34375 24.601562 C 20.34375 24.378906 20.167969 24.203125 19.945312 24.203125 L 19.78125 24.203125 C 19.589844 22.996094 18.542969 22.074219 17.285156 22.074219 L 15.179688 22.074219 L 14.738281 20.75 C 14.683594 20.589844 14.53125 20.480469 14.359375 20.480469 L 13.960938 20.480469 L 13.960938 19.667969 C 16.496094 19.574219 19.003906 18.609375 20.984375 16.761719 L 21.273438 17.050781 C 21.351562 17.128906 21.453125 17.167969 21.554688 17.167969 C 21.65625 17.167969 21.761719 17.128906 21.835938 17.050781 C 21.992188 16.894531 21.992188 16.644531 21.835938 16.488281 Z M 14.339844 22.074219 L 13.828125 22.074219 C 13.609375 22.074219 13.429688 22.253906 13.429688 22.472656 C 13.429688 22.695312 13.609375 22.871094 13.828125 22.871094 L 17.285156 22.871094 C 18.101562 22.871094 18.789062 23.441406 18.96875 24.203125 L 8.15625 24.203125 C 8.339844 23.441406 9.023438 22.871094 9.839844 22.871094 L 12.234375 22.871094 C 12.40625 22.871094 12.558594 22.761719 12.613281 22.597656 L 13.054688 21.277344 L 14.074219 21.277344 Z M 18.375 15.140625 C 18.199219 14.710938 18.292969 14.203125 18.640625 13.855469 C 18.988281 13.507812 19.496094 13.414062 19.929688 13.585938 C 19.710938 13.875 19.46875 14.15625 19.203125 14.417969 C 18.941406 14.679688 18.664062 14.921875 18.375 15.140625 Z M 20.382812 12.917969 C 19.628906 12.535156 18.699219 12.667969 18.078125 13.289062 C 17.453125 13.914062 17.320312 14.84375 17.707031 15.597656 C 16.492188 16.339844 15.097656 16.738281 13.644531 16.753906 L 13.5 15.25 C 13.433594 14.578125 13.007812 13.675781 12.527344 13.195312 L 11.402344 12.066406 C 11.246094 11.910156 10.992188 11.910156 10.835938 12.066406 L 8.578125 14.324219 C 8.453125 14.453125 8.351562 14.597656 8.28125 14.757812 C 8.160156 14.648438 8.039062 14.535156 7.921875 14.417969 C 7.699219 14.195312 7.492188 13.960938 7.300781 13.722656 L 9.238281 11.785156 L 9.332031 11.878906 C 9.410156 11.957031 9.511719 11.996094 9.613281 11.996094 C 9.714844 11.996094 9.816406 11.957031 9.894531 11.878906 C 10.050781 11.722656 10.050781 11.472656 9.894531 11.316406 L 9.519531 10.9375 L 5.75 7.171875 C 5.929688 6.285156 6.261719 5.429688 6.742188 4.636719 C 7.023438 4.78125 7.332031 4.851562 7.640625 4.851562 C 8.152344 4.851562 8.660156 4.652344 9.050781 4.261719 C 9.675781 3.636719 9.804688 2.707031 9.421875 1.953125 C 10.519531 1.285156 11.761719 0.894531 13.0625 0.8125 L 10.835938 3.039062 C 10.679688 3.195312 10.679688 3.449219 10.835938 3.605469 C 10.914062 3.683594 11.015625 3.722656 11.117188 3.722656 C 11.21875 3.722656 11.324219 3.683594 11.402344 3.605469 L 11.683594 3.324219 L 12.433594 4.074219 L 12.339844 4.167969 C 12.113281 4.394531 11.992188 4.695312 11.992188 5.015625 C 11.992188 5.195312 12.03125 5.371094 12.105469 5.53125 L 11.210938 6.425781 C 11.136719 6.5 11.09375 6.601562 11.09375 6.707031 C 11.09375 6.8125 11.136719 6.914062 11.210938 6.988281 L 12.058594 7.835938 L 11.589844 8.304688 C 11.433594 8.460938 11.433594 8.714844 11.589844 8.871094 C 11.667969 8.949219 11.769531 8.988281 11.871094 8.988281 C 11.972656 8.988281 12.074219 8.949219 12.152344 8.871094 L 12.90625 8.117188 C 12.90625 8.117188 15.253906 5.769531 15.253906 5.769531 L 15.820312 6.332031 L 13.09375 9.058594 C 12.523438 9.628906 12.523438 10.558594 13.09375 11.128906 C 13.664062 11.699219 14.589844 11.699219 15.160156 11.128906 L 15.253906 11.035156 L 16.289062 12.066406 C 16.566406 12.34375 16.933594 12.496094 17.324219 12.496094 C 17.714844 12.496094 18.082031 12.34375 18.359375 12.066406 L 19.675781 10.75 C 19.75 10.675781 19.792969 10.574219 19.792969 10.46875 C 19.792969 10.363281 19.75 10.261719 19.675781 10.1875 L 18.453125 8.964844 C 18.296875 8.808594 18.042969 8.808594 17.890625 8.964844 C 17.734375 9.121094 17.734375 9.371094 17.890625 9.527344 L 18.828125 10.46875 L 17.792969 11.503906 C 17.667969 11.628906 17.503906 11.695312 17.324219 11.695312 C 17.144531 11.695312 16.980469 11.628906 16.855469 11.503906 L 15.539062 10.1875 C 15.382812 10.03125 15.128906 10.03125 14.972656 10.1875 L 14.597656 10.5625 C 14.339844 10.824219 13.917969 10.824219 13.65625 10.5625 C 13.53125 10.4375 13.460938 10.269531 13.460938 10.09375 C 13.460938 9.914062 13.53125 9.75 13.65625 9.621094 L 15.820312 7.460938 L 16.761719 8.402344 C 16.839844 8.476562 16.941406 8.515625 17.042969 8.515625 C 17.144531 8.515625 17.246094 8.476562 17.324219 8.402344 C 17.480469 8.246094 17.480469 7.992188 17.324219 7.835938 L 16.382812 6.894531 L 16.667969 6.613281 C 16.742188 6.539062 16.78125 6.4375 16.78125 6.332031 C 16.78125 6.226562 16.742188 6.125 16.667969 6.050781 L 15.820312 5.203125 L 16.382812 4.640625 L 17.042969 5.296875 C 17.042969 5.296875 17.984375 6.238281 17.984375 6.238281 C 18.136719 6.394531 18.390625 6.394531 18.546875 6.238281 C 18.703125 6.082031 18.703125 5.828125 18.546875 5.671875 L 17.886719 5.015625 L 19.179688 3.726562 C 19.285156 3.621094 19.367188 3.496094 19.425781 3.363281 C 21.875 6.015625 22.195312 9.9375 20.382812 12.917969 Z M 8.953125 15.289062 C 8.96875 15.140625 9.035156 15 9.144531 14.886719 L 11.117188 12.914062 L 11.964844 13.761719 C 12.3125 14.105469 12.65625 14.839844 12.703125 15.328125 L 12.839844 16.722656 C 11.429688 16.597656 10.097656 16.105469 8.953125 15.289062 Z M 5.613281 8.160156 L 8.671875 11.222656 L 6.832031 13.0625 C 5.890625 11.582031 5.480469 9.855469 5.613281 8.160156 Z M 7.921875 3.136719 C 8.183594 2.871094 8.460938 2.632812 8.75 2.410156 C 8.925781 2.84375 8.835938 3.351562 8.484375 3.699219 C 8.136719 4.046875 7.632812 4.140625 7.199219 3.964844 C 7.417969 3.675781 7.65625 3.398438 7.921875 3.136719 Z M 18.621094 2.605469 C 18.691406 2.679688 18.730469 2.777344 18.730469 2.878906 C 18.730469 2.984375 18.691406 3.085938 18.613281 3.160156 L 17.324219 4.453125 L 16.667969 3.792969 C 16.589844 3.71875 16.488281 3.675781 16.382812 3.675781 C 16.277344 3.675781 16.175781 3.71875 16.101562 3.792969 L 12.621094 7.273438 L 12.058594 6.707031 L 12.90625 5.863281 C 13.0625 5.707031 13.0625 5.453125 12.90625 5.296875 C 12.828125 5.222656 12.789062 5.121094 12.789062 5.015625 C 12.789062 4.910156 12.828125 4.808594 12.90625 4.734375 L 13.28125 4.355469 C 13.4375 4.203125 13.4375 3.949219 13.28125 3.792969 L 12.246094 2.757812 L 14.183594 0.820312 C 15.820312 0.945312 17.359375 1.566406 18.621094 2.605469 Z M 6.417969 15.921875 C 2.570312 12.078125 2.480469 5.878906 6.140625 1.917969 L 7.082031 2.859375 C 3.9375 6.300781 4.03125 11.65625 7.355469 14.984375 C 9.015625 16.640625 11.21875 17.554688 13.5625 17.554688 C 15.773438 17.554688 17.859375 16.742188 19.480469 15.257812 L 20.421875 16.199219 C 16.460938 19.859375 10.261719 19.769531 6.417969 15.921875 Z M 6.417969 15.921875 "/>
</g>
</svg>
