<?xml version="1.0" encoding="UTF-8"?>
<svg xmlns="http://www.w3.org/2000/svg" xmlns:xlink="http://www.w3.org/1999/xlink" width="25px" height="25px" viewBox="0 0 25 25" version="1.1">
<g id="surface1">
<path style=" stroke:none;fill-rule:nonzero;fill:rgb(58.431373%,20.392157%,11.372549%);fill-opacity:1;" d="M 12.367188 7.046875 L 12.367188 8.644531 L 15.027344 8.644531 L 15.558594 7.847656 L 15.027344 7.046875 Z M 12.367188 7.046875 "/>
<path style=" stroke:none;fill-rule:nonzero;fill:rgb(67.058824%,36.470588%,29.019608%);fill-opacity:1;" d="M 23.003906 6.25 C 22.414062 6.25 21.898438 6.570312 21.625 7.046875 L 15.027344 7.046875 L 15.027344 8.644531 L 21.625 8.644531 C 21.898438 9.121094 22.414062 9.441406 23.003906 9.441406 C 23.886719 9.441406 24.601562 8.726562 24.601562 7.84375 C 24.601562 6.964844 23.886719 6.25 23.003906 6.25 Z M 23.003906 6.25 "/>
<path style=" stroke:none;fill-rule:nonzero;fill:rgb(67.058824%,36.470588%,29.019608%);fill-opacity:1;" d="M 14.496094 16.886719 L 12.898438 16.886719 L 14.230469 20.613281 L 15.824219 20.613281 L 15.824219 18.21875 C 15.824219 17.484375 15.230469 16.886719 14.496094 16.886719 Z M 14.496094 16.886719 "/>
<path style=" stroke:none;fill-rule:nonzero;fill:rgb(75.294118%,52.156863%,46.666667%);fill-opacity:1;" d="M 12.898438 16.886719 L 4.921875 16.886719 C 4.1875 16.886719 3.589844 17.484375 3.589844 18.21875 L 3.589844 20.613281 L 14.230469 20.613281 L 14.230469 18.21875 C 14.230469 17.484375 13.632812 16.886719 12.898438 16.886719 Z M 12.898438 16.886719 "/>
<path style=" stroke:none;fill-rule:nonzero;fill:rgb(94.509804%,52.54902%,42.745098%);fill-opacity:1;" d="M 10.769531 12.101562 L 13.429688 11.039062 L 13.429688 4.652344 L 10.769531 3.589844 Z M 10.769531 12.101562 "/>
<path style=" stroke:none;fill-rule:nonzero;fill:rgb(96.078431%,67.45098%,31.764706%);fill-opacity:1;" d="M 11.835938 3.589844 L 5.984375 4.652344 L 5.984375 11.039062 L 11.835938 12.101562 Z M 11.835938 3.589844 "/>
<path style=" stroke:none;fill-rule:nonzero;fill:rgb(47.45098%,16.470588%,9.411765%);fill-opacity:1;" d="M 10.769531 1.996094 L 11.835938 4.652344 L 13.429688 4.652344 L 13.429688 1.996094 Z M 10.769531 1.996094 "/>
<path style=" stroke:none;fill-rule:nonzero;fill:rgb(58.431373%,20.392157%,11.372549%);fill-opacity:1;" d="M 5.984375 1.996094 L 11.835938 1.996094 L 11.835938 4.652344 L 5.984375 4.652344 Z M 5.984375 1.996094 "/>
<path style=" stroke:none;fill-rule:nonzero;fill:rgb(67.058824%,36.470588%,29.019608%);fill-opacity:1;" d="M 10.769531 13.695312 L 13.429688 13.695312 L 13.429688 11.039062 L 11.835938 11.039062 Z M 10.769531 13.695312 "/>
<path style=" stroke:none;fill-rule:nonzero;fill:rgb(75.294118%,52.156863%,46.666667%);fill-opacity:1;" d="M 5.984375 11.039062 L 11.835938 11.039062 L 11.835938 13.695312 L 5.984375 13.695312 Z M 5.984375 11.039062 "/>
<path style=" stroke:none;fill-rule:nonzero;fill:rgb(58.431373%,20.392157%,11.372549%);fill-opacity:1;" d="M 13.429688 12.632812 L 11.835938 12.632812 L 11.835938 15.292969 L 13.429688 15.292969 C 14.164062 15.292969 14.761719 14.695312 14.761719 13.960938 C 14.761719 13.226562 14.164062 12.632812 13.429688 12.632812 Z M 13.429688 12.632812 "/>
<path style=" stroke:none;fill-rule:nonzero;fill:rgb(67.058824%,36.470588%,29.019608%);fill-opacity:1;" d="M 13.164062 13.960938 C 13.164062 13.226562 12.570312 12.632812 11.835938 12.632812 L 5.984375 12.632812 C 5.25 12.632812 4.652344 13.226562 4.652344 13.960938 C 4.652344 14.695312 5.25 15.292969 5.984375 15.292969 L 11.835938 15.292969 C 12.570312 15.292969 13.164062 14.695312 13.164062 13.960938 Z M 13.164062 13.960938 "/>
<path style=" stroke:none;fill-rule:nonzero;fill:rgb(67.058824%,36.470588%,29.019608%);fill-opacity:1;" d="M 13.429688 0.398438 L 11.835938 0.398438 L 11.835938 3.058594 L 13.429688 3.058594 C 14.164062 3.058594 14.761719 2.464844 14.761719 1.730469 C 14.761719 0.996094 14.164062 0.398438 13.429688 0.398438 Z M 13.429688 0.398438 "/>
<path style=" stroke:none;fill-rule:nonzero;fill:rgb(75.294118%,52.156863%,46.666667%);fill-opacity:1;" d="M 13.164062 1.730469 C 13.164062 0.996094 12.570312 0.398438 11.835938 0.398438 L 5.984375 0.398438 C 5.25 0.398438 4.652344 0.996094 4.652344 1.730469 C 4.652344 2.464844 5.25 3.058594 5.984375 3.058594 L 11.835938 3.058594 C 12.570312 3.058594 13.164062 2.464844 13.164062 1.730469 Z M 13.164062 1.730469 "/>
<path style=" stroke:none;fill-rule:nonzero;fill:rgb(58.431373%,20.392157%,11.372549%);fill-opacity:1;" d="M 15.824219 19.015625 L 14.230469 19.015625 L 16.886719 24.601562 L 18.484375 24.601562 L 18.484375 21.675781 C 18.484375 20.207031 17.292969 19.015625 15.824219 19.015625 Z M 15.824219 19.015625 "/>
<path style=" stroke:none;fill-rule:nonzero;fill:rgb(67.058824%,36.470588%,29.019608%);fill-opacity:1;" d="M 14.230469 19.015625 L 3.589844 19.015625 C 2.121094 19.015625 0.929688 20.207031 0.929688 21.675781 L 0.929688 24.601562 L 16.886719 24.601562 L 16.886719 21.675781 C 16.886719 20.207031 15.699219 19.015625 14.230469 19.015625 Z M 14.230469 19.015625 "/>
<path style=" stroke:none;fill-rule:nonzero;fill:rgb(0%,0%,0%);fill-opacity:1;" d="M 15.292969 21.011719 C 15.292969 21.230469 15.113281 21.410156 14.894531 21.410156 C 14.671875 21.410156 14.496094 21.230469 14.496094 21.011719 C 14.496094 20.789062 14.671875 20.613281 14.894531 20.613281 C 15.113281 20.613281 15.292969 20.789062 15.292969 21.011719 Z M 15.292969 21.011719 "/>
<path style=" stroke:none;fill-rule:nonzero;fill:rgb(0%,0%,0%);fill-opacity:1;" d="M 16.886719 22.605469 C 16.886719 22.828125 16.710938 23.003906 16.488281 23.003906 C 16.269531 23.003906 16.089844 22.828125 16.089844 22.605469 C 16.089844 22.386719 16.269531 22.207031 16.488281 22.207031 C 16.710938 22.207031 16.886719 22.386719 16.886719 22.605469 Z M 16.886719 22.605469 "/>
<path style=" stroke:none;fill-rule:nonzero;fill:rgb(0%,0%,0%);fill-opacity:1;" d="M 19.015625 24.203125 L 18.882812 24.203125 L 18.882812 21.675781 C 18.882812 20.125 17.722656 18.839844 16.222656 18.644531 L 16.222656 18.21875 C 16.222656 17.265625 15.449219 16.488281 14.496094 16.488281 L 4.921875 16.488281 C 3.96875 16.488281 3.191406 17.265625 3.191406 18.21875 L 3.191406 18.644531 C 1.691406 18.839844 0.53125 20.125 0.53125 21.675781 L 0.53125 24.203125 L 0.398438 24.203125 C 0.179688 24.203125 0 24.378906 0 24.601562 C 0 24.820312 0.179688 25 0.398438 25 L 19.015625 25 C 19.234375 25 19.414062 24.820312 19.414062 24.601562 C 19.414062 24.378906 19.234375 24.203125 19.015625 24.203125 Z M 1.328125 21.675781 C 1.328125 20.429688 2.34375 19.414062 3.589844 19.414062 L 5.1875 19.414062 C 5.40625 19.414062 5.585938 19.234375 5.585938 19.015625 C 5.585938 18.796875 5.40625 18.617188 5.1875 18.617188 L 3.988281 18.617188 L 3.988281 18.21875 C 3.988281 17.703125 4.40625 17.289062 4.921875 17.289062 L 14.496094 17.289062 C 15.007812 17.289062 15.425781 17.703125 15.425781 18.21875 L 15.425781 18.617188 L 6.78125 18.617188 C 6.5625 18.617188 6.382812 18.796875 6.382812 19.015625 C 6.382812 19.234375 6.5625 19.414062 6.78125 19.414062 L 15.824219 19.414062 C 17.070312 19.414062 18.085938 20.429688 18.085938 21.675781 L 18.085938 24.203125 L 1.328125 24.203125 Z M 1.328125 21.675781 "/>
<path style=" stroke:none;fill-rule:nonzero;fill:rgb(0%,0%,0%);fill-opacity:1;" d="M 23.003906 5.851562 C 22.375 5.851562 21.785156 6.152344 21.410156 6.648438 L 13.828125 6.648438 L 13.828125 5.054688 L 13.960938 5.054688 C 14.183594 5.054688 14.363281 4.875 14.363281 4.652344 C 14.363281 4.433594 14.183594 4.253906 13.960938 4.253906 L 13.828125 4.253906 L 13.828125 3.410156 C 14.589844 3.230469 15.160156 2.542969 15.160156 1.730469 C 15.160156 0.777344 14.382812 0 13.429688 0 L 5.984375 0 C 5.03125 0 4.253906 0.777344 4.253906 1.730469 C 4.253906 2.542969 4.824219 3.230469 5.585938 3.410156 L 5.585938 4.253906 L 5.453125 4.253906 C 5.230469 4.253906 5.054688 4.433594 5.054688 4.652344 C 5.054688 4.875 5.230469 5.054688 5.453125 5.054688 L 5.585938 5.054688 L 5.585938 10.636719 L 5.453125 10.636719 C 5.230469 10.636719 5.054688 10.816406 5.054688 11.039062 C 5.054688 11.257812 5.230469 11.4375 5.453125 11.4375 L 5.585938 11.4375 L 5.585938 12.28125 C 4.824219 12.460938 4.253906 13.148438 4.253906 13.960938 C 4.253906 14.914062 5.03125 15.691406 5.984375 15.691406 L 13.429688 15.691406 C 14.382812 15.691406 15.160156 14.914062 15.160156 13.960938 C 15.160156 13.148438 14.589844 12.460938 13.828125 12.28125 L 13.828125 11.4375 L 13.960938 11.4375 C 14.183594 11.4375 14.363281 11.257812 14.363281 11.039062 C 14.363281 10.816406 14.183594 10.636719 13.960938 10.636719 L 13.828125 10.636719 L 13.828125 7.445312 L 21.625 7.445312 C 21.765625 7.445312 21.898438 7.371094 21.96875 7.246094 C 22.183594 6.878906 22.578125 6.648438 23.003906 6.648438 C 23.664062 6.648438 24.203125 7.1875 24.203125 7.84375 C 24.203125 8.503906 23.664062 9.042969 23.003906 9.042969 C 22.578125 9.042969 22.183594 8.8125 21.96875 8.445312 C 21.898438 8.320312 21.765625 8.246094 21.625 8.246094 L 15.027344 8.246094 C 14.804688 8.246094 14.628906 8.421875 14.628906 8.644531 C 14.628906 8.863281 14.804688 9.042969 15.027344 9.042969 L 21.410156 9.042969 C 21.785156 9.539062 22.375 9.839844 23.003906 9.839844 C 24.105469 9.839844 25 8.945312 25 7.84375 C 25 6.746094 24.105469 5.851562 23.003906 5.851562 Z M 5.054688 1.730469 C 5.054688 1.214844 5.472656 0.796875 5.984375 0.796875 L 13.429688 0.796875 C 13.945312 0.796875 14.363281 1.214844 14.363281 1.730469 C 14.363281 2.242188 13.945312 2.660156 13.429688 2.660156 L 5.984375 2.660156 C 5.472656 2.660156 5.054688 2.242188 5.054688 1.730469 Z M 6.382812 3.457031 L 13.03125 3.457031 L 13.03125 4.253906 L 6.382812 4.253906 Z M 14.363281 13.960938 C 14.363281 14.476562 13.945312 14.894531 13.429688 14.894531 L 5.984375 14.894531 C 5.472656 14.894531 5.054688 14.476562 5.054688 13.960938 C 5.054688 13.449219 5.472656 13.03125 5.984375 13.03125 L 13.429688 13.03125 C 13.945312 13.03125 14.363281 13.449219 14.363281 13.960938 Z M 13.03125 12.234375 L 6.382812 12.234375 L 6.382812 11.4375 L 13.03125 11.4375 Z M 6.382812 10.636719 L 6.382812 5.054688 L 13.03125 5.054688 L 13.03125 10.636719 Z M 6.382812 10.636719 "/>
</g>
</svg>
