<?xml version="1.0" encoding="UTF-8"?>
<svg xmlns="http://www.w3.org/2000/svg" xmlns:xlink="http://www.w3.org/1999/xlink" width="25px" height="25px" viewBox="0 0 25 25" version="1.1">
<g id="surface1">
<path style=" stroke:none;fill-rule:nonzero;fill:rgb(100%,80%,18.431373%);fill-opacity:1;" d="M 7.8125 11.71875 L 4.6875 11.71875 C 4.257812 11.71875 3.90625 11.367188 3.90625 10.9375 L 3.90625 7.8125 C 3.90625 7.382812 4.257812 7.03125 4.6875 7.03125 L 7.8125 7.03125 C 8.242188 7.03125 8.59375 7.382812 8.59375 7.8125 L 8.59375 10.9375 C 8.59375 11.144531 8.511719 11.34375 8.363281 11.488281 C 8.21875 11.636719 8.019531 11.71875 7.8125 11.71875 Z M 5.46875 10.15625 L 7.03125 10.15625 L 7.03125 8.59375 L 5.46875 8.59375 Z M 5.46875 10.15625 "/>
<path style=" stroke:none;fill-rule:nonzero;fill:rgb(100%,80%,18.431373%);fill-opacity:1;" d="M 20.3125 11.71875 L 17.1875 11.71875 C 16.757812 11.71875 16.40625 11.367188 16.40625 10.9375 L 16.40625 7.8125 C 16.40625 7.382812 16.757812 7.03125 17.1875 7.03125 L 20.3125 7.03125 C 20.742188 7.03125 21.09375 7.382812 21.09375 7.8125 L 21.09375 10.9375 C 21.09375 11.144531 21.011719 11.34375 20.863281 11.488281 C 20.71875 11.636719 20.519531 11.71875 20.3125 11.71875 Z M 17.96875 10.15625 L 19.53125 10.15625 L 19.53125 8.59375 L 17.96875 8.59375 Z M 17.96875 10.15625 "/>
<path style=" stroke:none;fill-rule:nonzero;fill:rgb(100%,80%,18.431373%);fill-opacity:1;" d="M 14.0625 11.71875 L 10.9375 11.71875 C 10.507812 11.71875 10.15625 11.367188 10.15625 10.9375 L 10.15625 7.8125 C 10.15625 7.382812 10.507812 7.03125 10.9375 7.03125 L 14.0625 7.03125 C 14.492188 7.03125 14.84375 7.382812 14.84375 7.8125 L 14.84375 10.9375 C 14.84375 11.144531 14.761719 11.34375 14.613281 11.488281 C 14.46875 11.636719 14.269531 11.71875 14.0625 11.71875 Z M 11.71875 10.15625 L 13.28125 10.15625 L 13.28125 8.59375 L 11.71875 8.59375 Z M 11.71875 10.15625 "/>
<path style=" stroke:none;fill-rule:nonzero;fill:rgb(100%,80%,18.431373%);fill-opacity:1;" d="M 7.8125 17.96875 L 4.6875 17.96875 C 4.257812 17.96875 3.90625 17.617188 3.90625 17.1875 L 3.90625 14.0625 C 3.90625 13.632812 4.257812 13.28125 4.6875 13.28125 L 7.8125 13.28125 C 8.242188 13.28125 8.59375 13.632812 8.59375 14.0625 L 8.59375 17.1875 C 8.59375 17.394531 8.511719 17.59375 8.363281 17.738281 C 8.21875 17.886719 8.019531 17.96875 7.8125 17.96875 Z M 5.46875 16.40625 L 7.03125 16.40625 L 7.03125 14.84375 L 5.46875 14.84375 Z M 5.46875 16.40625 "/>
<path style=" stroke:none;fill-rule:nonzero;fill:rgb(100%,80%,18.431373%);fill-opacity:1;" d="M 20.3125 17.96875 L 17.1875 17.96875 C 16.757812 17.96875 16.40625 17.617188 16.40625 17.1875 L 16.40625 14.0625 C 16.40625 13.632812 16.757812 13.28125 17.1875 13.28125 L 20.3125 13.28125 C 20.742188 13.28125 21.09375 13.632812 21.09375 14.0625 L 21.09375 17.1875 C 21.09375 17.394531 21.011719 17.59375 20.863281 17.738281 C 20.71875 17.886719 20.519531 17.96875 20.3125 17.96875 Z M 17.96875 16.40625 L 19.53125 16.40625 L 19.53125 14.84375 L 17.96875 14.84375 Z M 17.96875 16.40625 "/>
<path style=" stroke:none;fill-rule:nonzero;fill:rgb(100%,80%,18.431373%);fill-opacity:1;" d="M 14.0625 17.96875 L 10.9375 17.96875 C 10.507812 17.96875 10.15625 17.617188 10.15625 17.1875 L 10.15625 14.0625 C 10.15625 13.632812 10.507812 13.28125 10.9375 13.28125 L 14.0625 13.28125 C 14.492188 13.28125 14.84375 13.632812 14.84375 14.0625 L 14.84375 17.1875 C 14.84375 17.394531 14.761719 17.59375 14.613281 17.738281 C 14.46875 17.886719 14.269531 17.96875 14.0625 17.96875 Z M 11.71875 16.40625 L 13.28125 16.40625 L 13.28125 14.84375 L 11.71875 14.84375 Z M 11.71875 16.40625 "/>
<path style=" stroke:none;fill-rule:nonzero;fill:rgb(100%,80%,18.431373%);fill-opacity:1;" d="M 23.4375 24.21875 L 17.1875 24.21875 C 16.757812 24.21875 16.40625 23.867188 16.40625 23.4375 C 16.40625 23.007812 16.757812 22.65625 17.1875 22.65625 L 23.4375 22.65625 C 23.867188 22.65625 24.21875 23.007812 24.21875 23.4375 C 24.21875 23.867188 23.867188 24.21875 23.4375 24.21875 Z M 15.625 23.4375 C 15.625 23.007812 15.273438 22.65625 14.84375 22.65625 L 13.28125 22.65625 C 12.851562 22.65625 12.5 23.007812 12.5 23.4375 C 12.5 23.867188 12.851562 24.21875 13.28125 24.21875 L 14.84375 24.21875 C 15.273438 24.21875 15.625 23.867188 15.625 23.4375 Z M 11.71875 23.4375 C 11.71875 23.007812 11.367188 22.65625 10.9375 22.65625 L 1.5625 22.65625 C 1.132812 22.65625 0.78125 23.007812 0.78125 23.4375 C 0.78125 23.867188 1.132812 24.21875 1.5625 24.21875 L 10.9375 24.21875 C 11.367188 24.21875 11.71875 23.867188 11.71875 23.4375 Z M 11.71875 23.4375 "/>
<path style=" stroke:none;fill-rule:nonzero;fill:rgb(100%,56.862745%,10.980392%);fill-opacity:1;" d="M 23.4375 21.09375 L 1.5625 21.09375 C 1.132812 21.09375 0.78125 20.742188 0.78125 20.3125 L 0.78125 3.125 C 0.78125 2.695312 1.132812 2.34375 1.5625 2.34375 L 23.4375 2.34375 C 23.867188 2.34375 24.21875 2.695312 24.21875 3.125 L 24.21875 20.3125 C 24.21875 20.519531 24.136719 20.71875 23.988281 20.863281 C 23.84375 21.011719 23.644531 21.09375 23.4375 21.09375 Z M 2.34375 19.53125 L 22.65625 19.53125 L 22.65625 3.90625 L 2.34375 3.90625 Z M 2.34375 19.53125 "/>
<path style=" stroke:none;fill-rule:nonzero;fill:rgb(100%,80%,18.431373%);fill-opacity:1;" d="M 12.5 5.46875 C 12.070312 5.46875 11.71875 5.121094 11.71875 4.6875 L 11.71875 1.5625 C 11.71875 1.132812 12.070312 0.78125 12.5 0.78125 C 12.929688 0.78125 13.28125 1.132812 13.28125 1.5625 L 13.28125 4.6875 C 13.28125 5.117188 12.933594 5.46875 12.5 5.46875 Z M 17.1875 5.46875 C 17.621094 5.46875 17.96875 5.117188 17.96875 4.6875 L 17.96875 1.5625 C 17.96875 1.132812 17.617188 0.78125 17.1875 0.78125 C 16.757812 0.78125 16.40625 1.132812 16.40625 1.5625 L 16.40625 4.6875 C 16.40625 5.121094 16.757812 5.46875 17.1875 5.46875 Z M 7.8125 5.46875 C 8.246094 5.46875 8.59375 5.117188 8.59375 4.6875 L 8.59375 1.5625 C 8.59375 1.132812 8.242188 0.78125 7.8125 0.78125 C 7.382812 0.78125 7.03125 1.132812 7.03125 1.5625 L 7.03125 4.6875 C 7.03125 5.121094 7.382812 5.46875 7.8125 5.46875 Z M 7.8125 5.46875 "/>
</g>
</svg>
