<?xml version="1.0" encoding="UTF-8"?>
<svg xmlns="http://www.w3.org/2000/svg" xmlns:xlink="http://www.w3.org/1999/xlink" width="25px" height="25px" viewBox="0 0 25 25" version="1.1">
<g id="surface1">
<path style=" stroke:none;fill-rule:nonzero;fill:rgb(65.490196%,72.156863%,77.647059%);fill-opacity:1;" d="M 22.230469 20.621094 L 4.277344 20.621094 C 3.609375 20.621094 3.066406 20.078125 3.066406 19.410156 L 3.066406 7.316406 C 3.066406 6.644531 3.609375 6.105469 4.277344 6.105469 L 22.230469 6.105469 C 22.898438 6.105469 23.441406 6.648438 23.441406 7.316406 L 23.441406 19.410156 C 23.441406 20.078125 22.894531 20.621094 22.230469 20.621094 Z M 22.230469 20.621094 "/>
<path style=" stroke:none;fill-rule:nonzero;fill:rgb(85.098039%,49.019608%,29.019608%);fill-opacity:1;" d="M 22.265625 18.050781 L 22.265625 6.296875 C 22.265625 5.648438 21.722656 5.121094 21.054688 5.121094 L 12.730469 5.121094 L 12.730469 19.226562 L 21.050781 19.226562 C 21.722656 19.226562 22.265625 18.699219 22.265625 18.050781 Z M 22.265625 18.050781 "/>
<path style=" stroke:none;fill-rule:nonzero;fill:rgb(45.882353%,74.901961%,67.058824%);fill-opacity:1;" d="M 3.898438 5.121094 C 3.113281 5.121094 2.476562 5.648438 2.476562 6.296875 L 2.476562 18.050781 C 2.476562 18.703125 3.117188 19.226562 3.898438 19.226562 L 15.175781 19.226562 L 15.175781 5.121094 Z M 3.898438 5.121094 "/>
<path style=" stroke:none;fill-rule:nonzero;fill:rgb(24.313725%,22.745098%,22.352941%);fill-opacity:1;" d="M 21.050781 19.558594 L 3.101562 19.558594 C 2.253906 19.558594 1.558594 18.867188 1.558594 18.015625 L 1.558594 5.921875 C 1.558594 5.070312 2.25 4.378906 3.101562 4.378906 L 21.054688 4.378906 C 21.90625 4.378906 22.597656 5.070312 22.597656 5.921875 L 22.597656 18.015625 C 22.59375 18.867188 21.90625 19.558594 21.050781 19.558594 Z M 3.101562 5.039062 C 2.617188 5.039062 2.222656 5.433594 2.222656 5.921875 L 2.222656 18.015625 C 2.222656 18.503906 2.617188 18.898438 3.101562 18.898438 L 21.054688 18.898438 C 21.539062 18.898438 21.9375 18.503906 21.9375 18.015625 L 21.9375 5.921875 C 21.9375 5.433594 21.539062 5.039062 21.054688 5.039062 Z M 3.101562 5.039062 "/>
<path style=" stroke:none;fill-rule:nonzero;fill:rgb(54.117647%,49.019608%,58.823529%);fill-opacity:1;" d="M 4.292969 11.96875 C 4.292969 15.191406 6.90625 17.804688 10.128906 17.804688 C 13.351562 17.804688 15.96875 15.191406 15.964844 11.96875 C 15.96875 8.742188 13.351562 6.128906 10.128906 6.128906 C 6.90625 6.128906 4.292969 8.742188 4.292969 11.96875 Z M 4.292969 11.96875 "/>
<path style=" stroke:none;fill-rule:nonzero;fill:rgb(100%,100%,100%);fill-opacity:1;" d="M 10.128906 18.132812 C 6.726562 18.132812 3.960938 15.367188 3.960938 11.96875 C 3.960938 8.566406 6.726562 5.800781 10.128906 5.800781 C 13.53125 5.800781 16.296875 8.566406 16.296875 11.96875 C 16.296875 15.367188 13.53125 18.132812 10.128906 18.132812 Z M 10.128906 6.460938 C 7.09375 6.460938 4.621094 8.929688 4.621094 11.96875 C 4.621094 15.003906 7.09375 17.476562 10.128906 17.476562 C 13.167969 17.476562 15.636719 15.003906 15.636719 11.96875 C 15.636719 8.929688 13.167969 6.460938 10.128906 6.460938 Z M 10.128906 6.460938 "/>
<path style=" stroke:none;fill-rule:nonzero;fill:rgb(94.509804%,88.235294%,80%);fill-opacity:1;" d="M 7.96875 11.96875 C 7.96875 13.160156 8.9375 14.128906 10.128906 14.128906 C 11.324219 14.128906 12.289062 13.160156 12.289062 11.96875 C 12.289062 10.773438 11.324219 9.808594 10.128906 9.808594 C 8.9375 9.808594 7.96875 10.773438 7.96875 11.96875 Z M 7.96875 11.96875 "/>
<path style=" stroke:none;fill-rule:nonzero;fill:rgb(93.72549%,76.862745%,40.392157%);fill-opacity:1;" d="M 10.128906 14.457031 C 8.757812 14.457031 7.640625 13.339844 7.640625 11.96875 C 7.640625 10.59375 8.757812 9.476562 10.128906 9.476562 C 11.5 9.476562 12.621094 10.597656 12.621094 11.96875 C 12.621094 13.339844 11.503906 14.457031 10.128906 14.457031 Z M 10.128906 10.140625 C 9.121094 10.140625 8.300781 10.960938 8.300781 11.96875 C 8.300781 12.976562 9.121094 13.796875 10.128906 13.796875 C 11.136719 13.796875 11.957031 12.976562 11.957031 11.96875 C 11.960938 10.960938 11.140625 10.140625 10.128906 10.140625 Z M 10.128906 10.140625 "/>
<path style=" stroke:none;fill-rule:nonzero;fill:rgb(83.137255%,60%,40.392157%);fill-opacity:1;" d="M 17.382812 18.585938 C 16.15625 18.585938 15.152344 17.582031 15.152344 16.355469 C 15.152344 15.128906 16.15625 14.125 17.382812 14.125 C 18.609375 14.125 19.613281 15.128906 19.613281 16.355469 C 19.613281 17.585938 18.609375 18.585938 17.382812 18.585938 Z M 17.382812 14.566406 C 16.398438 14.566406 15.59375 15.367188 15.59375 16.355469 C 15.59375 17.339844 16.398438 18.144531 17.382812 18.144531 C 18.367188 18.144531 19.171875 17.339844 19.171875 16.355469 C 19.171875 15.367188 18.367188 14.566406 17.382812 14.566406 Z M 17.382812 14.566406 "/>
<path style=" stroke:none;fill-rule:nonzero;fill:rgb(85.882353%,61.176471%,41.176471%);fill-opacity:1;" d="M 16.527344 16.355469 C 16.527344 16.828125 16.910156 17.210938 17.382812 17.210938 C 17.855469 17.210938 18.238281 16.828125 18.238281 16.355469 C 18.238281 15.882812 17.855469 15.5 17.382812 15.5 C 16.910156 15.5 16.527344 15.882812 16.527344 16.355469 Z M 16.527344 16.355469 "/>
<path style=" stroke:none;fill-rule:nonzero;fill:rgb(96.078431%,92.941176%,78.039216%);fill-opacity:1;" d="M 10.683594 16.070312 L 10.101562 15.710938 L 9.921875 16.011719 L 10.589844 16.417969 C 10.679688 16.46875 10.78125 16.5 10.886719 16.5 L 17.0625 16.5 L 17.0625 16.148438 L 10.980469 16.148438 C 10.875 16.152344 10.773438 16.125 10.683594 16.070312 Z M 10.683594 16.070312 "/>
<path style=" stroke:none;fill-rule:nonzero;fill:rgb(92.156863%,70.588235%,27.843137%);fill-opacity:1;" d="M 13.71875 16.558594 L 13.71875 16.15625 C 13.71875 15.992188 13.851562 15.863281 14.015625 15.863281 L 17.191406 15.863281 C 17.464844 15.863281 17.6875 16.085938 17.6875 16.359375 C 17.6875 16.632812 17.464844 16.851562 17.191406 16.851562 L 14.015625 16.851562 C 13.851562 16.851562 13.71875 16.71875 13.71875 16.558594 Z M 13.71875 16.558594 "/>
<path style=" stroke:none;fill-rule:nonzero;fill:rgb(90.588235%,51.372549%,25.490196%);fill-opacity:1;" d="M 10.382812 15.910156 L 10.234375 16.15625 C 10.21875 16.179688 10.179688 16.1875 10.132812 16.175781 L 9.710938 16.042969 C 9.632812 16.019531 9.578125 15.945312 9.605469 15.902344 L 9.859375 15.480469 C 9.886719 15.433594 9.976562 15.449219 10.03125 15.503906 L 10.351562 15.816406 C 10.386719 15.84375 10.398438 15.882812 10.382812 15.910156 Z M 10.382812 15.910156 "/>
<path style=" stroke:none;fill-rule:nonzero;fill:rgb(91.764706%,70.980392%,27.058824%);fill-opacity:1;" d="M 10.019531 15.613281 L 9.808594 15.972656 C 9.75 16.070312 9.625 16.101562 9.527344 16.046875 L 9.476562 16.015625 C 9.378906 15.957031 9.34375 15.832031 9.402344 15.734375 L 9.613281 15.375 C 9.671875 15.277344 9.796875 15.242188 9.898438 15.300781 L 9.945312 15.328125 C 10.042969 15.386719 10.078125 15.511719 10.019531 15.613281 Z M 10.019531 15.613281 "/>
<path style=" stroke:none;fill-rule:nonzero;fill:rgb(66.666667%,29.019608%,13.72549%);fill-opacity:1;" d="M 18.578125 10.203125 L 19.410156 10.203125 L 19.410156 14.460938 L 18.578125 14.460938 Z M 18.578125 10.203125 "/>
<path style=" stroke:none;fill-rule:nonzero;fill:rgb(91.372549%,65.098039%,45.882353%);fill-opacity:1;" d="M 18.578125 10.203125 L 18.785156 10.203125 L 18.785156 14.460938 L 18.578125 14.460938 Z M 18.578125 10.203125 "/>
<path style=" stroke:none;fill-rule:nonzero;fill:rgb(90.196078%,90.588235%,89.803922%);fill-opacity:1;" d="M 18.164062 11.882812 L 19.953125 11.882812 L 19.953125 12.617188 L 18.164062 12.617188 Z M 18.164062 11.882812 "/>
<path style=" stroke:none;fill-rule:nonzero;fill:rgb(76.862745%,76.862745%,76.862745%);fill-opacity:1;" d="M 18.164062 12.382812 L 19.953125 12.382812 L 19.953125 12.597656 L 18.164062 12.597656 Z M 18.164062 12.382812 "/>
<path style=" stroke:none;fill-rule:nonzero;fill:rgb(74.509804%,18.039216%,17.647059%);fill-opacity:1;" d="M 17.859375 9.078125 C 17.859375 9.476562 18.179688 9.796875 18.578125 9.796875 C 18.972656 9.796875 19.292969 9.476562 19.292969 9.078125 C 19.292969 8.683594 18.972656 8.363281 18.578125 8.363281 C 18.179688 8.363281 17.859375 8.683594 17.863281 9.078125 Z M 17.859375 9.078125 "/>
<path style=" stroke:none;fill-rule:nonzero;fill:rgb(93.72549%,87.45098%,79.607843%);fill-opacity:1;" d="M 18.578125 9.976562 C 18.082031 9.976562 17.679688 9.574219 17.679688 9.078125 C 17.679688 8.585938 18.082031 8.179688 18.578125 8.179688 C 19.070312 8.179688 19.476562 8.585938 19.476562 9.078125 C 19.476562 9.574219 19.070312 9.976562 18.578125 9.976562 Z M 18.578125 8.546875 C 18.285156 8.546875 18.042969 8.785156 18.042969 9.078125 C 18.042969 9.371094 18.285156 9.613281 18.578125 9.613281 C 18.871094 9.613281 19.109375 9.371094 19.109375 9.078125 C 19.109375 8.785156 18.871094 8.546875 18.578125 8.546875 Z M 18.578125 8.546875 "/>
<path style=" stroke:none;fill-rule:nonzero;fill:rgb(74.901961%,74.509804%,74.117647%);fill-opacity:1;" d="M 16.011719 6.742188 C 16.011719 7.496094 16.625 8.109375 17.382812 8.109375 C 18.140625 8.109375 18.753906 7.496094 18.753906 6.742188 C 18.753906 5.984375 18.140625 5.371094 17.382812 5.371094 C 16.625 5.371094 16.011719 5.984375 16.011719 6.742188 Z M 16.011719 6.742188 "/>
<path style=" stroke:none;fill-rule:nonzero;fill:rgb(88.235294%,87.843137%,87.45098%);fill-opacity:1;" d="M 17.382812 8.257812 C 16.546875 8.257812 15.863281 7.578125 15.863281 6.742188 C 15.863281 5.902344 16.546875 5.226562 17.382812 5.226562 C 18.21875 5.226562 18.902344 5.90625 18.902344 6.742188 C 18.902344 7.582031 18.21875 8.257812 17.382812 8.257812 Z M 17.382812 5.515625 C 16.710938 5.515625 16.160156 6.066406 16.160156 6.742188 C 16.160156 7.414062 16.710938 7.964844 17.382812 7.964844 C 18.054688 7.964844 18.605469 7.414062 18.605469 6.742188 C 18.605469 6.066406 18.054688 5.515625 17.382812 5.515625 Z M 17.382812 5.515625 "/>
<path style=" stroke:none;fill-rule:nonzero;fill:rgb(69.411765%,69.019608%,68.627451%);fill-opacity:1;" d="M 17.160156 5.824219 L 17.613281 5.824219 L 17.613281 7.425781 L 17.160156 7.425781 Z M 17.160156 5.824219 "/>
<path style=" stroke:none;fill-rule:nonzero;fill:rgb(66.666667%,66.27451%,65.882353%);fill-opacity:1;" d="M 17.496094 5.824219 L 17.613281 5.824219 L 17.613281 7.425781 L 17.496094 7.425781 Z M 17.496094 5.824219 "/>
<path style=" stroke:none;fill-rule:nonzero;fill:rgb(86.27451%,34.509804%,32.941176%);fill-opacity:1;" d="M 11.054688 12.40625 L 11.058594 10.898438 L 11.058594 10.894531 L 11.054688 10.894531 L 9.589844 11.089844 L 9.589844 12.28125 C 9.53125 12.261719 9.46875 12.253906 9.398438 12.261719 C 9.183594 12.28125 9.023438 12.433594 9.039062 12.601562 C 9.058594 12.769531 9.246094 12.890625 9.460938 12.867188 C 9.675781 12.847656 9.835938 12.695312 9.820312 12.527344 C 9.820312 12.523438 9.820312 12.523438 9.816406 12.519531 L 9.820312 12.519531 L 9.820312 11.488281 L 10.828125 11.339844 L 10.828125 12.164062 C 10.773438 12.144531 10.707031 12.140625 10.640625 12.144531 C 10.425781 12.167969 10.265625 12.320312 10.28125 12.488281 C 10.296875 12.65625 10.484375 12.777344 10.699219 12.753906 C 10.914062 12.730469 11.078125 12.582031 11.058594 12.414062 C 11.058594 12.410156 11.054688 12.40625 11.054688 12.40625 Z M 11.054688 12.40625 "/>
</g>
</svg>
