<?xml version="1.0" encoding="UTF-8"?>
<svg xmlns="http://www.w3.org/2000/svg" xmlns:xlink="http://www.w3.org/1999/xlink" width="25px" height="25px" viewBox="0 0 25 25" version="1.1">
<g id="surface1">
<path style=" stroke:none;fill-rule:nonzero;fill:rgb(21.960784%,56.862745%,91.372549%);fill-opacity:1;" d="M 13.5625 2.792969 L 13.5625 1.460938 C 13.5625 0.875 13.085938 0.398438 12.5 0.398438 C 11.914062 0.398438 11.4375 0.875 11.4375 1.460938 L 11.4375 2.792969 C 11.4375 3.378906 11.914062 3.855469 12.5 3.855469 C 13.085938 3.855469 13.5625 3.378906 13.5625 2.792969 Z M 13.5625 2.792969 "/>
<path style=" stroke:none;fill-rule:nonzero;fill:rgb(40.784314%,68.235294%,95.686275%);fill-opacity:1;" d="M 9.839844 2.792969 L 9.839844 1.460938 C 9.839844 0.875 9.363281 0.398438 8.777344 0.398438 C 8.1875 0.398438 7.710938 0.875 7.710938 1.460938 L 7.710938 2.792969 C 7.710938 3.378906 8.1875 3.855469 8.777344 3.855469 C 9.363281 3.855469 9.839844 3.378906 9.839844 2.792969 Z M 9.839844 2.792969 "/>
<path style=" stroke:none;fill-rule:nonzero;fill:rgb(40.784314%,68.235294%,95.686275%);fill-opacity:1;" d="M 17.289062 2.792969 L 17.289062 1.460938 C 17.289062 0.875 16.8125 0.398438 16.222656 0.398438 C 15.636719 0.398438 15.160156 0.875 15.160156 1.460938 L 15.160156 2.792969 C 15.160156 3.378906 15.636719 3.855469 16.222656 3.855469 C 16.8125 3.855469 17.289062 3.378906 17.289062 2.792969 Z M 17.289062 2.792969 "/>
<path style=" stroke:none;fill-rule:nonzero;fill:rgb(75.294118%,52.156863%,46.666667%);fill-opacity:1;" d="M 16.753906 21.410156 L 16.753906 23.539062 L 6.648438 23.539062 L 6.648438 11.039062 L 16.753906 11.039062 L 16.753906 13.164062 L 14.097656 17.289062 Z M 16.753906 21.410156 "/>
<path style=" stroke:none;fill-rule:nonzero;fill:rgb(67.058824%,36.470588%,29.019608%);fill-opacity:1;" d="M 15.160156 11.039062 L 18.351562 11.039062 L 18.351562 23.539062 L 15.160156 23.539062 Z M 15.160156 11.039062 "/>
<path style=" stroke:none;fill-rule:nonzero;fill:rgb(83.529412%,68.235294%,64.313725%);fill-opacity:1;" d="M 17.289062 23.003906 L 16.222656 23.804688 L 17.289062 24.601562 L 18.882812 24.601562 L 18.882812 23.003906 Z M 17.289062 23.003906 "/>
<path style=" stroke:none;fill-rule:nonzero;fill:rgb(83.529412%,68.235294%,64.313725%);fill-opacity:1;" d="M 16.753906 13.164062 L 16.753906 21.410156 L 15.160156 21.410156 L 14.097656 17.289062 L 15.160156 13.164062 Z M 16.753906 13.164062 "/>
<path style=" stroke:none;fill-rule:nonzero;fill:rgb(91.764706%,83.921569%,82.352941%);fill-opacity:1;" d="M 8.246094 13.164062 L 15.160156 13.164062 L 15.160156 21.410156 L 8.246094 21.410156 Z M 8.246094 13.164062 "/>
<path style=" stroke:none;fill-rule:nonzero;fill:rgb(83.529412%,68.235294%,64.313725%);fill-opacity:1;" d="M 14.097656 7.3125 L 17.289062 11.570312 L 18.882812 11.570312 L 18.882812 7.3125 Z M 14.097656 7.3125 "/>
<path style=" stroke:none;fill-rule:nonzero;fill:rgb(91.764706%,83.921569%,82.352941%);fill-opacity:1;" d="M 6.117188 7.3125 L 17.289062 7.3125 L 17.289062 11.570312 L 6.117188 11.570312 Z M 6.117188 7.3125 "/>
<path style=" stroke:none;fill-rule:nonzero;fill:rgb(67.058824%,36.470588%,29.019608%);fill-opacity:1;" d="M 20.480469 6.78125 L 20.480469 8.378906 L 18.882812 8.378906 L 18.351562 7.578125 L 18.882812 6.78125 Z M 20.480469 6.78125 "/>
<path style=" stroke:none;fill-rule:nonzero;fill:rgb(91.764706%,83.921569%,82.352941%);fill-opacity:1;" d="M 6.117188 23.003906 L 17.289062 23.003906 L 17.289062 24.601562 L 6.117188 24.601562 Z M 6.117188 23.003906 "/>
<path style=" stroke:none;fill-rule:nonzero;fill:rgb(75.294118%,52.156863%,46.666667%);fill-opacity:1;" d="M 4.519531 6.78125 L 18.882812 6.78125 L 18.882812 8.378906 L 4.519531 8.378906 Z M 4.519531 6.78125 "/>
<path style=" stroke:none;fill-rule:nonzero;fill:rgb(0%,0%,0%);fill-opacity:1;" d="M 20.480469 6.382812 L 16.621094 6.382812 L 16.621094 4.199219 C 17.234375 4.023438 17.6875 3.460938 17.6875 2.792969 L 17.6875 1.460938 C 17.6875 0.65625 17.03125 0 16.222656 0 C 15.417969 0 14.761719 0.65625 14.761719 1.460938 L 14.761719 2.792969 C 14.761719 3.460938 15.210938 4.023438 15.824219 4.199219 L 15.824219 6.382812 L 12.898438 6.382812 L 12.898438 4.199219 C 13.511719 4.023438 13.960938 3.460938 13.960938 2.792969 L 13.960938 1.460938 C 13.960938 0.65625 13.304688 0 12.5 0 C 11.695312 0 11.039062 0.65625 11.039062 1.460938 L 11.039062 2.792969 C 11.039062 3.460938 11.488281 4.023438 12.101562 4.199219 L 12.101562 6.382812 L 9.175781 6.382812 L 9.175781 4.199219 C 9.789062 4.023438 10.238281 3.460938 10.238281 2.792969 L 10.238281 1.460938 C 10.238281 0.65625 9.582031 0 8.777344 0 C 7.96875 0 7.3125 0.65625 7.3125 1.460938 L 7.3125 2.792969 C 7.3125 3.460938 7.765625 4.023438 8.378906 4.199219 L 8.378906 6.382812 L 4.519531 6.382812 C 4.300781 6.382812 4.121094 6.5625 4.121094 6.78125 L 4.121094 8.378906 C 4.121094 8.597656 4.300781 8.777344 4.519531 8.777344 L 5.71875 8.777344 L 5.71875 11.570312 C 5.71875 11.789062 5.898438 11.96875 6.117188 11.96875 L 6.25 11.96875 L 6.25 22.605469 L 6.117188 22.605469 C 5.898438 22.605469 5.71875 22.785156 5.71875 23.003906 L 5.71875 24.203125 L 5.585938 24.203125 C 5.363281 24.203125 5.1875 24.378906 5.1875 24.601562 C 5.1875 24.820312 5.363281 25 5.585938 25 L 19.414062 25 C 19.636719 25 19.8125 24.820312 19.8125 24.601562 C 19.8125 24.378906 19.636719 24.203125 19.414062 24.203125 L 19.28125 24.203125 L 19.28125 23.003906 C 19.28125 22.785156 19.101562 22.605469 18.882812 22.605469 L 18.75 22.605469 L 18.75 11.96875 L 18.882812 11.96875 C 19.101562 11.96875 19.28125 11.789062 19.28125 11.570312 L 19.28125 8.777344 L 20.480469 8.777344 C 20.699219 8.777344 20.878906 8.597656 20.878906 8.378906 L 20.878906 6.78125 C 20.878906 6.5625 20.699219 6.382812 20.480469 6.382812 Z M 15.558594 2.792969 L 15.558594 1.460938 C 15.558594 1.097656 15.855469 0.796875 16.222656 0.796875 C 16.589844 0.796875 16.886719 1.097656 16.886719 1.460938 L 16.886719 2.792969 C 16.886719 3.160156 16.589844 3.457031 16.222656 3.457031 C 15.855469 3.457031 15.558594 3.160156 15.558594 2.792969 Z M 11.835938 2.792969 L 11.835938 1.460938 C 11.835938 1.097656 12.132812 0.796875 12.5 0.796875 C 12.867188 0.796875 13.164062 1.097656 13.164062 1.460938 L 13.164062 2.792969 C 13.164062 3.160156 12.867188 3.457031 12.5 3.457031 C 12.132812 3.457031 11.835938 3.160156 11.835938 2.792969 Z M 8.113281 2.792969 L 8.113281 1.460938 C 8.113281 1.097656 8.410156 0.796875 8.777344 0.796875 C 9.144531 0.796875 9.441406 1.097656 9.441406 1.460938 L 9.441406 2.792969 C 9.441406 3.160156 9.144531 3.457031 8.777344 3.457031 C 8.410156 3.457031 8.113281 3.160156 8.113281 2.792969 Z M 17.953125 22.605469 L 16.753906 22.605469 C 16.535156 22.605469 16.355469 22.785156 16.355469 23.003906 C 16.355469 23.226562 16.535156 23.402344 16.753906 23.402344 L 18.484375 23.402344 L 18.484375 24.203125 L 6.515625 24.203125 L 6.515625 23.402344 L 15.160156 23.402344 C 15.378906 23.402344 15.558594 23.226562 15.558594 23.003906 C 15.558594 22.785156 15.378906 22.605469 15.160156 22.605469 L 7.046875 22.605469 L 7.046875 11.96875 L 17.953125 11.96875 Z M 18.484375 11.171875 L 6.515625 11.171875 L 6.515625 8.777344 L 18.484375 8.777344 Z M 20.078125 7.980469 L 4.921875 7.980469 L 4.921875 7.179688 L 20.078125 7.179688 Z M 20.078125 7.980469 "/>
<path style=" stroke:none;fill-rule:nonzero;fill:rgb(0%,0%,0%);fill-opacity:1;" d="M 7.710938 10.371094 L 17.289062 10.371094 C 17.507812 10.371094 17.6875 10.195312 17.6875 9.972656 C 17.6875 9.753906 17.507812 9.574219 17.289062 9.574219 L 7.710938 9.574219 C 7.492188 9.574219 7.3125 9.753906 7.3125 9.972656 C 7.3125 10.195312 7.492188 10.371094 7.710938 10.371094 Z M 7.710938 10.371094 "/>
<path style=" stroke:none;fill-rule:nonzero;fill:rgb(0%,0%,0%);fill-opacity:1;" d="M 8.246094 17.6875 C 8.023438 17.6875 7.847656 17.863281 7.847656 18.085938 L 7.847656 21.410156 C 7.847656 21.628906 8.023438 21.808594 8.246094 21.808594 L 16.753906 21.808594 C 16.976562 21.808594 17.152344 21.628906 17.152344 21.410156 L 17.152344 13.164062 C 17.152344 12.945312 16.976562 12.765625 16.753906 12.765625 L 8.246094 12.765625 C 8.023438 12.765625 7.847656 12.945312 7.847656 13.164062 L 7.847656 16.488281 C 7.847656 16.710938 8.023438 16.886719 8.246094 16.886719 C 8.464844 16.886719 8.644531 16.710938 8.644531 16.488281 L 8.644531 13.5625 L 16.355469 13.5625 L 16.355469 21.011719 L 8.644531 21.011719 L 8.644531 18.085938 C 8.644531 17.863281 8.464844 17.6875 8.246094 17.6875 Z M 8.246094 17.6875 "/>
</g>
</svg>
