<?xml version="1.0" encoding="UTF-8"?>
<svg xmlns="http://www.w3.org/2000/svg" xmlns:xlink="http://www.w3.org/1999/xlink" width="25px" height="25px" viewBox="0 0 25 25" version="1.1">
<g id="surface1">
<path style=" stroke:none;fill-rule:nonzero;fill:rgb(100%,81.960784%,34.509804%);fill-opacity:1;" d="M 17.96875 12.5 C 17.96875 15.519531 15.519531 17.96875 12.5 17.96875 C 9.480469 17.96875 7.03125 15.519531 7.03125 12.5 C 7.03125 9.480469 9.480469 7.03125 12.5 7.03125 C 15.519531 7.03125 17.96875 9.480469 17.96875 12.5 Z M 17.96875 12.5 "/>
<path style=" stroke:none;fill-rule:evenodd;fill:rgb(100%,81.960784%,34.509804%);fill-opacity:1;" d="M 12.492188 1.5625 C 12.277344 1.566406 12.105469 1.742188 12.109375 1.957031 L 12.109375 4.292969 C 12.105469 4.433594 12.179688 4.5625 12.304688 4.636719 C 12.425781 4.707031 12.574219 4.707031 12.695312 4.636719 C 12.820312 4.5625 12.894531 4.433594 12.890625 4.292969 L 12.890625 1.957031 C 12.890625 1.851562 12.851562 1.75 12.777344 1.675781 C 12.703125 1.601562 12.601562 1.558594 12.492188 1.5625 Z M 12.492188 1.5625 "/>
<path style=" stroke:none;fill-rule:evenodd;fill:rgb(100%,81.960784%,34.509804%);fill-opacity:1;" d="M 12.492188 20.3125 C 12.277344 20.316406 12.105469 20.492188 12.109375 20.707031 L 12.109375 23.042969 C 12.105469 23.183594 12.179688 23.3125 12.304688 23.386719 C 12.425781 23.457031 12.574219 23.457031 12.695312 23.386719 C 12.820312 23.3125 12.894531 23.183594 12.890625 23.042969 L 12.890625 20.707031 C 12.890625 20.601562 12.851562 20.5 12.777344 20.425781 C 12.703125 20.351562 12.601562 20.308594 12.492188 20.3125 Z M 12.492188 20.3125 "/>
<path style=" stroke:none;fill-rule:evenodd;fill:rgb(100%,81.960784%,34.509804%);fill-opacity:1;" d="M 1.960938 12.109375 C 1.816406 12.105469 1.6875 12.179688 1.617188 12.300781 C 1.546875 12.425781 1.546875 12.574219 1.617188 12.695312 C 1.6875 12.816406 1.816406 12.890625 1.960938 12.890625 L 4.289062 12.890625 C 4.433594 12.890625 4.5625 12.816406 4.632812 12.695312 C 4.703125 12.574219 4.703125 12.425781 4.632812 12.300781 C 4.5625 12.179688 4.433594 12.105469 4.289062 12.109375 Z M 1.960938 12.109375 "/>
<path style=" stroke:none;fill-rule:evenodd;fill:rgb(100%,81.960784%,34.509804%);fill-opacity:1;" d="M 20.710938 12.109375 C 20.566406 12.105469 20.4375 12.179688 20.367188 12.300781 C 20.296875 12.425781 20.296875 12.574219 20.367188 12.695312 C 20.4375 12.816406 20.566406 12.890625 20.710938 12.890625 L 23.039062 12.890625 C 23.183594 12.890625 23.3125 12.816406 23.382812 12.695312 C 23.453125 12.574219 23.453125 12.425781 23.382812 12.300781 C 23.3125 12.179688 23.183594 12.105469 23.039062 12.109375 Z M 20.710938 12.109375 "/>
<path style=" stroke:none;fill-rule:evenodd;fill:rgb(100%,81.960784%,34.509804%);fill-opacity:1;" d="M 19.910156 4.6875 C 19.808594 4.691406 19.710938 4.734375 19.640625 4.804688 L 18.085938 6.359375 C 17.984375 6.457031 17.945312 6.605469 17.980469 6.742188 C 18.015625 6.878906 18.121094 6.984375 18.257812 7.019531 C 18.398438 7.058594 18.542969 7.015625 18.640625 6.914062 L 20.195312 5.359375 C 20.308594 5.246094 20.34375 5.074219 20.28125 4.925781 C 20.21875 4.777344 20.070312 4.683594 19.910156 4.6875 Z M 19.910156 4.6875 "/>
<path style=" stroke:none;fill-rule:evenodd;fill:rgb(100%,81.960784%,34.509804%);fill-opacity:1;" d="M 5.078125 4.6875 C 4.917969 4.6875 4.777344 4.785156 4.714844 4.929688 C 4.65625 5.078125 4.691406 5.246094 4.804688 5.359375 L 6.359375 6.914062 C 6.457031 7.015625 6.601562 7.058594 6.742188 7.019531 C 6.878906 6.984375 6.984375 6.878906 7.019531 6.742188 C 7.054688 6.605469 7.015625 6.457031 6.914062 6.359375 L 5.359375 4.804688 C 5.285156 4.730469 5.183594 4.6875 5.078125 4.6875 Z M 5.078125 4.6875 "/>
<path style=" stroke:none;fill-rule:evenodd;fill:rgb(100%,81.960784%,34.509804%);fill-opacity:1;" d="M 18.359375 17.96875 C 18.199219 17.96875 18.058594 18.066406 17.996094 18.210938 C 17.9375 18.359375 17.972656 18.527344 18.085938 18.640625 L 19.640625 20.195312 C 19.738281 20.296875 19.882812 20.339844 20.023438 20.300781 C 20.160156 20.265625 20.265625 20.160156 20.300781 20.023438 C 20.335938 19.886719 20.296875 19.738281 20.195312 19.640625 L 18.640625 18.085938 C 18.566406 18.011719 18.464844 17.96875 18.359375 17.96875 Z M 18.359375 17.96875 "/>
<path style=" stroke:none;fill-rule:evenodd;fill:rgb(100%,81.960784%,34.509804%);fill-opacity:1;" d="M 6.628906 17.96875 C 6.527344 17.972656 6.429688 18.015625 6.359375 18.085938 L 4.804688 19.640625 C 4.703125 19.738281 4.664062 19.886719 4.699219 20.023438 C 4.734375 20.160156 4.839844 20.265625 4.976562 20.300781 C 5.117188 20.339844 5.261719 20.296875 5.359375 20.195312 L 6.914062 18.640625 C 7.027344 18.527344 7.0625 18.355469 7 18.207031 C 6.9375 18.058594 6.789062 17.964844 6.628906 17.96875 Z M 6.628906 17.96875 "/>
<path style=" stroke:none;fill-rule:nonzero;fill:rgb(80%,52.54902%,20.392157%);fill-opacity:1;" d="M 10.53125 13.671875 C 10.386719 13.675781 10.257812 13.761719 10.191406 13.894531 C 10.128906 14.023438 10.144531 14.179688 10.234375 14.296875 C 10.332031 14.433594 10.445312 14.5625 10.570312 14.679688 C 11.066406 15.144531 11.75 15.429688 12.5 15.429688 C 13.25 15.429688 13.933594 15.144531 14.429688 14.679688 C 14.554688 14.5625 14.667969 14.433594 14.765625 14.296875 C 14.894531 14.121094 14.855469 13.875 14.679688 13.75 C 14.503906 13.625 14.257812 13.664062 14.132812 13.839844 C 14.0625 13.933594 13.984375 14.027344 13.894531 14.109375 C 13.542969 14.441406 13.050781 14.648438 12.5 14.648438 C 11.949219 14.648438 11.457031 14.441406 11.105469 14.109375 C 11.015625 14.027344 10.9375 13.933594 10.867188 13.839844 C 10.792969 13.730469 10.664062 13.667969 10.53125 13.671875 Z M 10.53125 13.671875 "/>
<path style=" stroke:none;fill-rule:nonzero;fill:rgb(80%,52.54902%,20.392157%);fill-opacity:1;" d="M 10.742188 9.570312 C 10.398438 9.570312 10.082031 9.71875 9.863281 9.953125 C 9.75 10.066406 9.664062 10.203125 9.601562 10.355469 C 9.519531 10.554688 9.617188 10.785156 9.816406 10.863281 C 10.015625 10.945312 10.246094 10.847656 10.324219 10.648438 C 10.351562 10.589844 10.386719 10.535156 10.429688 10.492188 C 10.511719 10.402344 10.621094 10.351562 10.742188 10.351562 C 10.863281 10.351562 10.972656 10.402344 11.054688 10.492188 C 11.097656 10.535156 11.132812 10.589844 11.160156 10.648438 C 11.238281 10.847656 11.46875 10.945312 11.667969 10.863281 C 11.867188 10.785156 11.964844 10.554688 11.882812 10.355469 C 11.824219 10.203125 11.734375 10.066406 11.621094 9.953125 C 11.402344 9.71875 11.085938 9.570312 10.742188 9.570312 Z M 10.742188 9.570312 "/>
<path style=" stroke:none;fill-rule:nonzero;fill:rgb(80%,52.54902%,20.392157%);fill-opacity:1;" d="M 14.257812 9.570312 C 13.914062 9.570312 13.597656 9.71875 13.378906 9.953125 C 13.265625 10.066406 13.179688 10.203125 13.117188 10.355469 C 13.035156 10.554688 13.132812 10.785156 13.332031 10.863281 C 13.53125 10.945312 13.761719 10.847656 13.839844 10.648438 C 13.867188 10.589844 13.902344 10.535156 13.945312 10.492188 C 14.027344 10.402344 14.136719 10.351562 14.257812 10.351562 C 14.378906 10.351562 14.488281 10.402344 14.570312 10.492188 C 14.613281 10.535156 14.648438 10.589844 14.675781 10.648438 C 14.753906 10.847656 14.984375 10.945312 15.183594 10.863281 C 15.382812 10.785156 15.480469 10.554688 15.398438 10.355469 C 15.339844 10.203125 15.25 10.066406 15.136719 9.953125 C 14.917969 9.71875 14.601562 9.570312 14.257812 9.570312 Z M 14.257812 9.570312 "/>
</g>
</svg>
