<?xml version="1.0" encoding="UTF-8"?>
<svg xmlns="http://www.w3.org/2000/svg" xmlns:xlink="http://www.w3.org/1999/xlink" width="25px" height="25px" viewBox="0 0 25 25" version="1.1">
<g id="surface1">
<path style=" stroke:none;fill-rule:nonzero;fill:rgb(45.882353%,65.098039%,29.411765%);fill-opacity:1;" d="M 24.773438 0.21875 C 24.480469 -0.0742188 24.007812 -0.0742188 23.71875 0.21875 L 17.925781 6.007812 L 20.21875 1.882812 C 20.417969 1.527344 20.296875 1.070312 19.957031 0.863281 C 19.613281 0.660156 19.171875 0.78125 18.976562 1.136719 L 14.148438 9.820312 C 14.074219 9.957031 14.054688 10.101562 14.066406 10.25 C 14.0625 10.371094 14.082031 10.492188 14.148438 10.605469 C 14.261719 10.796875 14.464844 10.90625 14.679688 10.929688 C 14.679688 10.933594 14.683594 10.929688 14.6875 10.933594 C 14.839844 10.949219 15.003906 10.929688 15.152344 10.847656 L 23.839844 5.988281 C 24.199219 5.789062 24.324219 5.359375 24.128906 5.027344 C 23.929688 4.691406 23.480469 4.585938 23.121094 4.785156 L 18.890625 7.148438 L 24.773438 1.273438 C 25.0625 0.980469 25.0625 0.507812 24.773438 0.21875 Z M 16.566406 8.449219 L 16.621094 8.351562 C 16.625 8.355469 16.625 8.359375 16.625 8.359375 C 16.640625 8.375 16.660156 8.378906 16.671875 8.390625 Z M 16.566406 8.449219 "/>
<path style=" stroke:none;fill-rule:nonzero;fill:rgb(98.431373%,52.156863%,7.058824%);fill-opacity:1;" d="M 19.917969 8.382812 C 18.816406 7.28125 18.261719 6.726562 18.261719 6.726562 C 18.261719 6.726562 17.710938 6.175781 16.609375 5.074219 C 15.503906 3.96875 14.359375 2.910156 11.640625 5.625 C 10.484375 6.78125 0.605469 21.074219 0.605469 21.074219 C 0.605469 21.074219 -0.757812 23.023438 0.605469 24.382812 C 1.96875 25.746094 3.917969 24.382812 3.917969 24.382812 C 3.917969 24.382812 18.210938 14.503906 19.367188 13.351562 C 22.082031 10.632812 21.019531 9.488281 19.917969 8.382812 Z M 19.917969 8.382812 "/>
<path style=" stroke:none;fill-rule:nonzero;fill:rgb(67.058824%,37.647059%,9.019608%);fill-opacity:1;" d="M 6.746094 12.71875 C 6.6875 12.65625 6.613281 12.613281 6.539062 12.578125 C 6.257812 12.976562 5.976562 13.375 5.695312 13.773438 L 7.3125 15.394531 C 7.605469 15.683594 8.074219 15.683594 8.367188 15.394531 C 8.660156 15.101562 8.660156 14.632812 8.367188 14.339844 Z M 5.96875 18.1875 C 5.675781 17.894531 5.203125 17.894531 4.914062 18.1875 C 4.621094 18.476562 4.621094 18.949219 4.914062 19.242188 L 5.75 20.082031 C 6.042969 20.371094 6.515625 20.371094 6.804688 20.082031 C 7.097656 19.789062 7.097656 19.316406 6.804688 19.027344 Z M 13.835938 11.488281 C 14.128906 11.195312 14.128906 10.726562 13.835938 10.433594 L 10.65625 7.25 C 10.597656 7.191406 10.53125 7.15625 10.460938 7.121094 C 10.203125 7.46875 9.910156 7.863281 9.597656 8.296875 C 9.597656 8.300781 9.597656 8.300781 9.601562 8.304688 L 12.78125 11.488281 C 13.074219 11.78125 13.546875 11.78125 13.835938 11.488281 Z M 20.085938 10.433594 L 16.90625 7.25 C 16.613281 6.957031 16.140625 6.957031 15.851562 7.25 C 15.558594 7.539062 15.558594 8.011719 15.851562 8.304688 L 19.03125 11.488281 C 19.324219 11.777344 19.796875 11.777344 20.085938 11.488281 C 20.378906 11.195312 20.378906 10.726562 20.085938 10.433594 Z M 12.726562 15.0625 C 12.433594 15.351562 12.433594 15.824219 12.726562 16.117188 L 13.960938 17.355469 C 14.382812 17.054688 14.796875 16.761719 15.191406 16.476562 L 13.78125 15.0625 C 13.488281 14.769531 13.015625 14.769531 12.726562 15.0625 Z M 12.726562 15.0625 "/>
</g>
</svg>
