<?xml version="1.0" encoding="UTF-8"?>
<svg xmlns="http://www.w3.org/2000/svg" xmlns:xlink="http://www.w3.org/1999/xlink" width="25px" height="25px" viewBox="0 0 25 25" version="1.1">
<g id="surface1">
<path style=" stroke:none;fill-rule:nonzero;fill:rgb(59.215686%,55.686275%,79.607843%);fill-opacity:1;" d="M 19.097656 7.4375 L 23.851562 12.054688 C 24.359375 12.546875 24.226562 13.390625 23.59375 13.703125 L 17.386719 16.769531 L 18.484375 7.652344 C 18.523438 7.355469 18.882812 7.226562 19.097656 7.4375 Z M 19.097656 7.4375 "/>
<path style=" stroke:none;fill-rule:nonzero;fill:rgb(59.215686%,55.686275%,79.607843%);fill-opacity:1;" d="M 5.902344 7.4375 L 1.148438 12.054688 C 0.640625 12.546875 0.773438 13.390625 1.40625 13.703125 L 7.613281 16.769531 L 6.515625 7.652344 C 6.476562 7.355469 6.117188 7.226562 5.902344 7.4375 Z M 5.902344 7.4375 "/>
<path style=" stroke:none;fill-rule:nonzero;fill:rgb(59.215686%,55.686275%,79.607843%);fill-opacity:1;" d="M 12.550781 10.300781 C 14.25 10.300781 15.628906 8.921875 15.628906 7.222656 L 15.628906 5.953125 L 15.371094 6.078125 L 14.347656 6.589844 C 13.214844 7.152344 11.886719 7.152344 10.753906 6.589844 L 9.472656 5.953125 L 9.472656 7.222656 C 9.472656 8.921875 10.851562 10.300781 12.550781 10.300781 Z M 12.550781 10.300781 "/>
<path style=" stroke:none;fill-rule:nonzero;fill:rgb(88.235294%,60%,45.490196%);fill-opacity:1;" d="M 17.402344 7.242188 L 12.90625 3.96875 L 12.90625 2.773438 C 13.597656 2.730469 14.152344 2.15625 14.152344 1.453125 L 14.152344 1.359375 C 14.152344 0.609375 13.542969 0 12.792969 0 L 12.714844 0 C 11.964844 0 11.351562 0.609375 11.351562 1.359375 C 11.351562 1.566406 11.523438 1.738281 11.730469 1.738281 C 11.941406 1.738281 12.109375 1.566406 12.109375 1.359375 C 12.109375 1.027344 12.378906 0.757812 12.714844 0.757812 L 12.792969 0.757812 C 13.125 0.757812 13.394531 1.027344 13.394531 1.359375 L 13.394531 1.453125 C 13.394531 1.761719 13.140625 2.015625 12.828125 2.015625 C 12.453125 2.015625 12.148438 2.320312 12.148438 2.695312 L 12.148438 3.933594 L 8.054688 7.015625 C 7.886719 7.140625 7.851562 7.378906 7.976562 7.546875 C 8.105469 7.710938 8.339844 7.746094 8.507812 7.621094 L 12.503906 4.613281 L 16.957031 7.855469 C 17.023438 7.90625 17.101562 7.929688 17.179688 7.929688 C 17.296875 7.929688 17.414062 7.875 17.488281 7.773438 C 17.609375 7.601562 17.574219 7.367188 17.402344 7.242188 Z M 17.402344 7.242188 "/>
<path style=" stroke:none;fill-rule:nonzero;fill:rgb(67.45098%,65.098039%,83.921569%);fill-opacity:1;" d="M 18.632812 8.160156 L 19.390625 15.75 L 19.390625 23.992188 C 19.390625 24.546875 18.9375 25 18.378906 25 L 6.621094 25 C 6.0625 25 5.609375 24.546875 5.609375 23.992188 L 5.609375 8.167969 C 5.609375 7.753906 5.863281 7.382812 6.25 7.230469 L 9.472656 5.949219 L 9.472656 7.222656 C 9.472656 8.921875 10.851562 10.300781 12.550781 10.300781 C 14.25 10.300781 15.628906 8.921875 15.628906 7.222656 L 15.628906 5.949219 L 18.761719 7.226562 C 19.140625 7.382812 18.632812 7.75 18.632812 8.160156 Z M 18.632812 8.160156 "/>
<path style=" stroke:none;fill-rule:nonzero;fill:rgb(59.215686%,55.686275%,79.607843%);fill-opacity:1;" d="M 18.761719 7.226562 L 17.65625 6.777344 C 17.792969 6.953125 17.875 7.171875 17.875 7.40625 L 17.875 13.871094 C 17.875 19.597656 13.230469 24.242188 7.503906 24.242188 L 5.644531 24.242188 C 5.757812 24.679688 6.148438 25 6.621094 25 L 18.378906 25 C 18.9375 25 19.390625 24.546875 19.390625 23.992188 L 19.390625 8.160156 C 19.390625 7.75 19.140625 7.382812 18.761719 7.226562 Z M 18.761719 7.226562 "/>
<path style=" stroke:none;fill-rule:nonzero;fill:rgb(100%,100%,100%);fill-opacity:1;" d="M 12.644531 15.324219 L 11.585938 15.78125 C 11.507812 15.8125 11.449219 15.878906 11.421875 15.960938 L 11.082031 17.0625 C 11.003906 17.316406 10.648438 17.335938 10.542969 17.089844 L 10.085938 16.03125 C 10.054688 15.953125 9.988281 15.894531 9.90625 15.871094 L 8.804688 15.53125 C 8.550781 15.449219 8.53125 15.09375 8.777344 14.988281 L 9.835938 14.53125 C 9.914062 14.5 9.972656 14.433594 9.996094 14.351562 L 10.339844 13.253906 C 10.417969 12.996094 10.773438 12.976562 10.878906 13.222656 L 11.335938 14.28125 C 11.367188 14.359375 11.433594 14.417969 11.515625 14.445312 L 12.617188 14.785156 C 12.871094 14.863281 12.890625 15.21875 12.644531 15.324219 Z M 12.644531 15.324219 "/>
<path style=" stroke:none;fill-rule:nonzero;fill:rgb(100%,100%,100%);fill-opacity:1;" d="M 15.289062 20.59375 L 14.441406 20.957031 C 14.378906 20.984375 14.332031 21.039062 14.3125 21.101562 L 14.039062 21.984375 C 13.976562 22.191406 13.6875 22.207031 13.605469 22.007812 L 13.238281 21.160156 C 13.210938 21.097656 13.160156 21.050781 13.09375 21.027344 L 12.214844 20.757812 C 12.007812 20.691406 11.992188 20.40625 12.191406 20.320312 L 13.039062 19.957031 C 13.101562 19.929688 13.148438 19.878906 13.167969 19.8125 L 13.441406 18.929688 C 13.503906 18.726562 13.789062 18.710938 13.875 18.90625 L 14.238281 19.753906 C 14.265625 19.816406 14.320312 19.867188 14.382812 19.886719 L 15.265625 20.160156 C 15.472656 20.222656 15.488281 20.507812 15.289062 20.59375 Z M 15.289062 20.59375 "/>
</g>
</svg>
