<?xml version="1.0" encoding="UTF-8"?>
<svg xmlns="http://www.w3.org/2000/svg" xmlns:xlink="http://www.w3.org/1999/xlink" width="25px" height="25px" viewBox="0 0 25 25" version="1.1">
<g id="surface1">
<path style=" stroke:none;fill-rule:nonzero;fill:rgb(72.941176%,41.960784%,14.117647%);fill-opacity:1;" d="M 11.296875 22.59375 L 6.460938 22.59375 L 5.933594 24.605469 L 9.289062 24.605469 C 9.289062 23.496094 10.1875 22.59375 11.296875 22.59375 Z M 11.296875 22.59375 "/>
<path style=" stroke:none;fill-rule:nonzero;fill:rgb(72.941176%,41.960784%,14.117647%);fill-opacity:1;" d="M 13.703125 22.59375 L 18.539062 22.59375 L 19.066406 24.605469 L 15.710938 24.605469 C 15.710938 23.496094 14.8125 22.59375 13.703125 22.59375 Z M 13.703125 22.59375 "/>
<path style=" stroke:none;fill-rule:nonzero;fill:rgb(72.941176%,41.960784%,14.117647%);fill-opacity:1;" d="M 7.53125 2.5625 L 17.46875 2.5625 L 17.46875 19.898438 L 7.53125 19.898438 Z M 7.53125 2.5625 "/>
<path style=" stroke:none;fill-rule:nonzero;fill:rgb(64.705882%,36.078431%,12.54902%);fill-opacity:1;" d="M 7.53125 2.5625 L 17.46875 2.5625 L 17.46875 3.78125 L 7.53125 3.78125 Z M 7.53125 2.5625 "/>
<path style=" stroke:none;fill-rule:nonzero;fill:rgb(72.941176%,41.960784%,14.117647%);fill-opacity:1;" d="M 19.0625 0.394531 L 19.0625 1.496094 C 18.476562 1.496094 17.996094 1.972656 17.996094 2.5625 L 7.003906 2.5625 C 7.003906 1.972656 6.527344 1.496094 5.9375 1.496094 L 5.9375 0.394531 Z M 19.0625 0.394531 "/>
<path style=" stroke:none;fill-rule:nonzero;fill:rgb(64.705882%,36.078431%,12.54902%);fill-opacity:1;" d="M 19.0625 1.496094 C 18.476562 1.496094 17.996094 1.972656 17.996094 2.5625 L 7.003906 2.5625 C 7.003906 1.972656 6.527344 1.496094 5.9375 1.496094 Z M 19.0625 1.496094 "/>
<path style=" stroke:none;fill-rule:nonzero;fill:rgb(72.941176%,41.960784%,14.117647%);fill-opacity:1;" d="M 6.773438 19.898438 L 18.226562 19.898438 L 18.226562 22.59375 L 6.773438 22.59375 Z M 6.773438 19.898438 "/>
<path style=" stroke:none;fill-rule:nonzero;fill:rgb(44.313725%,56.470588%,64.705882%);fill-opacity:1;" d="M 9.117188 4.148438 L 15.882812 4.148438 L 15.882812 18.3125 L 9.117188 18.3125 Z M 9.117188 4.148438 "/>
<path style=" stroke:none;fill-rule:nonzero;fill:rgb(98.823529%,83.529412%,46.666667%);fill-opacity:1;" d="M 9.117188 4.148438 L 15.882812 4.148438 L 15.882812 10.648438 L 9.117188 10.648438 Z M 9.117188 4.148438 "/>
<path style=" stroke:none;fill-rule:nonzero;fill:rgb(81.176471%,86.27451%,89.803922%);fill-opacity:1;" d="M 14.667969 7.375 C 14.667969 8.570312 13.695312 9.539062 12.5 9.539062 C 11.304688 9.539062 10.332031 8.570312 10.332031 7.375 C 10.332031 6.175781 11.304688 5.207031 12.5 5.207031 C 13.695312 5.207031 14.667969 6.175781 14.667969 7.375 Z M 14.667969 7.375 "/>
<path style=" stroke:none;fill-rule:nonzero;fill:rgb(98.823529%,83.529412%,46.666667%);fill-opacity:1;" d="M 11.382812 10.648438 L 11.183594 12.382812 L 11.917969 12.464844 L 12.652344 12.550781 L 12.871094 10.648438 "/>
<path style=" stroke:none;fill-rule:nonzero;fill:rgb(98.823529%,83.529412%,46.666667%);fill-opacity:1;" d="M 12.714844 15.90625 C 12.714844 16.5625 12.183594 17.09375 11.527344 17.09375 C 10.871094 17.09375 10.335938 16.5625 10.335938 15.90625 C 10.335938 15.25 10.871094 14.71875 11.527344 14.71875 C 12.183594 14.71875 12.714844 15.25 12.714844 15.90625 Z M 12.714844 15.90625 "/>
<path style=" stroke:none;fill-rule:nonzero;fill:rgb(0%,0%,0%);fill-opacity:1;" d="M 19.449219 24.503906 L 18.921875 22.496094 C 18.882812 22.347656 18.765625 22.238281 18.621094 22.207031 L 18.621094 19.898438 C 18.621094 19.679688 18.445312 19.503906 18.226562 19.503906 L 17.863281 19.503906 L 17.863281 5.789062 C 17.863281 5.570312 17.6875 5.390625 17.46875 5.390625 C 17.25 5.390625 17.070312 5.570312 17.070312 5.789062 L 17.070312 19.503906 L 14.527344 19.503906 C 14.308594 19.503906 14.132812 19.679688 14.132812 19.898438 C 14.132812 20.117188 14.308594 20.296875 14.527344 20.296875 L 17.828125 20.296875 L 17.828125 22.199219 L 7.171875 22.199219 L 7.171875 20.296875 L 13.207031 20.296875 C 13.425781 20.296875 13.605469 20.117188 13.605469 19.898438 C 13.605469 19.679688 13.425781 19.503906 13.207031 19.503906 L 7.929688 19.503906 L 7.929688 2.960938 L 17.070312 2.960938 L 17.070312 4.625 C 17.070312 4.84375 17.25 5.019531 17.46875 5.019531 C 17.6875 5.019531 17.863281 4.84375 17.863281 4.625 L 17.863281 2.960938 L 17.996094 2.960938 C 18.214844 2.960938 18.394531 2.78125 18.394531 2.5625 C 18.394531 2.195312 18.695312 1.894531 19.0625 1.894531 C 19.28125 1.894531 19.460938 1.714844 19.460938 1.496094 L 19.460938 0.394531 C 19.460938 0.175781 19.28125 0 19.0625 0 L 8.820312 0 C 8.601562 0 8.425781 0.175781 8.425781 0.394531 C 8.425781 0.617188 8.601562 0.792969 8.820312 0.792969 L 18.667969 0.792969 L 18.667969 1.15625 C 18.179688 1.292969 17.792969 1.679688 17.65625 2.167969 L 7.34375 2.167969 C 7.207031 1.679688 6.820312 1.292969 6.332031 1.15625 L 6.332031 0.792969 L 7.5 0.792969 C 7.71875 0.792969 7.894531 0.617188 7.894531 0.394531 C 7.894531 0.175781 7.71875 0 7.5 0 L 5.9375 0 C 5.71875 0 5.539062 0.175781 5.539062 0.394531 L 5.539062 1.496094 C 5.539062 1.714844 5.71875 1.894531 5.9375 1.894531 C 6.304688 1.894531 6.605469 2.195312 6.605469 2.5625 C 6.605469 2.78125 6.785156 2.960938 7.003906 2.960938 L 7.136719 2.960938 L 7.136719 19.503906 L 6.773438 19.503906 C 6.554688 19.503906 6.378906 19.679688 6.378906 19.898438 L 6.378906 22.207031 C 6.234375 22.238281 6.117188 22.347656 6.078125 22.496094 L 5.550781 24.503906 C 5.519531 24.621094 5.542969 24.75 5.621094 24.84375 C 5.695312 24.941406 5.808594 25 5.933594 25 L 9.289062 25 C 9.507812 25 9.683594 24.824219 9.683594 24.605469 C 9.683594 23.714844 10.40625 22.992188 11.296875 22.992188 L 13.703125 22.992188 C 14.59375 22.992188 15.316406 23.714844 15.316406 24.605469 C 15.316406 24.824219 15.492188 25 15.710938 25 L 19.066406 25 C 19.191406 25 19.304688 24.941406 19.378906 24.84375 C 19.457031 24.75 19.480469 24.621094 19.449219 24.503906 Z M 8.925781 24.207031 L 6.449219 24.207031 L 6.769531 22.992188 L 9.515625 22.992188 C 9.210938 23.324219 9 23.742188 8.925781 24.207031 Z M 16.074219 24.207031 C 16 23.742188 15.789062 23.324219 15.484375 22.992188 L 18.234375 22.992188 L 18.550781 24.207031 Z M 16.074219 24.207031 "/>
<path style=" stroke:none;fill-rule:nonzero;fill:rgb(0%,0%,0%);fill-opacity:1;" d="M 9.117188 3.753906 C 8.898438 3.753906 8.722656 3.929688 8.722656 4.148438 L 8.722656 18.3125 C 8.722656 18.53125 8.898438 18.710938 9.117188 18.710938 L 15.882812 18.710938 C 16.101562 18.710938 16.277344 18.53125 16.277344 18.3125 L 16.277344 4.148438 C 16.277344 3.929688 16.101562 3.753906 15.882812 3.753906 Z M 15.484375 4.546875 L 15.484375 10.253906 L 9.515625 10.253906 L 9.515625 4.546875 Z M 11.523438 15.113281 C 11.554688 15.113281 11.585938 15.117188 11.617188 15.117188 C 11.828125 15.144531 12.015625 15.246094 12.148438 15.414062 C 12.277344 15.578125 12.335938 15.785156 12.3125 15.996094 C 12.289062 16.207031 12.183594 16.394531 12.019531 16.527344 C 11.855469 16.660156 11.644531 16.71875 11.4375 16.695312 C 11.226562 16.671875 11.039062 16.566406 10.90625 16.398438 C 10.773438 16.234375 10.714844 16.027344 10.738281 15.816406 C 10.785156 15.414062 11.128906 15.113281 11.523438 15.113281 Z M 12.304688 12.113281 L 11.621094 12.035156 L 11.734375 11.046875 L 12.425781 11.046875 Z M 9.515625 17.917969 L 9.515625 11.046875 L 10.9375 11.046875 L 10.789062 12.339844 C 10.777344 12.441406 10.808594 12.546875 10.875 12.628906 C 10.9375 12.710938 11.035156 12.765625 11.140625 12.777344 L 11.480469 12.816406 L 11.304688 14.335938 C 10.609375 14.433594 10.035156 14.992188 9.949219 15.726562 C 9.902344 16.148438 10.019531 16.5625 10.285156 16.894531 C 10.546875 17.226562 10.925781 17.433594 11.347656 17.480469 C 11.40625 17.488281 11.46875 17.492188 11.527344 17.492188 C 12.320312 17.492188 13.007812 16.894531 13.101562 16.085938 C 13.148438 15.664062 13.03125 15.25 12.765625 14.917969 C 12.585938 14.695312 12.355469 14.527344 12.09375 14.425781 L 12.265625 12.90625 L 12.609375 12.945312 C 12.625 12.945312 12.640625 12.945312 12.652344 12.945312 C 12.742188 12.945312 12.828125 12.917969 12.902344 12.859375 C 12.984375 12.796875 13.035156 12.699219 13.046875 12.597656 L 13.222656 11.046875 L 15.488281 11.046875 L 15.488281 17.917969 Z M 9.515625 17.917969 "/>
<path style=" stroke:none;fill-rule:nonzero;fill:rgb(0%,0%,0%);fill-opacity:1;" d="M 12.5 9.9375 C 13.914062 9.9375 15.0625 8.785156 15.0625 7.375 C 15.0625 5.960938 13.914062 4.808594 12.5 4.808594 C 11.085938 4.808594 9.9375 5.960938 9.9375 7.375 C 9.9375 8.785156 11.085938 9.9375 12.5 9.9375 Z M 12.5 5.601562 C 13.476562 5.601562 14.269531 6.398438 14.269531 7.375 C 14.269531 8.347656 13.476562 9.144531 12.5 9.144531 C 11.523438 9.144531 10.730469 8.347656 10.730469 7.375 C 10.730469 6.398438 11.523438 5.601562 12.5 5.601562 Z M 12.5 5.601562 "/>
<path style=" stroke:none;fill-rule:nonzero;fill:rgb(0%,0%,0%);fill-opacity:1;" d="M 12.5 7.769531 C 12.71875 7.769531 12.894531 7.59375 12.894531 7.375 L 12.894531 6.367188 C 12.894531 6.148438 12.71875 5.972656 12.5 5.972656 C 12.28125 5.972656 12.105469 6.148438 12.105469 6.367188 L 12.105469 7.375 C 12.105469 7.59375 12.28125 7.769531 12.5 7.769531 Z M 12.5 7.769531 "/>
</g>
</svg>
