<?xml version="1.0" encoding="UTF-8"?>
<svg xmlns="http://www.w3.org/2000/svg" xmlns:xlink="http://www.w3.org/1999/xlink" width="25px" height="25px" viewBox="0 0 25 25" version="1.1">
<g id="surface1">
<path style=" stroke:none;fill-rule:nonzero;fill:rgb(96.862745%,45.490196%,0%);fill-opacity:1;" d="M 16.378906 19.613281 L 16.378906 4.527344 L 4.742188 4.527344 L 4.742188 24.351562 L 13.792969 24.351562 L 13.792969 19.613281 Z M 16.378906 19.613281 "/>
<path style=" stroke:none;fill-rule:nonzero;fill:rgb(97.647059%,52.54902%,18.823529%);fill-opacity:1;" d="M 7.328125 4.527344 L 10.34375 4.527344 L 10.34375 24.351562 L 7.328125 24.351562 Z M 7.328125 4.527344 "/>
<path style=" stroke:none;fill-rule:nonzero;fill:rgb(90.588235%,92.54902%,92.941176%);fill-opacity:1;" d="M 13.792969 19.613281 L 25 19.613281 L 25 24.351562 L 13.792969 24.351562 Z M 13.792969 19.613281 "/>
<path style=" stroke:none;fill-rule:nonzero;fill:rgb(75.686275%,76.862745%,78.823529%);fill-opacity:1;" d="M 23.277344 19.613281 L 24.136719 19.613281 L 24.136719 22.628906 L 23.277344 22.628906 Z M 23.277344 19.613281 "/>
<path style=" stroke:none;fill-rule:nonzero;fill:rgb(75.686275%,76.862745%,78.823529%);fill-opacity:1;" d="M 21.550781 19.613281 L 22.414062 19.613281 L 22.414062 22.628906 L 21.550781 22.628906 Z M 21.550781 19.613281 "/>
<path style=" stroke:none;fill-rule:nonzero;fill:rgb(75.686275%,76.862745%,78.823529%);fill-opacity:1;" d="M 19.828125 19.613281 L 20.691406 19.613281 L 20.691406 22.628906 L 19.828125 22.628906 Z M 19.828125 19.613281 "/>
<path style=" stroke:none;fill-rule:nonzero;fill:rgb(75.686275%,76.862745%,78.823529%);fill-opacity:1;" d="M 18.101562 19.613281 L 18.964844 19.613281 L 18.964844 22.628906 L 18.101562 22.628906 Z M 18.101562 19.613281 "/>
<path style=" stroke:none;fill-rule:nonzero;fill:rgb(75.686275%,76.862745%,78.823529%);fill-opacity:1;" d="M 16.378906 19.613281 L 17.242188 19.613281 L 17.242188 22.628906 L 16.378906 22.628906 Z M 16.378906 19.613281 "/>
<path style=" stroke:none;fill-rule:nonzero;fill:rgb(75.686275%,76.862745%,78.823529%);fill-opacity:1;" d="M 14.65625 19.613281 L 15.515625 19.613281 L 15.515625 22.628906 L 14.65625 22.628906 Z M 14.65625 19.613281 "/>
<path style=" stroke:none;fill-rule:nonzero;fill:rgb(75.686275%,76.862745%,78.823529%);fill-opacity:1;" d="M 5.601562 0.648438 L 15.515625 0.648438 L 15.515625 4.527344 L 5.601562 4.527344 Z M 5.601562 0.648438 "/>
<path style=" stroke:none;fill-rule:nonzero;fill:rgb(90.588235%,92.54902%,92.941176%);fill-opacity:1;" d="M 16.378906 3.664062 L 14.65625 3.664062 C 14.417969 3.664062 14.222656 3.46875 14.222656 3.234375 C 14.222656 2.996094 14.417969 2.800781 14.65625 2.800781 L 16.378906 2.800781 C 16.617188 2.800781 16.808594 2.996094 16.808594 3.234375 C 16.808594 3.46875 16.617188 3.664062 16.378906 3.664062 Z M 16.378906 3.664062 "/>
<path style=" stroke:none;fill-rule:nonzero;fill:rgb(90.588235%,92.54902%,92.941176%);fill-opacity:1;" d="M 16.378906 2.371094 L 14.65625 2.371094 C 14.417969 2.371094 14.222656 2.175781 14.222656 1.941406 C 14.222656 1.703125 14.417969 1.507812 14.65625 1.507812 L 16.378906 1.507812 C 16.617188 1.507812 16.808594 1.703125 16.808594 1.941406 C 16.808594 2.175781 16.617188 2.371094 16.378906 2.371094 Z M 16.378906 2.371094 "/>
<path style=" stroke:none;fill-rule:nonzero;fill:rgb(90.588235%,92.54902%,92.941176%);fill-opacity:1;" d="M 6.464844 3.664062 L 4.742188 3.664062 C 4.503906 3.664062 4.308594 3.46875 4.308594 3.234375 C 4.308594 2.996094 4.503906 2.800781 4.742188 2.800781 L 6.464844 2.800781 C 6.703125 2.800781 6.898438 2.996094 6.898438 3.234375 C 6.898438 3.46875 6.703125 3.664062 6.464844 3.664062 Z M 6.464844 3.664062 "/>
<path style=" stroke:none;fill-rule:nonzero;fill:rgb(90.588235%,92.54902%,92.941176%);fill-opacity:1;" d="M 6.464844 2.371094 L 4.742188 2.371094 C 4.503906 2.371094 4.308594 2.175781 4.308594 1.941406 C 4.308594 1.703125 4.503906 1.507812 4.742188 1.507812 L 6.464844 1.507812 C 6.703125 1.507812 6.898438 1.703125 6.898438 1.941406 C 6.898438 2.175781 6.703125 2.371094 6.464844 2.371094 Z M 6.464844 2.371094 "/>
<path style=" stroke:none;fill-rule:nonzero;fill:rgb(90.588235%,92.54902%,92.941176%);fill-opacity:1;" d="M 8.191406 3.664062 L 7.757812 3.664062 C 7.519531 3.664062 7.328125 3.46875 7.328125 3.234375 C 7.328125 2.996094 7.519531 2.800781 7.757812 2.800781 L 8.191406 2.800781 C 8.429688 2.800781 8.621094 2.996094 8.621094 3.234375 C 8.621094 3.46875 8.429688 3.664062 8.191406 3.664062 Z M 8.191406 3.664062 "/>
<path style=" stroke:none;fill-rule:nonzero;fill:rgb(90.588235%,92.54902%,92.941176%);fill-opacity:1;" d="M 8.191406 2.371094 L 7.757812 2.371094 C 7.519531 2.371094 7.328125 2.175781 7.328125 1.941406 C 7.328125 1.703125 7.519531 1.507812 7.757812 1.507812 L 8.191406 1.507812 C 8.429688 1.507812 8.621094 1.703125 8.621094 1.941406 C 8.621094 2.175781 8.429688 2.371094 8.191406 2.371094 Z M 8.191406 2.371094 "/>
<path style=" stroke:none;fill-rule:nonzero;fill:rgb(90.588235%,92.54902%,92.941176%);fill-opacity:1;" d="M 9.914062 3.664062 L 9.484375 3.664062 C 9.246094 3.664062 9.050781 3.46875 9.050781 3.234375 C 9.050781 2.996094 9.246094 2.800781 9.484375 2.800781 L 9.914062 2.800781 C 10.152344 2.800781 10.34375 2.996094 10.34375 3.234375 C 10.34375 3.46875 10.152344 3.664062 9.914062 3.664062 Z M 9.914062 3.664062 "/>
<path style=" stroke:none;fill-rule:nonzero;fill:rgb(90.588235%,92.54902%,92.941176%);fill-opacity:1;" d="M 9.914062 2.371094 L 9.484375 2.371094 C 9.246094 2.371094 9.050781 2.175781 9.050781 1.941406 C 9.050781 1.703125 9.246094 1.507812 9.484375 1.507812 L 9.914062 1.507812 C 10.152344 1.507812 10.34375 1.703125 10.34375 1.941406 C 10.34375 2.175781 10.152344 2.371094 9.914062 2.371094 Z M 9.914062 2.371094 "/>
<path style=" stroke:none;fill-rule:nonzero;fill:rgb(90.588235%,92.54902%,92.941176%);fill-opacity:1;" d="M 11.636719 3.664062 L 11.207031 3.664062 C 10.96875 3.664062 10.777344 3.46875 10.777344 3.234375 C 10.777344 2.996094 10.96875 2.800781 11.207031 2.800781 L 11.636719 2.800781 C 11.875 2.800781 12.070312 2.996094 12.070312 3.234375 C 12.070312 3.46875 11.875 3.664062 11.636719 3.664062 Z M 11.636719 3.664062 "/>
<path style=" stroke:none;fill-rule:nonzero;fill:rgb(90.588235%,92.54902%,92.941176%);fill-opacity:1;" d="M 11.636719 2.371094 L 11.207031 2.371094 C 10.96875 2.371094 10.777344 2.175781 10.777344 1.941406 C 10.777344 1.703125 10.96875 1.507812 11.207031 1.507812 L 11.636719 1.507812 C 11.875 1.507812 12.070312 1.703125 12.070312 1.941406 C 12.070312 2.175781 11.875 2.371094 11.636719 2.371094 Z M 11.636719 2.371094 "/>
<path style=" stroke:none;fill-rule:nonzero;fill:rgb(90.588235%,92.54902%,92.941176%);fill-opacity:1;" d="M 13.363281 3.664062 L 12.929688 3.664062 C 12.691406 3.664062 12.5 3.46875 12.5 3.234375 C 12.5 2.996094 12.691406 2.800781 12.929688 2.800781 L 13.363281 2.800781 C 13.601562 2.800781 13.792969 2.996094 13.792969 3.234375 C 13.792969 3.46875 13.601562 3.664062 13.363281 3.664062 Z M 13.363281 3.664062 "/>
<path style=" stroke:none;fill-rule:nonzero;fill:rgb(90.588235%,92.54902%,92.941176%);fill-opacity:1;" d="M 13.363281 2.371094 L 12.929688 2.371094 C 12.691406 2.371094 12.5 2.175781 12.5 1.941406 C 12.5 1.703125 12.691406 1.507812 12.929688 1.507812 L 13.363281 1.507812 C 13.601562 1.507812 13.792969 1.703125 13.792969 1.941406 C 13.792969 2.175781 13.601562 2.371094 13.363281 2.371094 Z M 13.363281 2.371094 "/>
<path style=" stroke:none;fill-rule:nonzero;fill:rgb(94.901961%,92.54902%,74.901961%);fill-opacity:1;" d="M 14.65625 7.972656 L 16.378906 7.972656 L 16.378906 19.613281 L 14.65625 19.613281 Z M 14.65625 7.972656 "/>
<path style=" stroke:none;fill-rule:nonzero;fill:rgb(94.901961%,92.54902%,74.901961%);fill-opacity:1;" d="M 4.742188 7.972656 L 9.914062 7.972656 L 9.914062 20.90625 L 4.742188 20.90625 Z M 4.742188 7.972656 "/>
<path style=" stroke:none;fill-rule:nonzero;fill:rgb(78.823529%,74.509804%,49.019608%);fill-opacity:1;" d="M 4.742188 13.148438 L 8.621094 13.148438 L 8.621094 14.007812 L 4.742188 14.007812 Z M 4.742188 13.148438 "/>
<path style=" stroke:none;fill-rule:nonzero;fill:rgb(78.823529%,74.509804%,49.019608%);fill-opacity:1;" d="M 4.742188 14.871094 L 8.621094 14.871094 L 8.621094 15.734375 L 4.742188 15.734375 Z M 4.742188 14.871094 "/>
<path style=" stroke:none;fill-rule:nonzero;fill:rgb(78.823529%,74.509804%,49.019608%);fill-opacity:1;" d="M 4.742188 9.699219 L 8.621094 9.699219 L 8.621094 10.558594 L 4.742188 10.558594 Z M 4.742188 9.699219 "/>
<path style=" stroke:none;fill-rule:nonzero;fill:rgb(78.823529%,74.509804%,49.019608%);fill-opacity:1;" d="M 4.742188 11.421875 L 8.621094 11.421875 L 8.621094 12.285156 L 4.742188 12.285156 Z M 4.742188 11.421875 "/>
<path style=" stroke:none;fill-rule:nonzero;fill:rgb(78.823529%,74.509804%,49.019608%);fill-opacity:1;" d="M 4.742188 16.59375 L 8.621094 16.59375 L 8.621094 17.457031 L 4.742188 17.457031 Z M 4.742188 16.59375 "/>
<path style=" stroke:none;fill-rule:nonzero;fill:rgb(78.823529%,74.509804%,49.019608%);fill-opacity:1;" d="M 4.742188 18.320312 L 8.621094 18.320312 L 8.621094 19.179688 L 4.742188 19.179688 Z M 4.742188 18.320312 "/>
<path style=" stroke:none;fill-rule:nonzero;fill:rgb(23.137255%,55.294118%,82.745098%);fill-opacity:1;" d="M 7.757812 24.351562 L 1.722656 24.351562 C 0.777344 24.351562 0 23.578125 0 22.628906 C 0 21.679688 0.777344 20.90625 1.722656 20.90625 L 7.757812 20.90625 C 8.707031 20.90625 9.484375 21.679688 9.484375 22.628906 C 9.484375 23.578125 8.707031 24.351562 7.757812 24.351562 Z M 7.757812 24.351562 "/>
<path style=" stroke:none;fill-rule:nonzero;fill:rgb(92.156863%,72.941176%,8.627451%);fill-opacity:1;" d="M 4.742188 20.90625 L 1.722656 20.90625 C 0.777344 20.90625 0 21.679688 0 22.628906 C 0 23.578125 0.777344 24.351562 1.722656 24.351562 L 4.742188 24.351562 Z M 4.742188 20.90625 "/>
</g>
</svg>
