<?xml version="1.0" encoding="UTF-8"?>
<svg xmlns="http://www.w3.org/2000/svg" xmlns:xlink="http://www.w3.org/1999/xlink" width="25px" height="25px" viewBox="0 0 25 25" version="1.1">
<g id="surface1">
<path style=" stroke:none;fill-rule:nonzero;fill:rgb(74.117647%,76.470588%,78.039216%);fill-opacity:1;" d="M 5.207031 4.167969 C 4.058594 4.167969 3.125 5.105469 3.125 6.25 L 3.125 20.832031 C 3.125 21.980469 4.058594 22.917969 5.207031 22.917969 L 19.792969 22.917969 C 20.941406 22.917969 21.875 21.980469 21.875 20.832031 L 21.875 6.25 C 21.875 5.105469 20.941406 4.167969 19.792969 4.167969 Z M 5.207031 4.167969 "/>
<path style=" stroke:none;fill-rule:nonzero;fill:rgb(92.54902%,94.117647%,94.509804%);fill-opacity:1;" d="M 5.207031 3.125 C 4.058594 3.125 3.125 4.058594 3.125 5.207031 L 3.125 19.792969 C 3.125 20.941406 4.058594 21.875 5.207031 21.875 L 19.792969 21.875 C 20.941406 21.875 21.875 20.941406 21.875 19.792969 L 21.875 5.207031 C 21.875 4.058594 20.941406 3.125 19.792969 3.125 Z M 5.207031 3.125 "/>
<path style=" stroke:none;fill-rule:nonzero;fill:rgb(90.588235%,29.803922%,23.529412%);fill-opacity:1;" d="M 5.207031 3.125 C 4.058594 3.125 3.125 4.0625 3.125 5.207031 L 3.125 8.332031 L 21.875 8.332031 L 21.875 5.207031 C 21.875 4.0625 20.941406 3.125 19.792969 3.125 Z M 5.207031 3.125 "/>
<path style=" stroke:none;fill-rule:nonzero;fill:rgb(75.294118%,22.352941%,16.862745%);fill-opacity:1;" d="M 7.8125 5.730469 C 7.8125 6.59375 7.113281 7.292969 6.25 7.292969 C 5.386719 7.292969 4.6875 6.59375 4.6875 5.730469 C 4.6875 4.867188 5.386719 4.167969 6.25 4.167969 C 7.113281 4.167969 7.8125 4.867188 7.8125 5.730469 Z M 7.8125 5.730469 "/>
<path style=" stroke:none;fill-rule:nonzero;fill:rgb(74.117647%,76.470588%,78.039216%);fill-opacity:1;" d="M 6.25 1.042969 C 5.675781 1.042969 5.207031 1.507812 5.207031 2.082031 L 5.207031 5.207031 C 5.207031 5.785156 5.675781 6.25 6.25 6.25 C 6.824219 6.25 7.292969 5.785156 7.292969 5.207031 L 7.292969 2.082031 C 7.292969 1.507812 6.824219 1.042969 6.25 1.042969 Z M 6.25 1.042969 "/>
<path style=" stroke:none;fill-rule:nonzero;fill:rgb(75.294118%,22.352941%,16.862745%);fill-opacity:1;" d="M 20.3125 5.730469 C 20.3125 6.59375 19.613281 7.292969 18.75 7.292969 C 17.886719 7.292969 17.1875 6.59375 17.1875 5.730469 C 17.1875 4.867188 17.886719 4.167969 18.75 4.167969 C 19.613281 4.167969 20.3125 4.867188 20.3125 5.730469 Z M 20.3125 5.730469 "/>
<path style=" stroke:none;fill-rule:nonzero;fill:rgb(74.117647%,76.470588%,78.039216%);fill-opacity:1;" d="M 18.75 1.042969 C 18.175781 1.042969 17.707031 1.457031 17.707031 2.082031 L 17.707031 5.207031 C 17.707031 5.730469 18.175781 6.25 18.75 6.25 C 19.324219 6.25 19.792969 5.730469 19.792969 5.207031 L 19.792969 2.082031 C 19.792969 1.457031 19.324219 1.042969 18.75 1.042969 Z M 18.75 1.042969 "/>
<path style=" stroke:none;fill-rule:nonzero;fill:rgb(74.117647%,76.470588%,78.039216%);fill-opacity:1;" d="M 5.207031 11.457031 L 5.207031 13.542969 L 7.292969 13.542969 L 7.292969 11.457031 Z M 8.332031 11.457031 L 8.332031 13.542969 L 10.417969 13.542969 L 10.417969 11.457031 Z M 11.457031 11.457031 L 11.457031 13.542969 L 13.542969 13.542969 L 13.542969 11.457031 Z M 14.582031 11.457031 L 14.582031 13.542969 L 16.667969 13.542969 L 16.667969 11.457031 Z M 17.707031 11.457031 L 17.707031 13.542969 L 19.792969 13.542969 L 19.792969 11.457031 Z M 17.707031 11.457031 "/>
<path style=" stroke:none;fill-rule:nonzero;fill:rgb(74.117647%,76.470588%,78.039216%);fill-opacity:1;" d="M 5.207031 14.582031 L 5.207031 16.667969 L 7.292969 16.667969 L 7.292969 14.582031 Z M 8.332031 14.582031 L 8.332031 16.667969 L 10.417969 16.667969 L 10.417969 14.582031 Z M 11.457031 14.582031 L 11.457031 16.667969 L 13.542969 16.667969 L 13.542969 14.582031 Z M 14.582031 14.582031 L 14.582031 16.667969 L 16.667969 16.667969 L 16.667969 14.582031 Z M 17.707031 14.582031 L 17.707031 16.667969 L 19.792969 16.667969 L 19.792969 14.582031 Z M 17.707031 14.582031 "/>
<path style=" stroke:none;fill-rule:nonzero;fill:rgb(74.117647%,76.470588%,78.039216%);fill-opacity:1;" d="M 5.207031 17.707031 L 5.207031 19.792969 L 7.292969 19.792969 L 7.292969 17.707031 Z M 8.332031 17.707031 L 8.332031 19.792969 L 10.417969 19.792969 L 10.417969 17.707031 Z M 11.457031 17.707031 L 11.457031 19.792969 L 13.542969 19.792969 L 13.542969 17.707031 Z M 14.582031 17.707031 L 14.582031 19.792969 L 16.667969 19.792969 L 16.667969 17.707031 Z M 17.707031 17.707031 L 17.707031 19.792969 L 19.792969 19.792969 L 19.792969 17.707031 Z M 17.707031 17.707031 "/>
<path style=" stroke:none;fill-rule:nonzero;fill:rgb(75.294118%,22.352941%,16.862745%);fill-opacity:1;" d="M 3.125 8.332031 L 21.875 8.332031 L 21.875 9.375 L 3.125 9.375 Z M 3.125 8.332031 "/>
</g>
</svg>
