<?xml version="1.0" encoding="UTF-8"?>
<svg xmlns="http://www.w3.org/2000/svg" xmlns:xlink="http://www.w3.org/1999/xlink" width="25px" height="25px" viewBox="0 0 25 25" version="1.1">
<g id="surface1">
<path style=" stroke:none;fill-rule:nonzero;fill:rgb(100%,54.117647%,39.607843%);fill-opacity:1;" d="M 5.207031 13.542969 C 5.207031 15.207031 5.730469 16.769531 6.769531 18.019531 C 7.8125 19.375 8.332031 21.144531 8.332031 22.917969 L 16.667969 22.917969 C 16.667969 22.917969 17.1875 19.375 18.230469 17.917969 C 19.167969 16.667969 19.792969 15.105469 19.792969 13.4375 C 19.792969 10.625 18.125 7.917969 15.625 6.769531 L 15.625 3.125 L 9.375 3.125 L 9.375 6.769531 C 9.375 6.769531 5.207031 8.4375 5.207031 13.542969 Z M 5.207031 13.542969 "/>
<path style=" stroke:none;fill-rule:nonzero;fill:rgb(100%,67.058824%,56.862745%);fill-opacity:1;" d="M 18.75 13.542969 C 18.75 12.394531 19.0625 11.511719 19.425781 11.144531 C 19.324219 10.78125 19.167969 10.46875 19.011719 10.15625 C 18.230469 10.675781 17.707031 11.925781 17.707031 13.542969 C 17.707031 15.050781 18.175781 16.300781 18.90625 16.875 C 19.0625 16.5625 19.21875 16.199219 19.375 15.886719 C 19.0625 15.417969 18.75 14.636719 18.75 13.542969 Z M 12.5 9.894531 C 10.46875 9.894531 8.855469 11.511719 8.855469 13.542969 C 8.855469 15.574219 10.46875 17.1875 12.5 17.1875 C 14.53125 17.1875 16.144531 15.574219 16.144531 13.542969 C 16.144531 11.511719 14.53125 9.894531 12.5 9.894531 Z M 12.5 16.144531 C 11.042969 16.144531 9.894531 15 9.894531 13.542969 C 9.894531 12.082031 11.042969 10.9375 12.5 10.9375 C 13.957031 10.9375 15.105469 12.082031 15.105469 13.542969 C 15.105469 15 13.957031 16.144531 12.5 16.144531 Z M 5.9375 10.105469 C 5.78125 10.417969 5.625 10.730469 5.519531 11.09375 C 5.886719 11.457031 6.199219 12.34375 6.199219 13.488281 C 6.199219 14.636719 5.886719 15.46875 5.519531 15.832031 C 5.625 16.199219 5.78125 16.511719 5.9375 16.824219 C 6.769531 16.355469 7.292969 15.105469 7.292969 13.542969 C 7.292969 11.925781 6.769531 10.625 5.9375 10.105469 Z M 9.375 5.730469 L 15.625 5.730469 L 15.625 6.769531 L 9.375 6.769531 Z M 9.375 5.730469 "/>
<path style=" stroke:none;fill-rule:nonzero;fill:rgb(100%,43.921569%,26.27451%);fill-opacity:1;" d="M 8.332031 3.125 C 8.332031 3.699219 8.800781 4.167969 9.375 4.167969 L 15.625 4.167969 C 16.199219 4.167969 16.667969 3.699219 16.667969 3.125 C 16.667969 2.550781 16.199219 2.082031 15.625 2.082031 L 9.375 2.082031 C 8.800781 2.082031 8.332031 2.550781 8.332031 3.125 Z M 8.332031 3.125 "/>
<path style=" stroke:none;fill-rule:nonzero;fill:rgb(54.901961%,16.470588%,4.313725%);fill-opacity:1;" d="M 11.824219 15.574219 L 12.605469 19.375 L 12.5 15.207031 L 10.9375 13.957031 L 12.8125 10.832031 L 8.230469 10.832031 L 6.875 8.800781 C 6.511719 9.21875 6.199219 9.6875 5.886719 10.3125 L 7.238281 11.824219 L 11.769531 11.457031 L 9.582031 14.375 Z M 11.824219 15.574219 "/>
</g>
</svg>
