<?xml version="1.0" encoding="UTF-8"?>
<svg xmlns="http://www.w3.org/2000/svg" xmlns:xlink="http://www.w3.org/1999/xlink" width="25px" height="25px" viewBox="0 0 25 25" version="1.1">
<g id="surface1">
<path style=" stroke:none;fill-rule:nonzero;fill:rgb(96.862745%,69.803922%,22.352941%);fill-opacity:1;" d="M 17.996094 7.996094 L 18.875 7.996094 L 18.875 15.4375 L 17.996094 15.4375 Z M 17.996094 7.996094 "/>
<path style=" stroke:none;fill-rule:nonzero;fill:rgb(96.862745%,69.803922%,22.352941%);fill-opacity:1;" d="M 10.253906 9.40625 L 11.136719 9.40625 L 11.136719 15.421875 L 10.253906 15.421875 Z M 10.253906 9.40625 "/>
<path style=" stroke:none;fill-rule:nonzero;fill:rgb(87.843137%,60.784314%,17.647059%);fill-opacity:1;" d="M 10.253906 9.40625 L 11.136719 9.40625 L 11.136719 10.988281 L 10.253906 10.988281 Z M 10.253906 9.40625 "/>
<path style=" stroke:none;fill-rule:nonzero;fill:rgb(87.843137%,60.784314%,17.647059%);fill-opacity:1;" d="M 18.875 7.996094 L 18.875 9.8125 C 18.738281 9.863281 18.589844 9.890625 18.433594 9.890625 L 17.996094 9.890625 L 17.996094 7.996094 Z M 18.875 7.996094 "/>
<path style=" stroke:none;fill-rule:nonzero;fill:rgb(97.647059%,32.941176%,15.686275%);fill-opacity:1;" d="M 9.757812 4.210938 L 10.042969 1.15625 C 10.105469 0.5 10.652344 0 11.3125 0 L 17.820312 0 C 18.476562 0 19.027344 0.5 19.085938 1.15625 L 19.703125 7.75 C 19.773438 8.496094 19.1875 9.140625 18.433594 9.140625 L 16.824219 9.140625 C 16.800781 8.984375 12.226562 10.164062 11.136719 9.40625 C 9.046875 7.949219 9.757812 4.210938 9.757812 4.210938 Z M 9.757812 4.210938 "/>
<path style=" stroke:none;fill-rule:nonzero;fill:rgb(87.843137%,60.784314%,17.647059%);fill-opacity:1;" d="M 8.742188 15.984375 L 8.300781 15.984375 C 6.023438 15.984375 4.171875 14.128906 4.171875 11.851562 L 4.171875 10.371094 C 4.171875 9.527344 4.855469 8.84375 5.699219 8.84375 L 6.140625 8.84375 L 6.140625 9.722656 L 5.699219 9.722656 C 5.34375 9.722656 5.050781 10.011719 5.050781 10.371094 L 5.050781 11.851562 C 5.050781 13.644531 6.511719 15.101562 8.300781 15.101562 L 8.742188 15.101562 Z M 8.742188 15.984375 "/>
<path style=" stroke:none;fill-rule:nonzero;fill:rgb(87.843137%,60.784314%,17.647059%);fill-opacity:1;" d="M 10.421875 19.476562 L 18.707031 19.476562 L 18.707031 20.359375 L 10.421875 20.359375 Z M 10.421875 19.476562 "/>
<path style=" stroke:none;fill-rule:nonzero;fill:rgb(96.862745%,69.803922%,22.352941%);fill-opacity:1;" d="M 18.085938 16.441406 L 19.578125 16.441406 L 19.578125 25 L 18.085938 25 Z M 18.085938 16.441406 "/>
<path style=" stroke:none;fill-rule:nonzero;fill:rgb(96.862745%,69.803922%,22.352941%);fill-opacity:1;" d="M 9.554688 16.441406 L 11.042969 16.441406 L 11.042969 25 L 9.554688 25 Z M 9.554688 16.441406 "/>
<path style=" stroke:none;fill-rule:nonzero;fill:rgb(87.843137%,60.784314%,17.647059%);fill-opacity:1;" d="M 9.554688 16.441406 L 11.042969 16.441406 L 11.042969 18.003906 L 9.554688 18.003906 Z M 9.554688 16.441406 "/>
<path style=" stroke:none;fill-rule:nonzero;fill:rgb(87.843137%,60.784314%,17.647059%);fill-opacity:1;" d="M 18.085938 16.441406 L 19.578125 16.441406 L 19.578125 18.003906 L 18.085938 18.003906 Z M 18.085938 16.441406 "/>
<path style=" stroke:none;fill-rule:nonzero;fill:rgb(97.647059%,32.941176%,15.686275%);fill-opacity:1;" d="M 19.578125 14.289062 C 20.265625 14.289062 20.828125 14.851562 20.828125 15.542969 C 20.828125 15.886719 20.6875 16.199219 20.460938 16.425781 C 20.234375 16.652344 19.921875 16.792969 19.578125 16.792969 L 9.554688 16.792969 C 8.863281 16.792969 8.300781 16.234375 8.300781 15.542969 C 8.300781 15.195312 8.441406 14.882812 8.667969 14.65625 C 8.894531 14.429688 9.207031 14.289062 9.554688 14.289062 Z M 19.578125 14.289062 "/>
<path style=" stroke:none;fill-rule:nonzero;fill:rgb(90.196078%,90.196078%,90.196078%);fill-opacity:1;" d="M 9.757812 3.773438 L 8.746094 3.773438 C 8.175781 3.773438 7.714844 4.234375 7.714844 4.800781 C 7.714844 5.085938 7.832031 5.34375 8.015625 5.527344 C 8.054688 5.566406 8.09375 5.597656 8.136719 5.628906 C 7.882812 5.859375 7.714844 6.222656 7.714844 6.636719 C 7.714844 6.984375 7.832031 7.296875 8.015625 7.519531 C 8.203125 7.746094 8.460938 7.886719 8.746094 7.886719 L 13.933594 7.886719 L 13.933594 3.773438 Z M 9.757812 3.773438 "/>
<path style=" stroke:none;fill-rule:nonzero;fill:rgb(16.862745%,64.705882%,96.862745%);fill-opacity:1;" d="M 8.746094 6.269531 L 14.539062 6.269531 C 14.78125 6.269531 14.980469 6.074219 14.980469 5.828125 C 14.980469 5.585938 14.78125 5.390625 14.539062 5.390625 L 8.746094 5.390625 C 8.585938 5.390625 8.441406 5.328125 8.328125 5.21875 C 8.21875 5.105469 8.15625 4.957031 8.15625 4.800781 C 8.15625 4.476562 8.421875 4.210938 8.746094 4.210938 L 14.539062 4.210938 C 14.78125 4.210938 14.980469 4.015625 14.980469 3.773438 C 14.980469 3.527344 14.78125 3.332031 14.539062 3.332031 L 8.746094 3.332031 C 7.933594 3.332031 7.277344 3.992188 7.277344 4.800781 C 7.277344 5.1875 7.425781 5.554688 7.695312 5.832031 C 7.4375 6.09375 7.277344 6.457031 7.277344 6.859375 C 7.277344 7.25 7.429688 7.621094 7.707031 7.898438 C 7.984375 8.175781 8.351562 8.328125 8.746094 8.328125 L 11.136719 9.40625 L 14.539062 8.328125 C 14.78125 8.328125 14.980469 8.128906 14.980469 7.886719 C 14.980469 7.644531 14.78125 7.445312 14.539062 7.445312 L 8.746094 7.445312 C 8.585938 7.445312 8.441406 7.386719 8.328125 7.273438 C 8.21875 7.164062 8.15625 7.015625 8.15625 6.859375 C 8.15625 6.535156 8.421875 6.269531 8.746094 6.269531 Z M 8.746094 6.269531 "/>
<path style=" stroke:none;fill-rule:nonzero;fill:rgb(96.862745%,69.803922%,22.352941%);fill-opacity:1;" d="M 16.824219 9.140625 C 16.828125 9.1875 16.832031 9.234375 16.832031 9.285156 C 16.832031 9.546875 16.726562 9.785156 16.554688 9.960938 C 16.378906 10.132812 16.140625 10.238281 15.875 10.238281 L 6.65625 10.238281 C 6.125 10.238281 5.699219 9.8125 5.699219 9.285156 C 5.699219 9.019531 5.804688 8.78125 5.980469 8.605469 C 6.152344 8.433594 6.390625 8.328125 6.65625 8.328125 L 15.875 8.328125 C 16.355469 8.328125 16.753906 8.679688 16.824219 9.140625 Z M 16.824219 9.140625 "/>
</g>
</svg>
