<?xml version="1.0" encoding="UTF-8"?>
<svg xmlns="http://www.w3.org/2000/svg" xmlns:xlink="http://www.w3.org/1999/xlink" width="25px" height="25px" viewBox="0 0 25 25" version="1.1">
<defs>
<filter id="alpha" filterUnits="objectBoundingBox" x="0%" y="0%" width="100%" height="100%">
  <feColorMatrix type="matrix" in="SourceGraphic" values="0 0 0 0 1 0 0 0 0 1 0 0 0 0 1 0 0 0 1 0"/>
</filter>
<mask id="mask0">
  <g filter="url(#alpha)">
<rect x="0" y="0" width="25" height="25" style="fill:rgb(0%,0%,0%);fill-opacity:0.301961;stroke:none;"/>
  </g>
</mask>
<clipPath id="clip1">
  <rect x="0" y="0" width="25" height="25"/>
</clipPath>
<g id="surface5" clip-path="url(#clip1)">
<path style=" stroke:none;fill-rule:evenodd;fill:rgb(0.392157%,0.784314%,0.784314%);fill-opacity:1;" d="M 5.433594 20.320312 L 7.894531 20.320312 L 7.894531 18.683594 L 5.433594 18.683594 Z M 5.433594 20.320312 "/>
</g>
<mask id="mask1">
  <g filter="url(#alpha)">
<rect x="0" y="0" width="25" height="25" style="fill:rgb(0%,0%,0%);fill-opacity:0.301961;stroke:none;"/>
  </g>
</mask>
<clipPath id="clip2">
  <rect x="0" y="0" width="25" height="25"/>
</clipPath>
<g id="surface8" clip-path="url(#clip2)">
<path style=" stroke:none;fill-rule:evenodd;fill:rgb(0.392157%,0.784314%,0.784314%);fill-opacity:1;" d="M 17.101562 20.320312 L 19.5625 20.320312 L 19.5625 18.683594 L 17.101562 18.683594 Z M 17.101562 20.320312 "/>
</g>
<mask id="mask2">
  <g filter="url(#alpha)">
<rect x="0" y="0" width="25" height="25" style="fill:rgb(0%,0%,0%);fill-opacity:0.301961;stroke:none;"/>
  </g>
</mask>
<clipPath id="clip3">
  <rect x="0" y="0" width="25" height="25"/>
</clipPath>
<g id="surface11" clip-path="url(#clip3)">
<path style=" stroke:none;fill-rule:evenodd;fill:rgb(0.392157%,0.784314%,0.784314%);fill-opacity:1;" d="M 2.96875 18.683594 L 5.433594 18.683594 L 5.433594 17.046875 L 2.96875 17.046875 Z M 2.96875 18.683594 "/>
</g>
<mask id="mask3">
  <g filter="url(#alpha)">
<rect x="0" y="0" width="25" height="25" style="fill:rgb(0%,0%,0%);fill-opacity:0.301961;stroke:none;"/>
  </g>
</mask>
<clipPath id="clip4">
  <rect x="0" y="0" width="25" height="25"/>
</clipPath>
<g id="surface14" clip-path="url(#clip4)">
<path style=" stroke:none;fill-rule:evenodd;fill:rgb(0.392157%,0.784314%,0.784314%);fill-opacity:1;" d="M 19.65625 18.683594 L 22.121094 18.683594 L 22.121094 17.046875 L 19.65625 17.046875 Z M 19.65625 18.683594 "/>
</g>
<mask id="mask4">
  <g filter="url(#alpha)">
<rect x="0" y="0" width="25" height="25" style="fill:rgb(0%,0%,0%);fill-opacity:0.301961;stroke:none;"/>
  </g>
</mask>
<clipPath id="clip5">
  <rect x="0" y="0" width="25" height="25"/>
</clipPath>
<g id="surface17" clip-path="url(#clip5)">
<path style=" stroke:none;fill-rule:evenodd;fill:rgb(0.392157%,0.784314%,0.784314%);fill-opacity:1;" d="M 0.503906 16.558594 L 2.96875 16.558594 L 2.96875 14.921875 L 0.503906 14.921875 Z M 0.503906 16.558594 "/>
</g>
<mask id="mask5">
  <g filter="url(#alpha)">
<rect x="0" y="0" width="25" height="25" style="fill:rgb(0%,0%,0%);fill-opacity:0.301961;stroke:none;"/>
  </g>
</mask>
<clipPath id="clip6">
  <rect x="0" y="0" width="25" height="25"/>
</clipPath>
<g id="surface20" clip-path="url(#clip6)">
<path style=" stroke:none;fill-rule:evenodd;fill:rgb(0.392157%,0.784314%,0.784314%);fill-opacity:1;" d="M 22.121094 16.558594 L 24.582031 16.558594 L 24.582031 14.921875 L 22.121094 14.921875 Z M 22.121094 16.558594 "/>
</g>
</defs>
<g id="surface1">
<path style=" stroke:none;fill-rule:evenodd;fill:rgb(99.607843%,99.607843%,99.607843%);fill-opacity:1;" d="M 7.988281 13.484375 L 17.007812 13.484375 L 17.007812 11.355469 L 7.988281 11.355469 Z M 7.988281 13.484375 "/>
<path style=" stroke:none;fill-rule:evenodd;fill:rgb(18.039216%,18.039216%,18.823529%);fill-opacity:1;" d="M 8.492188 12.984375 L 16.503906 12.984375 L 16.503906 11.859375 L 8.492188 11.859375 Z M 17.007812 13.988281 L 7.988281 13.988281 C 7.710938 13.988281 7.484375 13.761719 7.484375 13.484375 L 7.484375 11.355469 C 7.484375 11.078125 7.710938 10.851562 7.988281 10.851562 L 17.007812 10.851562 C 17.285156 10.851562 17.511719 11.078125 17.511719 11.355469 L 17.511719 13.484375 C 17.511719 13.761719 17.285156 13.988281 17.007812 13.988281 Z M 17.007812 13.988281 "/>
<path style=" stroke:none;fill-rule:evenodd;fill:rgb(50.980392%,61.568627%,77.254902%);fill-opacity:1;" d="M 17.101562 20.320312 L 19.5625 20.320312 L 19.5625 4.519531 L 17.101562 4.519531 Z M 17.101562 20.320312 "/>
<path style=" stroke:none;fill-rule:evenodd;fill:rgb(80.392157%,89.411765%,96.470588%);fill-opacity:1;" d="M 19.5625 18.683594 L 22.027344 18.683594 L 22.027344 6.15625 L 19.5625 6.15625 Z M 19.5625 18.683594 "/>
<path style=" stroke:none;fill-rule:evenodd;fill:rgb(50.980392%,61.568627%,77.254902%);fill-opacity:1;" d="M 22.027344 16.558594 L 24.492188 16.558594 L 24.492188 8.285156 L 22.027344 8.285156 Z M 22.027344 16.558594 "/>
<path style=" stroke:none;fill-rule:evenodd;fill:rgb(50.980392%,61.568627%,77.254902%);fill-opacity:1;" d="M 5.433594 20.320312 L 7.894531 20.320312 L 7.894531 4.519531 L 5.433594 4.519531 Z M 5.433594 20.320312 "/>
<path style=" stroke:none;fill-rule:evenodd;fill:rgb(80.392157%,89.411765%,96.470588%);fill-opacity:1;" d="M 2.96875 18.683594 L 5.433594 18.683594 L 5.433594 6.15625 L 2.96875 6.15625 Z M 2.96875 18.683594 "/>
<path style=" stroke:none;fill-rule:evenodd;fill:rgb(50.980392%,61.568627%,77.254902%);fill-opacity:1;" d="M 0.503906 16.558594 L 2.96875 16.558594 L 2.96875 8.285156 L 0.503906 8.285156 Z M 0.503906 16.558594 "/>
<use xlink:href="#surface5" mask="url(#mask0)"/>
<use xlink:href="#surface8" mask="url(#mask1)"/>
<use xlink:href="#surface11" mask="url(#mask2)"/>
<use xlink:href="#surface14" mask="url(#mask3)"/>
<use xlink:href="#surface17" mask="url(#mask4)"/>
<use xlink:href="#surface20" mask="url(#mask5)"/>
<path style=" stroke:none;fill-rule:evenodd;fill:rgb(18.039216%,18.039216%,18.823529%);fill-opacity:1;" d="M 17.601562 19.820312 L 19.058594 19.820312 L 19.058594 5.023438 L 17.601562 5.023438 Z M 19.5625 20.824219 L 17.101562 20.824219 C 16.820312 20.824219 16.597656 20.597656 16.597656 20.320312 L 16.597656 4.519531 C 16.597656 4.242188 16.820312 4.015625 17.101562 4.015625 L 19.5625 4.015625 C 19.839844 4.015625 20.066406 4.242188 20.066406 4.519531 L 20.066406 20.320312 C 20.066406 20.597656 19.839844 20.824219 19.5625 20.824219 Z M 19.5625 20.824219 "/>
<path style=" stroke:none;fill-rule:evenodd;fill:rgb(18.039216%,18.039216%,18.823529%);fill-opacity:1;" d="M 20.066406 18.179688 L 21.523438 18.179688 L 21.523438 6.660156 L 20.066406 6.660156 Z M 22.027344 19.1875 L 19.5625 19.1875 C 19.285156 19.1875 19.058594 18.960938 19.058594 18.683594 L 19.058594 6.15625 C 19.058594 5.878906 19.285156 5.652344 19.5625 5.652344 L 22.027344 5.652344 C 22.304688 5.652344 22.53125 5.878906 22.53125 6.15625 L 22.53125 18.683594 C 22.53125 18.960938 22.304688 19.1875 22.027344 19.1875 Z M 22.027344 19.1875 "/>
<path style=" stroke:none;fill-rule:evenodd;fill:rgb(18.039216%,18.039216%,18.823529%);fill-opacity:1;" d="M 22.53125 16.054688 L 23.988281 16.054688 L 23.988281 8.785156 L 22.53125 8.785156 Z M 24.492188 17.058594 L 22.027344 17.058594 C 21.75 17.058594 21.523438 16.835938 21.523438 16.558594 L 21.523438 8.285156 C 21.523438 8.007812 21.75 7.78125 22.027344 7.78125 L 24.492188 7.78125 C 24.769531 7.78125 24.996094 8.007812 24.996094 8.285156 L 24.996094 16.558594 C 24.996094 16.835938 24.769531 17.058594 24.492188 17.058594 Z M 24.492188 17.058594 "/>
<path style=" stroke:none;fill-rule:evenodd;fill:rgb(18.039216%,18.039216%,18.823529%);fill-opacity:1;" d="M 5.933594 19.820312 L 7.390625 19.820312 L 7.390625 5.023438 L 5.933594 5.023438 Z M 7.894531 20.824219 L 5.433594 20.824219 C 5.152344 20.824219 4.929688 20.597656 4.929688 20.320312 L 4.929688 4.519531 C 4.929688 4.242188 5.152344 4.015625 5.433594 4.015625 L 7.894531 4.015625 C 8.171875 4.015625 8.398438 4.242188 8.398438 4.519531 L 8.398438 20.320312 C 8.398438 20.597656 8.171875 20.824219 7.894531 20.824219 Z M 7.894531 20.824219 "/>
<path style=" stroke:none;fill-rule:evenodd;fill:rgb(18.039216%,18.039216%,18.823529%);fill-opacity:1;" d="M 3.472656 18.179688 L 4.929688 18.179688 L 4.929688 6.660156 L 3.472656 6.660156 Z M 5.433594 19.1875 L 2.96875 19.1875 C 2.691406 19.1875 2.464844 18.960938 2.464844 18.683594 L 2.464844 6.15625 C 2.464844 5.878906 2.691406 5.652344 2.96875 5.652344 L 5.433594 5.652344 C 5.710938 5.652344 5.933594 5.878906 5.933594 6.15625 L 5.933594 18.683594 C 5.933594 18.960938 5.710938 19.1875 5.433594 19.1875 Z M 5.433594 19.1875 "/>
<path style=" stroke:none;fill-rule:evenodd;fill:rgb(18.039216%,18.039216%,18.823529%);fill-opacity:1;" d="M 1.007812 16.054688 L 2.464844 16.054688 L 2.464844 8.785156 L 1.007812 8.785156 Z M 2.96875 17.058594 L 0.503906 17.058594 C 0.226562 17.058594 0 16.835938 0 16.558594 L 0 8.285156 C 0 8.007812 0.226562 7.78125 0.503906 7.78125 L 2.96875 7.78125 C 3.246094 7.78125 3.472656 8.007812 3.472656 8.285156 L 3.472656 16.558594 C 3.472656 16.835938 3.246094 17.058594 2.96875 17.058594 Z M 2.96875 17.058594 "/>
</g>
</svg>
