<?xml version="1.0" encoding="UTF-8"?>
<svg xmlns="http://www.w3.org/2000/svg" xmlns:xlink="http://www.w3.org/1999/xlink" width="25px" height="25px" viewBox="0 0 25 25" version="1.1">
<g id="surface1">
<path style=" stroke:none;fill-rule:nonzero;fill:rgb(33.333333%,64.313725%,49.411765%);fill-opacity:1;" d="M 9.59375 11.699219 L 4.566406 11.699219 L 4.566406 13.179688 L 9.59375 13.179688 Z M 6.972656 12.679688 C 6.839844 12.679688 6.734375 12.574219 6.734375 12.441406 C 6.734375 12.308594 6.839844 12.203125 6.972656 12.203125 C 7.105469 12.203125 7.210938 12.308594 7.210938 12.441406 C 7.210938 12.574219 7.105469 12.679688 6.972656 12.679688 Z M 6.972656 12.679688 "/>
<path style=" stroke:none;fill-rule:nonzero;fill:rgb(33.333333%,64.313725%,49.411765%);fill-opacity:1;" d="M 20.179688 11.714844 L 11.671875 11.714844 L 11.671875 14.519531 L 20.179688 14.519531 Z M 15.789062 13.390625 C 15.660156 13.390625 15.550781 13.28125 15.550781 13.148438 C 15.550781 13.019531 15.660156 12.910156 15.789062 12.910156 C 15.921875 12.910156 16.03125 13.019531 16.03125 13.148438 C 16.023438 13.285156 15.917969 13.390625 15.789062 13.390625 Z M 15.789062 13.390625 "/>
<path style=" stroke:none;fill-rule:nonzero;fill:rgb(33.333333%,64.313725%,49.411765%);fill-opacity:1;" d="M 22.179688 9.890625 L 2.820312 9.890625 C 2.46875 9.890625 2.183594 10.179688 2.183594 10.53125 L 2.183594 11.523438 L 2.734375 11.523438 L 2.734375 24.707031 L 11.414062 24.707031 L 11.414062 16.367188 L 20.414062 16.367188 L 20.414062 24.707031 L 22.046875 24.707031 L 22.046875 11.523438 L 22.808594 11.523438 L 22.808594 10.53125 C 22.816406 10.175781 22.53125 9.890625 22.179688 9.890625 Z M 6.3125 23.078125 L 4.371094 23.078125 L 4.371094 15 L 6.320312 15 L 6.320312 23.078125 Z M 9.789062 23.078125 L 7.949219 23.078125 L 7.949219 15 L 9.789062 15 Z M 9.789062 13.367188 L 4.371094 13.367188 L 4.371094 11.523438 L 9.789062 11.523438 Z M 20.421875 14.734375 L 11.421875 14.734375 L 11.421875 11.523438 L 20.421875 11.523438 Z M 20.421875 14.734375 "/>
<path style=" stroke:none;fill-rule:nonzero;fill:rgb(33.333333%,64.313725%,49.411765%);fill-opacity:1;" d="M 8.53125 5.449219 C 8.53125 5.375 8.53125 5.308594 8.523438 5.238281 L 5.03125 5.238281 C 5.023438 5.308594 5.023438 5.382812 5.023438 5.449219 C 5.023438 6.5625 5.585938 8.367188 6.34375 8.90625 C 6.109375 9.042969 5.953125 9.265625 5.953125 9.417969 C 5.953125 9.433594 5.953125 9.441406 5.957031 9.457031 L 7.609375 9.457031 C 7.609375 9.441406 7.613281 9.433594 7.613281 9.417969 C 7.613281 9.265625 7.457031 9.042969 7.222656 8.90625 C 7.96875 8.367188 8.53125 6.5625 8.53125 5.449219 Z M 8.53125 5.449219 "/>
<path style=" stroke:none;fill-rule:nonzero;fill:rgb(33.333333%,64.313725%,49.411765%);fill-opacity:1;" d="M 8.601562 1.441406 C 8.457031 0.757812 8.027344 0.292969 7.542969 0.292969 L 6.007812 0.292969 C 5.523438 0.292969 5.09375 0.757812 4.945312 1.441406 L 4.335938 4.222656 L 9.21875 4.222656 Z M 8.601562 1.441406 "/>
<path style=" stroke:none;fill-rule:nonzero;fill:rgb(33.333333%,64.313725%,49.411765%);fill-opacity:1;" d="M 6.101562 15.265625 L 4.578125 15.265625 L 4.578125 22.863281 L 6.101562 22.863281 Z M 5.3125 19.300781 C 5.179688 19.300781 5.074219 19.195312 5.074219 19.0625 C 5.074219 18.929688 5.179688 18.824219 5.3125 18.824219 C 5.445312 18.824219 5.550781 18.929688 5.550781 19.0625 C 5.550781 19.199219 5.445312 19.300781 5.3125 19.300781 Z M 5.3125 19.300781 "/>
<path style=" stroke:none;fill-rule:nonzero;fill:rgb(33.333333%,64.313725%,49.411765%);fill-opacity:1;" d="M 9.601562 15.265625 L 8.121094 15.265625 L 8.121094 22.863281 L 9.601562 22.863281 Z M 8.828125 19.300781 C 8.695312 19.300781 8.589844 19.195312 8.589844 19.0625 C 8.589844 18.929688 8.695312 18.824219 8.828125 18.824219 C 8.960938 18.824219 9.066406 18.929688 9.066406 19.0625 C 9.066406 19.199219 8.960938 19.300781 8.828125 19.300781 Z M 8.828125 19.300781 "/>
<path style=" stroke:none;fill-rule:nonzero;fill:rgb(33.333333%,64.313725%,49.411765%);fill-opacity:1;" d="M 15.789062 13.339844 C 15.6875 13.339844 15.601562 13.257812 15.601562 13.148438 C 15.601562 13.042969 15.683594 12.960938 15.789062 12.960938 C 15.894531 12.960938 15.980469 13.042969 15.980469 13.148438 C 15.980469 13.257812 15.894531 13.339844 15.789062 13.339844 Z M 15.789062 13.339844 "/>
<path style=" stroke:none;fill-rule:nonzero;fill:rgb(33.333333%,64.313725%,49.411765%);fill-opacity:1;" d="M 6.972656 12.632812 C 6.871094 12.632812 6.78125 12.546875 6.78125 12.441406 C 6.78125 12.332031 6.867188 12.25 6.972656 12.25 C 7.082031 12.25 7.164062 12.332031 7.164062 12.441406 C 7.164062 12.546875 7.078125 12.632812 6.972656 12.632812 Z M 6.972656 12.632812 "/>
<path style=" stroke:none;fill-rule:nonzero;fill:rgb(33.333333%,64.313725%,49.411765%);fill-opacity:1;" d="M 8.828125 19.253906 C 8.726562 19.253906 8.636719 19.171875 8.636719 19.0625 C 8.636719 18.960938 8.71875 18.871094 8.828125 18.871094 C 8.9375 18.871094 9.019531 18.957031 9.019531 19.0625 C 9.019531 19.171875 8.9375 19.253906 8.828125 19.253906 Z M 8.828125 19.253906 "/>
<path style=" stroke:none;fill-rule:nonzero;fill:rgb(33.333333%,64.313725%,49.411765%);fill-opacity:1;" d="M 5.3125 19.253906 C 5.210938 19.253906 5.121094 19.171875 5.121094 19.0625 C 5.121094 18.960938 5.203125 18.871094 5.3125 18.871094 C 5.421875 18.871094 5.503906 18.957031 5.503906 19.0625 C 5.503906 19.171875 5.421875 19.253906 5.3125 19.253906 Z M 5.3125 19.253906 "/>
</g>
</svg>
