<?xml version="1.0" encoding="UTF-8"?>
<svg xmlns="http://www.w3.org/2000/svg" xmlns:xlink="http://www.w3.org/1999/xlink" width="25px" height="25px" viewBox="0 0 25 25" version="1.1">
<g id="surface1">
<path style=" stroke:none;fill-rule:nonzero;fill:rgb(95.294118%,95.294118%,95.294118%);fill-opacity:1;" d="M 21.675781 24.097656 C 21.675781 24.097656 20.953125 20.140625 20.6875 18.210938 C 20.421875 16.28125 16.84375 15.066406 15.101562 14.5625 C 13.09375 13.984375 13.945312 11.757812 13.945312 11.757812 C 13.542969 12.042969 12.746094 12.308594 12.003906 12.308594 C 11.261719 12.308594 10.140625 11.859375 10.140625 11.859375 C 10.140625 11.859375 11.015625 13.925781 8.90625 14.5625 C 7.167969 15.089844 3.585938 16.28125 3.320312 18.210938 C 3.054688 20.140625 2.335938 24.097656 2.335938 24.097656 Z M 21.675781 24.097656 "/>
<path style=" stroke:none;fill-rule:nonzero;fill:rgb(14.901961%,40%,80.784314%);fill-opacity:1;" d="M 20.882812 24.097656 C 21.292969 24.097656 21.605469 23.726562 21.535156 23.320312 C 21.3125 22.070312 20.878906 19.609375 20.6875 18.210938 C 20.421875 16.28125 16.84375 15.066406 15.101562 14.5625 C 14.109375 14.277344 13.101562 17.671875 12.082031 17.664062 C 11.035156 17.652344 9.976562 14.242188 8.90625 14.5625 C 7.167969 15.089844 3.585938 16.28125 3.320312 18.210938 C 3.128906 19.609375 2.699219 22.070312 2.476562 23.320312 C 2.402344 23.726562 2.714844 24.097656 3.128906 24.097656 Z M 20.882812 24.097656 "/>
<path style=" stroke:none;fill-rule:nonzero;fill:rgb(100%,100%,100%);fill-opacity:1;" d="M 10.753906 24.097656 L 8.375 14.59375 L 9.492188 13.941406 L 12.082031 17.792969 Z M 10.753906 24.097656 "/>
<path style=" stroke:none;fill-rule:nonzero;fill:rgb(4.313725%,30.980392%,69.803922%);fill-opacity:1;" d="M 4.199219 24.101562 L 4.199219 19.121094 L 5.492188 24.101562 Z M 4.199219 24.101562 "/>
<path style=" stroke:none;fill-rule:nonzero;fill:rgb(4.313725%,30.980392%,69.803922%);fill-opacity:1;" d="M 7.890625 15.019531 L 7.660156 19.695312 L 10.4375 24.101562 L 10.996094 24.101562 Z M 7.890625 15.019531 "/>
<path style=" stroke:none;fill-rule:nonzero;fill:rgb(100%,100%,100%);fill-opacity:1;" d="M 13.421875 24.097656 L 15.800781 14.59375 L 14.683594 13.941406 L 12.09375 17.792969 Z M 13.421875 24.097656 "/>
<path style=" stroke:none;fill-rule:nonzero;fill:rgb(4.313725%,30.980392%,69.803922%);fill-opacity:1;" d="M 19.949219 24.101562 L 19.949219 19.121094 L 18.671875 24.101562 Z M 19.949219 24.101562 "/>
<path style=" stroke:none;fill-rule:nonzero;fill:rgb(4.313725%,30.980392%,69.803922%);fill-opacity:1;" d="M 16.285156 15.019531 L 16.515625 19.695312 L 13.738281 24.101562 L 13.179688 24.101562 Z M 16.285156 15.019531 "/>
<path style=" stroke:none;fill-rule:nonzero;fill:rgb(94.509804%,73.333333%,29.803922%);fill-opacity:1;" d="M 10.988281 24.097656 L 11.628906 16.773438 C 11.75 16.304688 12.414062 16.304688 12.535156 16.773438 L 13.121094 24.097656 Z M 10.988281 24.097656 "/>
<path style=" stroke:none;fill-rule:nonzero;fill:rgb(99.607843%,80%,36.470588%);fill-opacity:1;" d="M 11.789062 18.617188 L 11.007812 17.835938 C 10.847656 17.675781 10.847656 17.410156 11.007812 17.25 L 11.789062 16.46875 C 11.953125 16.308594 12.214844 16.308594 12.375 16.46875 L 13.15625 17.25 C 13.316406 17.410156 13.316406 17.671875 13.15625 17.835938 L 12.375 18.617188 C 12.214844 18.777344 11.953125 18.777344 11.789062 18.617188 Z M 11.789062 18.617188 "/>
<path style=" stroke:none;fill-rule:nonzero;fill:rgb(26.27451%,51.764706%,92.54902%);fill-opacity:1;" d="M 7.914062 14.722656 L 7.660156 17.21875 C 7.632812 17.476562 7.851562 17.6875 8.109375 17.65625 L 8.398438 17.617188 C 8.5625 17.597656 8.65625 17.808594 8.523438 17.914062 L 8.058594 18.289062 C 7.90625 18.410156 7.863281 18.621094 7.953125 18.789062 L 10.753906 24.097656 L 11.746094 24.097656 L 9.148438 14.144531 Z M 7.914062 14.722656 "/>
<path style=" stroke:none;fill-rule:nonzero;fill:rgb(26.27451%,51.764706%,92.54902%);fill-opacity:1;" d="M 16.257812 14.722656 L 16.515625 17.21875 C 16.542969 17.476562 16.320312 17.6875 16.066406 17.65625 L 15.777344 17.617188 C 15.609375 17.597656 15.519531 17.808594 15.652344 17.914062 L 16.117188 18.289062 C 16.265625 18.410156 16.308594 18.621094 16.21875 18.789062 L 13.421875 24.097656 L 12.425781 24.097656 L 15.027344 14.144531 Z M 16.257812 14.722656 "/>
<path style=" stroke:none;fill-rule:nonzero;fill:rgb(90.980392%,90.196078%,90.196078%);fill-opacity:1;" d="M 10.230469 12.128906 C 10.230469 12.128906 10.425781 13.011719 10.230469 13.414062 L 11.101562 14.054688 C 11.753906 14.53125 12.667969 14.355469 13.105469 13.679688 C 13.386719 13.242188 13.667969 12.710938 13.839844 12.128906 C 14.292969 10.605469 9.972656 10.535156 10.230469 12.128906 Z M 10.230469 12.128906 "/>
<path style=" stroke:none;fill-rule:nonzero;fill:rgb(95.294118%,95.294118%,95.294118%);fill-opacity:1;" d="M 15.800781 6.429688 C 15.800781 8.492188 15.28125 12.757812 12.003906 12.757812 C 8.730469 12.757812 8.210938 8.492188 8.210938 6.429688 C 8.210938 4.363281 9.910156 2.691406 12.003906 2.691406 C 14.101562 2.691406 15.800781 4.363281 15.800781 6.429688 Z M 15.800781 6.429688 "/>
<path style=" stroke:none;fill-rule:nonzero;fill:rgb(90.980392%,90.196078%,90.196078%);fill-opacity:1;" d="M 8.746094 10.015625 C 8.746094 10.015625 12.226562 8.941406 12.960938 6.804688 C 12.960938 6.804688 14.066406 8.507812 15.5625 8.898438 C 15.5625 8.898438 16.261719 5.578125 14.472656 4.667969 C 12.683594 3.757812 6.867188 4.402344 8.746094 10.015625 Z M 8.746094 10.015625 "/>
<path style=" stroke:none;fill-rule:nonzero;fill:rgb(14.901961%,40%,80.784314%);fill-opacity:1;" d="M 12.828125 5.550781 C 12.828125 5.550781 12.632812 7.574219 8.066406 9.203125 C 6.339844 5.640625 9.125 0.183594 13.585938 2.691406 C 13.585938 2.691406 17.015625 2.84375 15.929688 8.332031 C 15.929688 8.332031 14.273438 7.539062 12.828125 5.550781 Z M 12.828125 5.550781 "/>
</g>
</svg>
