<?xml version="1.0" encoding="UTF-8"?>
<svg xmlns="http://www.w3.org/2000/svg" xmlns:xlink="http://www.w3.org/1999/xlink" width="25px" height="25px" viewBox="0 0 25 25" version="1.1">
<g id="surface1">
<path style=" stroke:none;fill-rule:nonzero;fill:rgb(37.254902%,80.784314%,100%);fill-opacity:1;" d="M 22.710938 2.316406 C 23.480469 3.066406 23.496094 4.300781 22.746094 5.070312 L 19.492188 8.324219 L 15.71875 12.101562 L 10.359375 17.457031 L 6.414062 18.738281 L 7.605469 14.699219 L 16.527344 5.777344 L 19.957031 2.351562 C 20.707031 1.582031 21.941406 1.5625 22.710938 2.316406 Z M 22.710938 2.316406 "/>
<path style=" stroke:none;fill-rule:nonzero;fill:rgb(54.509804%,52.941176%,75.686275%);fill-opacity:1;" d="M 20.324219 12.933594 L 21.566406 19.789062 L 20.277344 21.074219 L 15.71875 12.101562 L 19.492188 8.324219 Z M 16.527344 5.777344 L 12.863281 9.441406 L 4.285156 5.082031 L 5.574219 3.796875 Z M 16.527344 5.777344 "/>
<path style=" stroke:none;fill-rule:nonzero;fill:rgb(100%,70.980392%,47.058824%);fill-opacity:1;" d="M 10.359375 17.457031 L 9.726562 21.941406 L 8.347656 23.324219 L 6.414062 18.738281 Z M 10.359375 17.457031 "/>
<path style=" stroke:none;fill-rule:nonzero;fill:rgb(100%,28.235294%,57.647059%);fill-opacity:1;" d="M 7.605469 14.699219 L 6.414062 18.738281 L 1.796875 16.769531 L 3.199219 15.410156 Z M 7.605469 14.699219 "/>
<path style=" stroke:none;fill-rule:nonzero;fill:rgb(30.980392%,27.45098%,63.921569%);fill-opacity:1;" d="M 12.863281 9.988281 C 12.777344 9.988281 12.691406 9.96875 12.617188 9.929688 L 4.039062 5.570312 C 3.882812 5.492188 3.773438 5.339844 3.746094 5.167969 C 3.71875 4.996094 3.777344 4.820312 3.898438 4.695312 L 5.1875 3.410156 C 5.3125 3.28125 5.496094 3.226562 5.671875 3.257812 L 16.625 5.238281 C 16.921875 5.292969 17.117188 5.578125 17.066406 5.875 C 17.039062 6.015625 16.957031 6.144531 16.839844 6.226562 C 16.71875 6.308594 16.574219 6.339844 16.429688 6.3125 L 5.757812 4.382812 L 5.203125 4.9375 L 13.109375 8.957031 C 13.335938 9.070312 13.453125 9.324219 13.394531 9.570312 C 13.335938 9.816406 13.117188 9.988281 12.863281 9.988281 Z M 20.277344 21.621094 C 20.074219 21.621094 19.882812 21.507812 19.792969 21.324219 L 15.230469 12.347656 C 15.140625 12.171875 15.148438 11.964844 15.257812 11.800781 C 15.363281 11.632812 15.550781 11.539062 15.746094 11.550781 C 15.941406 11.5625 16.117188 11.675781 16.203125 11.851562 L 20.425781 20.15625 L 20.976562 19.605469 L 18.953125 8.421875 C 18.902344 8.125 19.097656 7.84375 19.394531 7.789062 C 19.691406 7.734375 19.976562 7.929688 20.027344 8.226562 L 22.105469 19.691406 C 22.136719 19.867188 22.078125 20.046875 21.953125 20.175781 L 20.664062 21.460938 C 20.5625 21.566406 20.421875 21.621094 20.277344 21.621094 Z M 20.277344 21.621094 "/>
<path style=" stroke:none;fill-rule:nonzero;fill:rgb(30.980392%,27.45098%,63.921569%);fill-opacity:1;" d="M 8.347656 23.871094 C 8.128906 23.871094 7.929688 23.738281 7.84375 23.535156 L 5.996094 19.15625 L 1.582031 17.273438 C 1.414062 17.203125 1.292969 17.050781 1.257812 16.871094 C 1.226562 16.691406 1.285156 16.507812 1.414062 16.378906 L 2.816406 15.019531 C 2.898438 14.941406 3 14.890625 3.109375 14.871094 L 7.34375 14.1875 L 19.570312 1.964844 C 20.039062 1.484375 20.671875 1.214844 21.351562 1.214844 C 22.003906 1.214844 22.625 1.46875 23.09375 1.925781 C 23.570312 2.390625 23.835938 3.011719 23.84375 3.679688 C 23.855469 4.34375 23.601562 4.976562 23.136719 5.453125 L 10.875 17.714844 L 10.269531 22.019531 C 10.253906 22.136719 10.199219 22.246094 10.113281 22.328125 L 8.734375 23.710938 C 8.632812 23.8125 8.492188 23.871094 8.347656 23.871094 Z M 2.765625 16.589844 L 6.628906 18.234375 C 6.757812 18.292969 6.863281 18.394531 6.917969 18.527344 L 8.535156 22.363281 L 9.210938 21.683594 L 9.820312 17.378906 C 9.835938 17.261719 9.890625 17.15625 9.972656 17.070312 L 22.359375 4.683594 C 22.617188 4.421875 22.757812 4.066406 22.753906 3.691406 C 22.75 3.320312 22.597656 2.964844 22.328125 2.707031 C 22.066406 2.449219 21.71875 2.308594 21.351562 2.308594 C 20.972656 2.308594 20.609375 2.460938 20.347656 2.730469 L 7.992188 15.085938 C 7.910156 15.167969 7.804688 15.222656 7.691406 15.238281 L 3.453125 15.925781 Z M 20.324219 13.480469 C 20.105469 13.480469 19.90625 13.347656 19.820312 13.140625 C 19.738281 12.9375 19.785156 12.703125 19.941406 12.546875 L 21.546875 10.9375 C 21.6875 10.796875 21.886719 10.742188 22.078125 10.789062 C 22.269531 10.839844 22.417969 10.988281 22.46875 11.179688 C 22.519531 11.371094 22.460938 11.574219 22.320312 11.710938 L 20.710938 13.320312 C 20.609375 13.421875 20.472656 13.480469 20.324219 13.480469 Z M 21.042969 16.40625 C 20.824219 16.40625 20.625 16.273438 20.539062 16.070312 C 20.453125 15.863281 20.5 15.628906 20.65625 15.472656 L 22.265625 13.863281 C 22.480469 13.65625 22.824219 13.65625 23.035156 13.867188 C 23.246094 14.078125 23.25 14.421875 23.039062 14.636719 L 21.429688 16.246094 C 21.328125 16.347656 21.1875 16.40625 21.042969 16.40625 Z M 12.269531 5.421875 C 12.046875 5.421875 11.847656 5.289062 11.761719 5.085938 C 11.679688 4.878906 11.726562 4.644531 11.882812 4.488281 L 13.492188 2.882812 C 13.628906 2.738281 13.832031 2.683594 14.019531 2.734375 C 14.210938 2.785156 14.359375 2.933594 14.410156 3.125 C 14.460938 3.3125 14.402344 3.515625 14.261719 3.652344 L 12.65625 5.261719 C 12.550781 5.363281 12.414062 5.421875 12.269531 5.421875 Z M 9.34375 4.707031 C 9.121094 4.707031 8.921875 4.570312 8.839844 4.367188 C 8.753906 4.164062 8.800781 3.929688 8.957031 3.773438 L 10.566406 2.164062 C 10.777344 1.953125 11.121094 1.957031 11.332031 2.167969 C 11.546875 2.378906 11.546875 2.722656 11.335938 2.9375 L 9.730469 4.546875 C 9.625 4.648438 9.488281 4.707031 9.34375 4.707031 Z M 9.34375 4.707031 "/>
<path style=" stroke:none;fill-rule:nonzero;fill:rgb(30.980392%,27.45098%,63.921569%);fill-opacity:1;" d="M 6.414062 19.285156 C 6.144531 19.285156 5.917969 19.089844 5.875 18.824219 C 5.832031 18.558594 5.988281 18.300781 6.246094 18.21875 L 10.191406 16.9375 C 10.480469 16.84375 10.789062 17 10.878906 17.289062 C 10.972656 17.574219 10.816406 17.882812 10.53125 17.976562 L 6.582031 19.257812 C 6.527344 19.277344 6.472656 19.285156 6.414062 19.285156 Z M 6.414062 19.285156 "/>
<path style=" stroke:none;fill-rule:nonzero;fill:rgb(30.980392%,27.45098%,63.921569%);fill-opacity:1;" d="M 6.414062 19.285156 C 6.242188 19.285156 6.078125 19.203125 5.976562 19.066406 C 5.871094 18.929688 5.839844 18.75 5.890625 18.582031 L 7.082031 14.546875 C 7.167969 14.257812 7.46875 14.089844 7.757812 14.175781 C 8.046875 14.261719 8.214844 14.566406 8.128906 14.855469 L 6.9375 18.894531 C 6.871094 19.125 6.65625 19.285156 6.414062 19.285156 Z M 6.414062 19.285156 "/>
</g>
</svg>
