<?xml version="1.0" encoding="UTF-8"?>
<svg xmlns="http://www.w3.org/2000/svg" xmlns:xlink="http://www.w3.org/1999/xlink" width="25px" height="25px" viewBox="0 0 25 25" version="1.1">
<g id="surface1">
<path style=" stroke:none;fill-rule:nonzero;fill:rgb(100%,76.862745%,30.196078%);fill-opacity:1;" d="M 17.1875 5.296875 C 19.539062 6.828125 21.09375 9.484375 21.09375 12.5 C 21.09375 15.515625 19.539062 18.171875 17.1875 19.703125 C 15.84375 20.585938 14.234375 21.09375 12.5 21.09375 C 10.765625 21.09375 9.15625 20.585938 7.8125 19.703125 C 5.460938 18.171875 3.90625 15.515625 3.90625 12.5 C 3.90625 9.484375 5.460938 6.828125 7.8125 5.296875 C 9.15625 4.414062 10.765625 3.90625 12.5 3.90625 C 14.234375 3.90625 15.84375 4.414062 17.1875 5.296875 Z M 17.1875 5.296875 "/>
<path style=" stroke:none;fill-rule:nonzero;fill:rgb(40%,50.196078%,46.666667%);fill-opacity:1;" d="M 17.1875 19.703125 L 17.1875 23.828125 C 17.1875 24.046875 17.015625 24.21875 16.796875 24.21875 L 8.203125 24.21875 C 7.984375 24.21875 7.8125 24.046875 7.8125 23.828125 L 7.8125 19.703125 C 9.15625 20.585938 10.765625 21.09375 12.5 21.09375 C 14.234375 21.09375 15.84375 20.585938 17.1875 19.703125 Z M 17.1875 1.171875 L 17.1875 5.296875 C 15.84375 4.414062 14.234375 3.90625 12.5 3.90625 C 10.765625 3.90625 9.15625 4.414062 7.8125 5.296875 L 7.8125 1.171875 C 7.8125 0.960938 7.984375 0.78125 8.203125 0.78125 L 16.796875 0.78125 C 17.015625 0.78125 17.1875 0.960938 17.1875 1.171875 Z M 17.1875 1.171875 "/>
<path style="fill:none;stroke-width:2;stroke-linecap:round;stroke-linejoin:round;stroke:rgb(0%,0%,0%);stroke-opacity:1;stroke-miterlimit:4;" d="M 16 9 L 16 16.005 L 19 19 M 10 3 L 10 1.505 C 10 1.23 10.225 1 10.5 1 L 21.5 1 C 21.775 1 22 1.23 22 1.505 L 22 3 M 22 29 L 22 30.505 C 22 30.78 21.775 31 21.5 31 L 10.5 31 C 10.225 31 10 30.78 10 30.505 L 10 29 M 27 16.005 C 27 9.93 22.075 5.005 16 5.005 C 9.925 5.005 5 9.93 5 16.005 C 5 22.08 9.925 27.005 16 27.005 C 22.075 27.005 27 22.08 27 16.005 Z M 27 16.005 " transform="matrix(0.78125,0,0,0.78125,0,0)"/>
</g>
</svg>
