<?xml version="1.0" encoding="UTF-8"?>
<svg xmlns="http://www.w3.org/2000/svg" xmlns:xlink="http://www.w3.org/1999/xlink" width="35px" height="35px" viewBox="0 0 35 35" version="1.1">
<g id="surface1">
<path style=" stroke:none;fill-rule:nonzero;fill:rgb(0%,0%,0%);fill-opacity:1;" d="M 20.414062 7.714844 L 18.960938 7.714844 C 18.960938 8.355469 19.378906 8.925781 20.003906 9.113281 Z M 22.355469 8.515625 L 21.660156 9.800781 C 22.226562 10.105469 22.929688 10.003906 23.390625 9.550781 Z M 23.6875 7.1875 L 22.65625 6.160156 Z M 25.746094 7.1875 L 24.71875 8.21875 Z M 27.816406 9.253906 L 28.839844 8.21875 Z M 27.816406 11.308594 L 26.785156 10.28125 Z M 26.480469 12.648438 L 25.449219 11.609375 C 24.996094 12.070312 24.894531 12.773438 25.199219 13.339844 Z M 27.285156 14.585938 L 25.886719 15 C 26.074219 15.621094 26.644531 16.039062 27.285156 16.039062 Z M 27.285156 20.414062 L 27.285156 18.960938 C 26.644531 18.960938 26.074219 19.378906 25.886719 20.003906 Z M 26.480469 22.355469 L 25.199219 21.660156 C 24.894531 22.226562 24.996094 22.929688 25.449219 23.390625 Z M 27.816406 23.691406 L 28.839844 22.65625 Z M 27.816406 25.746094 L 26.785156 24.71875 Z M 25.746094 27.816406 L 26.785156 28.839844 Z M 22.355469 26.480469 L 23.390625 25.449219 C 22.929688 24.996094 22.226562 24.894531 21.660156 25.199219 Z M 20.414062 27.285156 L 20.003906 25.886719 C 19.378906 26.074219 18.960938 26.644531 18.960938 27.285156 Z M 14.585938 27.285156 L 16.039062 27.285156 C 16.039062 26.644531 15.621094 26.074219 15 25.886719 Z M 12.648438 26.480469 L 13.339844 25.199219 C 12.773438 24.894531 12.070312 24.996094 11.609375 25.449219 Z M 11.3125 27.8125 L 10.28125 26.785156 Z M 9.253906 27.8125 L 8.21875 28.839844 Z M 7.1875 25.746094 L 6.160156 26.785156 Z M 7.1875 23.6875 L 6.160156 22.65625 Z M 8.515625 22.355469 L 9.550781 23.390625 C 10.003906 22.929688 10.105469 22.226562 9.800781 21.660156 Z M 7.714844 20.414062 L 9.113281 20.003906 C 8.925781 19.378906 8.355469 18.960938 7.714844 18.960938 Z M 7.714844 14.585938 L 7.714844 16.039062 C 8.355469 16.039062 8.925781 15.621094 9.113281 15 Z M 8.515625 12.648438 L 9.800781 13.339844 C 10.105469 12.773438 10.003906 12.070312 9.550781 11.609375 Z M 7.1875 11.3125 L 6.160156 12.34375 Z M 7.1875 9.253906 L 8.21875 10.28125 Z M 9.253906 7.1875 L 10.28125 8.21875 Z M 11.3125 7.1875 L 12.34375 6.160156 Z M 12.648438 8.515625 L 11.609375 9.550781 C 12.070312 10.003906 12.773438 10.105469 13.339844 9.800781 Z M 14.585938 7.714844 L 15 9.113281 C 15.621094 8.925781 16.039062 8.355469 16.039062 7.714844 Z M 16.039062 2.914062 C 14.429688 2.914062 13.125 4.222656 13.125 5.835938 L 16.039062 5.835938 Z M 18.960938 2.914062 L 16.039062 2.914062 L 16.039062 5.835938 L 18.960938 5.835938 Z M 21.875 5.835938 C 21.875 4.222656 20.570312 2.914062 18.960938 2.914062 L 18.960938 5.835938 Z M 21.875 7.714844 L 21.875 5.835938 L 18.960938 5.835938 L 18.960938 7.714844 Z M 23.050781 7.234375 C 22.355469 6.855469 21.613281 6.546875 20.832031 6.316406 L 20.003906 9.113281 C 20.578125 9.28125 21.140625 9.519531 21.660156 9.800781 Z M 22.65625 6.160156 L 21.324219 7.488281 L 23.390625 9.550781 L 24.71875 8.21875 Z M 26.785156 6.160156 C 25.640625 5.015625 23.792969 5.015625 22.65625 6.160156 L 24.71875 8.21875 Z M 28.839844 8.21875 L 26.785156 6.160156 L 24.71875 8.21875 L 26.785156 10.28125 Z M 28.839844 12.34375 C 29.984375 11.207031 29.984375 9.359375 28.839844 8.21875 L 26.785156 10.28125 Z M 27.511719 13.675781 L 28.839844 12.34375 L 26.785156 10.28125 L 25.449219 11.609375 Z M 28.683594 14.167969 C 28.453125 13.386719 28.144531 12.648438 27.765625 11.949219 L 25.199219 13.339844 C 25.480469 13.859375 25.71875 14.421875 25.886719 15 Z M 27.285156 16.039062 L 29.164062 16.039062 L 29.164062 13.125 L 27.285156 13.125 Z M 29.164062 16.039062 L 32.085938 16.039062 C 32.085938 14.429688 30.773438 13.125 29.164062 13.125 Z M 29.164062 16.039062 L 29.164062 18.960938 L 32.085938 18.960938 L 32.085938 16.039062 Z M 29.164062 18.960938 L 29.164062 21.875 C 30.773438 21.875 32.085938 20.570312 32.085938 18.960938 Z M 29.164062 18.960938 L 27.285156 18.960938 L 27.285156 21.875 L 29.164062 21.875 Z M 27.765625 23.050781 C 28.144531 22.355469 28.453125 21.613281 28.683594 20.832031 L 25.886719 20.003906 C 25.71875 20.578125 25.480469 21.140625 25.199219 21.660156 Z M 28.839844 22.65625 L 27.511719 21.324219 L 25.449219 23.390625 L 26.785156 24.71875 Z M 28.839844 26.785156 C 29.984375 25.640625 29.984375 23.792969 28.839844 22.65625 L 26.785156 24.71875 Z M 26.785156 28.839844 L 28.839844 26.785156 L 26.785156 24.71875 L 24.71875 26.785156 Z M 22.65625 28.839844 C 23.792969 29.984375 25.640625 29.984375 26.785156 28.839844 L 24.71875 26.785156 Z M 21.324219 27.511719 L 22.65625 28.839844 L 24.71875 26.785156 L 23.390625 25.449219 Z M 20.832031 28.683594 C 21.613281 28.453125 22.355469 28.144531 23.050781 27.765625 L 21.660156 25.199219 C 21.140625 25.480469 20.578125 25.71875 20.003906 25.886719 Z M 21.875 29.164062 L 21.875 27.285156 L 18.960938 27.285156 L 18.960938 29.164062 Z M 18.960938 32.085938 C 20.570312 32.085938 21.875 30.773438 21.875 29.164062 L 18.960938 29.164062 Z M 16.039062 32.085938 L 18.960938 32.085938 L 18.960938 29.164062 L 16.039062 29.164062 Z M 13.125 29.164062 C 13.125 30.773438 14.429688 32.085938 16.039062 32.085938 L 16.039062 29.164062 Z M 13.125 27.285156 L 13.125 29.164062 L 16.039062 29.164062 L 16.039062 27.285156 Z M 11.949219 27.765625 C 12.648438 28.144531 13.386719 28.453125 14.167969 28.683594 L 15 25.886719 C 14.421875 25.71875 13.859375 25.480469 13.339844 25.199219 Z M 12.34375 28.839844 L 13.675781 27.511719 L 11.609375 25.449219 L 10.28125 26.785156 Z M 8.21875 28.839844 C 9.359375 29.984375 11.207031 29.984375 12.34375 28.839844 L 10.28125 26.785156 Z M 6.160156 26.785156 L 8.21875 28.839844 L 10.28125 26.785156 L 8.21875 24.71875 Z M 6.160156 22.65625 C 5.015625 23.792969 5.015625 25.640625 6.160156 26.785156 L 8.21875 24.71875 Z M 7.488281 21.324219 L 6.160156 22.65625 L 8.21875 24.71875 L 9.550781 23.390625 Z M 6.316406 20.832031 C 6.546875 21.613281 6.855469 22.355469 7.234375 23.050781 L 9.800781 21.660156 C 9.519531 21.140625 9.28125 20.578125 9.113281 20.003906 Z M 7.714844 18.960938 L 5.835938 18.960938 L 5.835938 21.875 L 7.714844 21.875 Z M 5.835938 18.960938 L 2.914062 18.960938 C 2.914062 20.570312 4.222656 21.875 5.835938 21.875 Z M 5.835938 18.960938 L 5.835938 16.039062 L 2.914062 16.039062 L 2.914062 18.960938 Z M 5.835938 16.039062 L 5.835938 13.125 C 4.222656 13.125 2.914062 14.429688 2.914062 16.039062 Z M 5.835938 16.039062 L 7.714844 16.039062 L 7.714844 13.125 L 5.835938 13.125 Z M 7.234375 11.949219 C 6.855469 12.648438 6.546875 13.386719 6.316406 14.167969 L 9.113281 15 C 9.28125 14.421875 9.519531 13.859375 9.800781 13.339844 Z M 6.160156 12.34375 L 7.488281 13.675781 L 9.550781 11.609375 L 8.21875 10.28125 Z M 6.160156 8.21875 C 5.015625 9.359375 5.015625 11.207031 6.160156 12.34375 L 8.21875 10.28125 Z M 8.21875 6.160156 L 6.160156 8.21875 L 8.21875 10.28125 L 10.28125 8.21875 Z M 12.34375 6.160156 C 11.207031 5.015625 9.359375 5.015625 8.21875 6.160156 L 10.28125 8.21875 Z M 13.675781 7.488281 L 12.34375 6.160156 L 10.28125 8.21875 L 11.609375 9.550781 Z M 14.167969 6.316406 C 13.386719 6.546875 12.648438 6.855469 11.949219 7.234375 L 13.339844 9.800781 C 13.859375 9.519531 14.421875 9.28125 15 9.113281 Z M 13.125 5.835938 L 13.125 7.714844 L 16.039062 7.714844 L 16.039062 5.835938 Z M 13.125 5.835938 "/>
<path style="fill:none;stroke-width:2;stroke-linecap:round;stroke-linejoin:round;stroke:rgb(0%,0%,0%);stroke-opacity:1;stroke-miterlimit:4;" d="M 14.999997 11.999998 C 14.999997 13.658033 13.658033 14.999997 11.999998 14.999997 C 10.341962 14.999997 8.999998 13.658033 8.999998 11.999998 C 8.999998 10.341962 10.341962 8.999998 11.999998 8.999998 C 13.658033 8.999998 14.999997 10.341962 14.999997 11.999998 Z M 14.999997 11.999998 " transform="matrix(1.458334,0,0,1.458334,0,0)"/>
</g>
</svg>
