<?xml version="1.0" encoding="UTF-8"?>
<svg xmlns="http://www.w3.org/2000/svg" xmlns:xlink="http://www.w3.org/1999/xlink" width="25px" height="25px" viewBox="0 0 25 25" version="1.1">
<defs>
<filter id="alpha" filterUnits="objectBoundingBox" x="0%" y="0%" width="100%" height="100%">
  <feColorMatrix type="matrix" in="SourceGraphic" values="0 0 0 0 1 0 0 0 0 1 0 0 0 0 1 0 0 0 1 0"/>
</filter>
<mask id="mask0">
  <g filter="url(#alpha)">
<rect x="0" y="0" width="25" height="25" style="fill:rgb(0%,0%,0%);fill-opacity:0.301961;stroke:none;"/>
  </g>
</mask>
<clipPath id="clip1">
  <rect x="0" y="0" width="25" height="25"/>
</clipPath>
<g id="surface5" clip-path="url(#clip1)">
<path style=" stroke:none;fill-rule:nonzero;fill:rgb(0%,0%,0%);fill-opacity:1;" d="M 13.105469 21.414062 C 12.851562 21.648438 12.644531 21.832031 12.5 21.960938 C 11.871094 21.402344 10.082031 19.773438 8.246094 17.679688 C 7.132812 16.410156 6.1875 15.183594 5.429688 14.023438 L 7.226562 14.023438 C 7.226562 14.023438 7.230469 14.023438 7.234375 14.023438 C 7.242188 14.023438 7.25 14.023438 7.257812 14.019531 C 7.261719 14.019531 7.265625 14.019531 7.273438 14.019531 C 7.277344 14.019531 7.285156 14.019531 7.292969 14.015625 C 7.300781 14.015625 7.304688 14.015625 7.308594 14.011719 C 7.316406 14.011719 7.320312 14.011719 7.328125 14.007812 C 7.332031 14.007812 7.335938 14.003906 7.34375 14.003906 C 7.347656 14 7.355469 14 7.359375 13.996094 C 7.367188 13.996094 7.371094 13.992188 7.375 13.992188 C 7.382812 13.988281 7.386719 13.984375 7.394531 13.980469 C 7.398438 13.980469 7.402344 13.976562 7.40625 13.976562 C 7.414062 13.972656 7.417969 13.96875 7.425781 13.964844 C 7.429688 13.960938 7.433594 13.960938 7.433594 13.957031 C 7.441406 13.953125 7.449219 13.949219 7.453125 13.941406 C 7.457031 13.941406 7.460938 13.9375 7.464844 13.933594 C 7.46875 13.929688 7.476562 13.925781 7.480469 13.917969 C 7.484375 13.917969 7.488281 13.914062 7.488281 13.910156 C 7.496094 13.90625 7.5 13.898438 7.503906 13.894531 C 7.507812 13.890625 7.511719 13.886719 7.515625 13.882812 C 7.519531 13.878906 7.523438 13.871094 7.527344 13.867188 C 7.53125 13.863281 7.53125 13.855469 7.535156 13.851562 C 7.539062 13.847656 7.539062 13.84375 7.542969 13.84375 L 7.996094 13.066406 C 8.402344 15.351562 9.851562 18.125 13.105469 21.414062 Z M 13.105469 21.414062 "/>
</g>
<mask id="mask1">
  <g filter="url(#alpha)">
<rect x="0" y="0" width="25" height="25" style="fill:rgb(0%,0%,0%);fill-opacity:0.301961;stroke:none;"/>
  </g>
</mask>
<clipPath id="clip2">
  <rect x="0" y="0" width="25" height="25"/>
</clipPath>
<g id="surface8" clip-path="url(#clip2)">
<path style=" stroke:none;fill-rule:nonzero;fill:rgb(0%,0%,0%);fill-opacity:1;" d="M 7.015625 13.289062 L 4.96875 13.289062 C 3.984375 11.648438 3.386719 10.152344 3.203125 8.847656 C 3.203125 8.847656 3.203125 8.84375 3.203125 8.84375 C 3.203125 8.84375 3.203125 8.839844 3.203125 8.839844 C 3.203125 8.835938 3.203125 8.832031 3.203125 8.832031 C 3.203125 8.828125 3.203125 8.824219 3.199219 8.820312 C 3.164062 8.578125 3.144531 8.328125 3.144531 8.082031 C 3.144531 5.300781 5.519531 3.039062 8.441406 3.039062 C 9.886719 3.039062 11.238281 3.585938 12.242188 4.574219 C 12.246094 4.578125 12.25 4.578125 12.253906 4.582031 C 12.257812 4.585938 12.265625 4.589844 12.269531 4.597656 C 12.273438 4.597656 12.277344 4.601562 12.28125 4.605469 C 12.289062 4.609375 12.292969 4.613281 12.296875 4.617188 C 12.304688 4.621094 12.308594 4.625 12.3125 4.625 C 12.320312 4.628906 12.324219 4.632812 12.328125 4.636719 C 12.335938 4.636719 12.339844 4.640625 12.34375 4.644531 C 12.351562 4.644531 12.355469 4.648438 12.363281 4.652344 L 12.378906 4.65625 L 12.394531 4.664062 C 12.402344 4.664062 12.40625 4.664062 12.414062 4.667969 C 12.417969 4.667969 12.425781 4.667969 12.429688 4.671875 C 12.433594 4.671875 12.441406 4.671875 12.445312 4.671875 C 12.453125 4.675781 12.460938 4.675781 12.464844 4.675781 C 12.46875 4.675781 12.476562 4.675781 12.480469 4.675781 C 12.488281 4.675781 12.496094 4.679688 12.5 4.679688 C 12.503906 4.679688 12.511719 4.675781 12.515625 4.675781 C 12.523438 4.675781 12.527344 4.675781 12.535156 4.675781 C 12.535156 4.675781 7.773438 6.945312 7.875 11.832031 Z M 7.015625 13.289062 "/>
</g>
<mask id="mask2">
  <g filter="url(#alpha)">
<rect x="0" y="0" width="25" height="25" style="fill:rgb(0%,0%,0%);fill-opacity:0.701961;stroke:none;"/>
  </g>
</mask>
<clipPath id="clip3">
  <rect x="0" y="0" width="25" height="25"/>
</clipPath>
<g id="surface11" clip-path="url(#clip3)">
<path style=" stroke:none;fill-rule:nonzero;fill:rgb(100%,100%,100%);fill-opacity:1;" d="M 17.027344 14.023438 L 19.570312 14.023438 C 18.8125 15.183594 17.867188 16.410156 16.753906 17.679688 C 15.339844 19.292969 13.953125 20.628906 13.105469 21.414062 Z M 17.027344 14.023438 "/>
</g>
<mask id="mask3">
  <g filter="url(#alpha)">
<rect x="0" y="0" width="25" height="25" style="fill:rgb(0%,0%,0%);fill-opacity:0.701961;stroke:none;"/>
  </g>
</mask>
<clipPath id="clip4">
  <rect x="0" y="0" width="25" height="25"/>
</clipPath>
<g id="surface14" clip-path="url(#clip4)">
<path style=" stroke:none;fill-rule:nonzero;fill:rgb(100%,100%,100%);fill-opacity:1;" d="M 21.855469 8.082031 C 21.855469 8.328125 21.835938 8.578125 21.800781 8.820312 C 21.796875 8.828125 21.796875 8.828125 21.796875 8.832031 L 21.796875 8.84375 C 21.796875 8.84375 21.796875 8.84375 21.792969 8.847656 C 21.613281 10.152344 21.015625 11.648438 20.03125 13.289062 L 17.414062 13.289062 L 19.261719 9.8125 L 18.871094 5.457031 L 12.652344 4.644531 C 12.660156 4.640625 12.664062 4.640625 12.671875 4.636719 C 12.675781 4.632812 12.679688 4.628906 12.6875 4.625 C 12.691406 4.625 12.695312 4.621094 12.703125 4.617188 C 12.707031 4.613281 12.710938 4.609375 12.714844 4.605469 C 12.722656 4.601562 12.726562 4.597656 12.730469 4.59375 C 12.734375 4.589844 12.742188 4.585938 12.746094 4.582031 C 12.75 4.578125 12.753906 4.578125 12.757812 4.574219 C 13.761719 3.585938 15.113281 3.039062 16.558594 3.039062 C 19.480469 3.039062 21.855469 5.300781 21.855469 8.082031 Z M 21.855469 8.082031 "/>
</g>
<mask id="mask4">
  <g filter="url(#alpha)">
<rect x="0" y="0" width="25" height="25" style="fill:rgb(0%,0%,0%);fill-opacity:0.301961;stroke:none;"/>
  </g>
</mask>
<clipPath id="clip5">
  <rect x="0" y="0" width="25" height="25"/>
</clipPath>
<g id="surface17" clip-path="url(#clip5)">
<path style=" stroke:none;fill-rule:nonzero;fill:rgb(0%,0%,0%);fill-opacity:1;" d="M 13.164062 16.195312 L 11.671875 12.21875 L 10.210938 14.730469 L 11.914062 9.8125 Z M 13.164062 16.195312 "/>
</g>
<mask id="mask5">
  <g filter="url(#alpha)">
<rect x="0" y="0" width="25" height="25" style="fill:rgb(0%,0%,0%);fill-opacity:0.301961;stroke:none;"/>
  </g>
</mask>
<clipPath id="clip6">
  <rect x="0" y="0" width="25" height="25"/>
</clipPath>
<g id="surface20" clip-path="url(#clip6)">
<path style=" stroke:none;fill-rule:nonzero;fill:rgb(0%,0%,0%);fill-opacity:1;" d="M 16.164062 14.023438 L 15.085938 13.730469 L 13.878906 16.222656 L 14.976562 12.324219 L 15.953125 13.851562 C 16 13.929688 16.070312 13.980469 16.152344 14.007812 Z M 16.164062 14.023438 "/>
</g>
<mask id="mask6">
  <g filter="url(#alpha)">
<rect x="0" y="0" width="25" height="25" style="fill:rgb(0%,0%,0%);fill-opacity:0.301961;stroke:none;"/>
  </g>
</mask>
<clipPath id="clip7">
  <rect x="0" y="0" width="25" height="25"/>
</clipPath>
<g id="surface23" clip-path="url(#clip7)">
<path style=" stroke:none;fill-rule:nonzero;fill:rgb(0%,0%,0%);fill-opacity:1;" d="M 9.542969 14.789062 L 8 13.074219 L 8.292969 12.5625 Z M 9.542969 14.789062 "/>
</g>
</defs>
<g id="surface1">
<path style=" stroke:none;fill-rule:nonzero;fill:rgb(100%,34.901961%,34.901961%);fill-opacity:1;" d="M 19.570312 14.023438 C 18.8125 15.183594 17.867188 16.410156 16.753906 17.679688 C 15.339844 19.292969 13.953125 20.628906 13.105469 21.414062 C 12.851562 21.648438 12.644531 21.832031 12.5 21.960938 C 11.871094 21.402344 10.082031 19.773438 8.246094 17.679688 C 7.132812 16.410156 6.1875 15.183594 5.429688 14.023438 L 7.226562 14.023438 C 7.226562 14.023438 7.230469 14.023438 7.234375 14.023438 C 7.242188 14.023438 7.25 14.023438 7.257812 14.019531 C 7.261719 14.019531 7.265625 14.019531 7.273438 14.019531 C 7.277344 14.019531 7.285156 14.019531 7.292969 14.015625 C 7.300781 14.015625 7.304688 14.015625 7.308594 14.011719 C 7.316406 14.011719 7.320312 14.011719 7.328125 14.007812 C 7.332031 14.007812 7.339844 14.003906 7.34375 14.003906 C 7.347656 14 7.355469 14 7.363281 13.996094 C 7.367188 13.996094 7.371094 13.992188 7.375 13.992188 C 7.382812 13.988281 7.386719 13.984375 7.394531 13.980469 C 7.398438 13.980469 7.402344 13.976562 7.40625 13.976562 C 7.414062 13.972656 7.417969 13.96875 7.425781 13.964844 C 7.429688 13.960938 7.433594 13.960938 7.4375 13.957031 C 7.441406 13.953125 7.449219 13.949219 7.453125 13.941406 C 7.457031 13.941406 7.460938 13.9375 7.464844 13.933594 C 7.46875 13.929688 7.476562 13.925781 7.480469 13.917969 C 7.484375 13.917969 7.488281 13.914062 7.488281 13.910156 C 7.496094 13.90625 7.5 13.898438 7.503906 13.894531 C 7.507812 13.890625 7.511719 13.886719 7.515625 13.882812 C 7.519531 13.878906 7.523438 13.871094 7.527344 13.867188 C 7.53125 13.863281 7.53125 13.855469 7.535156 13.851562 C 7.539062 13.847656 7.539062 13.84375 7.542969 13.84375 L 7.996094 13.066406 L 8.292969 12.5625 L 9.542969 14.789062 C 9.613281 14.914062 9.75 14.988281 9.894531 14.976562 C 10.039062 14.960938 10.164062 14.867188 10.210938 14.730469 L 11.914062 9.8125 L 13.164062 16.195312 C 13.199219 16.359375 13.339844 16.484375 13.511719 16.488281 C 13.515625 16.492188 13.519531 16.492188 13.523438 16.492188 C 13.6875 16.492188 13.832031 16.382812 13.878906 16.222656 L 14.976562 12.324219 L 15.953125 13.851562 C 16 13.929688 16.070312 13.980469 16.152344 14.007812 C 16.210938 14.023438 16.273438 14.027344 16.332031 14.015625 C 16.355469 14.019531 16.382812 14.023438 16.40625 14.023438 Z M 19.570312 14.023438 "/>
<path style=" stroke:none;fill-rule:nonzero;fill:rgb(100%,34.901961%,34.901961%);fill-opacity:1;" d="M 21.855469 8.082031 C 21.855469 8.328125 21.835938 8.578125 21.800781 8.820312 C 21.796875 8.828125 21.796875 8.828125 21.796875 8.832031 L 21.796875 8.84375 C 21.796875 8.84375 21.796875 8.84375 21.792969 8.847656 C 21.613281 10.152344 21.015625 11.648438 20.03125 13.289062 L 16.460938 13.289062 L 15.152344 11.238281 C 15.074219 11.117188 14.933594 11.054688 14.789062 11.074219 C 14.648438 11.09375 14.53125 11.199219 14.492188 11.335938 L 13.589844 14.546875 L 13.121094 12.167969 L 13.121094 12.164062 L 12.671875 9.875 L 12.371094 8.339844 C 12.339844 8.175781 12.203125 8.054688 12.039062 8.042969 C 11.871094 8.03125 11.71875 8.132812 11.664062 8.289062 L 11.492188 8.792969 L 10.570312 11.445312 L 9.785156 13.722656 L 8.621094 11.648438 C 8.554688 11.535156 8.433594 11.460938 8.304688 11.460938 L 8.300781 11.460938 C 8.171875 11.460938 8.050781 11.53125 7.984375 11.640625 L 7.875 11.832031 L 7.015625 13.289062 L 4.96875 13.289062 C 3.984375 11.648438 3.386719 10.152344 3.207031 8.847656 C 3.203125 8.847656 3.203125 8.84375 3.203125 8.84375 C 3.203125 8.84375 3.203125 8.839844 3.203125 8.839844 C 3.203125 8.835938 3.203125 8.832031 3.203125 8.832031 C 3.203125 8.828125 3.203125 8.824219 3.203125 8.820312 C 3.164062 8.578125 3.144531 8.328125 3.144531 8.082031 C 3.144531 5.300781 5.519531 3.039062 8.441406 3.039062 C 9.886719 3.039062 11.238281 3.585938 12.242188 4.574219 C 12.246094 4.578125 12.25 4.578125 12.253906 4.582031 C 12.257812 4.585938 12.265625 4.589844 12.269531 4.597656 C 12.273438 4.597656 12.277344 4.601562 12.28125 4.605469 C 12.289062 4.609375 12.292969 4.613281 12.300781 4.617188 C 12.304688 4.621094 12.308594 4.625 12.3125 4.625 C 12.320312 4.628906 12.324219 4.632812 12.328125 4.636719 C 12.335938 4.636719 12.339844 4.640625 12.34375 4.644531 C 12.351562 4.644531 12.355469 4.648438 12.363281 4.652344 L 12.378906 4.65625 L 12.394531 4.664062 C 12.402344 4.664062 12.40625 4.664062 12.414062 4.667969 C 12.417969 4.667969 12.425781 4.667969 12.429688 4.671875 C 12.4375 4.671875 12.441406 4.671875 12.445312 4.671875 C 12.453125 4.675781 12.460938 4.675781 12.464844 4.675781 C 12.472656 4.675781 12.476562 4.675781 12.480469 4.675781 C 12.488281 4.675781 12.496094 4.679688 12.5 4.679688 C 12.503906 4.679688 12.511719 4.675781 12.515625 4.675781 C 12.523438 4.675781 12.527344 4.675781 12.535156 4.675781 C 12.539062 4.675781 12.546875 4.675781 12.550781 4.675781 C 12.558594 4.671875 12.5625 4.671875 12.570312 4.671875 C 12.574219 4.671875 12.582031 4.667969 12.585938 4.667969 C 12.59375 4.664062 12.597656 4.664062 12.605469 4.664062 C 12.609375 4.660156 12.613281 4.660156 12.621094 4.65625 C 12.625 4.65625 12.632812 4.652344 12.636719 4.652344 C 12.644531 4.648438 12.648438 4.644531 12.652344 4.644531 C 12.660156 4.640625 12.664062 4.640625 12.671875 4.636719 C 12.675781 4.632812 12.679688 4.628906 12.6875 4.625 C 12.691406 4.625 12.695312 4.621094 12.703125 4.617188 C 12.707031 4.613281 12.710938 4.609375 12.714844 4.605469 C 12.722656 4.601562 12.726562 4.597656 12.730469 4.59375 C 12.734375 4.589844 12.742188 4.585938 12.746094 4.582031 C 12.75 4.578125 12.753906 4.578125 12.757812 4.574219 C 13.761719 3.585938 15.113281 3.039062 16.558594 3.039062 C 19.480469 3.039062 21.855469 5.300781 21.855469 8.082031 Z M 21.855469 8.082031 "/>
<use xlink:href="#surface5" mask="url(#mask0)"/>
<use xlink:href="#surface8" mask="url(#mask1)"/>
<use xlink:href="#surface11" mask="url(#mask2)"/>
<use xlink:href="#surface14" mask="url(#mask3)"/>
<use xlink:href="#surface17" mask="url(#mask4)"/>
<use xlink:href="#surface20" mask="url(#mask5)"/>
<use xlink:href="#surface23" mask="url(#mask6)"/>
</g>
</svg>
